*
%LPD*%
%LNBottomRouting*%
%FSLAX24Y24*%
%MOIN*%
%AD*%
%ADD11C,0.1*%
%ADD17C,0.07874*%
%ADD19C,0.09843*%
%ADD21C,0.00984*%
%ADD22C,0.03937*%
%ADD25C,0.01181*%
%ADD26C,0.05906*%
%ADD33C,0.00591*%
%ADD53C,0.01575*%
%ADD60C,0.0315*%
%ADD61C,0.04724*%
%ADD71C,0.015*%
%ADD80C,0.02362*%
%ADD195R,0.06693X0.06693*%
%ADD197O,0.11811X0.07874*%
%ADD199O,0.16X0.18*%
%ADD203C,0.06693*%
G54D11*
%SRX1Y1I0.0J0.0*%
G1X205044Y173331D3*
G1X203094Y173331D3*
G1X199894Y173331D3*
G1X197944Y173331D3*
G1X197744Y173331D3*
G1X204844Y173331D3*
G1X202894Y173331D3*
G1X199694Y173331D3*
G54D17*
G1X205083Y162097D3*
G1X207067Y162097D3*
G1X197732Y162097D3*
G1X195748Y162097D3*
G1X197732Y168159D3*
G1X195748Y168159D3*
G1X205083Y168159D3*
G1X207067Y168159D3*
G1X206772Y149360D3*
G1X206772Y148376D3*
G54D19*
G1X201398Y164163D3*
G1X201398Y166132D3*
G1X208963Y166909D2*
G54D21*
G1X208379Y166754D1*
G1X208371Y166752D1*
G1X208291Y166728D1*
G1X208225Y166675D1*
G1X208183Y166602D1*
G1X208171Y166518D1*
G1X208190Y166436D1*
G1X208657Y165970D1*
G1X208664Y165960D1*
G1X208739Y165872D1*
G1X208838Y165814D1*
G1X208952Y165792D1*
G1X209066Y165809D1*
G1X209168Y165862D1*
G1X209246Y165946D1*
G1X209293Y166052D1*
G1X209301Y166167D1*
G1X209301Y166171D1*
G1X209301Y166565D1*
G1X209282Y166681D1*
G1X209225Y166784D1*
G1X209138Y166863D1*
G1X209030Y166909D1*
G1X208963Y166909D1*
G1X208219Y166408D2*
G1X208219Y166664D1*
G1X208268Y166359D2*
G1X208268Y166709D1*
G1X208317Y166310D2*
G1X208317Y166736D1*
G1X208366Y166261D2*
G1X208366Y166751D1*
G1X208415Y166211D2*
G1X208415Y166763D1*
G1X208465Y166162D2*
G1X208465Y166777D1*
G1X208514Y166113D2*
G1X208514Y166790D1*
G1X208563Y166064D2*
G1X208563Y166803D1*
G1X208612Y166015D2*
G1X208612Y166816D1*
G1X208661Y165964D2*
G1X208661Y166829D1*
G1X208711Y165906D2*
G1X208711Y166842D1*
G1X208760Y165860D2*
G1X208760Y166855D1*
G1X208809Y165831D2*
G1X208809Y166868D1*
G1X208858Y165810D2*
G1X208858Y166882D1*
G1X208908Y165801D2*
G1X208908Y166895D1*
G1X208957Y165793D2*
G1X208957Y166908D1*
G1X209006Y165800D2*
G1X209006Y166909D1*
G1X209055Y165807D2*
G1X209055Y166899D1*
G1X209104Y165829D2*
G1X209104Y166878D1*
G1X209154Y165855D2*
G1X209154Y166849D1*
G1X209203Y165900D2*
G1X209203Y166805D1*
G1X209252Y165960D2*
G1X209252Y166735D1*
G1X209301Y166164D2*
G1X209301Y166171D1*
G1X208612Y164129D2*
G1X208612Y164124D1*
G1X208612Y163730D1*
G1X208632Y163614D1*
G1X208688Y163511D1*
G1X208775Y163432D1*
G1X208884Y163386D1*
G1X208950Y163386D1*
G1X209535Y163542D1*
G1X209542Y163543D1*
G1X209623Y163568D1*
G1X209689Y163620D1*
G1X209731Y163693D1*
G1X209743Y163777D1*
G1X209723Y163859D1*
G1X209257Y164325D1*
G1X209249Y164335D1*
G1X209174Y164423D1*
G1X209075Y164481D1*
G1X208962Y164503D1*
G1X208848Y164487D1*
G1X208746Y164433D1*
G1X208667Y164349D1*
G1X208621Y164243D1*
G1X208612Y164129D1*
G1X208612Y163730D2*
G1X208612Y164131D1*
G1X208661Y163560D2*
G1X208661Y164336D1*
G1X208711Y163491D2*
G1X208711Y164395D1*
G1X208760Y163446D2*
G1X208760Y164441D1*
G1X208809Y163418D2*
G1X208809Y164466D1*
G1X208858Y163397D2*
G1X208858Y164488D1*
G1X208908Y163386D2*
G1X208908Y164495D1*
G1X208957Y163388D2*
G1X208957Y164502D1*
G1X209006Y163401D2*
G1X209006Y164495D1*
G1X209055Y163414D2*
G1X209055Y164485D1*
G1X209104Y163427D2*
G1X209104Y164464D1*
G1X209154Y163440D2*
G1X209154Y164435D1*
G1X209203Y163453D2*
G1X209203Y164390D1*
G1X209252Y163466D2*
G1X209252Y164331D1*
G1X209301Y163479D2*
G1X209301Y164281D1*
G1X209350Y163493D2*
G1X209350Y164232D1*
G1X209400Y163506D2*
G1X209400Y164182D1*
G1X209449Y163519D2*
G1X209449Y164133D1*
G1X209498Y163532D2*
G1X209498Y164084D1*
G1X209547Y163545D2*
G1X209547Y164035D1*
G1X209597Y163560D2*
G1X209597Y163986D1*
G1X209646Y163586D2*
G1X209646Y163936D1*
G1X209695Y163631D2*
G1X209695Y163887D1*
G1X193852Y163386D2*
G1X194436Y163542D1*
G1X194444Y163543D1*
G1X194524Y163568D1*
G1X194590Y163620D1*
G1X194632Y163693D1*
G1X194644Y163777D1*
G1X194625Y163859D1*
G1X194158Y164325D1*
G1X194151Y164335D1*
G1X194076Y164423D1*
G1X193977Y164481D1*
G1X193864Y164503D1*
G1X193750Y164487D1*
G1X193647Y164433D1*
G1X193569Y164349D1*
G1X193522Y164243D1*
G1X193514Y164129D1*
G1X193514Y164124D1*
G1X193514Y163730D1*
G1X193533Y163614D1*
G1X193590Y163511D1*
G1X193677Y163432D1*
G1X193785Y163386D1*
G1X193852Y163386D1*
G1X193514Y163730D2*
G1X193514Y164131D1*
G1X193563Y163560D2*
G1X193563Y164336D1*
G1X193612Y163491D2*
G1X193612Y164395D1*
G1X193661Y163446D2*
G1X193661Y164441D1*
G1X193711Y163418D2*
G1X193711Y164466D1*
G1X193760Y163397D2*
G1X193760Y164488D1*
G1X193809Y163386D2*
G1X193809Y164495D1*
G1X193858Y163388D2*
G1X193858Y164502D1*
G1X193908Y163401D2*
G1X193908Y164495D1*
G1X193957Y163414D2*
G1X193957Y164485D1*
G1X194006Y163427D2*
G1X194006Y164464D1*
G1X194055Y163440D2*
G1X194055Y164435D1*
G1X194104Y163453D2*
G1X194104Y164390D1*
G1X194154Y163466D2*
G1X194154Y164331D1*
G1X194203Y163479D2*
G1X194203Y164281D1*
G1X194252Y163493D2*
G1X194252Y164232D1*
G1X194301Y163506D2*
G1X194301Y164182D1*
G1X194350Y163519D2*
G1X194350Y164133D1*
G1X194400Y163532D2*
G1X194400Y164084D1*
G1X194449Y163545D2*
G1X194449Y164035D1*
G1X194498Y163560D2*
G1X194498Y163986D1*
G1X194547Y163586D2*
G1X194547Y163936D1*
G1X194597Y163631D2*
G1X194597Y163887D1*
G1X194203Y166167D2*
G1X194203Y166171D1*
G1X194203Y166565D1*
G1X194183Y166681D1*
G1X194127Y166784D1*
G1X194040Y166863D1*
G1X193931Y166909D1*
G1X193865Y166909D1*
G1X193280Y166754D1*
G1X193273Y166752D1*
G1X193192Y166728D1*
G1X193126Y166675D1*
G1X193084Y166602D1*
G1X193072Y166518D1*
G1X193092Y166436D1*
G1X193558Y165970D1*
G1X193566Y165960D1*
G1X193641Y165872D1*
G1X193740Y165814D1*
G1X193853Y165792D1*
G1X193967Y165809D1*
G1X194069Y165862D1*
G1X194148Y165946D1*
G1X194194Y166052D1*
G1X194203Y166167D1*
G1X193120Y166408D2*
G1X193120Y166664D1*
G1X193169Y166359D2*
G1X193169Y166709D1*
G1X193219Y166310D2*
G1X193219Y166736D1*
G1X193268Y166261D2*
G1X193268Y166751D1*
G1X193317Y166211D2*
G1X193317Y166763D1*
G1X193366Y166162D2*
G1X193366Y166777D1*
G1X193415Y166113D2*
G1X193415Y166790D1*
G1X193465Y166064D2*
G1X193465Y166803D1*
G1X193514Y166015D2*
G1X193514Y166816D1*
G1X193563Y165964D2*
G1X193563Y166829D1*
G1X193612Y165906D2*
G1X193612Y166842D1*
G1X193661Y165860D2*
G1X193661Y166855D1*
G1X193711Y165831D2*
G1X193711Y166868D1*
G1X193760Y165810D2*
G1X193760Y166882D1*
G1X193809Y165801D2*
G1X193809Y166895D1*
G1X193858Y165793D2*
G1X193858Y166908D1*
G1X193908Y165800D2*
G1X193908Y166909D1*
G1X193957Y165807D2*
G1X193957Y166899D1*
G1X194006Y165829D2*
G1X194006Y166878D1*
G1X194055Y165855D2*
G1X194055Y166849D1*
G1X194104Y165900D2*
G1X194104Y166805D1*
G1X194154Y165960D2*
G1X194154Y166735D1*
G1X194203Y166164D2*
G1X194203Y166171D1*
G1X199893Y145885D2*
G1X200352Y146071D1*
G1X200159Y145597D1*
G1X199996Y145859D2*
G1X200352Y146071D1*
G1X200056Y145821D1*
G1X200101Y145773D2*
G1X200352Y146071D1*
G1X200138Y145710D1*
G1X200448Y147904D2*
G1X200374Y147728D1*
G1X200300Y147904D1*
G1X200374Y147728D2*
G1X200374Y147874D1*
G1X199874Y145600D2*
G1X199882Y145600D1*
G1X200374Y146093D1*
G1X200374Y147982D1*
G1X199626Y149100D2*
G1X199802Y149026D1*
G1X199626Y148951D1*
G1X199802Y149026D2*
G1X199656Y149026D1*
G1X200532Y149100D2*
G1X200356Y149026D1*
G1X200532Y148951D1*
G1X200356Y149026D2*
G1X200502Y149026D1*
G1X199547Y149026D2*
G1X200610Y149026D1*
G1X201251Y150018D2*
G1X201363Y149971D1*
G1X201251Y149923D1*
G1X201363Y149971D2*
G1X201270Y149971D1*
G1X205265Y150018D2*
G1X205153Y149971D1*
G1X205265Y149923D1*
G1X205153Y149971D2*
G1X205246Y149971D1*
G1X201201Y149971D2*
G1X205315Y149971D1*
G1X202255Y150825D2*
G1X202367Y150778D1*
G1X202255Y150730D1*
G1X202367Y150778D2*
G1X202274Y150778D1*
G1X203966Y150825D2*
G1X203854Y150778D1*
G1X203966Y150730D1*
G1X203854Y150778D2*
G1X203947Y150778D1*
G1X202205Y150778D2*
G1X204016Y150778D1*
G1X200345Y150471D2*
G1X200457Y150423D1*
G1X200345Y150376D1*
G1X200457Y150423D2*
G1X200364Y150423D1*
G1X204970Y150471D2*
G1X204858Y150423D1*
G1X204970Y150376D1*
G1X204858Y150423D2*
G1X204951Y150423D1*
G1X200295Y150423D2*
G1X205020Y150423D1*
G1X200060Y158482D2*
G1X200060Y158821D1*
G1X200255Y158482D2*
G1X200255Y158821D1*
G1X200158Y158543D2*
G1X200158Y158760D1*
G1X200158Y158435D2*
G1X200158Y158868D1*
G1X200205Y158966D2*
G1X200504Y158966D1*
G1X200205Y158771D2*
G1X200504Y158771D1*
G1X200266Y158868D2*
G1X200443Y158868D1*
G1X200158Y158868D2*
G1X200551Y158868D1*
G1X202088Y158482D2*
G1X202088Y158821D1*
G1X202283Y158482D2*
G1X202283Y158821D1*
G1X202185Y158543D2*
G1X202185Y158760D1*
G1X202185Y158435D2*
G1X202185Y158868D1*
G1X200454Y158482D2*
G1X200454Y158821D1*
G1X200649Y158482D2*
G1X200649Y158821D1*
G1X200551Y158543D2*
G1X200551Y158760D1*
G1X200551Y158435D2*
G1X200551Y158868D1*
G1X202532Y158966D2*
G1X202232Y158966D1*
G1X202532Y158771D2*
G1X202232Y158771D1*
G1X202471Y158868D2*
G1X202293Y158868D1*
G1X202579Y158868D2*
G1X202185Y158868D1*
G1X202481Y158482D2*
G1X202481Y158821D1*
G1X202676Y158482D2*
G1X202676Y158821D1*
G1X202579Y158543D2*
G1X202579Y158760D1*
G1X202579Y158435D2*
G1X202579Y158868D1*
G1X181299Y144262D2*
G1X218701Y144262D1*
G1X218701Y175738D1*
G1X181299Y175738D1*
G1X181299Y144262D1*
G1X200645Y158962D2*
G54D22*
G1X200925Y159242D1*
G1X200925Y159286D1*
G1X200925Y163691D1*
G1X200965Y163730D1*
G1X202111Y158942D2*
G1X201870Y159183D1*
G1X201870Y159247D1*
G1X201870Y163691D1*
G1X201791Y163770D1*
G1X202185Y158868D2*
G1X202111Y158942D1*
G1X200551Y158868D2*
G1X200645Y158962D1*
G1X201103Y164141D2*
G1X200965Y163730D1*
G1X201375Y163869D1*
G1X200965Y163730D2*
G1X201189Y163955D1*
G1X201358Y164124D2*
G1X201398Y164163D1*
G1X201437Y164124D2*
G1X201791Y163770D1*
G1X201691Y164129D1*
G1X201432Y163870D2*
G1X201791Y163770D1*
G1X201606Y163955D1*
G1X201437Y164124D2*
G1X201398Y164163D1*
G1X200965Y163730D2*
G1X201358Y164124D1*
G1X182008Y144971D3*
G1X182008Y146152D3*
G1X182008Y145561D3*
G1X182598Y144971D3*
G1X183780Y144971D3*
G1X183189Y144971D3*
G1X185551Y146152D3*
G1X185551Y145561D3*
G1X185551Y144971D3*
G1X184370Y145561D3*
G1X184370Y144971D3*
G1X186142Y146152D3*
G1X184961Y144971D3*
G1X186142Y145561D3*
G1X186142Y144971D3*
G1X184961Y146152D3*
G1X184961Y145561D3*
G1X187913Y146152D3*
G1X187913Y144971D3*
G1X187323Y144971D3*
G1X186732Y146152D3*
G1X186732Y145561D3*
G1X186732Y144971D3*
G1X187323Y146152D3*
G1X187913Y145561D3*
G1X187323Y145561D3*
G1X189685Y146152D3*
G1X189685Y145561D3*
G1X188504Y146152D3*
G1X188504Y145561D3*
G1X189095Y144971D3*
G1X189685Y144971D3*
G1X188504Y144971D3*
G1X189095Y146152D3*
G1X189095Y145561D3*
G1X190866Y146152D3*
G1X190866Y145561D3*
G1X190866Y144971D3*
G1X192047Y146152D3*
G1X192047Y145561D3*
G1X192047Y144971D3*
G1X190276Y144971D3*
G1X191457Y146152D3*
G1X191457Y145561D3*
G1X191457Y144971D3*
G1X190276Y146152D3*
G1X190276Y145561D3*
G1X193819Y146152D3*
G1X193228Y144971D3*
G1X192638Y146152D3*
G1X192638Y145561D3*
G1X193228Y146152D3*
G1X193819Y145561D3*
G1X193819Y144971D3*
G1X193228Y145561D3*
G1X192638Y144971D3*
G1X195000Y145561D3*
G1X195000Y144971D3*
G1X196181Y145561D3*
G1X196181Y144971D3*
G1X196181Y146152D3*
G1X195591Y145561D3*
G1X194409Y146152D3*
G1X194409Y145561D3*
G1X194409Y144971D3*
G1X195000Y146152D3*
G1X195591Y146152D3*
G1X195591Y144971D3*
G1X196772Y146152D3*
G1X196772Y145561D3*
G1X196772Y144971D3*
G1X206811Y146152D3*
G1X207992Y145561D3*
G1X207992Y144971D3*
G1X206221Y146152D3*
G1X206221Y145561D3*
G1X207402Y144971D3*
G1X209764Y146152D3*
G1X209764Y145561D3*
G1X209764Y144971D3*
G1X208583Y145561D3*
G1X208583Y144971D3*
G1X209173Y146152D3*
G1X209173Y145561D3*
G1X209173Y144971D3*
G1X208583Y146152D3*
G1X210945Y146152D3*
G1X210945Y145561D3*
G1X210945Y144971D3*
G1X211535Y146152D3*
G1X210354Y145561D3*
G1X210354Y144971D3*
G1X212126Y144971D3*
G1X212126Y146152D3*
G1X211535Y145561D3*
G1X212126Y145561D3*
G1X211535Y144971D3*
G1X210354Y146152D3*
G1X213307Y145561D3*
G1X213307Y144971D3*
G1X213898Y145561D3*
G1X213898Y144971D3*
G1X212717Y145561D3*
G1X212717Y144971D3*
G1X212717Y146152D3*
G1X213898Y146152D3*
G1X213307Y146152D3*
G1X215669Y145561D3*
G1X215669Y144971D3*
G1X215079Y146152D3*
G1X215079Y145561D3*
G1X215079Y144971D3*
G1X214488Y144971D3*
G1X214488Y146152D3*
G1X214488Y145561D3*
G1X217441Y144971D3*
G1X216850Y144971D3*
G1X216260Y144971D3*
G1X182008Y147333D3*
G1X182008Y146742D3*
G1X182008Y147923D3*
G1X182598Y147923D3*
G1X182598Y147333D3*
G1X183189Y147923D3*
G1X183780Y147923D3*
G1X185551Y147923D3*
G1X185551Y147333D3*
G1X185551Y146742D3*
G1X184370Y147333D3*
G1X186142Y147923D3*
G1X186142Y147333D3*
G1X184961Y147923D3*
G1X184961Y147333D3*
G1X184370Y147923D3*
G1X184961Y146742D3*
G1X186142Y146742D3*
G1X187323Y147923D3*
G1X187323Y146742D3*
G1X187913Y147923D3*
G1X186732Y147923D3*
G1X186732Y147333D3*
G1X186732Y146742D3*
G1X187913Y147333D3*
G1X187913Y146742D3*
G1X187323Y147333D3*
G1X189685Y146742D3*
G1X189095Y147923D3*
G1X189095Y147333D3*
G1X188504Y147923D3*
G1X189685Y147923D3*
G1X189685Y147333D3*
G1X189095Y146742D3*
G1X188504Y147333D3*
G1X188504Y146742D3*
G1X190866Y147333D3*
G1X190866Y146742D3*
G1X192047Y147923D3*
G1X192047Y147333D3*
G1X192047Y146742D3*
G1X191457Y147923D3*
G1X191457Y147333D3*
G1X191457Y146742D3*
G1X190276Y147923D3*
G1X190866Y147923D3*
G1X190276Y147333D3*
G1X190276Y146742D3*
G1X193819Y147923D3*
G1X193819Y147333D3*
G1X193819Y146742D3*
G1X193228Y147923D3*
G1X193228Y147333D3*
G1X193228Y146742D3*
G1X192638Y147923D3*
G1X192638Y147333D3*
G1X192638Y146742D3*
G1X196181Y146742D3*
G1X195000Y147333D3*
G1X195000Y146742D3*
G1X194409Y146742D3*
G1X194409Y147923D3*
G1X194409Y147333D3*
G1X195591Y147923D3*
G1X196181Y147923D3*
G1X195591Y146742D3*
G1X195000Y147923D3*
G1X195591Y147333D3*
G1X196181Y147333D3*
G1X196772Y147333D3*
G1X196772Y146742D3*
G1X196772Y147923D3*
G1X197362Y147923D3*
G1X207402Y147923D3*
G1X207402Y147333D3*
G1X206811Y147333D3*
G1X206811Y146742D3*
G1X206221Y146742D3*
G1X207402Y146742D3*
G1X206221Y147923D3*
G1X206221Y147333D3*
G1X209173Y147923D3*
G1X208583Y147923D3*
G1X209764Y147923D3*
G1X209173Y147333D3*
G1X209173Y146742D3*
G1X209764Y147333D3*
G1X209764Y146742D3*
G1X208583Y147333D3*
G1X208583Y146742D3*
G1X210945Y147923D3*
G1X210945Y147333D3*
G1X210945Y146742D3*
G1X212126Y147333D3*
G1X212126Y146742D3*
G1X210354Y147923D3*
G1X210354Y147333D3*
G1X210354Y146742D3*
G1X212126Y147923D3*
G1X211535Y147923D3*
G1X211535Y147333D3*
G1X211535Y146742D3*
G1X213898Y147923D3*
G1X212717Y147333D3*
G1X212717Y146742D3*
G1X213898Y146742D3*
G1X212717Y147923D3*
G1X213307Y147923D3*
G1X213307Y147333D3*
G1X213307Y146742D3*
G1X213898Y147333D3*
G1X214488Y147923D3*
G1X214488Y147333D3*
G1X215079Y147923D3*
G1X215079Y147333D3*
G1X215079Y146742D3*
G1X215669Y147923D3*
G1X215669Y147333D3*
G1X214488Y146742D3*
G1X217441Y147333D3*
G1X216850Y147923D3*
G1X217441Y147923D3*
G1X216260Y147923D3*
G1X182008Y150285D3*
G1X182008Y149104D3*
G1X182008Y148514D3*
G1X182008Y149695D3*
G1X182598Y150285D3*
G1X182598Y149695D3*
G1X182598Y149104D3*
G1X183780Y150285D3*
G1X182598Y148514D3*
G1X183780Y149695D3*
G1X183189Y149104D3*
G1X183189Y148514D3*
G1X183780Y149104D3*
G1X183780Y148514D3*
G1X183189Y150285D3*
G1X183189Y149695D3*
G1X184961Y148514D3*
G1X186142Y149695D3*
G1X186142Y149104D3*
G1X186142Y148514D3*
G1X184961Y150285D3*
G1X184370Y150285D3*
G1X185551Y150285D3*
G1X185551Y149695D3*
G1X184961Y149104D3*
G1X185551Y149104D3*
G1X185551Y148514D3*
G1X184370Y149695D3*
G1X184961Y149695D3*
G1X186142Y150285D3*
G1X184370Y149104D3*
G1X184370Y148514D3*
G1X187323Y148514D3*
G1X187913Y149104D3*
G1X187913Y148514D3*
G1X187913Y150285D3*
G1X187913Y149695D3*
G1X187323Y150285D3*
G1X187323Y149695D3*
G1X187323Y149104D3*
G1X186732Y150285D3*
G1X186732Y149695D3*
G1X186732Y149104D3*
G1X186732Y148514D3*
G1X189095Y150285D3*
G1X189095Y149695D3*
G1X189095Y149104D3*
G1X189685Y149695D3*
G1X189685Y149104D3*
G1X189095Y148514D3*
G1X188504Y150285D3*
G1X188504Y149695D3*
G1X188504Y149104D3*
G1X188504Y148514D3*
G1X189685Y148514D3*
G1X189685Y150285D3*
G1X192047Y150285D3*
G1X192047Y149695D3*
G1X192047Y149104D3*
G1X192047Y148514D3*
G1X191457Y149695D3*
G1X190866Y150285D3*
G1X190276Y149104D3*
G1X190276Y148514D3*
G1X191457Y150285D3*
G1X191457Y149104D3*
G1X191457Y148514D3*
G1X190866Y149104D3*
G1X190866Y148514D3*
G1X190866Y149695D3*
G1X190276Y150285D3*
G1X190276Y149695D3*
G1X193228Y149695D3*
G1X193228Y149104D3*
G1X193819Y149695D3*
G1X193228Y148514D3*
G1X192638Y149695D3*
G1X192638Y149104D3*
G1X193819Y149104D3*
G1X192638Y148514D3*
G1X193819Y148514D3*
G1X192638Y150285D3*
G1X193819Y150285D3*
G1X193228Y150285D3*
G1X195000Y150285D3*
G1X195000Y149695D3*
G1X194409Y149104D3*
G1X194409Y148514D3*
G1X195591Y150285D3*
G1X195591Y149695D3*
G1X195591Y149104D3*
G1X194409Y150285D3*
G1X194409Y149695D3*
G1X196181Y150285D3*
G1X196181Y148514D3*
G1X195591Y148514D3*
G1X195000Y149104D3*
G1X195000Y148514D3*
G1X197362Y148514D3*
G1X196772Y148514D3*
G1X207402Y150285D3*
G1X207992Y149695D3*
G1X207992Y150285D3*
G1X206221Y150285D3*
G1X209173Y149104D3*
G1X209764Y149104D3*
G1X209173Y148514D3*
G1X209764Y148514D3*
G1X208583Y148514D3*
G1X208583Y150285D3*
G1X209173Y150285D3*
G1X209173Y149695D3*
G1X208583Y149695D3*
G1X209764Y150285D3*
G1X209764Y149695D3*
G1X208583Y149104D3*
G1X210945Y149104D3*
G1X210945Y148514D3*
G1X210945Y150285D3*
G1X210945Y149695D3*
G1X211535Y150285D3*
G1X211535Y149104D3*
G1X211535Y149695D3*
G1X211535Y148514D3*
G1X212126Y149695D3*
G1X212126Y149104D3*
G1X212126Y148514D3*
G1X212126Y150285D3*
G1X210354Y149695D3*
G1X210354Y150285D3*
G1X210354Y149104D3*
G1X210354Y148514D3*
G1X213898Y149695D3*
G1X213898Y149104D3*
G1X213307Y150285D3*
G1X213307Y149695D3*
G1X213307Y149104D3*
G1X213307Y148514D3*
G1X213898Y148514D3*
G1X212717Y149104D3*
G1X212717Y148514D3*
G1X212717Y150285D3*
G1X212717Y149695D3*
G1X213898Y150285D3*
G1X214488Y149104D3*
G1X215079Y150285D3*
G1X215079Y149695D3*
G1X215079Y149104D3*
G1X214488Y148514D3*
G1X215079Y148514D3*
G1X215669Y150285D3*
G1X215669Y149695D3*
G1X215669Y149104D3*
G1X214488Y150285D3*
G1X214488Y149695D3*
G1X215669Y148514D3*
G1X217441Y150285D3*
G1X217441Y149695D3*
G1X217441Y149104D3*
G1X216850Y150285D3*
G1X217441Y148514D3*
G1X216260Y150285D3*
G1X216260Y148514D3*
G1X216260Y149695D3*
G1X216260Y149104D3*
G1X216850Y149695D3*
G1X216850Y149104D3*
G1X216850Y148514D3*
G1X182008Y150876D3*
G1X182008Y152057D3*
G1X182008Y151467D3*
G1X182598Y150876D3*
G1X183189Y151467D3*
G1X183780Y150876D3*
G1X183189Y152057D3*
G1X183189Y150876D3*
G1X183780Y152057D3*
G1X182598Y152057D3*
G1X182598Y151467D3*
G1X183780Y151467D3*
G1X184961Y151467D3*
G1X184961Y150876D3*
G1X184961Y152057D3*
G1X184370Y150876D3*
G1X186142Y151467D3*
G1X184370Y152057D3*
G1X184370Y151467D3*
G1X186142Y150876D3*
G1X186142Y152057D3*
G1X185551Y152057D3*
G1X185551Y150876D3*
G1X185551Y151467D3*
G1X186732Y150876D3*
G1X186732Y152057D3*
G1X186732Y151467D3*
G1X187913Y150876D3*
G1X187913Y152057D3*
G1X187913Y151467D3*
G1X187323Y152057D3*
G1X187323Y151467D3*
G1X187323Y150876D3*
G1X188504Y150876D3*
G1X189095Y151467D3*
G1X189095Y150876D3*
G1X188504Y152057D3*
G1X189685Y152057D3*
G1X189685Y151467D3*
G1X188504Y151467D3*
G1X189685Y150876D3*
G1X189095Y152057D3*
G1X192047Y151467D3*
G1X192047Y150876D3*
G1X190866Y152057D3*
G1X190866Y151467D3*
G1X192047Y152057D3*
G1X190866Y150876D3*
G1X191457Y151467D3*
G1X191457Y150876D3*
G1X190276Y152057D3*
G1X190276Y150876D3*
G1X190276Y151467D3*
G1X191457Y152057D3*
G1X193228Y151467D3*
G1X193228Y150876D3*
G1X192638Y152057D3*
G1X192638Y151467D3*
G1X192638Y150876D3*
G1X193819Y152057D3*
G1X193819Y151467D3*
G1X193819Y150876D3*
G1X193228Y152057D3*
G1X195000Y150876D3*
G1X196181Y152057D3*
G1X196181Y151467D3*
G1X195000Y152057D3*
G1X195000Y151467D3*
G1X194409Y151467D3*
G1X194409Y150876D3*
G1X196181Y150876D3*
G1X195591Y152057D3*
G1X195591Y151467D3*
G1X195591Y150876D3*
G1X194409Y152057D3*
G1X197953Y152057D3*
G1X197953Y151467D3*
G1X196772Y152057D3*
G1X196772Y151467D3*
G1X196772Y150876D3*
G1X197362Y152057D3*
G1X197362Y151467D3*
G1X197362Y150876D3*
G1X198543Y152057D3*
G1X199134Y152057D3*
G1X203858Y152057D3*
G1X203268Y152057D3*
G1X204449Y151467D3*
G1X205630Y152057D3*
G1X205039Y152057D3*
G1X205039Y151467D3*
G1X204449Y152057D3*
G1X205630Y151467D3*
G1X205630Y150876D3*
G1X207402Y152057D3*
G1X207402Y151467D3*
G1X207402Y150876D3*
G1X206811Y152057D3*
G1X206811Y151467D3*
G1X206811Y150876D3*
G1X207992Y151467D3*
G1X207992Y152057D3*
G1X207992Y150876D3*
G1X206221Y152057D3*
G1X206221Y150876D3*
G1X206221Y151467D3*
G1X209173Y151467D3*
G1X208583Y151467D3*
G1X208583Y150876D3*
G1X209173Y150876D3*
G1X209764Y152057D3*
G1X209764Y151467D3*
G1X209764Y150876D3*
G1X209173Y152057D3*
G1X208583Y152057D3*
G1X211535Y150876D3*
G1X212126Y151467D3*
G1X210354Y152057D3*
G1X211535Y152057D3*
G1X211535Y151467D3*
G1X212126Y150876D3*
G1X210354Y151467D3*
G1X210354Y150876D3*
G1X212126Y152057D3*
G1X210945Y150876D3*
G1X210945Y152057D3*
G1X210945Y151467D3*
G1X212717Y150876D3*
G1X213307Y152057D3*
G1X213898Y152057D3*
G1X213898Y151467D3*
G1X213307Y151467D3*
G1X213307Y150876D3*
G1X212717Y152057D3*
G1X212717Y151467D3*
G1X213898Y150876D3*
G1X214488Y152057D3*
G1X214488Y151467D3*
G1X215669Y152057D3*
G1X215669Y151467D3*
G1X215079Y152057D3*
G1X215669Y150876D3*
G1X215079Y151467D3*
G1X214488Y150876D3*
G1X215079Y150876D3*
G1X217441Y152057D3*
G1X216850Y152057D3*
G1X217441Y150876D3*
G1X216850Y151467D3*
G1X216260Y152057D3*
G1X216260Y151467D3*
G1X216260Y150876D3*
G1X216850Y150876D3*
G1X217441Y151467D3*
G1X182008Y152648D3*
G1X182008Y153238D3*
G1X182008Y153829D3*
G1X182598Y153829D3*
G1X182598Y153238D3*
G1X183189Y152648D3*
G1X182598Y152648D3*
G1X183189Y153829D3*
G1X183189Y153238D3*
G1X183780Y152648D3*
G1X183780Y153829D3*
G1X183780Y153238D3*
G1X185551Y153829D3*
G1X185551Y153238D3*
G1X184370Y153829D3*
G1X184370Y153238D3*
G1X184961Y153829D3*
G1X184370Y152648D3*
G1X186142Y153238D3*
G1X186142Y152648D3*
G1X186142Y153829D3*
G1X184961Y153238D3*
G1X184961Y152648D3*
G1X185551Y152648D3*
G1X186732Y153238D3*
G1X186732Y152648D3*
G1X187913Y152648D3*
G1X187323Y153829D3*
G1X186732Y153829D3*
G1X187913Y153829D3*
G1X187913Y153238D3*
G1X187323Y153238D3*
G1X187323Y152648D3*
G1X188504Y152648D3*
G1X189685Y153238D3*
G1X189685Y152648D3*
G1X188504Y153829D3*
G1X189685Y153829D3*
G1X188504Y153238D3*
G1X189095Y153829D3*
G1X189095Y153238D3*
G1X189095Y152648D3*
G1X190866Y152648D3*
G1X190276Y152648D3*
G1X192047Y153829D3*
G1X192047Y153238D3*
G1X192047Y152648D3*
G1X191457Y153829D3*
G1X190866Y153829D3*
G1X190866Y153238D3*
G1X191457Y153238D3*
G1X191457Y152648D3*
G1X190276Y153829D3*
G1X190276Y153238D3*
G1X193819Y152648D3*
G1X193228Y153238D3*
G1X193819Y153829D3*
G1X193819Y153238D3*
G1X193228Y153829D3*
G1X193228Y152648D3*
G1X192638Y153829D3*
G1X192638Y153238D3*
G1X192638Y152648D3*
G1X194409Y153238D3*
G1X194409Y152648D3*
G1X195591Y153238D3*
G1X195591Y152648D3*
G1X196181Y152648D3*
G1X195000Y153829D3*
G1X195000Y153238D3*
G1X195000Y152648D3*
G1X195591Y153829D3*
G1X194409Y153829D3*
G1X196181Y153829D3*
G1X196181Y153238D3*
G1X197953Y153238D3*
G1X197953Y152648D3*
G1X197362Y153829D3*
G1X196772Y152648D3*
G1X196772Y153238D3*
G1X197362Y153238D3*
G1X197362Y152648D3*
G1X197953Y153829D3*
G1X196772Y153829D3*
G1X198543Y153829D3*
G1X198543Y153238D3*
G1X199134Y152648D3*
G1X199134Y153829D3*
G1X199134Y153238D3*
G1X198543Y152648D3*
G1X203858Y153829D3*
G1X203858Y153238D3*
G1X203858Y152648D3*
G1X205039Y153829D3*
G1X204449Y153829D3*
G1X204449Y153238D3*
G1X204449Y152648D3*
G1X205630Y153829D3*
G1X205630Y153238D3*
G1X205630Y152648D3*
G1X205039Y153238D3*
G1X205039Y152648D3*
G1X207402Y153829D3*
G1X207402Y153238D3*
G1X207402Y152648D3*
G1X206221Y153829D3*
G1X206221Y153238D3*
G1X207992Y153238D3*
G1X207992Y153829D3*
G1X206811Y153829D3*
G1X207992Y152648D3*
G1X206811Y153238D3*
G1X206811Y152648D3*
G1X206221Y152648D3*
G1X208583Y153238D3*
G1X209764Y153238D3*
G1X209764Y152648D3*
G1X208583Y152648D3*
G1X209173Y153829D3*
G1X209173Y152648D3*
G1X209764Y153829D3*
G1X208583Y153829D3*
G1X209173Y153238D3*
G1X210945Y153829D3*
G1X210945Y153238D3*
G1X210354Y153238D3*
G1X211535Y153829D3*
G1X211535Y153238D3*
G1X210354Y152648D3*
G1X210354Y153829D3*
G1X211535Y152648D3*
G1X212126Y153829D3*
G1X212126Y153238D3*
G1X212126Y152648D3*
G1X210945Y152648D3*
G1X213898Y153829D3*
G1X213898Y153238D3*
G1X213898Y152648D3*
G1X212717Y152648D3*
G1X213307Y153829D3*
G1X212717Y153829D3*
G1X213307Y153238D3*
G1X213307Y152648D3*
G1X212717Y153238D3*
G1X214488Y153238D3*
G1X214488Y152648D3*
G1X215669Y153829D3*
G1X215079Y153238D3*
G1X215079Y152648D3*
G1X215669Y153238D3*
G1X215669Y152648D3*
G1X214488Y153829D3*
G1X215079Y153829D3*
G1X216850Y153829D3*
G1X217441Y152648D3*
G1X217441Y153829D3*
G1X217441Y153238D3*
G1X216850Y153238D3*
G1X216850Y152648D3*
G1X216260Y153829D3*
G1X216260Y153238D3*
G1X216260Y152648D3*
G1X182008Y156191D3*
G1X182008Y155600D3*
G1X182008Y154419D3*
G1X182008Y155010D3*
G1X183780Y155010D3*
G1X182598Y154419D3*
G1X183189Y156191D3*
G1X183189Y155600D3*
G1X183189Y154419D3*
G1X183780Y154419D3*
G1X183189Y155010D3*
G1X183780Y155600D3*
G1X183780Y156191D3*
G1X182598Y156191D3*
G1X182598Y155600D3*
G1X182598Y155010D3*
G1X185551Y155010D3*
G1X185551Y154419D3*
G1X185551Y156191D3*
G1X185551Y155600D3*
G1X184961Y156191D3*
G1X184961Y155600D3*
G1X184370Y154419D3*
G1X184961Y155010D3*
G1X184961Y154419D3*
G1X186142Y156191D3*
G1X186142Y155600D3*
G1X186142Y155010D3*
G1X186142Y154419D3*
G1X184370Y156191D3*
G1X184370Y155600D3*
G1X184370Y155010D3*
G1X186732Y156191D3*
G1X187323Y155600D3*
G1X187323Y155010D3*
G1X187323Y156191D3*
G1X186732Y155600D3*
G1X187323Y154419D3*
G1X187913Y156191D3*
G1X186732Y155010D3*
G1X186732Y154419D3*
G1X187913Y155600D3*
G1X187913Y155010D3*
G1X187913Y154419D3*
G1X189095Y156191D3*
G1X189685Y155600D3*
G1X189095Y155600D3*
G1X189685Y155010D3*
G1X189095Y155010D3*
G1X189685Y154419D3*
G1X188504Y156191D3*
G1X188504Y155600D3*
G1X188504Y155010D3*
G1X189095Y154419D3*
G1X188504Y154419D3*
G1X189685Y156191D3*
G1X191457Y156191D3*
G1X190276Y156191D3*
G1X190276Y155600D3*
G1X190276Y155010D3*
G1X191457Y155600D3*
G1X190866Y156191D3*
G1X190866Y155600D3*
G1X190866Y155010D3*
G1X190866Y154419D3*
G1X192047Y156191D3*
G1X192047Y155600D3*
G1X191457Y155010D3*
G1X191457Y154419D3*
G1X192047Y155010D3*
G1X192047Y154419D3*
G1X190276Y154419D3*
G1X193228Y156191D3*
G1X192638Y156191D3*
G1X192638Y155600D3*
G1X192638Y155010D3*
G1X193228Y155600D3*
G1X193228Y155010D3*
G1X193228Y154419D3*
G1X193819Y155010D3*
G1X193819Y154419D3*
G1X192638Y154419D3*
G1X193819Y156191D3*
G1X193819Y155600D3*
G1X195000Y154419D3*
G1X195000Y156191D3*
G1X195591Y155600D3*
G1X195000Y155600D3*
G1X195000Y155010D3*
G1X194409Y154419D3*
G1X195591Y155010D3*
G1X194409Y156191D3*
G1X194409Y155600D3*
G1X194409Y155010D3*
G1X195591Y156191D3*
G1X195591Y154419D3*
G1X196181Y156191D3*
G1X196181Y155600D3*
G1X196181Y154419D3*
G1X196181Y155010D3*
G1X197362Y155010D3*
G1X196772Y156191D3*
G1X196772Y155600D3*
G1X197953Y155010D3*
G1X197362Y154419D3*
G1X197953Y154419D3*
G1X196772Y155010D3*
G1X196772Y154419D3*
G1X197362Y155600D3*
G1X198543Y155010D3*
G1X198543Y154419D3*
G1X199134Y155010D3*
G1X199134Y154419D3*
G1X203858Y155010D3*
G1X203858Y154419D3*
G1X205039Y155010D3*
G1X205039Y154419D3*
G1X204449Y155010D3*
G1X204449Y154419D3*
G1X205630Y155010D3*
G1X205630Y154419D3*
G1X205630Y155600D3*
G1X207992Y155600D3*
G1X207992Y155010D3*
G1X207992Y154419D3*
G1X206811Y154419D3*
G1X206811Y156191D3*
G1X206811Y155600D3*
G1X206811Y155010D3*
G1X206221Y156191D3*
G1X207402Y156191D3*
G1X207402Y155600D3*
G1X207402Y155010D3*
G1X207402Y154419D3*
G1X207992Y156191D3*
G1X206221Y155600D3*
G1X206221Y155010D3*
G1X206221Y154419D3*
G1X209764Y155010D3*
G1X209764Y154419D3*
G1X209764Y156191D3*
G1X209764Y155600D3*
G1X208583Y155010D3*
G1X209173Y154419D3*
G1X209173Y156191D3*
G1X209173Y155600D3*
G1X208583Y156191D3*
G1X208583Y155600D3*
G1X208583Y154419D3*
G1X209173Y155010D3*
G1X210945Y154419D3*
G1X211535Y155010D3*
G1X211535Y154419D3*
G1X210354Y154419D3*
G1X210945Y156191D3*
G1X210354Y156191D3*
G1X210354Y155600D3*
G1X212126Y155010D3*
G1X212126Y154419D3*
G1X211535Y156191D3*
G1X210945Y155600D3*
G1X210945Y155010D3*
G1X212126Y156191D3*
G1X212126Y155600D3*
G1X210354Y155010D3*
G1X211535Y155600D3*
G1X212717Y156191D3*
G1X212717Y155600D3*
G1X213307Y156191D3*
G1X212717Y155010D3*
G1X213898Y154419D3*
G1X213307Y155600D3*
G1X213898Y156191D3*
G1X213898Y155600D3*
G1X213898Y155010D3*
G1X212717Y154419D3*
G1X213307Y155010D3*
G1X213307Y154419D3*
G1X215079Y156191D3*
G1X215079Y155010D3*
G1X215079Y155600D3*
G1X215669Y155600D3*
G1X215669Y155010D3*
G1X215669Y154419D3*
G1X214488Y155600D3*
G1X214488Y155010D3*
G1X215669Y156191D3*
G1X214488Y154419D3*
G1X214488Y156191D3*
G1X215079Y154419D3*
G1X216260Y156191D3*
G1X216850Y155010D3*
G1X216850Y154419D3*
G1X216260Y155600D3*
G1X216260Y155010D3*
G1X216260Y154419D3*
G1X216850Y156191D3*
G1X216850Y155600D3*
G1X217441Y154419D3*
G1X217441Y156191D3*
G1X217441Y155600D3*
G1X217441Y155010D3*
G1X182008Y156782D3*
G1X182008Y157963D3*
G1X182008Y157372D3*
G1X182598Y157963D3*
G1X182598Y157372D3*
G1X182598Y156782D3*
G1X183189Y157372D3*
G1X183780Y157963D3*
G1X183780Y157372D3*
G1X183780Y156782D3*
G1X183189Y156782D3*
G1X183189Y157963D3*
G1X185551Y157372D3*
G1X185551Y156782D3*
G1X184961Y156782D3*
G1X184370Y156782D3*
G1X186142Y157963D3*
G1X186142Y157372D3*
G1X186142Y156782D3*
G1X184961Y157963D3*
G1X184961Y157372D3*
G1X185551Y157963D3*
G1X184370Y157963D3*
G1X184370Y157372D3*
G1X187323Y157963D3*
G1X186732Y157963D3*
G1X187323Y157372D3*
G1X187323Y156782D3*
G1X187913Y157963D3*
G1X186732Y157372D3*
G1X186732Y156782D3*
G1X187913Y157372D3*
G1X187913Y156782D3*
G1X189095Y156782D3*
G1X188504Y157372D3*
G1X188504Y156782D3*
G1X189095Y157963D3*
G1X189095Y157372D3*
G1X189685Y156782D3*
G1X188504Y157963D3*
G1X189685Y157963D3*
G1X189685Y157372D3*
G1X192047Y157963D3*
G1X192047Y157372D3*
G1X192047Y156782D3*
G1X191457Y157963D3*
G1X191457Y157372D3*
G1X190276Y157372D3*
G1X190276Y156782D3*
G1X190866Y157963D3*
G1X190276Y157963D3*
G1X191457Y156782D3*
G1X190866Y157372D3*
G1X190866Y156782D3*
G1X193228Y156782D3*
G1X193819Y157963D3*
G1X192638Y156782D3*
G1X193228Y157372D3*
G1X192638Y157963D3*
G1X192638Y157372D3*
G1X193228Y157963D3*
G1X193819Y157372D3*
G1X193819Y156782D3*
G1X195591Y157963D3*
G1X195591Y157372D3*
G1X195591Y156782D3*
G1X196181Y157963D3*
G1X194409Y157372D3*
G1X196181Y157372D3*
G1X196181Y156782D3*
G1X194409Y157963D3*
G1X195000Y157372D3*
G1X195000Y156782D3*
G1X194409Y156782D3*
G1X195000Y157963D3*
G1X197362Y157963D3*
G1X197362Y157372D3*
G1X196772Y156782D3*
G1X197953Y157372D3*
G1X196772Y157963D3*
G1X196772Y157372D3*
G1X205630Y157963D3*
G1X205630Y157372D3*
G1X205039Y157372D3*
G1X207402Y157963D3*
G1X206811Y157963D3*
G1X206811Y157372D3*
G1X207992Y156782D3*
G1X207402Y157372D3*
G1X207402Y156782D3*
G1X206811Y156782D3*
G1X206221Y157963D3*
G1X206221Y157372D3*
G1X207992Y157963D3*
G1X206221Y156782D3*
G1X207992Y157372D3*
G1X208583Y156782D3*
G1X209173Y156782D3*
G1X209764Y157963D3*
G1X209764Y156782D3*
G1X209764Y157372D3*
G1X209173Y157963D3*
G1X209173Y157372D3*
G1X208583Y157963D3*
G1X208583Y157372D3*
G1X210945Y157963D3*
G1X210945Y157372D3*
G1X211535Y157963D3*
G1X211535Y157372D3*
G1X210945Y156782D3*
G1X210354Y156782D3*
G1X212126Y156782D3*
G1X211535Y156782D3*
G1X210354Y157963D3*
G1X210354Y157372D3*
G1X212126Y157963D3*
G1X212126Y157372D3*
G1X213307Y157963D3*
G1X213307Y157372D3*
G1X213898Y157963D3*
G1X213898Y157372D3*
G1X212717Y156782D3*
G1X213898Y156782D3*
G1X213307Y156782D3*
G1X212717Y157963D3*
G1X212717Y157372D3*
G1X215079Y157963D3*
G1X215079Y157372D3*
G1X215079Y156782D3*
G1X214488Y157963D3*
G1X214488Y157372D3*
G1X215669Y156782D3*
G1X215669Y157963D3*
G1X214488Y156782D3*
G1X215669Y157372D3*
G1X216260Y156782D3*
G1X217441Y157963D3*
G1X217441Y157372D3*
G1X217441Y156782D3*
G1X216850Y156782D3*
G1X216260Y157963D3*
G1X216850Y157963D3*
G1X216850Y157372D3*
G1X216260Y157372D3*
G1X182008Y159734D3*
G1X182008Y158553D3*
G1X182008Y160325D3*
G1X182008Y159144D3*
G1X183780Y160325D3*
G1X183189Y160325D3*
G1X183189Y159144D3*
G1X183189Y158553D3*
G1X182598Y160325D3*
G1X183189Y159734D3*
G1X183780Y159734D3*
G1X182598Y159734D3*
G1X182598Y159144D3*
G1X182598Y158553D3*
G1X183780Y159144D3*
G1X183780Y158553D3*
G1X184961Y159144D3*
G1X184370Y159734D3*
G1X186142Y160325D3*
G1X186142Y159734D3*
G1X186142Y159144D3*
G1X185551Y160325D3*
G1X184370Y159144D3*
G1X184961Y158553D3*
G1X186142Y158553D3*
G1X185551Y159734D3*
G1X185551Y159144D3*
G1X184961Y160325D3*
G1X184961Y159734D3*
G1X185551Y158553D3*
G1X184370Y160325D3*
G1X184370Y158553D3*
G1X186732Y159734D3*
G1X187913Y159734D3*
G1X186732Y159144D3*
G1X187913Y160325D3*
G1X186732Y160325D3*
G1X187913Y159144D3*
G1X187323Y160325D3*
G1X186732Y158553D3*
G1X187323Y158553D3*
G1X187913Y158553D3*
G1X187323Y159734D3*
G1X187323Y159144D3*
G1X189685Y160325D3*
G1X189685Y159144D3*
G1X189685Y158553D3*
G1X189095Y160325D3*
G1X189685Y159734D3*
G1X189095Y159734D3*
G1X189095Y159144D3*
G1X189095Y158553D3*
G1X188504Y160325D3*
G1X188504Y158553D3*
G1X188504Y159734D3*
G1X188504Y159144D3*
G1X192047Y158553D3*
G1X190866Y160325D3*
G1X192047Y160325D3*
G1X190276Y159734D3*
G1X191457Y158553D3*
G1X191457Y160325D3*
G1X190276Y159144D3*
G1X190866Y159734D3*
G1X192047Y159734D3*
G1X190276Y158553D3*
G1X192047Y159144D3*
G1X190276Y160325D3*
G1X191457Y159734D3*
G1X190866Y159144D3*
G1X190866Y158553D3*
G1X191457Y159144D3*
G1X193819Y158553D3*
G1X192638Y159734D3*
G1X192638Y159144D3*
G1X193228Y159144D3*
G1X193228Y158553D3*
G1X192638Y158553D3*
G1X193819Y159144D3*
G1X193819Y159734D3*
G1X193228Y159734D3*
G1X194409Y159734D3*
G1X194409Y159144D3*
G1X195591Y159144D3*
G1X195000Y159734D3*
G1X195591Y158553D3*
G1X195000Y159144D3*
G1X195000Y158553D3*
G1X195591Y160325D3*
G1X195591Y159734D3*
G1X196181Y159734D3*
G1X194409Y158553D3*
G1X196181Y159144D3*
G1X196181Y158553D3*
G1X196181Y160325D3*
G1X195000Y160325D3*
G1X197362Y159734D3*
G1X197362Y159144D3*
G1X197362Y158553D3*
G1X196772Y159144D3*
G1X196772Y160325D3*
G1X196772Y159734D3*
G1X196772Y158553D3*
G1X205630Y159734D3*
G1X205630Y159144D3*
G1X207402Y159144D3*
G1X207402Y158553D3*
G1X206221Y160325D3*
G1X206221Y159734D3*
G1X206221Y159144D3*
G1X206221Y158553D3*
G1X207402Y159734D3*
G1X207992Y160325D3*
G1X206811Y160325D3*
G1X207992Y158553D3*
G1X206811Y159734D3*
G1X207992Y159734D3*
G1X207992Y159144D3*
G1X206811Y159144D3*
G1X206811Y158553D3*
G1X207402Y160325D3*
G1X208583Y159734D3*
G1X209764Y158553D3*
G1X208583Y159144D3*
G1X208583Y158553D3*
G1X209764Y159734D3*
G1X209764Y159144D3*
G1X209173Y159734D3*
G1X209173Y159144D3*
G1X209173Y158553D3*
G1X211535Y160325D3*
G1X212126Y160325D3*
G1X212126Y159734D3*
G1X212126Y159144D3*
G1X210354Y158553D3*
G1X211535Y158553D3*
G1X212126Y158553D3*
G1X211535Y159734D3*
G1X210945Y159734D3*
G1X210354Y159734D3*
G1X210354Y159144D3*
G1X211535Y159144D3*
G1X210945Y160325D3*
G1X210945Y159144D3*
G1X210945Y158553D3*
G1X212717Y160325D3*
G1X212717Y159734D3*
G1X212717Y159144D3*
G1X212717Y158553D3*
G1X213307Y159734D3*
G1X213898Y160325D3*
G1X213898Y159734D3*
G1X213307Y159144D3*
G1X213307Y158553D3*
G1X213898Y159144D3*
G1X213898Y158553D3*
G1X213307Y160325D3*
G1X215669Y160325D3*
G1X214488Y160325D3*
G1X215669Y159734D3*
G1X215669Y159144D3*
G1X214488Y159734D3*
G1X214488Y159144D3*
G1X214488Y158553D3*
G1X215079Y159734D3*
G1X215079Y159144D3*
G1X215669Y158553D3*
G1X215079Y160325D3*
G1X215079Y158553D3*
G1X216260Y160325D3*
G1X217441Y159144D3*
G1X217441Y158553D3*
G1X216850Y159144D3*
G1X216260Y159734D3*
G1X216850Y160325D3*
G1X216260Y158553D3*
G1X217441Y160325D3*
G1X216260Y159144D3*
G1X216850Y158553D3*
G1X216850Y159734D3*
G1X217441Y159734D3*
G1X182008Y162097D3*
G1X182008Y161506D3*
G1X182008Y160915D3*
G1X183780Y162097D3*
G1X183780Y161506D3*
G1X183780Y160915D3*
G1X182598Y161506D3*
G1X182598Y160915D3*
G1X183189Y160915D3*
G1X183189Y162097D3*
G1X182598Y162097D3*
G1X183189Y161506D3*
G1X186142Y160915D3*
G1X184961Y161506D3*
G1X184961Y160915D3*
G1X184370Y161506D3*
G1X185551Y162097D3*
G1X185551Y161506D3*
G1X185551Y160915D3*
G1X184370Y162097D3*
G1X184370Y160915D3*
G1X184961Y162097D3*
G1X186142Y162097D3*
G1X186142Y161506D3*
G1X187913Y161506D3*
G1X187323Y162097D3*
G1X187323Y161506D3*
G1X186732Y162097D3*
G1X186732Y161506D3*
G1X187323Y160915D3*
G1X187913Y162097D3*
G1X187913Y160915D3*
G1X186732Y160915D3*
G1X189095Y162097D3*
G1X189685Y160915D3*
G1X189685Y162097D3*
G1X189095Y161506D3*
G1X189095Y160915D3*
G1X188504Y162097D3*
G1X188504Y161506D3*
G1X189685Y161506D3*
G1X188504Y160915D3*
G1X190276Y162097D3*
G1X190866Y161506D3*
G1X190866Y160915D3*
G1X190276Y161506D3*
G1X190276Y160915D3*
G1X191457Y160915D3*
G1X191457Y162097D3*
G1X190866Y162097D3*
G1X191457Y161506D3*
G1X192047Y162097D3*
G1X192047Y160915D3*
G1X192047Y161506D3*
G1X194409Y161506D3*
G1X195591Y160915D3*
G1X196181Y160915D3*
G1X195000Y160915D3*
G1X196772Y161506D3*
G1X196772Y160915D3*
G1X199134Y161506D3*
G1X199134Y162097D3*
G1X203858Y162097D3*
G1X203858Y161506D3*
G1X203268Y162097D3*
G1X206221Y160915D3*
G1X206811Y160915D3*
G1X207992Y160915D3*
G1X207402Y160915D3*
G1X211535Y162097D3*
G1X211535Y160915D3*
G1X211535Y161506D3*
G1X212126Y161506D3*
G1X212126Y160915D3*
G1X210945Y161506D3*
G1X210945Y162097D3*
G1X210945Y160915D3*
G1X212126Y162097D3*
G1X212717Y162097D3*
G1X212717Y161506D3*
G1X212717Y160915D3*
G1X213307Y162097D3*
G1X213307Y161506D3*
G1X213307Y160915D3*
G1X213898Y162097D3*
G1X213898Y161506D3*
G1X213898Y160915D3*
G1X215079Y162097D3*
G1X215669Y160915D3*
G1X215669Y162097D3*
G1X215669Y161506D3*
G1X214488Y162097D3*
G1X214488Y161506D3*
G1X214488Y160915D3*
G1X215079Y161506D3*
G1X215079Y160915D3*
G1X216260Y162097D3*
G1X217441Y161506D3*
G1X217441Y160915D3*
G1X216850Y160915D3*
G1X217441Y162097D3*
G1X216260Y161506D3*
G1X216260Y160915D3*
G1X216850Y161506D3*
G1X216850Y162097D3*
G1X182008Y162687D3*
G1X182008Y163278D3*
G1X182008Y163868D3*
G1X183780Y163868D3*
G1X183780Y163278D3*
G1X183780Y162687D3*
G1X182598Y163868D3*
G1X182598Y163278D3*
G1X182598Y162687D3*
G1X183189Y162687D3*
G1X183189Y163868D3*
G1X183189Y163278D3*
G1X185551Y163868D3*
G1X185551Y163278D3*
G1X186142Y163868D3*
G1X184370Y163868D3*
G1X184370Y163278D3*
G1X184370Y162687D3*
G1X184961Y163868D3*
G1X186142Y163278D3*
G1X184961Y163278D3*
G1X184961Y162687D3*
G1X185551Y162687D3*
G1X186142Y162687D3*
G1X186732Y162687D3*
G1X187323Y163868D3*
G1X187323Y163278D3*
G1X187913Y163278D3*
G1X187913Y162687D3*
G1X186732Y163868D3*
G1X186732Y163278D3*
G1X187323Y162687D3*
G1X187913Y163868D3*
G1X189685Y162687D3*
G1X189095Y163278D3*
G1X189095Y162687D3*
G1X188504Y163868D3*
G1X189685Y163868D3*
G1X189685Y163278D3*
G1X188504Y163278D3*
G1X188504Y162687D3*
G1X189095Y163868D3*
G1X190276Y163278D3*
G1X190276Y162687D3*
G1X192047Y163868D3*
G1X190866Y163278D3*
G1X190866Y162687D3*
G1X192047Y163278D3*
G1X190866Y163868D3*
G1X191457Y163868D3*
G1X191457Y163278D3*
G1X191457Y162687D3*
G1X192047Y162687D3*
G1X190276Y163868D3*
G1X192638Y163868D3*
G1X193228Y162687D3*
G1X192638Y163278D3*
G1X192638Y162687D3*
G1X197362Y163868D3*
G1X197362Y163278D3*
G1X197953Y163868D3*
G1X197953Y163278D3*
G1X196772Y163278D3*
G1X196772Y162687D3*
G1X196772Y163868D3*
G1X199134Y162687D3*
G1X198543Y163278D3*
G1X203858Y162687D3*
G1X205630Y163278D3*
G1X204449Y163278D3*
G1X205630Y163868D3*
G1X205039Y163278D3*
G1X205039Y163868D3*
G1X209764Y162687D3*
G1X212126Y162687D3*
G1X210945Y163868D3*
G1X211535Y163868D3*
G1X211535Y163278D3*
G1X210354Y163278D3*
G1X210354Y162687D3*
G1X210945Y163278D3*
G1X210945Y162687D3*
G1X212126Y163868D3*
G1X212126Y163278D3*
G1X211535Y162687D3*
G1X212717Y163868D3*
G1X212717Y163278D3*
G1X212717Y162687D3*
G1X213898Y163278D3*
G1X213307Y163868D3*
G1X213307Y163278D3*
G1X213307Y162687D3*
G1X213898Y162687D3*
G1X213898Y163868D3*
G1X215079Y162687D3*
G1X215079Y163868D3*
G1X215079Y163278D3*
G1X214488Y163868D3*
G1X215669Y163278D3*
G1X214488Y162687D3*
G1X214488Y163278D3*
G1X215669Y163868D3*
G1X215669Y162687D3*
G1X216850Y163868D3*
G1X216850Y163278D3*
G1X216260Y163868D3*
G1X216260Y163278D3*
G1X217441Y163278D3*
G1X217441Y162687D3*
G1X217441Y163868D3*
G1X216260Y162687D3*
G1X216850Y162687D3*
G1X182008Y166230D3*
G1X182008Y164459D3*
G1X182008Y165640D3*
G1X182008Y165049D3*
G1X183780Y165049D3*
G1X183780Y164459D3*
G1X182598Y166230D3*
G1X182598Y164459D3*
G1X182598Y165640D3*
G1X182598Y165049D3*
G1X183780Y166230D3*
G1X183189Y166230D3*
G1X183780Y165640D3*
G1X183189Y165640D3*
G1X183189Y164459D3*
G1X183189Y165049D3*
G1X186142Y165049D3*
G1X184961Y166230D3*
G1X184370Y164459D3*
G1X186142Y164459D3*
G1X184961Y165640D3*
G1X184961Y165049D3*
G1X186142Y166230D3*
G1X186142Y165640D3*
G1X184961Y164459D3*
G1X184370Y166230D3*
G1X185551Y166230D3*
G1X185551Y165640D3*
G1X184370Y165640D3*
G1X184370Y165049D3*
G1X185551Y165049D3*
G1X185551Y164459D3*
G1X187323Y164459D3*
G1X186732Y165049D3*
G1X186732Y164459D3*
G1X187913Y165049D3*
G1X187323Y166230D3*
G1X187323Y165640D3*
G1X187913Y164459D3*
G1X187323Y165049D3*
G1X187913Y166230D3*
G1X187913Y165640D3*
G1X186732Y166230D3*
G1X186732Y165640D3*
G1X188504Y165640D3*
G1X188504Y165049D3*
G1X189095Y166230D3*
G1X189685Y166230D3*
G1X189685Y164459D3*
G1X188504Y164459D3*
G1X189095Y165640D3*
G1X189095Y164459D3*
G1X188504Y166230D3*
G1X189685Y165640D3*
G1X189685Y165049D3*
G1X189095Y165049D3*
G1X192047Y165049D3*
G1X192047Y164459D3*
G1X190866Y166230D3*
G1X191457Y166230D3*
G1X191457Y165640D3*
G1X191457Y165049D3*
G1X191457Y164459D3*
G1X190276Y166230D3*
G1X190276Y165640D3*
G1X190276Y165049D3*
G1X190276Y164459D3*
G1X190866Y164459D3*
G1X190866Y165049D3*
G1X190866Y165640D3*
G1X192047Y166230D3*
G1X192047Y165640D3*
G1X192638Y165640D3*
G1X192638Y165049D3*
G1X192638Y164459D3*
G1X193228Y165049D3*
G1X194409Y165049D3*
G1X197362Y164459D3*
G1X196772Y166230D3*
G1X196772Y165640D3*
G1X196772Y165049D3*
G1X196772Y164459D3*
G1X199134Y166230D3*
G1X199724Y166230D3*
G1X199724Y165640D3*
G1X199724Y165049D3*
G1X199134Y165640D3*
G1X200315Y165640D3*
G1X200315Y166230D3*
G1X200315Y165049D3*
G1X203858Y166230D3*
G1X202677Y166230D3*
G1X203268Y166230D3*
G1X211535Y164459D3*
G1X212126Y165049D3*
G1X212126Y164459D3*
G1X212717Y164459D3*
G1X215079Y165640D3*
G1X215079Y165049D3*
G1X215669Y164459D3*
G1X215079Y164459D3*
G1X182008Y166821D3*
G1X182008Y168002D3*
G1X182008Y167411D3*
G1X183780Y168002D3*
G1X183189Y168002D3*
G1X183189Y167411D3*
G1X183189Y166821D3*
G1X183780Y167411D3*
G1X183780Y166821D3*
G1X182598Y168002D3*
G1X182598Y167411D3*
G1X182598Y166821D3*
G1X184961Y167411D3*
G1X184370Y166821D3*
G1X184961Y166821D3*
G1X185551Y168002D3*
G1X186142Y166821D3*
G1X184961Y168002D3*
G1X186142Y168002D3*
G1X186142Y167411D3*
G1X184370Y168002D3*
G1X184370Y167411D3*
G1X185551Y167411D3*
G1X185551Y166821D3*
G1X186732Y168002D3*
G1X187323Y166821D3*
G1X187913Y168002D3*
G1X187323Y168002D3*
G1X187913Y166821D3*
G1X186732Y167411D3*
G1X187323Y167411D3*
G1X187913Y167411D3*
G1X186732Y166821D3*
G1X189095Y168002D3*
G1X189095Y167411D3*
G1X189095Y166821D3*
G1X189685Y166821D3*
G1X189685Y168002D3*
G1X188504Y168002D3*
G1X188504Y167411D3*
G1X188504Y166821D3*
G1X189685Y167411D3*
G1X192047Y168002D3*
G1X191457Y166821D3*
G1X190276Y166821D3*
G1X190866Y168002D3*
G1X190866Y167411D3*
G1X192047Y167411D3*
G1X192047Y166821D3*
G1X191457Y168002D3*
G1X190276Y168002D3*
G1X190276Y167411D3*
G1X190866Y166821D3*
G1X191457Y167411D3*
G1X192638Y167411D3*
G1X196772Y166821D3*
G1X199724Y166821D3*
G1X199724Y168002D3*
G1X199724Y167411D3*
G1X199134Y168002D3*
G1X199134Y167411D3*
G1X199134Y166821D3*
G1X200315Y168002D3*
G1X200315Y167411D3*
G1X200906Y168002D3*
G1X200315Y166821D3*
G1X202087Y167411D3*
G1X202087Y166821D3*
G1X200906Y167411D3*
G1X202087Y168002D3*
G1X200906Y166821D3*
G1X201496Y167411D3*
G1X201496Y168002D3*
G1X203858Y168002D3*
G1X203858Y167411D3*
G1X203858Y166821D3*
G1X202677Y166821D3*
G1X203268Y168002D3*
G1X203268Y167411D3*
G1X203268Y166821D3*
G1X202677Y168002D3*
G1X202677Y167411D3*
G1X209764Y167411D3*
G1X210945Y168002D3*
G1X210354Y167411D3*
G1X182008Y169774D3*
G1X182008Y169183D3*
G1X182008Y170364D3*
G1X182008Y168593D3*
G1X183780Y170364D3*
G1X183780Y169774D3*
G1X183780Y169183D3*
G1X183780Y168593D3*
G1X182598Y169774D3*
G1X182598Y169183D3*
G1X182598Y168593D3*
G1X182598Y170364D3*
G1X183189Y170364D3*
G1X183189Y169774D3*
G1X183189Y169183D3*
G1X183189Y168593D3*
G1X185551Y169774D3*
G1X185551Y169183D3*
G1X185551Y168593D3*
G1X184370Y168593D3*
G1X184370Y170364D3*
G1X185551Y170364D3*
G1X186142Y169183D3*
G1X186142Y168593D3*
G1X186142Y170364D3*
G1X184961Y170364D3*
G1X186142Y169774D3*
G1X184370Y169774D3*
G1X184961Y169183D3*
G1X184961Y168593D3*
G1X184961Y169774D3*
G1X184370Y169183D3*
G1X187913Y169183D3*
G1X187913Y169774D3*
G1X186732Y170364D3*
G1X187913Y168593D3*
G1X186732Y169774D3*
G1X187323Y170364D3*
G1X187323Y168593D3*
G1X187913Y170364D3*
G1X187323Y169774D3*
G1X186732Y169183D3*
G1X186732Y168593D3*
G1X187323Y169183D3*
G1X189095Y170364D3*
G1X189095Y169774D3*
G1X189095Y169183D3*
G1X189095Y168593D3*
G1X188504Y170364D3*
G1X188504Y169774D3*
G1X188504Y169183D3*
G1X188504Y168593D3*
G1X189685Y169774D3*
G1X189685Y169183D3*
G1X189685Y168593D3*
G1X189685Y170364D3*
G1X190276Y170364D3*
G1X190276Y169774D3*
G1X190276Y169183D3*
G1X190866Y170364D3*
G1X190866Y169774D3*
G1X191457Y169183D3*
G1X191457Y168593D3*
G1X192047Y170364D3*
G1X190276Y168593D3*
G1X190866Y169183D3*
G1X190866Y168593D3*
G1X192047Y169774D3*
G1X191457Y170364D3*
G1X191457Y169774D3*
G1X192047Y169183D3*
G1X192047Y168593D3*
G1X193819Y170364D3*
G1X192638Y170364D3*
G1X193228Y170364D3*
G1X199724Y168593D3*
G1X199724Y170364D3*
G1X199134Y169774D3*
G1X199134Y169183D3*
G1X199134Y168593D3*
G1X199724Y169774D3*
G1X199724Y169183D3*
G1X198543Y169183D3*
G1X200315Y168593D3*
G1X202087Y170364D3*
G1X201496Y170364D3*
G1X201496Y169774D3*
G1X201496Y169183D3*
G1X200906Y168593D3*
G1X202087Y169774D3*
G1X202087Y169183D3*
G1X202087Y168593D3*
G1X200315Y170364D3*
G1X200315Y169183D3*
G1X200906Y170364D3*
G1X200906Y169774D3*
G1X200906Y169183D3*
G1X200315Y169774D3*
G1X201496Y168593D3*
G1X202677Y168593D3*
G1X203858Y169774D3*
G1X203268Y168593D3*
G1X203858Y169183D3*
G1X203268Y170364D3*
G1X203268Y169774D3*
G1X203268Y169183D3*
G1X203858Y168593D3*
G1X202677Y170364D3*
G1X202677Y169774D3*
G1X202677Y169183D3*
G1X204449Y169183D3*
G1X209764Y170364D3*
G1X209173Y170364D3*
G1X208583Y170364D3*
G1X210945Y170364D3*
G1X210945Y169774D3*
G1X211535Y169183D3*
G1X211535Y168593D3*
G1X212126Y170364D3*
G1X212126Y169774D3*
G1X210945Y169183D3*
G1X212126Y169183D3*
G1X210945Y168593D3*
G1X211535Y170364D3*
G1X210354Y170364D3*
G1X211535Y169774D3*
G1X212126Y168593D3*
G1X212717Y168593D3*
G1X213307Y170364D3*
G1X213307Y168593D3*
G1X213307Y169774D3*
G1X212717Y170364D3*
G1X213307Y169183D3*
G1X212717Y169774D3*
G1X212717Y169183D3*
G1X213898Y169183D3*
G1X213898Y168593D3*
G1X213898Y170364D3*
G1X213898Y169774D3*
G1X215079Y170364D3*
G1X214488Y168593D3*
G1X215669Y169774D3*
G1X215079Y168593D3*
G1X215669Y169183D3*
G1X215669Y168593D3*
G1X215669Y170364D3*
G1X214488Y170364D3*
G1X214488Y169774D3*
G1X215079Y169774D3*
G1X215079Y169183D3*
G1X214488Y169183D3*
G1X216850Y168593D3*
G1X216260Y168593D3*
G1X216850Y170364D3*
G1X217441Y170364D3*
G1X217441Y169774D3*
G1X216850Y169774D3*
G1X216260Y170364D3*
G1X216850Y169183D3*
G1X217441Y169183D3*
G1X217441Y168593D3*
G1X216260Y169774D3*
G1X216260Y169183D3*
G1X182008Y170955D3*
G1X182008Y172136D3*
G1X182008Y171545D3*
G1X182598Y172136D3*
G1X182598Y171545D3*
G1X182598Y170955D3*
G1X183189Y171545D3*
G1X183189Y170955D3*
G1X183780Y172136D3*
G1X183780Y171545D3*
G1X183189Y172136D3*
G1X183780Y170955D3*
G1X184961Y172136D3*
G1X184961Y171545D3*
G1X185551Y171545D3*
G1X185551Y172136D3*
G1X184370Y171545D3*
G1X184370Y170955D3*
G1X184961Y170955D3*
G1X186142Y172136D3*
G1X185551Y170955D3*
G1X184370Y172136D3*
G1X186142Y171545D3*
G1X186142Y170955D3*
G1X187913Y172136D3*
G1X186732Y172136D3*
G1X186732Y171545D3*
G1X186732Y170955D3*
G1X187913Y171545D3*
G1X187913Y170955D3*
G1X187323Y172136D3*
G1X187323Y171545D3*
G1X187323Y170955D3*
G1X189095Y171545D3*
G1X189095Y170955D3*
G1X189095Y172136D3*
G1X188504Y172136D3*
G1X189685Y170955D3*
G1X188504Y171545D3*
G1X189685Y171545D3*
G1X188504Y170955D3*
G1X189685Y172136D3*
G1X191457Y172136D3*
G1X190866Y171545D3*
G1X192047Y172136D3*
G1X192047Y171545D3*
G1X192047Y170955D3*
G1X191457Y171545D3*
G1X190866Y172136D3*
G1X190276Y172136D3*
G1X190866Y170955D3*
G1X190276Y171545D3*
G1X191457Y170955D3*
G1X190276Y170955D3*
G1X192638Y172136D3*
G1X192638Y171545D3*
G1X193228Y170955D3*
G1X192638Y170955D3*
G1X193228Y172136D3*
G1X193228Y171545D3*
G1X201496Y170955D3*
G1X202087Y171545D3*
G1X201496Y172136D3*
G1X201496Y171545D3*
G1X200315Y170955D3*
G1X200906Y170955D3*
G1X200906Y171545D3*
G1X202087Y170955D3*
G1X202677Y170955D3*
G1X206221Y172136D3*
G1X209764Y170955D3*
G1X209764Y172136D3*
G1X209764Y171545D3*
G1X209173Y170955D3*
G1X212126Y171545D3*
G1X211535Y170955D3*
G1X212126Y172136D3*
G1X211535Y172136D3*
G1X210354Y172136D3*
G1X212126Y170955D3*
G1X210354Y171545D3*
G1X210945Y172136D3*
G1X210354Y170955D3*
G1X211535Y171545D3*
G1X210945Y171545D3*
G1X210945Y170955D3*
G1X213307Y170955D3*
G1X212717Y170955D3*
G1X213307Y172136D3*
G1X213307Y171545D3*
G1X212717Y172136D3*
G1X212717Y171545D3*
G1X213898Y171545D3*
G1X213898Y170955D3*
G1X213898Y172136D3*
G1X214488Y171545D3*
G1X214488Y172136D3*
G1X215669Y172136D3*
G1X215669Y171545D3*
G1X215669Y170955D3*
G1X214488Y170955D3*
G1X215079Y171545D3*
G1X215079Y170955D3*
G1X215079Y172136D3*
G1X216850Y170955D3*
G1X216260Y172136D3*
G1X216260Y171545D3*
G1X217441Y170955D3*
G1X216260Y170955D3*
G1X217441Y172136D3*
G1X217441Y171545D3*
G1X216850Y172136D3*
G1X216850Y171545D3*
G1X182008Y173317D3*
G1X182008Y173908D3*
G1X182008Y172726D3*
G1X182598Y172726D3*
G1X184961Y173908D3*
G1X184961Y173317D3*
G1X184961Y172726D3*
G1X185551Y173908D3*
G1X185551Y173317D3*
G1X185551Y172726D3*
G1X186142Y173908D3*
G1X186142Y173317D3*
G1X186142Y172726D3*
G1X184370Y172726D3*
G1X187913Y173317D3*
G1X187323Y172726D3*
G1X186732Y173908D3*
G1X186732Y173317D3*
G1X186732Y172726D3*
G1X187913Y172726D3*
G1X187913Y173908D3*
G1X187323Y173908D3*
G1X187323Y173317D3*
G1X189095Y173317D3*
G1X189095Y172726D3*
G1X188504Y172726D3*
G1X189685Y173908D3*
G1X189685Y173317D3*
G1X189685Y172726D3*
G1X188504Y173908D3*
G1X188504Y173317D3*
G1X189095Y173908D3*
G1X190276Y173908D3*
G1X190276Y173317D3*
G1X190276Y172726D3*
G1X191457Y172726D3*
G1X190866Y173908D3*
G1X190866Y173317D3*
G1X191457Y173908D3*
G1X191457Y173317D3*
G1X190866Y172726D3*
G1X192047Y173908D3*
G1X192047Y173317D3*
G1X192047Y172726D3*
G1X192638Y173908D3*
G1X193228Y173317D3*
G1X193228Y173908D3*
G1X193228Y172726D3*
G1X193819Y173908D3*
G1X193819Y173317D3*
G1X192638Y173317D3*
G1X192638Y172726D3*
G1X194409Y173908D3*
G1X194409Y173317D3*
G1X196181Y173908D3*
G1X196181Y173317D3*
G1X195000Y173908D3*
G1X196181Y172726D3*
G1X195591Y173908D3*
G1X195591Y173317D3*
G1X195000Y173317D3*
G1X201496Y173317D3*
G1X201496Y172726D3*
G1X201496Y173908D3*
G1X207402Y173317D3*
G1X206221Y173317D3*
G1X206221Y172726D3*
G1X206811Y173317D3*
G1X206811Y173908D3*
G1X207992Y173908D3*
G1X207992Y173317D3*
G1X206221Y173908D3*
G1X207402Y173908D3*
G1X209764Y172726D3*
G1X209173Y173908D3*
G1X209173Y173317D3*
G1X209173Y172726D3*
G1X208583Y173908D3*
G1X208583Y173317D3*
G1X209764Y173908D3*
G1X209764Y173317D3*
G1X210945Y172726D3*
G1X212126Y172726D3*
G1X211535Y173908D3*
G1X211535Y173317D3*
G1X210354Y173317D3*
G1X210354Y172726D3*
G1X211535Y172726D3*
G1X210354Y173908D3*
G1X212126Y173908D3*
G1X210945Y173908D3*
G1X212126Y173317D3*
G1X210945Y173317D3*
G1X212717Y173908D3*
G1X212717Y173317D3*
G1X213307Y173908D3*
G1X212717Y172726D3*
G1X213898Y173908D3*
G1X213898Y173317D3*
G1X213898Y172726D3*
G1X213307Y173317D3*
G1X213307Y172726D3*
G1X214488Y173317D3*
G1X214488Y172726D3*
G1X215079Y173908D3*
G1X215669Y172726D3*
G1X214488Y173908D3*
G1X215079Y173317D3*
G1X215079Y172726D3*
G1X217441Y172726D3*
G1X182008Y174498D3*
G1X184961Y174498D3*
G1X185551Y174498D3*
G1X184370Y174498D3*
G1X186142Y174498D3*
G1X187323Y174498D3*
G1X186732Y174498D3*
G1X187913Y174498D3*
G1X189685Y174498D3*
G1X188504Y174498D3*
G1X189095Y174498D3*
G1X190276Y174498D3*
G1X191457Y174498D3*
G1X190866Y174498D3*
G1X192047Y174498D3*
G1X192638Y174498D3*
G1X193228Y174498D3*
G1X193819Y174498D3*
G1X194409Y174498D3*
G1X195000Y174498D3*
G1X195591Y174498D3*
G1X196181Y174498D3*
G1X201496Y174498D3*
G1X206221Y174498D3*
G1X206811Y174498D3*
G1X207402Y174498D3*
G1X207992Y174498D3*
G1X209173Y174498D3*
G1X208583Y174498D3*
G1X209764Y174498D3*
G1X210354Y174498D3*
G1X211535Y174498D3*
G1X212126Y174498D3*
G1X210945Y174498D3*
G1X212717Y174498D3*
G1X213307Y174498D3*
G1X213898Y174498D3*
G1X215079Y174498D3*
G1X215669Y174498D3*
G1X214488Y174498D3*
G1X217697Y167746D2*
G54D25*
G1X211855Y167746D1*
G1X209532Y165423D1*
G1X202032Y165423D1*
G1X200965Y164356D1*
G1X200965Y164124D1*
G1X201905Y164124D1*
G1X202653Y164872D1*
G1X210714Y164872D1*
G1X212407Y166565D1*
G1X217697Y166565D1*
G1X217697Y167746D1*
G1X201791Y164085D2*
G1X201865Y164085D1*
G1X202461Y163489D1*
G1X202461Y159006D1*
G1X202111Y159006D1*
G1X201791Y159326D1*
G1X201791Y164085D1*
G1X200965Y164085D2*
G1X200891Y164085D1*
G1X200295Y163489D1*
G1X200295Y159006D1*
G1X200645Y159006D1*
G1X200965Y159326D1*
G1X200965Y164085D1*
G1X211847Y167738D2*
G1X217697Y167738D1*
G1X211741Y167632D2*
G1X217697Y167632D1*
G1X211635Y167526D2*
G1X217697Y167526D1*
G1X211528Y167419D2*
G1X217697Y167419D1*
G1X211422Y167313D2*
G1X217697Y167313D1*
G1X211316Y167207D2*
G1X217697Y167207D1*
G1X211209Y167100D2*
G1X217697Y167100D1*
G1X211103Y166994D2*
G1X217697Y166994D1*
G1X210997Y166888D2*
G1X217697Y166888D1*
G1X210891Y166781D2*
G1X217697Y166781D1*
G1X210784Y166675D2*
G1X217697Y166675D1*
G1X210678Y166569D2*
G1X217697Y166569D1*
G1X210572Y166463D2*
G1X212304Y166463D1*
G1X210465Y166356D2*
G1X212198Y166356D1*
G1X210359Y166250D2*
G1X212092Y166250D1*
G1X210253Y166144D2*
G1X211985Y166144D1*
G1X210146Y166037D2*
G1X211879Y166037D1*
G1X210040Y165931D2*
G1X211773Y165931D1*
G1X209934Y165825D2*
G1X211666Y165825D1*
G1X209828Y165718D2*
G1X211560Y165718D1*
G1X209721Y165612D2*
G1X211454Y165612D1*
G1X209615Y165506D2*
G1X211348Y165506D1*
G1X202009Y165400D2*
G1X211241Y165400D1*
G1X201902Y165293D2*
G1X211135Y165293D1*
G1X201796Y165187D2*
G1X211029Y165187D1*
G1X201690Y165081D2*
G1X210922Y165081D1*
G1X201583Y164974D2*
G1X210816Y164974D1*
G1X201477Y164868D2*
G1X202649Y164868D1*
G1X201371Y164762D2*
G1X202542Y164762D1*
G1X201265Y164655D2*
G1X202436Y164655D1*
G1X201158Y164549D2*
G1X202330Y164549D1*
G1X201052Y164443D2*
G1X202223Y164443D1*
G1X200965Y164337D2*
G1X202117Y164337D1*
G1X200965Y164230D2*
G1X202011Y164230D1*
G1X201791Y163470D2*
G1X202461Y163470D1*
G1X201791Y163364D2*
G1X202461Y163364D1*
G1X201791Y163258D2*
G1X202461Y163258D1*
G1X201791Y163151D2*
G1X202461Y163151D1*
G1X201791Y163045D2*
G1X202461Y163045D1*
G1X201791Y162939D2*
G1X202461Y162939D1*
G1X201791Y162833D2*
G1X202461Y162833D1*
G1X201791Y162726D2*
G1X202461Y162726D1*
G1X201791Y162620D2*
G1X202461Y162620D1*
G1X201791Y162514D2*
G1X202461Y162514D1*
G1X201791Y162407D2*
G1X202461Y162407D1*
G1X201791Y162301D2*
G1X202461Y162301D1*
G1X201791Y162195D2*
G1X202461Y162195D1*
G1X201791Y162089D2*
G1X202461Y162089D1*
G1X201791Y161982D2*
G1X202461Y161982D1*
G1X201791Y161876D2*
G1X202461Y161876D1*
G1X201791Y161770D2*
G1X202461Y161770D1*
G1X201791Y161663D2*
G1X202461Y161663D1*
G1X201791Y161557D2*
G1X202461Y161557D1*
G1X201791Y161451D2*
G1X202461Y161451D1*
G1X201791Y161344D2*
G1X202461Y161344D1*
G1X201791Y161238D2*
G1X202461Y161238D1*
G1X201791Y161132D2*
G1X202461Y161132D1*
G1X201791Y161026D2*
G1X202461Y161026D1*
G1X201791Y160919D2*
G1X202461Y160919D1*
G1X201791Y160813D2*
G1X202461Y160813D1*
G1X201791Y160707D2*
G1X202461Y160707D1*
G1X201791Y160600D2*
G1X202461Y160600D1*
G1X201791Y160494D2*
G1X202461Y160494D1*
G1X201791Y160388D2*
G1X202461Y160388D1*
G1X201791Y160281D2*
G1X202461Y160281D1*
G1X201791Y160175D2*
G1X202461Y160175D1*
G1X201791Y160069D2*
G1X202461Y160069D1*
G1X201791Y159963D2*
G1X202461Y159963D1*
G1X201791Y159856D2*
G1X202461Y159856D1*
G1X201791Y159750D2*
G1X202461Y159750D1*
G1X201791Y159644D2*
G1X202461Y159644D1*
G1X201791Y159537D2*
G1X202461Y159537D1*
G1X201791Y159431D2*
G1X202461Y159431D1*
G1X201792Y159325D2*
G1X202461Y159325D1*
G1X201899Y159218D2*
G1X202461Y159218D1*
G1X202005Y159112D2*
G1X202461Y159112D1*
G1X201791Y163577D2*
G1X202373Y163577D1*
G1X201791Y163683D2*
G1X202267Y163683D1*
G1X201791Y163789D2*
G1X202161Y163789D1*
G1X201791Y163896D2*
G1X202054Y163896D1*
G1X201791Y164002D2*
G1X201948Y164002D1*
G1X200808Y164002D2*
G1X200965Y164002D1*
G1X200702Y163896D2*
G1X200965Y163896D1*
G1X200595Y163789D2*
G1X200965Y163789D1*
G1X200489Y163683D2*
G1X200965Y163683D1*
G1X200383Y163577D2*
G1X200965Y163577D1*
G1X200295Y163470D2*
G1X200965Y163470D1*
G1X200295Y163364D2*
G1X200965Y163364D1*
G1X200295Y163258D2*
G1X200965Y163258D1*
G1X200295Y163151D2*
G1X200965Y163151D1*
G1X200295Y163045D2*
G1X200965Y163045D1*
G1X200295Y162939D2*
G1X200965Y162939D1*
G1X200295Y162833D2*
G1X200965Y162833D1*
G1X200295Y162726D2*
G1X200965Y162726D1*
G1X200295Y162620D2*
G1X200965Y162620D1*
G1X200295Y162514D2*
G1X200965Y162514D1*
G1X200295Y162407D2*
G1X200965Y162407D1*
G1X200295Y162301D2*
G1X200965Y162301D1*
G1X200295Y162195D2*
G1X200965Y162195D1*
G1X200295Y162089D2*
G1X200965Y162089D1*
G1X200295Y161982D2*
G1X200965Y161982D1*
G1X200295Y161876D2*
G1X200965Y161876D1*
G1X200295Y161770D2*
G1X200965Y161770D1*
G1X200295Y161663D2*
G1X200965Y161663D1*
G1X200295Y161557D2*
G1X200965Y161557D1*
G1X200295Y161451D2*
G1X200965Y161451D1*
G1X200295Y161344D2*
G1X200965Y161344D1*
G1X200295Y161238D2*
G1X200965Y161238D1*
G1X200295Y161132D2*
G1X200965Y161132D1*
G1X200295Y161026D2*
G1X200965Y161026D1*
G1X200295Y160919D2*
G1X200965Y160919D1*
G1X200295Y160813D2*
G1X200965Y160813D1*
G1X200295Y160707D2*
G1X200965Y160707D1*
G1X200295Y160600D2*
G1X200965Y160600D1*
G1X200295Y160494D2*
G1X200965Y160494D1*
G1X200295Y160388D2*
G1X200965Y160388D1*
G1X200295Y160281D2*
G1X200965Y160281D1*
G1X200295Y160175D2*
G1X200965Y160175D1*
G1X200295Y160069D2*
G1X200965Y160069D1*
G1X200295Y159963D2*
G1X200965Y159963D1*
G1X200295Y159856D2*
G1X200965Y159856D1*
G1X200295Y159750D2*
G1X200965Y159750D1*
G1X200295Y159644D2*
G1X200965Y159644D1*
G1X200295Y159537D2*
G1X200965Y159537D1*
G1X200295Y159431D2*
G1X200965Y159431D1*
G1X200295Y159325D2*
G1X200964Y159325D1*
G1X200295Y159218D2*
G1X200857Y159218D1*
G1X200295Y159112D2*
G1X200751Y159112D1*
G1X217500Y146230D2*
G75*
G3X217500Y146230I-768J0D1*
G1X217500Y173789D2*
G3X217500Y173789I-768J0D1*
G1X205654Y168159D2*
G3X205654Y168159I-571J0D1*
G1X198303Y162097D2*
G3X198303Y162097I-571J0D1*
G1X198303Y168159D2*
G3X198303Y168159I-571J0D1*
G1X196319Y162097D2*
G3X196319Y162097I-571J0D1*
G1X184035Y146230D2*
G3X184035Y146230I-768J0D1*
G1X184036Y173789D2*
G3X184036Y173789I-768J0D1*
G1X205386Y145600D2*
G3X205386Y145600I-512J0D1*
G1X207638Y162097D2*
G3X207638Y162097I-571J0D1*
G1X205654Y162097D2*
G3X205654Y162097I-571J0D1*
G74*
G1X218445Y144577D2*
G1X218445Y175443D1*
G75*
G3X218386Y175502I-59J0D1*
G74*
G1X181614Y175502D1*
G75*
G3X181555Y175443I0J-59D1*
G74*
G1X181555Y144577D1*
G75*
G3X181614Y144518I59J0D1*
G74*
G1X218386Y144518D1*
G75*
G3X218445Y144577I0J59D1*
G1X217500Y146230D2*
G3X217500Y146230I-768J0D1*
G1X216831Y164616D2*
G3X216831Y165758I0J571D1*
G74*
G1X216831Y164616D2*
G1X216437Y164616D1*
G1X216437Y165758D2*
G75*
G3X216437Y164616I0J-571D1*
G74*
G1X216437Y165758D2*
G1X216831Y165758D1*
G1X213878Y164616D2*
G75*
G3X213878Y165758I0J571D1*
G74*
G1X213878Y164616D2*
G1X213484Y164616D1*
G1X213484Y165758D2*
G75*
G3X213484Y164616I0J-571D1*
G74*
G1X213484Y165758D2*
G1X213878Y165758D1*
G1X217933Y167746D2*
G1X217933Y166565D1*
G1X217697Y166329D2*
G75*
G3X217933Y166565I0J236D1*
G74*
G1X217697Y166329D2*
G1X212529Y166329D1*
G75*
G3X212487Y166311I0J-59D1*
G74*
G1X210881Y164705D1*
G1X210714Y164636D2*
G75*
G3X210881Y164705I0J236D1*
G74*
G1X210714Y164636D2*
G1X209425Y164636D1*
G75*
G3X209380Y164538I0J-59D1*
G1X209428Y164476D2*
G3X209380Y164538I-474J-316D1*
G1X209428Y164476D2*
G3X209435Y164467I49J33D1*
G74*
G1X209889Y164013D1*
G1X209923Y163966D2*
G75*
G3X209889Y164013I-159J-78D1*
G1X209585Y163320D2*
G3X209923Y163966I-66J446D1*
G1X209585Y163320D2*
G3X209578Y163319I9J-58D1*
G74*
G1X209002Y163165D1*
G1X208957Y163159D2*
G75*
G3X209002Y163165I0J177D1*
G74*
G1X208957Y163159D2*
G1X208878Y163159D1*
G1X208839Y163164D2*
G75*
G3X208878Y163159I39J173D1*
G1X208386Y163730D2*
G3X208839Y163164I581J0D1*
G74*
G1X208386Y163730D3*
G1X208386Y163730D3*
G1X208386Y163730D2*
G1X208386Y164114D1*
G1X208386Y164119D1*
G1X208527Y164538D2*
G75*
G3X208386Y164119I426J-378D1*
G1X208527Y164538D2*
G3X208483Y164636I-44J39D1*
G74*
G1X202775Y164636D1*
G75*
G3X202733Y164619I0J-59D1*
G74*
G1X202241Y164126D1*
G75*
G3X202241Y164043I42J-42D1*
G74*
G1X202628Y163656D1*
G1X202697Y163489D2*
G75*
G3X202628Y163656I-236J0D1*
G74*
G1X202697Y163489D2*
G1X202697Y159220D1*
G75*
G3X202729Y159167I59J0D1*
G1X202904Y158790D2*
G3X202729Y159167I-326J78D1*
G1X202904Y158790D2*
G3X202903Y158776I57J-14D1*
G74*
G1X202903Y158527D1*
G75*
G3X202904Y158513I59J0D1*
G1X202411Y158145D2*
G3X202904Y158513I167J290D1*
G1X202411Y158145D2*
G3X202352Y158145I-30J-51D1*
G1X201860Y158513D2*
G3X202352Y158145I325J-78D1*
G1X201860Y158513D2*
G3X201861Y158527I-57J14D1*
G74*
G1X201861Y158639D1*
G75*
G3X201844Y158680I-59J0D1*
G74*
G1X201606Y158919D1*
G1X201496Y159183D2*
G75*
G3X201606Y158919I374J0D1*
G74*
G1X201496Y159183D2*
G1X201496Y159247D1*
G1X201496Y163419D1*
G75*
G3X201453Y163476I-59J0D1*
G74*
G1X201431Y163482D1*
G75*
G3X201396Y163481I-16J-57D1*
G74*
G1X201339Y163462D1*
G75*
G3X201299Y163406I19J-56D1*
G74*
G1X201299Y159286D1*
G1X201299Y159242D1*
G1X201190Y158978D2*
G75*
G3X201299Y159242I-264J264D1*
G74*
G1X201190Y158978D2*
G1X200909Y158697D1*
G1X200892Y158680D1*
G75*
G3X200875Y158639I42J-42D1*
G74*
G1X200875Y158527D1*
G75*
G3X200877Y158513I59J0D1*
G1X200384Y158145D2*
G3X200877Y158513I167J290D1*
G1X200384Y158145D2*
G3X200325Y158145I-30J-51D1*
G1X199832Y158513D2*
G3X200325Y158145I325J-78D1*
G1X199832Y158513D2*
G3X199834Y158527I-57J14D1*
G74*
G1X199834Y158776D1*
G75*
G3X199832Y158790I-59J0D1*
G1X200024Y159175D2*
G3X199832Y158790I134J-307D1*
G1X200024Y159175D2*
G3X200059Y159229I-24J54D1*
G74*
G1X200059Y163489D1*
G1X200128Y163656D2*
G75*
G3X200059Y163489I167J-167D1*
G74*
G1X200128Y163656D2*
G1X200711Y164239D1*
G75*
G3X200728Y164281I-42J42D1*
G74*
G1X200728Y164356D1*
G1X200798Y164523D2*
G75*
G3X200728Y164356I167J-167D1*
G74*
G1X200798Y164523D2*
G1X201865Y165590D1*
G1X202032Y165660D2*
G75*
G3X201865Y165590I0J-236D1*
G74*
G1X202032Y165660D2*
G1X207212Y165660D1*
G75*
G3X207241Y165770I0J59D1*
G1X207087Y165919D2*
G3X207241Y165770I354J213D1*
G1X207087Y165919D2*
G3X207078Y165930I-51J-30D1*
G74*
G1X206775Y166233D1*
G1X206654Y166526D2*
G75*
G3X206775Y166233I413J0D1*
G74*
G1X206654Y166526D2*
G1X206654Y167694D1*
G75*
G3X206649Y167717I-59J0D1*
G74*
G1X206604Y167824D1*
G75*
G3X206598Y167834I-54J-23D1*
G1X207536Y167834D2*
G3X206598Y167834I-469J325D1*
G1X207536Y167834D2*
G3X207530Y167824I49J-33D1*
G74*
G1X207485Y167717D1*
G75*
G3X207480Y167694I54J-23D1*
G74*
G1X207480Y166721D1*
G75*
G3X207498Y166680I59J0D1*
G74*
G1X207615Y166563D1*
G75*
G3X207656Y166545I42J42D1*
G74*
G1X207891Y166545D1*
G75*
G3X207949Y166596I0J59D1*
G1X208329Y166975D2*
G3X207949Y166596I66J-446D1*
G1X208329Y166975D2*
G3X208335Y166976I-8J58D1*
G74*
G1X208911Y167130D1*
G1X208957Y167136D2*
G75*
G3X208911Y167130I0J-177D1*
G74*
G1X208957Y167136D2*
G1X209035Y167136D1*
G1X209074Y167132D2*
G75*
G3X209035Y167136I-39J-173D1*
G1X209528Y166565D2*
G3X209074Y167132I-581J0D1*
G74*
G1X209528Y166565D3*
G1X209528Y166565D2*
G1X209528Y166181D1*
G1X209528Y166177D1*
G1X209441Y165831D2*
G75*
G3X209528Y166177I-482J304D1*
G1X209441Y165831D2*
G3X209533Y165758I50J-32D1*
G74*
G1X211688Y167913D1*
G1X211855Y167982D2*
G75*
G3X211688Y167913I0J-236D1*
G74*
G1X211855Y167982D2*
G1X217697Y167982D1*
G1X217933Y167746D2*
G75*
G3X217697Y167982I-236J0D1*
G1X217500Y173789D2*
G3X217500Y173789I-768J0D1*
G74*
G1X208871Y171881D2*
G1X208871Y171681D1*
G1X206917Y171681D2*
G75*
G3X208871Y171681I977J0D1*
G74*
G1X206917Y171681D2*
G1X206917Y171881D1*
G1X208871Y171881D2*
G75*
G3X206917Y171881I-977J0D1*
G1X205654Y168159D2*
G3X205654Y168159I-571J0D1*
G1X204952Y172660D2*
G3X204952Y174002I92J671D1*
G1X204952Y172660D2*
G3X204936Y172660I-8J-59D1*
G1X204936Y174002D2*
G3X204936Y172660I-92J-671D1*
G1X204936Y174002D2*
G3X204952Y174002I8J59D1*
G1X203002Y172660D2*
G3X203002Y174002I92J671D1*
G1X203002Y172660D2*
G3X202986Y172660I-8J-59D1*
G1X202986Y174002D2*
G3X202986Y172660I-92J-671D1*
G1X202986Y174002D2*
G3X203002Y174002I8J59D1*
G1X199802Y172660D2*
G3X199802Y174002I92J671D1*
G1X199802Y172660D2*
G3X199786Y172660I-8J-59D1*
G1X199786Y174002D2*
G3X199786Y172660I-92J-671D1*
G1X199786Y174002D2*
G3X199802Y174002I8J59D1*
G1X198303Y162097D2*
G3X198303Y162097I-571J0D1*
G1X198303Y168159D2*
G3X198303Y168159I-571J0D1*
G1X197852Y172660D2*
G3X197852Y174002I92J671D1*
G1X197852Y172660D2*
G3X197836Y172660I-8J-59D1*
G1X197836Y174002D2*
G3X197836Y172660I-92J-671D1*
G1X197836Y174002D2*
G3X197852Y174002I8J59D1*
G1X196319Y162097D2*
G3X196319Y162097I-571J0D1*
G1X194486Y163320D2*
G3X194824Y163966I-66J446D1*
G1X194486Y163320D2*
G3X194480Y163319I9J-58D1*
G74*
G1X193904Y163165D1*
G1X193858Y163159D2*
G75*
G3X193904Y163165I0J177D1*
G74*
G1X193858Y163159D2*
G1X193780Y163159D1*
G1X193741Y163164D2*
G75*
G3X193780Y163159I39J173D1*
G1X193287Y163730D2*
G3X193741Y163164I581J0D1*
G74*
G1X193287Y163730D3*
G1X193287Y163730D3*
G1X193287Y163730D2*
G1X193287Y164114D1*
G1X193287Y164119D1*
G1X194329Y164476D2*
G75*
G3X193287Y164119I-474J-316D1*
G1X194329Y164476D2*
G3X194337Y164467I49J33D1*
G74*
G1X194791Y164013D1*
G1X194824Y163966D2*
G75*
G3X194791Y164013I-159J-79D1*
G1X196217Y167834D2*
G3X195279Y167834I-469J325D1*
G1X196217Y167834D2*
G3X196212Y167824I49J-33D1*
G74*
G1X196166Y167717D1*
G75*
G3X196161Y167694I54J-23D1*
G74*
G1X196161Y166782D1*
G1X196040Y166489D2*
G75*
G3X196161Y166782I-292J292D1*
G74*
G1X196040Y166489D2*
G1X195391Y165840D1*
G1X195098Y165719D2*
G75*
G3X195391Y165840I0J413D1*
G74*
G1X195098Y165719D2*
G1X194272Y165719D1*
G75*
G3X194234Y165704I0J-59D1*
G1X193387Y165819D2*
G3X194234Y165704I474J316D1*
G1X193387Y165819D2*
G3X193380Y165828I-49J-33D1*
G74*
G1X192926Y166282D1*
G1X192892Y166329D2*
G75*
G3X192926Y166282I159J79D1*
G1X193230Y166975D2*
G3X192892Y166329I66J-446D1*
G1X193230Y166975D2*
G3X193237Y166976I-8J59D1*
G74*
G1X193813Y167130D1*
G1X193858Y167136D2*
G75*
G3X193813Y167130I0J-177D1*
G74*
G1X193858Y167136D2*
G1X193937Y167136D1*
G1X193976Y167132D2*
G75*
G3X193937Y167136I-39J-173D1*
G1X194428Y166601D2*
G3X193976Y167132I-580J-36D1*
G1X194428Y166601D2*
G3X194487Y166545I59J4D1*
G74*
G1X194903Y166545D1*
G75*
G3X194945Y166563I0J59D1*
G74*
G1X195317Y166935D1*
G75*
G3X195335Y166977I-42J42D1*
G74*
G1X195335Y167694D1*
G75*
G3X195330Y167717I-59J0D1*
G74*
G1X195285Y167824D1*
G75*
G3X195279Y167834I-54J-23D1*
G74*
G1X195871Y171881D2*
G1X195871Y171681D1*
G1X193917Y171681D2*
G75*
G3X195871Y171681I977J0D1*
G74*
G1X193917Y171681D2*
G1X193917Y171881D1*
G1X195871Y171881D2*
G75*
G3X193917Y171881I-977J0D1*
G1X184035Y146230D2*
G3X184035Y146230I-768J0D1*
G1X184036Y173789D2*
G3X184036Y173789I-768J0D1*
G1X205386Y145600D2*
G3X205386Y145600I-512J0D1*
G1X203426Y146353D2*
G3X203426Y146847I448J247D1*
G1X203426Y146353D2*
G3X203322Y146353I-52J-29D1*
G1X203121Y146152D2*
G3X203322Y146353I-247J448D1*
G1X203121Y146152D2*
G3X203121Y146049I29J-52D1*
G1X202426Y145353D2*
G3X203121Y146049I448J247D1*
G1X202426Y145353D2*
G3X202322Y145353I-52J-29D1*
G1X201426Y145353D2*
G3X202322Y145353I448J247D1*
G1X201426Y145353D2*
G3X201322Y145353I-52J-29D1*
G1X200426Y145353D2*
G3X201322Y145353I448J247D1*
G1X200426Y145353D2*
G3X200322Y145353I-52J-29D1*
G1X199426Y145353D2*
G3X200322Y145353I448J247D1*
G1X199426Y145353D2*
G3X199322Y145353I-52J-29D1*
G1X198487Y145266D2*
G3X199322Y145353I388J334D1*
G1X198487Y145266D2*
G3X198384Y145237I-45J-39D1*
G1X198209Y145089D2*
G3X198384Y145237I0J177D1*
G74*
G1X198209Y145089D2*
G1X197539Y145089D1*
G1X197362Y145266D2*
G75*
G3X197539Y145089I177J0D1*
G74*
G1X197362Y145266D2*
G1X197362Y145935D1*
G1X197511Y146110D2*
G75*
G3X197362Y145935I29J-175D1*
G1X197511Y146110D2*
G3X197540Y146213I-10J58D1*
G1X198322Y146847D2*
G3X197540Y146213I-448J-247D1*
G1X198322Y146847D2*
G3X198426Y146847I52J29D1*
G1X199121Y146152D2*
G3X198426Y146847I-247J448D1*
G1X199121Y146152D2*
G3X199121Y146049I29J-52D1*
G1X199322Y145847D2*
G3X199121Y146049I-448J-247D1*
G1X199322Y145847D2*
G3X199426Y145847I52J29D1*
G1X199840Y146111D2*
G3X199426Y145847I34J-511D1*
G1X199840Y146111D2*
G3X199858Y146115I-4J59D1*
G74*
G1X200111Y146217D1*
G75*
G3X200148Y146272I-22J55D1*
G74*
G1X200148Y147670D1*
G75*
G3X200143Y147693I-59J0D1*
G74*
G1X200107Y147778D1*
G75*
G3X200101Y147789I-54J-23D1*
G1X200647Y147789D2*
G3X200101Y147789I-273J193D1*
G1X200647Y147789D2*
G3X200641Y147778I48J-34D1*
G74*
G1X200605Y147693D1*
G75*
G3X200600Y147670I54J-23D1*
G74*
G1X200600Y147129D1*
G75*
G3X200682Y147075I59J0D1*
G1X201322Y146847D2*
G3X200682Y147075I-448J-247D1*
G1X201322Y146847D2*
G3X201426Y146847I52J29D1*
G1X202322Y146847D2*
G3X201426Y146847I-448J-247D1*
G1X202322Y146847D2*
G3X202426Y146847I52J29D1*
G1X203322Y146847D2*
G3X202426Y146847I-448J-247D1*
G1X203322Y146847D2*
G3X203426Y146847I52J29D1*
G1X206408Y148921D2*
G3X206408Y149800I364J440D1*
G1X206408Y148921D2*
G3X206393Y148929I-38J-46D1*
G74*
G1X205991Y149100D1*
G75*
G3X205968Y149104I-23J-54D1*
G74*
G1X205768Y149104D1*
G1X205587Y149179D2*
G75*
G3X205768Y149104I181J181D1*
G74*
G1X205587Y149179D2*
G1X205581Y149186D1*
G75*
G3X205539Y149203I-42J-42D1*
G74*
G1X204895Y149203D1*
G75*
G3X204872Y149198I0J-59D1*
G74*
G1X204840Y149185D1*
G75*
G3X204830Y149180I23J-54D1*
G1X204536Y149142D2*
G3X204830Y149180I109J316D1*
G74*
G1X204536Y149142D2*
G1X204428Y149180D1*
G75*
G3X204409Y149183I-19J-56D1*
G74*
G1X203910Y149183D1*
G75*
G3X203887Y149178I0J-59D1*
G74*
G1X203856Y149165D1*
G75*
G3X203846Y149160I23J-55D1*
G1X203477Y149160D2*
G3X203846Y149160I185J279D1*
G1X203477Y149160D2*
G3X203467Y149165I-33J-49D1*
G74*
G1X203436Y149178D1*
G75*
G3X203413Y149183I-23J-54D1*
G74*
G1X203280Y149183D1*
G75*
G3X203257Y149178I0J-59D1*
G74*
G1X203226Y149165D1*
G75*
G3X203216Y149160I23J-55D1*
G1X202847Y149160D2*
G3X203216Y149160I185J279D1*
G1X202847Y149160D2*
G3X202837Y149165I-32J-49D1*
G74*
G1X202806Y149178D1*
G75*
G3X202783Y149183I-23J-54D1*
G74*
G1X200991Y149183D1*
G75*
G3X200934Y149109I0J-59D1*
G1X200417Y148752D2*
G3X200934Y149109I193J273D1*
G1X200417Y148752D2*
G3X200406Y148759I-34J-48D1*
G74*
G1X200321Y148795D1*
G75*
G3X200298Y148799I-23J-54D1*
G74*
G1X199860Y148799D1*
G75*
G3X199837Y148795I0J-59D1*
G74*
G1X199752Y148759D1*
G1X199752Y148759D2*
G75*
G3X199741Y148752I23J-54D1*
G1X199223Y149109D2*
G3X199741Y148752I324J-84D1*
G1X199223Y149109D2*
G3X199166Y149183I-57J15D1*
G74*
G1X196588Y149183D1*
G75*
G3X196565Y149178I0J-59D1*
G74*
G1X196533Y149165D1*
G75*
G3X196523Y149160I23J-54D1*
G1X196523Y149718D2*
G3X196523Y149160I-185J-279D1*
G1X196523Y149718D2*
G3X196533Y149713I33J49D1*
G74*
G1X196565Y149700D1*
G75*
G3X196588Y149695I23J54D1*
G74*
G1X200920Y149695D1*
G75*
G3X200967Y149790I0J59D1*
G1X200941Y150110D2*
G3X200967Y149790I260J-139D1*
G1X200941Y150110D2*
G3X200888Y150197I-52J28D1*
G74*
G1X200515Y150197D1*
G75*
G3X200492Y150192I0J-59D1*
G74*
G1X200467Y150182D1*
G75*
G3X200458Y150177I23J-54D1*
G1X200458Y150670D2*
G3X200458Y150176I-162J-247D1*
G1X200458Y150670D2*
G3X200467Y150665I33J49D1*
G74*
G1X200492Y150654D1*
G75*
G3X200515Y150650I23J54D1*
G74*
G1X201857Y150650D1*
G75*
G3X201915Y150720I0J59D1*
G1X202367Y151024D2*
G3X201915Y150720I-162J-247D1*
G1X202367Y151024D2*
G3X202376Y151019I32J49D1*
G74*
G1X202402Y151009D1*
G75*
G3X202425Y151004I23J54D1*
G74*
G1X203796Y151004D1*
G75*
G3X203819Y151009I0J59D1*
G74*
G1X203844Y151019D1*
G75*
G3X203854Y151024I-23J54D1*
G1X204305Y150720D2*
G3X203854Y151024I-290J57D1*
G1X204305Y150720D2*
G3X204363Y150650I58J-11D1*
G74*
G1X204800Y150650D1*
G75*
G3X204823Y150654I0J59D1*
G74*
G1X204848Y150665D1*
G75*
G3X204858Y150670I-23J54D1*
G1X205303Y150339D2*
G3X204858Y150670I-283J84D1*
G1X205303Y150339D2*
G3X205352Y150263I57J-17D1*
G1X205561Y149806D2*
G3X205352Y150263I-245J164D1*
G1X205561Y149806D2*
G3X205610Y149715I49J-33D1*
G74*
G1X205669Y149715D1*
G1X205850Y149640D2*
G75*
G3X205669Y149715I-181J-181D1*
G74*
G1X205850Y149640D2*
G1X205856Y149633D1*
G75*
G3X205898Y149616I42J42D1*
G74*
G1X205968Y149616D1*
G75*
G3X205991Y149621I0J59D1*
G74*
G1X206393Y149791D1*
G75*
G3X206408Y149800I-23J54D1*
G1X207638Y162097D2*
G3X207638Y162097I-571J0D1*
G1X205654Y162097D2*
G3X205654Y162097I-571J0D1*
G74*
G1X181555Y175344D2*
G1X218445Y175344D1*
G1X181555Y175238D2*
G1X218445Y175238D1*
G1X181555Y175132D2*
G1X218445Y175132D1*
G1X181555Y175026D2*
G1X218445Y175026D1*
G1X181555Y174919D2*
G1X218445Y174919D1*
G1X181555Y174813D2*
G1X218445Y174813D1*
G1X181555Y174707D2*
G1X218445Y174707D1*
G1X181555Y174600D2*
G1X218445Y174600D1*
G1X217038Y174494D2*
G1X218445Y174494D1*
G1X217214Y174388D2*
G1X218445Y174388D1*
G1X217322Y174281D2*
G1X218445Y174281D1*
G1X217396Y174175D2*
G1X218445Y174175D1*
G1X217448Y174069D2*
G1X218445Y174069D1*
G1X217481Y173963D2*
G1X218445Y173963D1*
G1X217497Y173856D2*
G1X218445Y173856D1*
G1X217499Y173750D2*
G1X218445Y173750D1*
G1X217486Y173644D2*
G1X218445Y173644D1*
G1X217458Y173537D2*
G1X218445Y173537D1*
G1X217412Y173431D2*
G1X218445Y173431D1*
G1X217344Y173325D2*
G1X218445Y173325D1*
G1X217246Y173218D2*
G1X218445Y173218D1*
G1X217094Y173112D2*
G1X218445Y173112D1*
G1X205638Y173006D2*
G1X218445Y173006D1*
G1X205566Y172900D2*
G1X218445Y172900D1*
G1X208244Y172793D2*
G1X218445Y172793D1*
G1X208447Y172687D2*
G1X218445Y172687D1*
G1X208576Y172581D2*
G1X218445Y172581D1*
G1X208670Y172474D2*
G1X218445Y172474D1*
G1X208741Y172368D2*
G1X218445Y172368D1*
G1X208794Y172262D2*
G1X218445Y172262D1*
G1X208832Y172155D2*
G1X218445Y172155D1*
G1X208856Y172049D2*
G1X218445Y172049D1*
G1X208869Y171943D2*
G1X218445Y171943D1*
G1X208871Y171837D2*
G1X218445Y171837D1*
G1X208871Y171730D2*
G1X218445Y171730D1*
G1X208869Y171624D2*
G1X218445Y171624D1*
G1X208857Y171518D2*
G1X218445Y171518D1*
G1X208833Y171411D2*
G1X218445Y171411D1*
G1X208796Y171305D2*
G1X218445Y171305D1*
G1X208744Y171199D2*
G1X218445Y171199D1*
G1X208674Y171092D2*
G1X218445Y171092D1*
G1X208581Y170986D2*
G1X218445Y170986D1*
G1X208453Y170880D2*
G1X218445Y170880D1*
G1X208256Y170774D2*
G1X218445Y170774D1*
G1X181555Y170667D2*
G1X218445Y170667D1*
G1X181555Y170561D2*
G1X218445Y170561D1*
G1X181555Y170455D2*
G1X218445Y170455D1*
G1X181555Y170348D2*
G1X218445Y170348D1*
G1X181555Y170242D2*
G1X218445Y170242D1*
G1X181555Y170136D2*
G1X218445Y170136D1*
G1X181555Y170029D2*
G1X218445Y170029D1*
G1X181555Y169923D2*
G1X218445Y169923D1*
G1X181555Y169817D2*
G1X218445Y169817D1*
G1X181555Y169711D2*
G1X218445Y169711D1*
G1X181555Y169604D2*
G1X218445Y169604D1*
G1X181555Y169498D2*
G1X218445Y169498D1*
G1X181555Y169392D2*
G1X218445Y169392D1*
G1X181555Y169285D2*
G1X218445Y169285D1*
G1X181555Y169179D2*
G1X218445Y169179D1*
G1X181555Y169073D2*
G1X218445Y169073D1*
G1X181555Y168966D2*
G1X218445Y168966D1*
G1X181555Y168860D2*
G1X218445Y168860D1*
G1X181555Y168754D2*
G1X218445Y168754D1*
G1X207363Y168648D2*
G1X218445Y168648D1*
G1X207491Y168541D2*
G1X218445Y168541D1*
G1X207567Y168435D2*
G1X218445Y168435D1*
G1X207612Y168329D2*
G1X218445Y168329D1*
G1X207634Y168222D2*
G1X218445Y168222D1*
G1X207636Y168116D2*
G1X218445Y168116D1*
G1X207618Y168010D2*
G1X218445Y168010D1*
G1X217873Y167903D2*
G1X218445Y167903D1*
G1X217928Y167797D2*
G1X218445Y167797D1*
G1X217933Y167691D2*
G1X218445Y167691D1*
G1X217933Y167585D2*
G1X218445Y167585D1*
G1X217933Y167478D2*
G1X218445Y167478D1*
G1X217933Y167372D2*
G1X218445Y167372D1*
G1X217933Y167266D2*
G1X218445Y167266D1*
G1X217933Y167159D2*
G1X218445Y167159D1*
G1X217933Y167053D2*
G1X218445Y167053D1*
G1X217933Y166947D2*
G1X218445Y166947D1*
G1X217933Y166840D2*
G1X218445Y166840D1*
G1X217933Y166734D2*
G1X218445Y166734D1*
G1X217933Y166628D2*
G1X218445Y166628D1*
G1X217929Y166522D2*
G1X218445Y166522D1*
G1X217880Y166415D2*
G1X218445Y166415D1*
G1X212485Y166309D2*
G1X218445Y166309D1*
G1X212378Y166203D2*
G1X218445Y166203D1*
G1X212272Y166096D2*
G1X218445Y166096D1*
G1X212166Y165990D2*
G1X218445Y165990D1*
G1X212060Y165884D2*
G1X218445Y165884D1*
G1X211953Y165777D2*
G1X218445Y165777D1*
G1X217133Y165671D2*
G1X218445Y165671D1*
G1X217259Y165565D2*
G1X218445Y165565D1*
G1X217333Y165459D2*
G1X218445Y165459D1*
G1X217377Y165352D2*
G1X218445Y165352D1*
G1X217399Y165246D2*
G1X218445Y165246D1*
G1X217400Y165140D2*
G1X218445Y165140D1*
G1X217381Y165033D2*
G1X218445Y165033D1*
G1X217339Y164927D2*
G1X218445Y164927D1*
G1X217269Y164821D2*
G1X218445Y164821D1*
G1X217151Y164714D2*
G1X218445Y164714D1*
G1X209375Y164608D2*
G1X218445Y164608D1*
G1X209410Y164502D2*
G1X218445Y164502D1*
G1X209507Y164396D2*
G1X218445Y164396D1*
G1X209613Y164289D2*
G1X218445Y164289D1*
G1X209719Y164183D2*
G1X218445Y164183D1*
G1X209826Y164077D2*
G1X218445Y164077D1*
G1X209921Y163970D2*
G1X218445Y163970D1*
G1X209959Y163864D2*
G1X218445Y163864D1*
G1X209969Y163758D2*
G1X218445Y163758D1*
G1X209954Y163651D2*
G1X218445Y163651D1*
G1X209911Y163545D2*
G1X218445Y163545D1*
G1X209828Y163439D2*
G1X218445Y163439D1*
G1X209641Y163333D2*
G1X218445Y163333D1*
G1X209230Y163226D2*
G1X218445Y163226D1*
G1X202697Y163120D2*
G1X218445Y163120D1*
G1X202697Y163014D2*
G1X218445Y163014D1*
G1X202697Y162907D2*
G1X218445Y162907D1*
G1X202697Y162801D2*
G1X218445Y162801D1*
G1X202697Y162695D2*
G1X218445Y162695D1*
G1X207357Y162589D2*
G1X218445Y162589D1*
G1X207488Y162482D2*
G1X218445Y162482D1*
G1X207565Y162376D2*
G1X218445Y162376D1*
G1X207611Y162270D2*
G1X218445Y162270D1*
G1X207634Y162163D2*
G1X218445Y162163D1*
G1X207636Y162057D2*
G1X218445Y162057D1*
G1X207619Y161951D2*
G1X218445Y161951D1*
G1X207579Y161844D2*
G1X218445Y161844D1*
G1X207511Y161738D2*
G1X218445Y161738D1*
G1X207399Y161632D2*
G1X218445Y161632D1*
G1X202697Y161526D2*
G1X218445Y161526D1*
G1X202697Y161419D2*
G1X218445Y161419D1*
G1X202697Y161313D2*
G1X218445Y161313D1*
G1X202697Y161207D2*
G1X218445Y161207D1*
G1X202697Y161100D2*
G1X218445Y161100D1*
G1X202697Y160994D2*
G1X218445Y160994D1*
G1X202697Y160888D2*
G1X218445Y160888D1*
G1X202697Y160781D2*
G1X218445Y160781D1*
G1X202697Y160675D2*
G1X218445Y160675D1*
G1X202697Y160569D2*
G1X218445Y160569D1*
G1X202697Y160463D2*
G1X218445Y160463D1*
G1X202697Y160356D2*
G1X218445Y160356D1*
G1X202697Y160250D2*
G1X218445Y160250D1*
G1X202697Y160144D2*
G1X218445Y160144D1*
G1X202697Y160037D2*
G1X218445Y160037D1*
G1X202697Y159931D2*
G1X218445Y159931D1*
G1X202697Y159825D2*
G1X218445Y159825D1*
G1X202697Y159718D2*
G1X218445Y159718D1*
G1X202697Y159612D2*
G1X218445Y159612D1*
G1X202697Y159506D2*
G1X218445Y159506D1*
G1X202697Y159400D2*
G1X218445Y159400D1*
G1X202697Y159293D2*
G1X218445Y159293D1*
G1X202707Y159187D2*
G1X218445Y159187D1*
G1X202837Y159081D2*
G1X218445Y159081D1*
G1X202896Y158974D2*
G1X218445Y158974D1*
G1X202913Y158868D2*
G1X218445Y158868D1*
G1X202903Y158762D2*
G1X218445Y158762D1*
G1X202903Y158655D2*
G1X218445Y158655D1*
G1X202903Y158549D2*
G1X218445Y158549D1*
G1X202913Y158443D2*
G1X218445Y158443D1*
G1X202899Y158337D2*
G1X218445Y158337D1*
G1X202843Y158230D2*
G1X218445Y158230D1*
G1X202702Y158124D2*
G1X218445Y158124D1*
G1X181555Y158018D2*
G1X218445Y158018D1*
G1X181555Y157911D2*
G1X218445Y157911D1*
G1X181555Y157805D2*
G1X218445Y157805D1*
G1X181555Y157699D2*
G1X218445Y157699D1*
G1X181555Y157592D2*
G1X218445Y157592D1*
G1X181555Y157486D2*
G1X218445Y157486D1*
G1X181555Y157380D2*
G1X218445Y157380D1*
G1X181555Y157274D2*
G1X218445Y157274D1*
G1X181555Y157167D2*
G1X218445Y157167D1*
G1X181555Y157061D2*
G1X218445Y157061D1*
G1X181555Y156955D2*
G1X218445Y156955D1*
G1X181555Y156848D2*
G1X218445Y156848D1*
G1X181555Y156742D2*
G1X218445Y156742D1*
G1X181555Y156636D2*
G1X218445Y156636D1*
G1X181555Y156529D2*
G1X218445Y156529D1*
G1X181555Y156423D2*
G1X218445Y156423D1*
G1X181555Y156317D2*
G1X218445Y156317D1*
G1X181555Y156211D2*
G1X218445Y156211D1*
G1X181555Y156104D2*
G1X218445Y156104D1*
G1X181555Y155998D2*
G1X218445Y155998D1*
G1X181555Y155892D2*
G1X218445Y155892D1*
G1X181555Y155785D2*
G1X218445Y155785D1*
G1X181555Y155679D2*
G1X218445Y155679D1*
G1X181555Y155573D2*
G1X218445Y155573D1*
G1X181555Y155466D2*
G1X218445Y155466D1*
G1X181555Y155360D2*
G1X218445Y155360D1*
G1X181555Y155254D2*
G1X218445Y155254D1*
G1X181555Y155148D2*
G1X218445Y155148D1*
G1X181555Y155041D2*
G1X218445Y155041D1*
G1X181555Y154935D2*
G1X218445Y154935D1*
G1X181555Y154829D2*
G1X218445Y154829D1*
G1X181555Y154722D2*
G1X218445Y154722D1*
G1X181555Y154616D2*
G1X218445Y154616D1*
G1X181555Y154510D2*
G1X218445Y154510D1*
G1X181555Y154403D2*
G1X218445Y154403D1*
G1X181555Y154297D2*
G1X218445Y154297D1*
G1X181555Y154191D2*
G1X218445Y154191D1*
G1X181555Y154085D2*
G1X218445Y154085D1*
G1X181555Y153978D2*
G1X218445Y153978D1*
G1X181555Y153872D2*
G1X218445Y153872D1*
G1X181555Y153766D2*
G1X218445Y153766D1*
G1X181555Y153659D2*
G1X218445Y153659D1*
G1X181555Y153553D2*
G1X218445Y153553D1*
G1X181555Y153447D2*
G1X218445Y153447D1*
G1X181555Y153340D2*
G1X218445Y153340D1*
G1X181555Y153234D2*
G1X218445Y153234D1*
G1X181555Y153128D2*
G1X218445Y153128D1*
G1X181555Y153022D2*
G1X218445Y153022D1*
G1X181555Y152915D2*
G1X218445Y152915D1*
G1X181555Y152809D2*
G1X218445Y152809D1*
G1X181555Y152703D2*
G1X218445Y152703D1*
G1X181555Y152596D2*
G1X218445Y152596D1*
G1X181555Y152490D2*
G1X218445Y152490D1*
G1X181555Y152384D2*
G1X218445Y152384D1*
G1X181555Y152277D2*
G1X218445Y152277D1*
G1X181555Y152171D2*
G1X218445Y152171D1*
G1X181555Y152065D2*
G1X218445Y152065D1*
G1X181555Y151959D2*
G1X218445Y151959D1*
G1X181555Y151852D2*
G1X218445Y151852D1*
G1X181555Y151746D2*
G1X218445Y151746D1*
G1X181555Y151640D2*
G1X218445Y151640D1*
G1X181555Y151533D2*
G1X218445Y151533D1*
G1X181555Y151427D2*
G1X218445Y151427D1*
G1X181555Y151321D2*
G1X218445Y151321D1*
G1X181555Y151214D2*
G1X218445Y151214D1*
G1X181555Y151108D2*
G1X218445Y151108D1*
G1X204208Y151002D2*
G1X218445Y151002D1*
G1X204286Y150896D2*
G1X218445Y150896D1*
G1X204311Y150789D2*
G1X218445Y150789D1*
G1X205160Y150683D2*
G1X218445Y150683D1*
G1X205272Y150577D2*
G1X218445Y150577D1*
G1X205311Y150470D2*
G1X218445Y150470D1*
G1X205309Y150364D2*
G1X218445Y150364D1*
G1X205383Y150258D2*
G1X218445Y150258D1*
G1X205548Y150151D2*
G1X218445Y150151D1*
G1X205601Y150045D2*
G1X218445Y150045D1*
G1X205609Y149939D2*
G1X218445Y149939D1*
G1X207092Y149833D2*
G1X218445Y149833D1*
G1X207210Y149726D2*
G1X218445Y149726D1*
G1X207280Y149620D2*
G1X218445Y149620D1*
G1X207322Y149514D2*
G1X218445Y149514D1*
G1X207341Y149407D2*
G1X218445Y149407D1*
G1X207339Y149301D2*
G1X218445Y149301D1*
G1X207318Y149195D2*
G1X218445Y149195D1*
G1X207274Y149089D2*
G1X218445Y149089D1*
G1X207199Y148982D2*
G1X218445Y148982D1*
G1X207074Y148876D2*
G1X218445Y148876D1*
G1X200826Y148770D2*
G1X218445Y148770D1*
G1X181555Y148663D2*
G1X218445Y148663D1*
G1X181555Y148557D2*
G1X218445Y148557D1*
G1X181555Y148451D2*
G1X218445Y148451D1*
G1X181555Y148344D2*
G1X218445Y148344D1*
G1X200590Y148238D2*
G1X218445Y148238D1*
G1X200673Y148132D2*
G1X218445Y148132D1*
G1X200706Y148026D2*
G1X218445Y148026D1*
G1X200703Y147919D2*
G1X218445Y147919D1*
G1X200663Y147813D2*
G1X218445Y147813D1*
G1X200611Y147707D2*
G1X218445Y147707D1*
G1X200600Y147600D2*
G1X218445Y147600D1*
G1X200600Y147494D2*
G1X218445Y147494D1*
G1X200600Y147388D2*
G1X218445Y147388D1*
G1X200600Y147281D2*
G1X218445Y147281D1*
G1X200600Y147175D2*
G1X218445Y147175D1*
G1X204080Y147069D2*
G1X218445Y147069D1*
G1X216963Y146963D2*
G1X218445Y146963D1*
G1X217177Y146856D2*
G1X218445Y146856D1*
G1X217298Y146750D2*
G1X218445Y146750D1*
G1X217379Y146644D2*
G1X218445Y146644D1*
G1X217436Y146537D2*
G1X218445Y146537D1*
G1X217473Y146431D2*
G1X218445Y146431D1*
G1X217494Y146325D2*
G1X218445Y146325D1*
G1X217500Y146218D2*
G1X218445Y146218D1*
G1X217491Y146112D2*
G1X218445Y146112D1*
G1X217466Y146006D2*
G1X218445Y146006D1*
G1X217425Y145900D2*
G1X218445Y145900D1*
G1X217363Y145793D2*
G1X218445Y145793D1*
G1X217275Y145687D2*
G1X218445Y145687D1*
G1X217141Y145581D2*
G1X218445Y145581D1*
G1X216866Y145474D2*
G1X218445Y145474D1*
G1X205330Y145368D2*
G1X218445Y145368D1*
G1X205258Y145262D2*
G1X218445Y145262D1*
G1X205127Y145155D2*
G1X218445Y145155D1*
G1X181555Y145049D2*
G1X218445Y145049D1*
G1X181555Y144943D2*
G1X218445Y144943D1*
G1X181555Y144837D2*
G1X218445Y144837D1*
G1X181555Y144730D2*
G1X218445Y144730D1*
G1X181555Y144624D2*
G1X218445Y144624D1*
G1X181556Y175451D2*
G1X218444Y175451D1*
G1X205370Y145474D2*
G1X216599Y145474D1*
G1X204236Y146963D2*
G1X216501Y146963D1*
G1X183573Y174494D2*
G1X216427Y174494D1*
G1X205685Y173112D2*
G1X216370Y173112D1*
G1X205385Y145581D2*
G1X216323Y145581D1*
G1X204317Y146856D2*
G1X216288Y146856D1*
G1X183749Y174388D2*
G1X216251Y174388D1*
G1X205711Y173218D2*
G1X216219Y173218D1*
G1X205379Y145687D2*
G1X216190Y145687D1*
G1X204364Y146750D2*
G1X216167Y146750D1*
G1X183857Y174281D2*
G1X216143Y174281D1*
G1X214181Y165671D2*
G1X216135Y165671D1*
G1X205721Y173325D2*
G1X216121Y173325D1*
G1X214198Y164714D2*
G1X216117Y164714D1*
G1X205348Y145793D2*
G1X216101Y145793D1*
G1X204384Y146644D2*
G1X216085Y146644D1*
G1X183932Y174175D2*
G1X216068Y174175D1*
G1X205714Y173431D2*
G1X216053Y173431D1*
G1X205289Y145900D2*
G1X216040Y145900D1*
G1X204382Y146537D2*
G1X216029Y146537D1*
G1X183983Y174069D2*
G1X216017Y174069D1*
G1X214306Y165565D2*
G1X216009Y165565D1*
G1X205689Y173537D2*
G1X216007Y173537D1*
G1X214316Y164821D2*
G1X215999Y164821D1*
G1X205187Y146006D2*
G1X215998Y146006D1*
G1X204357Y146431D2*
G1X215991Y146431D1*
G1X205289Y173963D2*
G1X215984Y173963D1*
G1X205645Y173644D2*
G1X215978Y173644D1*
G1X204886Y146112D2*
G1X215974Y146112D1*
G1X204305Y146325D2*
G1X215970Y146325D1*
G1X205471Y173856D2*
G1X215967Y173856D1*
G1X205576Y173750D2*
G1X215965Y173750D1*
G1X204215Y146218D2*
G1X215965Y146218D1*
G1X214380Y165459D2*
G1X215935Y165459D1*
G1X214386Y164927D2*
G1X215929Y164927D1*
G1X214424Y165352D2*
G1X215891Y165352D1*
G1X214428Y165033D2*
G1X215887Y165033D1*
G1X214446Y165246D2*
G1X215869Y165246D1*
G1X214447Y165140D2*
G1X215868Y165140D1*
G1X211847Y165671D2*
G1X213182Y165671D1*
G1X210890Y164714D2*
G1X213164Y164714D1*
G1X211741Y165565D2*
G1X213056Y165565D1*
G1X210997Y164821D2*
G1X213046Y164821D1*
G1X211634Y165459D2*
G1X212982Y165459D1*
G1X211103Y164927D2*
G1X212976Y164927D1*
G1X211528Y165352D2*
G1X212938Y165352D1*
G1X211209Y165033D2*
G1X212935Y165033D1*
G1X211422Y165246D2*
G1X212916Y165246D1*
G1X211315Y165140D2*
G1X212915Y165140D1*
G1X207577Y167903D2*
G1X211678Y167903D1*
G1X207519Y167797D2*
G1X211572Y167797D1*
G1X207480Y167691D2*
G1X211466Y167691D1*
G1X207480Y167585D2*
G1X211360Y167585D1*
G1X207480Y167478D2*
G1X211253Y167478D1*
G1X207480Y167372D2*
G1X211147Y167372D1*
G1X207480Y167266D2*
G1X211041Y167266D1*
G1X207480Y167159D2*
G1X210934Y167159D1*
G1X209262Y167053D2*
G1X210828Y167053D1*
G1X209384Y166947D2*
G1X210722Y166947D1*
G1X209458Y166840D2*
G1X210616Y166840D1*
G1X209502Y166734D2*
G1X210509Y166734D1*
G1X209524Y166628D2*
G1X210403Y166628D1*
G1X209528Y166522D2*
G1X210297Y166522D1*
G1X209528Y166415D2*
G1X210190Y166415D1*
G1X209528Y166309D2*
G1X210084Y166309D1*
G1X209528Y166203D2*
G1X209978Y166203D1*
G1X209528Y166096D2*
G1X209871Y166096D1*
G1X209510Y165990D2*
G1X209765Y165990D1*
G1X209471Y165884D2*
G1X209659Y165884D1*
G1X209437Y165777D2*
G1X209553Y165777D1*
G1X202697Y163226D2*
G1X208678Y163226D1*
G1X207480Y167053D2*
G1X208623Y167053D1*
G1X202697Y163333D2*
G1X208544Y163333D1*
G1X202723Y164608D2*
G1X208533Y164608D1*
G1X202617Y164502D2*
G1X208498Y164502D1*
G1X202697Y163439D2*
G1X208464Y163439D1*
G1X202510Y164396D2*
G1X208435Y164396D1*
G1X202690Y163545D2*
G1X208416Y163545D1*
G1X202404Y164289D2*
G1X208399Y164289D1*
G1X202632Y163651D2*
G1X208391Y163651D1*
G1X202224Y164077D2*
G1X208386Y164077D1*
G1X202314Y163970D2*
G1X208386Y163970D1*
G1X202420Y163864D2*
G1X208386Y163864D1*
G1X202526Y163758D2*
G1X208386Y163758D1*
G1X202298Y164183D2*
G1X208385Y164183D1*
G1X207480Y166947D2*
G1X208225Y166947D1*
G1X207480Y166840D2*
G1X208069Y166840D1*
G1X207480Y166734D2*
G1X207994Y166734D1*
G1X207549Y166628D2*
G1X207955Y166628D1*
G1X205455Y172793D2*
G1X207543Y172793D1*
G1X195256Y170774D2*
G1X207532Y170774D1*
G1X205252Y172687D2*
G1X207341Y172687D1*
G1X195453Y170880D2*
G1X207335Y170880D1*
G1X194192Y165671D2*
G1X207248Y165671D1*
G1X195311Y165777D2*
G1X207228Y165777D1*
G1X195576Y172581D2*
G1X207211Y172581D1*
G1X195581Y170986D2*
G1X207207Y170986D1*
G1X195670Y172474D2*
G1X207117Y172474D1*
G1X195674Y171092D2*
G1X207114Y171092D1*
G1X195435Y165884D2*
G1X207110Y165884D1*
G1X195741Y172368D2*
G1X207047Y172368D1*
G1X195744Y171199D2*
G1X207044Y171199D1*
G1X195541Y165990D2*
G1X207018Y165990D1*
G1X195794Y172262D2*
G1X206994Y172262D1*
G1X195796Y171305D2*
G1X206992Y171305D1*
G1X195832Y172155D2*
G1X206956Y172155D1*
G1X195833Y171411D2*
G1X206955Y171411D1*
G1X195856Y172049D2*
G1X206931Y172049D1*
G1X195857Y171518D2*
G1X206930Y171518D1*
G1X195869Y171943D2*
G1X206919Y171943D1*
G1X195869Y171624D2*
G1X206918Y171624D1*
G1X195871Y171837D2*
G1X206917Y171837D1*
G1X195871Y171730D2*
G1X206917Y171730D1*
G1X195648Y166096D2*
G1X206912Y166096D1*
G1X195754Y166203D2*
G1X206805Y166203D1*
G1X205372Y162589D2*
G1X206777Y162589D1*
G1X205379Y168648D2*
G1X206771Y168648D1*
G1X205414Y161632D2*
G1X206735Y161632D1*
G1X195860Y166309D2*
G1X206715Y166309D1*
G1X195966Y166415D2*
G1X206669Y166415D1*
G1X196069Y166522D2*
G1X206654Y166522D1*
G1X205409Y167691D2*
G1X206654Y167691D1*
G1X196161Y167585D2*
G1X206654Y167585D1*
G1X196161Y167478D2*
G1X206654Y167478D1*
G1X196161Y167372D2*
G1X206654Y167372D1*
G1X196161Y167266D2*
G1X206654Y167266D1*
G1X196161Y167159D2*
G1X206654Y167159D1*
G1X196161Y167053D2*
G1X206654Y167053D1*
G1X196161Y166947D2*
G1X206654Y166947D1*
G1X196161Y166840D2*
G1X206654Y166840D1*
G1X196159Y166734D2*
G1X206654Y166734D1*
G1X196132Y166628D2*
G1X206654Y166628D1*
G1X205504Y162482D2*
G1X206646Y162482D1*
G1X205507Y168541D2*
G1X206643Y168541D1*
G1X205527Y161738D2*
G1X206623Y161738D1*
G1X205524Y167797D2*
G1X206615Y167797D1*
G1X205581Y162376D2*
G1X206569Y162376D1*
G1X205583Y168435D2*
G1X206567Y168435D1*
G1X205593Y167903D2*
G1X206557Y167903D1*
G1X205595Y161844D2*
G1X206555Y161844D1*
G1X205627Y162270D2*
G1X206523Y162270D1*
G1X205628Y168329D2*
G1X206522Y168329D1*
G1X205634Y168010D2*
G1X206516Y168010D1*
G1X205635Y161951D2*
G1X206515Y161951D1*
G1X205650Y162163D2*
G1X206500Y162163D1*
G1X205650Y168222D2*
G1X206500Y168222D1*
G1X205652Y168116D2*
G1X206498Y168116D1*
G1X205652Y162057D2*
G1X206497Y162057D1*
G1X200910Y148876D2*
G1X206470Y148876D1*
G1X205576Y149833D2*
G1X206451Y149833D1*
G1X200942Y148982D2*
G1X206268Y148982D1*
G1X205574Y149726D2*
G1X206240Y149726D1*
G1X200939Y149089D2*
G1X206017Y149089D1*
G1X205877Y149620D2*
G1X205988Y149620D1*
G1X204864Y149195D2*
G1X205569Y149195D1*
G1X204310Y150683D2*
G1X204879Y150683D1*
G1X204027Y146112D2*
G1X204862Y146112D1*
G1X202697Y162589D2*
G1X204793Y162589D1*
G1X198028Y168648D2*
G1X204787Y168648D1*
G1X198058Y167691D2*
G1X204757Y167691D1*
G1X202697Y161632D2*
G1X204751Y161632D1*
G1X202697Y162482D2*
G1X204662Y162482D1*
G1X198157Y168541D2*
G1X204658Y168541D1*
G1X198173Y167797D2*
G1X204642Y167797D1*
G1X202697Y161738D2*
G1X204638Y161738D1*
G1X203302Y172687D2*
G1X204635Y172687D1*
G1X203127Y145155D2*
G1X204621Y145155D1*
G1X203339Y173963D2*
G1X204599Y173963D1*
G1X202697Y162376D2*
G1X204585Y162376D1*
G1X198232Y168435D2*
G1X204583Y168435D1*
G1X198243Y167903D2*
G1X204572Y167903D1*
G1X202697Y161844D2*
G1X204571Y161844D1*
G1X203187Y146006D2*
G1X204562Y146006D1*
G1X202697Y162270D2*
G1X204539Y162270D1*
G1X198278Y168329D2*
G1X204537Y168329D1*
G1X198283Y168010D2*
G1X204532Y168010D1*
G1X202697Y161951D2*
G1X204531Y161951D1*
G1X202697Y162163D2*
G1X204516Y162163D1*
G1X198300Y168222D2*
G1X204515Y168222D1*
G1X198302Y168116D2*
G1X204514Y168116D1*
G1X202697Y162057D2*
G1X204513Y162057D1*
G1X203258Y145262D2*
G1X204490Y145262D1*
G1X203289Y145900D2*
G1X204459Y145900D1*
G1X203505Y172793D2*
G1X204432Y172793D1*
G1X203330Y145368D2*
G1X204418Y145368D1*
G1X203521Y173856D2*
G1X204416Y173856D1*
G1X203348Y145793D2*
G1X204400Y145793D1*
G1X203370Y145474D2*
G1X204378Y145474D1*
G1X203379Y145687D2*
G1X204370Y145687D1*
G1X203385Y145581D2*
G1X204363Y145581D1*
G1X203616Y172900D2*
G1X204322Y172900D1*
G1X203626Y173750D2*
G1X204312Y173750D1*
G1X203688Y173006D2*
G1X204250Y173006D1*
G1X203695Y173644D2*
G1X204243Y173644D1*
G1X203735Y173112D2*
G1X204203Y173112D1*
G1X203739Y173537D2*
G1X204199Y173537D1*
G1X203761Y173218D2*
G1X204176Y173218D1*
G1X203764Y173431D2*
G1X204174Y173431D1*
G1X203771Y173325D2*
G1X204167Y173325D1*
G1X203092Y146112D2*
G1X203721Y146112D1*
G1X203080Y147069D2*
G1X203668Y147069D1*
G1X203215Y146218D2*
G1X203533Y146218D1*
G1X203236Y146963D2*
G1X203512Y146963D1*
G1X203305Y146325D2*
G1X203443Y146325D1*
G1X203317Y146856D2*
G1X203431Y146856D1*
G1X200102Y172687D2*
G1X202685Y172687D1*
G1X202080Y147069D2*
G1X202668Y147069D1*
G1X200139Y173963D2*
G1X202649Y173963D1*
G1X202127Y145155D2*
G1X202621Y145155D1*
G1X202236Y146963D2*
G1X202512Y146963D1*
G1X202258Y145262D2*
G1X202490Y145262D1*
G1X200305Y172793D2*
G1X202482Y172793D1*
G1X200321Y173856D2*
G1X202466Y173856D1*
G1X202308Y158124D2*
G1X202456Y158124D1*
G1X202317Y146856D2*
G1X202431Y146856D1*
G1X202334Y145368D2*
G1X202414Y145368D1*
G1X200416Y172900D2*
G1X202372Y172900D1*
G1X200426Y173750D2*
G1X202362Y173750D1*
G1X200488Y173006D2*
G1X202300Y173006D1*
G1X200495Y173644D2*
G1X202293Y173644D1*
G1X200535Y173112D2*
G1X202253Y173112D1*
G1X200539Y173537D2*
G1X202249Y173537D1*
G1X200561Y173218D2*
G1X202226Y173218D1*
G1X200564Y173431D2*
G1X202224Y173431D1*
G1X200571Y173325D2*
G1X202217Y173325D1*
G1X200674Y158124D2*
G1X202062Y158124D1*
G1X181555Y151002D2*
G1X202013Y151002D1*
G1X181555Y150896D2*
G1X201934Y150896D1*
G1X200816Y158230D2*
G1X201920Y158230D1*
G1X200436Y150683D2*
G1X201910Y150683D1*
G1X181555Y150789D2*
G1X201910Y150789D1*
G1X200871Y158337D2*
G1X201865Y158337D1*
G1X200875Y158549D2*
G1X201861Y158549D1*
G1X200878Y158655D2*
G1X201859Y158655D1*
G1X200886Y158443D2*
G1X201851Y158443D1*
G1X181555Y165565D2*
G1X201840Y165565D1*
G1X200974Y158762D2*
G1X201763Y158762D1*
G1X181555Y165459D2*
G1X201734Y165459D1*
G1X201080Y147069D2*
G1X201668Y147069D1*
G1X201080Y158868D2*
G1X201656Y158868D1*
G1X181555Y165352D2*
G1X201627Y165352D1*
G1X201127Y145155D2*
G1X201621Y145155D1*
G1X201186Y158974D2*
G1X201560Y158974D1*
G1X181555Y165246D2*
G1X201521Y165246D1*
G1X201236Y146963D2*
G1X201512Y146963D1*
G1X201263Y159081D2*
G1X201510Y159081D1*
G1X201299Y163333D2*
G1X201496Y163333D1*
G1X201299Y163226D2*
G1X201496Y163226D1*
G1X201299Y163120D2*
G1X201496Y163120D1*
G1X201299Y163014D2*
G1X201496Y163014D1*
G1X201299Y162907D2*
G1X201496Y162907D1*
G1X201299Y162801D2*
G1X201496Y162801D1*
G1X201299Y162695D2*
G1X201496Y162695D1*
G1X201299Y162589D2*
G1X201496Y162589D1*
G1X201299Y162482D2*
G1X201496Y162482D1*
G1X201299Y162376D2*
G1X201496Y162376D1*
G1X201299Y162270D2*
G1X201496Y162270D1*
G1X201299Y162163D2*
G1X201496Y162163D1*
G1X201299Y162057D2*
G1X201496Y162057D1*
G1X201299Y161951D2*
G1X201496Y161951D1*
G1X201299Y161844D2*
G1X201496Y161844D1*
G1X201299Y161738D2*
G1X201496Y161738D1*
G1X201299Y161632D2*
G1X201496Y161632D1*
G1X201299Y161526D2*
G1X201496Y161526D1*
G1X201299Y161419D2*
G1X201496Y161419D1*
G1X201299Y161313D2*
G1X201496Y161313D1*
G1X201299Y161207D2*
G1X201496Y161207D1*
G1X201299Y161100D2*
G1X201496Y161100D1*
G1X201299Y160994D2*
G1X201496Y160994D1*
G1X201299Y160888D2*
G1X201496Y160888D1*
G1X201299Y160781D2*
G1X201496Y160781D1*
G1X201299Y160675D2*
G1X201496Y160675D1*
G1X201299Y160569D2*
G1X201496Y160569D1*
G1X201299Y160463D2*
G1X201496Y160463D1*
G1X201299Y160356D2*
G1X201496Y160356D1*
G1X201299Y160250D2*
G1X201496Y160250D1*
G1X201299Y160144D2*
G1X201496Y160144D1*
G1X201299Y160037D2*
G1X201496Y160037D1*
G1X201299Y159931D2*
G1X201496Y159931D1*
G1X201299Y159825D2*
G1X201496Y159825D1*
G1X201299Y159718D2*
G1X201496Y159718D1*
G1X201299Y159612D2*
G1X201496Y159612D1*
G1X201299Y159506D2*
G1X201496Y159506D1*
G1X201299Y159400D2*
G1X201496Y159400D1*
G1X201299Y159293D2*
G1X201496Y159293D1*
G1X201295Y159187D2*
G1X201496Y159187D1*
G1X201309Y163439D2*
G1X201493Y163439D1*
G1X201258Y145262D2*
G1X201490Y145262D1*
G1X201317Y146856D2*
G1X201431Y146856D1*
G1X181555Y165140D2*
G1X201415Y165140D1*
G1X201334Y145368D2*
G1X201414Y145368D1*
G1X181555Y165033D2*
G1X201308Y165033D1*
G1X181555Y164927D2*
G1X201202Y164927D1*
G1X181555Y164821D2*
G1X201096Y164821D1*
G1X193986Y164714D2*
G1X200990Y164714D1*
G1X196510Y149726D2*
G1X200973Y149726D1*
G1X200411Y150151D2*
G1X200946Y150151D1*
G1X181555Y149833D2*
G1X200940Y149833D1*
G1X181555Y150045D2*
G1X200915Y150045D1*
G1X181555Y149939D2*
G1X200907Y149939D1*
G1X194207Y164608D2*
G1X200883Y164608D1*
G1X194311Y164502D2*
G1X200779Y164502D1*
G1X194408Y164396D2*
G1X200732Y164396D1*
G1X194515Y164289D2*
G1X200728Y164289D1*
G1X194621Y164183D2*
G1X200655Y164183D1*
G1X200127Y145155D2*
G1X200621Y145155D1*
G1X194727Y164077D2*
G1X200549Y164077D1*
G1X200258Y145262D2*
G1X200490Y145262D1*
G1X194822Y163970D2*
G1X200442Y163970D1*
G1X200281Y158124D2*
G1X200428Y158124D1*
G1X200334Y145368D2*
G1X200414Y145368D1*
G1X199778Y148770D2*
G1X200380Y148770D1*
G1X194860Y163864D2*
G1X200336Y163864D1*
G1X194871Y163758D2*
G1X200230Y163758D1*
G1X181555Y150151D2*
G1X200180Y150151D1*
G1X181555Y148238D2*
G1X200158Y148238D1*
G1X181555Y150683D2*
G1X200155Y150683D1*
G1X181555Y147600D2*
G1X200148Y147600D1*
G1X181555Y147494D2*
G1X200148Y147494D1*
G1X181555Y147388D2*
G1X200148Y147388D1*
G1X181555Y147281D2*
G1X200148Y147281D1*
G1X181555Y147175D2*
G1X200148Y147175D1*
G1X199080Y147069D2*
G1X200148Y147069D1*
G1X199236Y146963D2*
G1X200148Y146963D1*
G1X199317Y146856D2*
G1X200148Y146856D1*
G1X199364Y146750D2*
G1X200148Y146750D1*
G1X199384Y146644D2*
G1X200148Y146644D1*
G1X199382Y146537D2*
G1X200148Y146537D1*
G1X199357Y146431D2*
G1X200148Y146431D1*
G1X199305Y146325D2*
G1X200148Y146325D1*
G1X181555Y147707D2*
G1X200137Y147707D1*
G1X194856Y163651D2*
G1X200124Y163651D1*
G1X199215Y146218D2*
G1X200113Y146218D1*
G1X181555Y147813D2*
G1X200085Y147813D1*
G1X181555Y148132D2*
G1X200075Y148132D1*
G1X194813Y163545D2*
G1X200066Y163545D1*
G1X194730Y163439D2*
G1X200059Y163439D1*
G1X194543Y163333D2*
G1X200059Y163333D1*
G1X194132Y163226D2*
G1X200059Y163226D1*
G1X181555Y163120D2*
G1X200059Y163120D1*
G1X181555Y163014D2*
G1X200059Y163014D1*
G1X181555Y162907D2*
G1X200059Y162907D1*
G1X181555Y162801D2*
G1X200059Y162801D1*
G1X181555Y162695D2*
G1X200059Y162695D1*
G1X198022Y162589D2*
G1X200059Y162589D1*
G1X198153Y162482D2*
G1X200059Y162482D1*
G1X198230Y162376D2*
G1X200059Y162376D1*
G1X198276Y162270D2*
G1X200059Y162270D1*
G1X198299Y162163D2*
G1X200059Y162163D1*
G1X198302Y162057D2*
G1X200059Y162057D1*
G1X198284Y161951D2*
G1X200059Y161951D1*
G1X198245Y161844D2*
G1X200059Y161844D1*
G1X198177Y161738D2*
G1X200059Y161738D1*
G1X198064Y161632D2*
G1X200059Y161632D1*
G1X181555Y161526D2*
G1X200059Y161526D1*
G1X181555Y161419D2*
G1X200059Y161419D1*
G1X181555Y161313D2*
G1X200059Y161313D1*
G1X181555Y161207D2*
G1X200059Y161207D1*
G1X181555Y161100D2*
G1X200059Y161100D1*
G1X181555Y160994D2*
G1X200059Y160994D1*
G1X181555Y160888D2*
G1X200059Y160888D1*
G1X181555Y160781D2*
G1X200059Y160781D1*
G1X181555Y160675D2*
G1X200059Y160675D1*
G1X181555Y160569D2*
G1X200059Y160569D1*
G1X181555Y160463D2*
G1X200059Y160463D1*
G1X181555Y160356D2*
G1X200059Y160356D1*
G1X181555Y160250D2*
G1X200059Y160250D1*
G1X181555Y160144D2*
G1X200059Y160144D1*
G1X181555Y160037D2*
G1X200059Y160037D1*
G1X181555Y159931D2*
G1X200059Y159931D1*
G1X181555Y159825D2*
G1X200059Y159825D1*
G1X181555Y159718D2*
G1X200059Y159718D1*
G1X181555Y159612D2*
G1X200059Y159612D1*
G1X181555Y159506D2*
G1X200059Y159506D1*
G1X181555Y159400D2*
G1X200059Y159400D1*
G1X181555Y159293D2*
G1X200059Y159293D1*
G1X181555Y150258D2*
G1X200051Y150258D1*
G1X181555Y147919D2*
G1X200045Y147919D1*
G1X181555Y150577D2*
G1X200043Y150577D1*
G1X181555Y148026D2*
G1X200042Y148026D1*
G1X181555Y159187D2*
G1X200041Y159187D1*
G1X181555Y158124D2*
G1X200034Y158124D1*
G1X181555Y150364D2*
G1X200006Y150364D1*
G1X181555Y150470D2*
G1X200004Y150470D1*
G1X181555Y159081D2*
G1X199899Y159081D1*
G1X181555Y158230D2*
G1X199893Y158230D1*
G1X199092Y146112D2*
G1X199847Y146112D1*
G1X181555Y158974D2*
G1X199840Y158974D1*
G1X181555Y158337D2*
G1X199838Y158337D1*
G1X181555Y158762D2*
G1X199834Y158762D1*
G1X181555Y158655D2*
G1X199834Y158655D1*
G1X181555Y158549D2*
G1X199834Y158549D1*
G1X181555Y158443D2*
G1X199823Y158443D1*
G1X181555Y158868D2*
G1X199823Y158868D1*
G1X199127Y145155D2*
G1X199621Y145155D1*
G1X199187Y146006D2*
G1X199562Y146006D1*
G1X199258Y145262D2*
G1X199490Y145262D1*
G1X198152Y172687D2*
G1X199485Y172687D1*
G1X199289Y145900D2*
G1X199459Y145900D1*
G1X198189Y173963D2*
G1X199449Y173963D1*
G1X199334Y145368D2*
G1X199414Y145368D1*
G1X181555Y148770D2*
G1X199332Y148770D1*
G1X198355Y172793D2*
G1X199282Y172793D1*
G1X198371Y173856D2*
G1X199266Y173856D1*
G1X181555Y148876D2*
G1X199248Y148876D1*
G1X181555Y149089D2*
G1X199219Y149089D1*
G1X181555Y148982D2*
G1X199215Y148982D1*
G1X198466Y172900D2*
G1X199172Y172900D1*
G1X198476Y173750D2*
G1X199162Y173750D1*
G1X198538Y173006D2*
G1X199100Y173006D1*
G1X198545Y173644D2*
G1X199093Y173644D1*
G1X198585Y173112D2*
G1X199053Y173112D1*
G1X198589Y173537D2*
G1X199049Y173537D1*
G1X198611Y173218D2*
G1X199026Y173218D1*
G1X198614Y173431D2*
G1X199024Y173431D1*
G1X198621Y173325D2*
G1X199017Y173325D1*
G1X198080Y147069D2*
G1X198668Y147069D1*
G1X198347Y145155D2*
G1X198621Y145155D1*
G1X198236Y146963D2*
G1X198512Y146963D1*
G1X198394Y145262D2*
G1X198490Y145262D1*
G1X198317Y146856D2*
G1X198431Y146856D1*
G1X181555Y147069D2*
G1X197668Y147069D1*
G1X195447Y172687D2*
G1X197535Y172687D1*
G1X184035Y146218D2*
G1X197533Y146218D1*
G1X184026Y146112D2*
G1X197520Y146112D1*
G1X183499Y146963D2*
G1X197512Y146963D1*
G1X184016Y173963D2*
G1X197499Y173963D1*
G1X184030Y146325D2*
G1X197443Y146325D1*
G1X196038Y162589D2*
G1X197443Y162589D1*
G1X196044Y168648D2*
G1X197436Y168648D1*
G1X183712Y146856D2*
G1X197431Y146856D1*
G1X196161Y167691D2*
G1X197406Y167691D1*
G1X181555Y145155D2*
G1X197401Y145155D1*
G1X196080Y161632D2*
G1X197401Y161632D1*
G1X184009Y146431D2*
G1X197391Y146431D1*
G1X183833Y146750D2*
G1X197385Y146750D1*
G1X184002Y146006D2*
G1X197377Y146006D1*
G1X183971Y146537D2*
G1X197366Y146537D1*
G1X183915Y146644D2*
G1X197364Y146644D1*
G1X181555Y145262D2*
G1X197362Y145262D1*
G1X183961Y145900D2*
G1X197362Y145900D1*
G1X183899Y145793D2*
G1X197362Y145793D1*
G1X183810Y145687D2*
G1X197362Y145687D1*
G1X183677Y145581D2*
G1X197362Y145581D1*
G1X183401Y145474D2*
G1X197362Y145474D1*
G1X181555Y145368D2*
G1X197362Y145368D1*
G1X195244Y172793D2*
G1X197332Y172793D1*
G1X184033Y173856D2*
G1X197316Y173856D1*
G1X196169Y162482D2*
G1X197311Y162482D1*
G1X196173Y168541D2*
G1X197308Y168541D1*
G1X196200Y167797D2*
G1X197291Y167797D1*
G1X196192Y161738D2*
G1X197288Y161738D1*
G1X196246Y162376D2*
G1X197235Y162376D1*
G1X196248Y168435D2*
G1X197232Y168435D1*
G1X196258Y167903D2*
G1X197222Y167903D1*
G1X181555Y172900D2*
G1X197222Y172900D1*
G1X196260Y161844D2*
G1X197220Y161844D1*
G1X184035Y173750D2*
G1X197212Y173750D1*
G1X196292Y162270D2*
G1X197188Y162270D1*
G1X196293Y168329D2*
G1X197187Y168329D1*
G1X196299Y168010D2*
G1X197181Y168010D1*
G1X196300Y161951D2*
G1X197180Y161951D1*
G1X196315Y162163D2*
G1X197165Y162163D1*
G1X196315Y168222D2*
G1X197165Y168222D1*
G1X196317Y168116D2*
G1X197163Y168116D1*
G1X196318Y162057D2*
G1X197163Y162057D1*
G1X181555Y173006D2*
G1X197150Y173006D1*
G1X184022Y173644D2*
G1X197143Y173644D1*
G1X183630Y173112D2*
G1X197103Y173112D1*
G1X183993Y173537D2*
G1X197099Y173537D1*
G1X183781Y173218D2*
G1X197076Y173218D1*
G1X183947Y173431D2*
G1X197074Y173431D1*
G1X183879Y173325D2*
G1X197067Y173325D1*
G1X181555Y149726D2*
G1X196167Y149726D1*
G1X181555Y149195D2*
G1X196110Y149195D1*
G1X181555Y149620D2*
G1X196057Y149620D1*
G1X181555Y149301D2*
G1X196034Y149301D1*
G1X181555Y149514D2*
G1X196012Y149514D1*
G1X181555Y149407D2*
G1X196005Y149407D1*
G1X181555Y162589D2*
G1X195459Y162589D1*
G1X181555Y168648D2*
G1X195452Y168648D1*
G1X181555Y161632D2*
G1X195417Y161632D1*
G1X181555Y167691D2*
G1X195335Y167691D1*
G1X181555Y167585D2*
G1X195335Y167585D1*
G1X181555Y167478D2*
G1X195335Y167478D1*
G1X181555Y167372D2*
G1X195335Y167372D1*
G1X181555Y167266D2*
G1X195335Y167266D1*
G1X181555Y167159D2*
G1X195335Y167159D1*
G1X194163Y167053D2*
G1X195335Y167053D1*
G1X181555Y162482D2*
G1X195327Y162482D1*
G1X194286Y166947D2*
G1X195326Y166947D1*
G1X181555Y168541D2*
G1X195324Y168541D1*
G1X181555Y161738D2*
G1X195304Y161738D1*
G1X181555Y167797D2*
G1X195296Y167797D1*
G1X181555Y162376D2*
G1X195250Y162376D1*
G1X181555Y168435D2*
G1X195248Y168435D1*
G1X181555Y167903D2*
G1X195238Y167903D1*
G1X181555Y161844D2*
G1X195236Y161844D1*
G1X194360Y166840D2*
G1X195222Y166840D1*
G1X181555Y162270D2*
G1X195204Y162270D1*
G1X181555Y168329D2*
G1X195203Y168329D1*
G1X181555Y168010D2*
G1X195197Y168010D1*
G1X181555Y161951D2*
G1X195196Y161951D1*
G1X181555Y162163D2*
G1X195181Y162163D1*
G1X181555Y168222D2*
G1X195181Y168222D1*
G1X181555Y168116D2*
G1X195179Y168116D1*
G1X181555Y162057D2*
G1X195179Y162057D1*
G1X194404Y166734D2*
G1X195116Y166734D1*
G1X194426Y166628D2*
G1X195010Y166628D1*
G1X181555Y172793D2*
G1X194543Y172793D1*
G1X181555Y170774D2*
G1X194532Y170774D1*
G1X181555Y172687D2*
G1X194341Y172687D1*
G1X181555Y170880D2*
G1X194335Y170880D1*
G1X181555Y172581D2*
G1X194211Y172581D1*
G1X181555Y170986D2*
G1X194207Y170986D1*
G1X181555Y172474D2*
G1X194117Y172474D1*
G1X181555Y171092D2*
G1X194114Y171092D1*
G1X181555Y172368D2*
G1X194047Y172368D1*
G1X181555Y171199D2*
G1X194044Y171199D1*
G1X181555Y172262D2*
G1X193994Y172262D1*
G1X181555Y171305D2*
G1X193992Y171305D1*
G1X181555Y172155D2*
G1X193956Y172155D1*
G1X181555Y171411D2*
G1X193955Y171411D1*
G1X181555Y172049D2*
G1X193931Y172049D1*
G1X181555Y171518D2*
G1X193930Y171518D1*
G1X181555Y171943D2*
G1X193919Y171943D1*
G1X181555Y171624D2*
G1X193918Y171624D1*
G1X181555Y171837D2*
G1X193917Y171837D1*
G1X181555Y171730D2*
G1X193917Y171730D1*
G1X181555Y164714D2*
G1X193725Y164714D1*
G1X181555Y163226D2*
G1X193580Y163226D1*
G1X181555Y165671D2*
G1X193531Y165671D1*
G1X181555Y167053D2*
G1X193525Y167053D1*
G1X181555Y164608D2*
G1X193504Y164608D1*
G1X181555Y163333D2*
G1X193445Y163333D1*
G1X181555Y165777D2*
G1X193418Y165777D1*
G1X181555Y164502D2*
G1X193400Y164502D1*
G1X181555Y163439D2*
G1X193366Y163439D1*
G1X181555Y164396D2*
G1X193337Y164396D1*
G1X181555Y165884D2*
G1X193324Y165884D1*
G1X181555Y163545D2*
G1X193318Y163545D1*
G1X181555Y164289D2*
G1X193301Y164289D1*
G1X181555Y163651D2*
G1X193293Y163651D1*
G1X181555Y164077D2*
G1X193287Y164077D1*
G1X181555Y163970D2*
G1X193287Y163970D1*
G1X181555Y163864D2*
G1X193287Y163864D1*
G1X181555Y163758D2*
G1X193287Y163758D1*
G1X181555Y164183D2*
G1X193286Y164183D1*
G1X181555Y165990D2*
G1X193218Y165990D1*
G1X181555Y166947D2*
G1X193127Y166947D1*
G1X181555Y166096D2*
G1X193112Y166096D1*
G1X181555Y166203D2*
G1X193006Y166203D1*
G1X181555Y166840D2*
G1X192971Y166840D1*
G1X181555Y166309D2*
G1X192904Y166309D1*
G1X181555Y166734D2*
G1X192895Y166734D1*
G1X181555Y166415D2*
G1X192860Y166415D1*
G1X181555Y166628D2*
G1X192857Y166628D1*
G1X181555Y166522D2*
G1X192846Y166522D1*
G1X181555Y145474D2*
G1X183134Y145474D1*
G1X181555Y146963D2*
G1X183037Y146963D1*
G1X181555Y174494D2*
G1X182962Y174494D1*
G1X181555Y173112D2*
G1X182906Y173112D1*
G1X181555Y145581D2*
G1X182859Y145581D1*
G1X181555Y146856D2*
G1X182823Y146856D1*
G1X181555Y174388D2*
G1X182786Y174388D1*
G1X181555Y173218D2*
G1X182754Y173218D1*
G1X181555Y145687D2*
G1X182725Y145687D1*
G1X181555Y146750D2*
G1X182703Y146750D1*
G1X181555Y174281D2*
G1X182678Y174281D1*
G1X181555Y173325D2*
G1X182656Y173325D1*
G1X181555Y145793D2*
G1X182637Y145793D1*
G1X181555Y146644D2*
G1X182621Y146644D1*
G1X181555Y174175D2*
G1X182604Y174175D1*
G1X181555Y173431D2*
G1X182589Y173431D1*
G1X181555Y145900D2*
G1X182575Y145900D1*
G1X181555Y146537D2*
G1X182564Y146537D1*
G1X181555Y174069D2*
G1X182552Y174069D1*
G1X181555Y173537D2*
G1X182542Y173537D1*
G1X181555Y146006D2*
G1X182534Y146006D1*
G1X181555Y146431D2*
G1X182527Y146431D1*
G1X181555Y173963D2*
G1X182520Y173963D1*
G1X181555Y173644D2*
G1X182514Y173644D1*
G1X181555Y146112D2*
G1X182509Y146112D1*
G1X181555Y146325D2*
G1X182506Y146325D1*
G1X181555Y173856D2*
G1X182503Y173856D1*
G1X181555Y173750D2*
G1X182501Y173750D1*
G1X181555Y146218D2*
G1X182500Y146218D1*
G54D26*
G1X208957Y164163D3*
G1X208957Y166132D3*
G1X193858Y166132D3*
G1X193858Y164163D3*
G1X201403Y164360D2*
G1X201725Y164491D1*
G1X201594Y164169D1*
G1X201398Y164163D2*
G1X202402Y165167D1*
G1X209646Y165167D1*
G1X211549Y167071D1*
G1X213647Y167071D1*
G1X213681Y167156D1*
G1X217323Y146230D2*
G75*
G54D33*
G3X217323Y146230I-591J0D1*
G1X183858Y173789D2*
G3X183858Y173789I-591J0D1*
G1X217323Y173789D2*
G3X217323Y173789I-591J0D1*
G1X183858Y146230D2*
G3X183858Y146230I-591J0D1*
G74*
G1X196396Y149493D2*
G54D53*
G1X196524Y149439D1*
G1X196396Y149385D1*
G1X202974Y149493D2*
G1X202847Y149439D1*
G1X202974Y149385D1*
G1X196339Y149439D2*
G1X203032Y149439D1*
G1X203089Y149493D2*
G1X203217Y149439D1*
G1X203089Y149385D1*
G1X203604Y149493D2*
G1X203476Y149439D1*
G1X203604Y149385D1*
G1X203032Y149439D2*
G1X203661Y149439D1*
G1X203719Y149493D2*
G1X203847Y149439D1*
G1X203719Y149385D1*
G1X204577Y149497D2*
G1X204462Y149439D1*
G1X204620Y149384D1*
G1X203661Y149439D2*
G1X204626Y149439D1*
G1X204646Y149459D1*
G1X206543Y149577D2*
G1X206032Y149360D1*
G1X206543Y149144D1*
G1X206471Y149453D2*
G1X206032Y149360D1*
G1X206457Y149360D1*
G1X206032Y149360D2*
G1X206471Y149267D1*
G1X204703Y149513D2*
G1X204831Y149459D1*
G1X204703Y149405D1*
G1X206772Y149360D2*
G1X205768Y149360D1*
G1X205669Y149459D1*
G1X204646Y149459D1*
G54D60*
G1X200374Y147982D3*
G1X204646Y147471D3*
G1X196339Y149439D3*
G1X199547Y149026D3*
G1X200610Y149026D3*
G1X203032Y149439D3*
G1X203661Y149439D3*
G1X204646Y149459D3*
G1X198917Y150443D3*
G1X199528Y150443D3*
G1X200158Y158435D3*
G1X200158Y158868D3*
G1X202185Y158435D3*
G1X202185Y158868D3*
G1X200551Y158868D3*
G1X200551Y158435D3*
G1X202579Y158868D3*
G1X202579Y158435D3*
G1X205591Y158553D3*
G1X195856Y168045D2*
G54D61*
G1X195748Y167789D1*
G1X195640Y168045D1*
G1X193858Y166132D2*
G1X195098Y166132D1*
G1X195748Y166782D1*
G1X195748Y168159D1*
G1X207175Y168045D2*
G1X207067Y167789D1*
G1X206959Y168045D1*
G1X208957Y166132D2*
G1X207441Y166132D1*
G1X207441Y166152D1*
G1X207067Y166526D1*
G1X207067Y168159D1*
G1X199941Y152549D3*
G1X199941Y154321D3*
G1X199941Y153730D3*
G1X199941Y153140D3*
G1X201122Y152549D3*
G1X201713Y153730D3*
G1X201713Y153140D3*
G1X201122Y154321D3*
G1X201122Y153730D3*
G1X201713Y152549D3*
G1X200532Y153730D3*
G1X200532Y154321D3*
G1X200532Y152549D3*
G1X200532Y153140D3*
G1X201713Y154321D3*
G1X201122Y153140D3*
G1X202303Y154321D3*
G1X202894Y154321D3*
G1X202303Y153140D3*
G1X202894Y152549D3*
G1X202303Y152549D3*
G1X202303Y153730D3*
G1X202894Y153730D3*
G1X202894Y153140D3*
G1X216033Y164783D2*
G54D71*
G1X216159Y164909D1*
G1X216033Y165591D2*
G1X216159Y165465D1*
G1X217234Y165591D2*
G1X217109Y165465D1*
G1X217234Y164783D2*
G1X217109Y164909D1*
G1X213081Y164783D2*
G1X213206Y164909D1*
G1X213081Y165591D2*
G1X213206Y165465D1*
G1X214282Y165591D2*
G1X214156Y165465D1*
G1X214282Y164783D2*
G1X214156Y164909D1*
G54D80*
G1X201201Y149971D3*
G1X205315Y149971D3*
G1X202205Y150778D3*
G1X200295Y150423D3*
G1X204016Y150778D3*
G1X205020Y150423D3*
G54D195*
G1X197874Y145600D3*
G54D197*
G1X213681Y167156D3*
G1X213681Y165187D3*
G1X216634Y165187D3*
G1X216634Y167156D3*
G54D199*
G1X207894Y171781D3*
G1X194894Y171781D3*
G54D203*
G1X197874Y146600D3*
G1X198874Y145600D3*
G1X198874Y146600D3*
G1X199874Y145600D3*
G1X199874Y146600D3*
G1X200874Y145600D3*
G1X200874Y146600D3*
G1X201874Y145600D3*
G1X201874Y146600D3*
G1X202874Y145600D3*
G1X202874Y146600D3*
G1X203874Y145600D3*
G1X203874Y146600D3*
G1X204874Y145600D3*
G1X204874Y146600D3*
M2*
