*
%LPD*%
%LNBottomSoldermask*%
%FSLAX24Y24*%
%MOIN*%
%AD*%
%ADD21C,0.00984*%
%ADD25C,0.01181*%
%ADD30C,0.00787*%
%ADD33C,0.00591*%
%ADD39C,0.11*%
%ADD42C,0.1163*%
%ADD45C,0.08874*%
%ADD51C,0.001*%
%ADD67C,0.06906*%
%ADD68C,0.05724*%
%ADD72C,0.04937*%
%ADD83C,0.0415*%
%ADD204O,0.12811X0.08874*%
%ADD205O,0.17X0.19*%
%ADD206R,0.0848X0.0848*%
%ADD207C,0.0848*%
%ADD208C,0.03362*%
G54D21*
%SRX1Y1I0.0J0.0*%
G1X208957Y166959D2*
G1X208957Y166959D1*
G1X208366Y166802D1*
G1X208266Y166771D1*
G1X208184Y166705D1*
G1X208134Y166613D1*
G1X208121Y166508D1*
G1X208149Y166407D1*
G1X208149Y166407D1*
G1X208621Y165935D1*
G1X208709Y165832D1*
G1X208827Y165765D1*
G1X208960Y165742D1*
G1X209088Y165764D1*
G1X209202Y165826D1*
G1X209290Y165922D1*
G1X209342Y166042D1*
G1X209351Y166171D1*
G1X209351Y166565D1*
G1X209328Y166699D1*
G1X209263Y166818D1*
G1X209161Y166908D1*
G1X209036Y166959D1*
G1X209035Y166959D1*
G1X208957Y166959D1*
G1X208169Y166387D2*
G1X208169Y166678D1*
G1X208219Y166338D2*
G1X208219Y166733D1*
G1X208268Y166288D2*
G1X208268Y166772D1*
G1X208317Y166239D2*
G1X208317Y166787D1*
G1X208366Y166190D2*
G1X208366Y166802D1*
G1X208415Y166141D2*
G1X208415Y166815D1*
G1X208465Y166091D2*
G1X208465Y166828D1*
G1X208514Y166042D2*
G1X208514Y166841D1*
G1X208563Y165993D2*
G1X208563Y166855D1*
G1X208612Y165944D2*
G1X208612Y166868D1*
G1X208661Y165888D2*
G1X208661Y166881D1*
G1X208711Y165831D2*
G1X208711Y166894D1*
G1X208760Y165803D2*
G1X208760Y166907D1*
G1X208809Y165775D2*
G1X208809Y166920D1*
G1X208858Y165760D2*
G1X208858Y166933D1*
G1X208908Y165751D2*
G1X208908Y166946D1*
G1X208957Y165743D2*
G1X208957Y166959D1*
G1X209006Y165750D2*
G1X209006Y166959D1*
G1X209055Y165758D2*
G1X209055Y166951D1*
G1X209104Y165772D2*
G1X209104Y166931D1*
G1X209154Y165799D2*
G1X209154Y166911D1*
G1X209203Y165826D2*
G1X209203Y166871D1*
G1X209252Y165880D2*
G1X209252Y166827D1*
G1X209301Y165948D2*
G1X209301Y166748D1*
G1X209350Y166161D2*
G1X209350Y166570D1*
G1X208562Y164124D2*
G1X208562Y163730D1*
G1X208585Y163597D1*
G1X208651Y163478D1*
G1X208752Y163388D1*
G1X208878Y163336D1*
G1X208878Y163336D1*
G1X208957Y163336D1*
G1X208957Y163336D1*
G1X209547Y163493D1*
G1X209648Y163524D1*
G1X209729Y163591D1*
G1X209780Y163683D1*
G1X209792Y163787D1*
G1X209765Y163888D1*
G1X209764Y163888D1*
G1X209292Y164361D1*
G1X209207Y164461D1*
G1X209093Y164528D1*
G1X208963Y164553D1*
G1X208832Y164534D1*
G1X208716Y164473D1*
G1X208625Y164376D1*
G1X208572Y164256D1*
G1X208562Y164124D1*
G1X208563Y163726D2*
G1X208563Y164134D1*
G1X208612Y163547D2*
G1X208612Y164346D1*
G1X208661Y163468D2*
G1X208661Y164415D1*
G1X208711Y163425D2*
G1X208711Y164468D1*
G1X208760Y163384D2*
G1X208760Y164496D1*
G1X208809Y163364D2*
G1X208809Y164522D1*
G1X208858Y163344D2*
G1X208858Y164538D1*
G1X208908Y163336D2*
G1X208908Y164545D1*
G1X208957Y163336D2*
G1X208957Y164552D1*
G1X209006Y163349D2*
G1X209006Y164545D1*
G1X209055Y163362D2*
G1X209055Y164535D1*
G1X209104Y163375D2*
G1X209104Y164521D1*
G1X209154Y163388D2*
G1X209154Y164492D1*
G1X209203Y163401D2*
G1X209203Y164464D1*
G1X209252Y163415D2*
G1X209252Y164408D1*
G1X209301Y163428D2*
G1X209301Y164352D1*
G1X209350Y163441D2*
G1X209350Y164302D1*
G1X209400Y163454D2*
G1X209400Y164253D1*
G1X209449Y163467D2*
G1X209449Y164204D1*
G1X209498Y163480D2*
G1X209498Y164155D1*
G1X209547Y163493D2*
G1X209547Y164105D1*
G1X209597Y163508D2*
G1X209597Y164056D1*
G1X209646Y163524D2*
G1X209646Y164007D1*
G1X209695Y163563D2*
G1X209695Y163958D1*
G1X209744Y163618D2*
G1X209744Y163909D1*
G1X193858Y163336D2*
G1X193859Y163336D1*
G1X194449Y163493D1*
G1X194549Y163524D1*
G1X194631Y163591D1*
G1X194681Y163683D1*
G1X194694Y163787D1*
G1X194666Y163888D1*
G1X194666Y163888D1*
G1X194194Y164361D1*
G1X194106Y164463D1*
G1X193988Y164530D1*
G1X193855Y164553D1*
G1X193727Y164532D1*
G1X193613Y164470D1*
G1X193525Y164373D1*
G1X193474Y164254D1*
G1X193464Y164124D1*
G1X193464Y163730D1*
G1X193487Y163597D1*
G1X193552Y163478D1*
G1X193654Y163388D1*
G1X193779Y163336D1*
G1X193780Y163336D1*
G1X193858Y163336D1*
G1X193465Y163726D2*
G1X193465Y164135D1*
G1X193514Y163547D2*
G1X193514Y164347D1*
G1X193563Y163468D2*
G1X193563Y164415D1*
G1X193612Y163425D2*
G1X193612Y164469D1*
G1X193661Y163384D2*
G1X193661Y164496D1*
G1X193711Y163364D2*
G1X193711Y164523D1*
G1X193760Y163344D2*
G1X193760Y164537D1*
G1X193809Y163336D2*
G1X193809Y164546D1*
G1X193858Y163336D2*
G1X193858Y164553D1*
G1X193908Y163349D2*
G1X193908Y164544D1*
G1X193957Y163362D2*
G1X193957Y164536D1*
G1X194006Y163375D2*
G1X194006Y164520D1*
G1X194055Y163388D2*
G1X194055Y164492D1*
G1X194104Y163401D2*
G1X194104Y164464D1*
G1X194154Y163415D2*
G1X194154Y164407D1*
G1X194203Y163428D2*
G1X194203Y164352D1*
G1X194252Y163441D2*
G1X194252Y164302D1*
G1X194301Y163454D2*
G1X194301Y164253D1*
G1X194350Y163467D2*
G1X194350Y164204D1*
G1X194400Y163480D2*
G1X194400Y164155D1*
G1X194449Y163493D2*
G1X194449Y164105D1*
G1X194498Y163508D2*
G1X194498Y164056D1*
G1X194547Y163524D2*
G1X194547Y164007D1*
G1X194597Y163563D2*
G1X194597Y163958D1*
G1X194646Y163618D2*
G1X194646Y163909D1*
G1X194253Y166171D2*
G1X194253Y166565D1*
G1X194230Y166699D1*
G1X194164Y166818D1*
G1X194063Y166908D1*
G1X193937Y166959D1*
G1X193937Y166959D1*
G1X193858Y166959D1*
G1X193858Y166959D1*
G1X193268Y166802D1*
G1X193167Y166771D1*
G1X193086Y166705D1*
G1X193035Y166613D1*
G1X193023Y166508D1*
G1X193051Y166407D1*
G1X193051Y166407D1*
G1X193523Y165935D1*
G1X193608Y165834D1*
G1X193722Y165767D1*
G1X193852Y165742D1*
G1X193983Y165761D1*
G1X194100Y165822D1*
G1X194190Y165919D1*
G1X194243Y166040D1*
G1X194253Y166171D1*
G1X193071Y166387D2*
G1X193071Y166678D1*
G1X193120Y166338D2*
G1X193120Y166733D1*
G1X193169Y166288D2*
G1X193169Y166772D1*
G1X193219Y166239D2*
G1X193219Y166787D1*
G1X193268Y166190D2*
G1X193268Y166802D1*
G1X193317Y166141D2*
G1X193317Y166815D1*
G1X193366Y166091D2*
G1X193366Y166828D1*
G1X193415Y166042D2*
G1X193415Y166841D1*
G1X193465Y165993D2*
G1X193465Y166855D1*
G1X193514Y165944D2*
G1X193514Y166868D1*
G1X193563Y165888D2*
G1X193563Y166881D1*
G1X193612Y165832D2*
G1X193612Y166894D1*
G1X193661Y165803D2*
G1X193661Y166907D1*
G1X193711Y165774D2*
G1X193711Y166920D1*
G1X193760Y165760D2*
G1X193760Y166933D1*
G1X193809Y165750D2*
G1X193809Y166946D1*
G1X193858Y165743D2*
G1X193858Y166959D1*
G1X193908Y165750D2*
G1X193908Y166959D1*
G1X193957Y165757D2*
G1X193957Y166951D1*
G1X194006Y165773D2*
G1X194006Y166931D1*
G1X194055Y165799D2*
G1X194055Y166911D1*
G1X194104Y165828D2*
G1X194104Y166871D1*
G1X194154Y165880D2*
G1X194154Y166827D1*
G1X194203Y165949D2*
G1X194203Y166748D1*
G1X194252Y166161D2*
G1X194252Y166570D1*
G1X181299Y144262D2*
G1X218701Y144262D1*
G1X218701Y175738D1*
G1X181299Y175738D1*
G1X181299Y144262D1*
G1X181555Y161132D2*
G54D25*
G1X198957Y161132D1*
G1X198957Y157589D1*
G1X203602Y157589D1*
G1X203602Y161132D1*
G1X218445Y161132D1*
G1X218445Y148848D1*
G1X207736Y148848D1*
G1X207736Y150979D1*
G1X207406Y151309D1*
G1X198957Y151309D1*
G1X198957Y150030D1*
G1X195217Y150030D1*
G1X195217Y148848D1*
G1X181555Y148848D1*
G1X181555Y161132D1*
G1X203602Y161073D2*
G1X218445Y161073D1*
G1X203602Y160966D2*
G1X218445Y160966D1*
G1X203602Y160860D2*
G1X218445Y160860D1*
G1X203602Y160754D2*
G1X218445Y160754D1*
G1X203602Y160648D2*
G1X218445Y160648D1*
G1X203602Y160541D2*
G1X218445Y160541D1*
G1X203602Y160435D2*
G1X218445Y160435D1*
G1X203602Y160329D2*
G1X218445Y160329D1*
G1X203602Y160222D2*
G1X218445Y160222D1*
G1X203602Y160116D2*
G1X218445Y160116D1*
G1X203602Y160010D2*
G1X218445Y160010D1*
G1X203602Y159903D2*
G1X218445Y159903D1*
G1X203602Y159797D2*
G1X218445Y159797D1*
G1X203602Y159691D2*
G1X218445Y159691D1*
G1X203602Y159585D2*
G1X218445Y159585D1*
G1X203602Y159478D2*
G1X218445Y159478D1*
G1X203602Y159372D2*
G1X218445Y159372D1*
G1X203602Y159266D2*
G1X218445Y159266D1*
G1X203602Y159159D2*
G1X218445Y159159D1*
G1X203602Y159053D2*
G1X218445Y159053D1*
G1X203602Y158947D2*
G1X218445Y158947D1*
G1X203602Y158840D2*
G1X218445Y158840D1*
G1X203602Y158734D2*
G1X218445Y158734D1*
G1X203602Y158628D2*
G1X218445Y158628D1*
G1X203602Y158522D2*
G1X218445Y158522D1*
G1X203602Y158415D2*
G1X218445Y158415D1*
G1X203602Y158309D2*
G1X218445Y158309D1*
G1X203602Y158203D2*
G1X218445Y158203D1*
G1X203602Y158096D2*
G1X218445Y158096D1*
G1X203602Y157990D2*
G1X218445Y157990D1*
G1X203602Y157884D2*
G1X218445Y157884D1*
G1X203602Y157777D2*
G1X218445Y157777D1*
G1X203602Y157671D2*
G1X218445Y157671D1*
G1X181555Y157565D2*
G1X218445Y157565D1*
G1X181555Y157459D2*
G1X218445Y157459D1*
G1X181555Y157352D2*
G1X218445Y157352D1*
G1X181555Y157246D2*
G1X218445Y157246D1*
G1X181555Y157140D2*
G1X218445Y157140D1*
G1X181555Y157033D2*
G1X218445Y157033D1*
G1X181555Y156927D2*
G1X218445Y156927D1*
G1X181555Y156821D2*
G1X218445Y156821D1*
G1X181555Y156714D2*
G1X218445Y156714D1*
G1X181555Y156608D2*
G1X218445Y156608D1*
G1X181555Y156502D2*
G1X218445Y156502D1*
G1X181555Y156396D2*
G1X218445Y156396D1*
G1X181555Y156289D2*
G1X218445Y156289D1*
G1X181555Y156183D2*
G1X218445Y156183D1*
G1X181555Y156077D2*
G1X218445Y156077D1*
G1X181555Y155970D2*
G1X218445Y155970D1*
G1X181555Y155864D2*
G1X218445Y155864D1*
G1X181555Y155758D2*
G1X218445Y155758D1*
G1X181555Y155651D2*
G1X218445Y155651D1*
G1X181555Y155545D2*
G1X218445Y155545D1*
G1X181555Y155439D2*
G1X218445Y155439D1*
G1X181555Y155333D2*
G1X218445Y155333D1*
G1X181555Y155226D2*
G1X218445Y155226D1*
G1X181555Y155120D2*
G1X218445Y155120D1*
G1X181555Y155014D2*
G1X218445Y155014D1*
G1X181555Y154907D2*
G1X218445Y154907D1*
G1X181555Y154801D2*
G1X218445Y154801D1*
G1X181555Y154695D2*
G1X218445Y154695D1*
G1X181555Y154589D2*
G1X218445Y154589D1*
G1X181555Y154482D2*
G1X218445Y154482D1*
G1X181555Y154376D2*
G1X218445Y154376D1*
G1X181555Y154270D2*
G1X218445Y154270D1*
G1X181555Y154163D2*
G1X218445Y154163D1*
G1X181555Y154057D2*
G1X218445Y154057D1*
G1X181555Y153951D2*
G1X218445Y153951D1*
G1X181555Y153844D2*
G1X218445Y153844D1*
G1X181555Y153738D2*
G1X218445Y153738D1*
G1X181555Y153632D2*
G1X218445Y153632D1*
G1X181555Y153526D2*
G1X218445Y153526D1*
G1X181555Y153419D2*
G1X218445Y153419D1*
G1X181555Y153313D2*
G1X218445Y153313D1*
G1X181555Y153207D2*
G1X218445Y153207D1*
G1X181555Y153100D2*
G1X218445Y153100D1*
G1X181555Y152994D2*
G1X218445Y152994D1*
G1X181555Y152888D2*
G1X218445Y152888D1*
G1X181555Y152781D2*
G1X218445Y152781D1*
G1X181555Y152675D2*
G1X218445Y152675D1*
G1X181555Y152569D2*
G1X218445Y152569D1*
G1X181555Y152463D2*
G1X218445Y152463D1*
G1X181555Y152356D2*
G1X218445Y152356D1*
G1X181555Y152250D2*
G1X218445Y152250D1*
G1X181555Y152144D2*
G1X218445Y152144D1*
G1X181555Y152037D2*
G1X218445Y152037D1*
G1X181555Y151931D2*
G1X218445Y151931D1*
G1X181555Y151825D2*
G1X218445Y151825D1*
G1X181555Y151718D2*
G1X218445Y151718D1*
G1X181555Y151612D2*
G1X218445Y151612D1*
G1X181555Y151506D2*
G1X218445Y151506D1*
G1X181555Y151400D2*
G1X218445Y151400D1*
G1X207422Y151293D2*
G1X218445Y151293D1*
G1X207529Y151187D2*
G1X218445Y151187D1*
G1X207635Y151081D2*
G1X218445Y151081D1*
G1X207736Y150974D2*
G1X218445Y150974D1*
G1X207736Y150868D2*
G1X218445Y150868D1*
G1X207736Y150762D2*
G1X218445Y150762D1*
G1X207736Y150655D2*
G1X218445Y150655D1*
G1X207736Y150549D2*
G1X218445Y150549D1*
G1X207736Y150443D2*
G1X218445Y150443D1*
G1X207736Y150337D2*
G1X218445Y150337D1*
G1X207736Y150230D2*
G1X218445Y150230D1*
G1X207736Y150124D2*
G1X218445Y150124D1*
G1X207736Y150018D2*
G1X218445Y150018D1*
G1X207736Y149911D2*
G1X218445Y149911D1*
G1X207736Y149805D2*
G1X218445Y149805D1*
G1X207736Y149699D2*
G1X218445Y149699D1*
G1X207736Y149592D2*
G1X218445Y149592D1*
G1X207736Y149486D2*
G1X218445Y149486D1*
G1X207736Y149380D2*
G1X218445Y149380D1*
G1X207736Y149274D2*
G1X218445Y149274D1*
G1X207736Y149167D2*
G1X218445Y149167D1*
G1X207736Y149061D2*
G1X218445Y149061D1*
G1X207736Y148955D2*
G1X218445Y148955D1*
G1X181555Y161073D2*
G1X198957Y161073D1*
G1X181555Y160966D2*
G1X198957Y160966D1*
G1X181555Y160860D2*
G1X198957Y160860D1*
G1X181555Y160754D2*
G1X198957Y160754D1*
G1X181555Y160648D2*
G1X198957Y160648D1*
G1X181555Y160541D2*
G1X198957Y160541D1*
G1X181555Y160435D2*
G1X198957Y160435D1*
G1X181555Y160329D2*
G1X198957Y160329D1*
G1X181555Y160222D2*
G1X198957Y160222D1*
G1X181555Y160116D2*
G1X198957Y160116D1*
G1X181555Y160010D2*
G1X198957Y160010D1*
G1X181555Y159903D2*
G1X198957Y159903D1*
G1X181555Y159797D2*
G1X198957Y159797D1*
G1X181555Y159691D2*
G1X198957Y159691D1*
G1X181555Y159585D2*
G1X198957Y159585D1*
G1X181555Y159478D2*
G1X198957Y159478D1*
G1X181555Y159372D2*
G1X198957Y159372D1*
G1X181555Y159266D2*
G1X198957Y159266D1*
G1X181555Y159159D2*
G1X198957Y159159D1*
G1X181555Y159053D2*
G1X198957Y159053D1*
G1X181555Y158947D2*
G1X198957Y158947D1*
G1X181555Y158840D2*
G1X198957Y158840D1*
G1X181555Y158734D2*
G1X198957Y158734D1*
G1X181555Y158628D2*
G1X198957Y158628D1*
G1X181555Y158522D2*
G1X198957Y158522D1*
G1X181555Y158415D2*
G1X198957Y158415D1*
G1X181555Y158309D2*
G1X198957Y158309D1*
G1X181555Y158203D2*
G1X198957Y158203D1*
G1X181555Y158096D2*
G1X198957Y158096D1*
G1X181555Y157990D2*
G1X198957Y157990D1*
G1X181555Y157884D2*
G1X198957Y157884D1*
G1X181555Y157777D2*
G1X198957Y157777D1*
G1X181555Y157671D2*
G1X198957Y157671D1*
G1X181555Y151293D2*
G1X198957Y151293D1*
G1X181555Y151187D2*
G1X198957Y151187D1*
G1X181555Y151081D2*
G1X198957Y151081D1*
G1X181555Y150974D2*
G1X198957Y150974D1*
G1X181555Y150868D2*
G1X198957Y150868D1*
G1X181555Y150762D2*
G1X198957Y150762D1*
G1X181555Y150655D2*
G1X198957Y150655D1*
G1X181555Y150549D2*
G1X198957Y150549D1*
G1X181555Y150443D2*
G1X198957Y150443D1*
G1X181555Y150337D2*
G1X198957Y150337D1*
G1X181555Y150230D2*
G1X198957Y150230D1*
G1X181555Y150124D2*
G1X198957Y150124D1*
G1X181555Y150018D2*
G1X195217Y150018D1*
G1X181555Y149911D2*
G1X195217Y149911D1*
G1X181555Y149805D2*
G1X195217Y149805D1*
G1X181555Y149699D2*
G1X195217Y149699D1*
G1X181555Y149592D2*
G1X195217Y149592D1*
G1X181555Y149486D2*
G1X195217Y149486D1*
G1X181555Y149380D2*
G1X195217Y149380D1*
G1X181555Y149274D2*
G1X195217Y149274D1*
G1X181555Y149167D2*
G1X195217Y149167D1*
G1X181555Y149061D2*
G1X195217Y149061D1*
G1X181555Y148955D2*
G1X195217Y148955D1*
G1X217323Y146230D2*
G75*
G54D33*
G3X217323Y146230I-591J0D1*
G1X183858Y173789D2*
G3X183858Y173789I-591J0D1*
G1X217323Y173789D2*
G3X217323Y173789I-591J0D1*
G1X183858Y146230D2*
G3X183858Y146230I-591J0D1*
G74*
G54D39*
G1X205044Y173331D3*
G1X203094Y173331D3*
G1X199894Y173331D3*
G1X197944Y173331D3*
G1X197744Y173331D3*
G1X204844Y173331D3*
G1X202894Y173331D3*
G1X199694Y173331D3*
G54D42*
G1X201398Y164163D3*
G1X201398Y166132D3*
G54D45*
G1X205083Y162097D3*
G1X207067Y162097D3*
G1X197732Y162097D3*
G1X195748Y162097D3*
G1X197732Y168159D3*
G1X195748Y168159D3*
G1X205083Y168159D3*
G1X207067Y168159D3*
G1X206772Y149360D3*
G1X206772Y148376D3*
G54D67*
G1X208957Y164163D3*
G1X208957Y166132D3*
G1X193858Y166132D3*
G1X193858Y164163D3*
G54D68*
G1X199941Y152549D3*
G1X199941Y154321D3*
G1X199941Y153730D3*
G1X199941Y153140D3*
G1X201122Y152549D3*
G1X201713Y153730D3*
G1X201713Y153140D3*
G1X201122Y154321D3*
G1X201122Y153730D3*
G1X201713Y152549D3*
G1X200532Y153730D3*
G1X200532Y154321D3*
G1X200532Y152549D3*
G1X200532Y153140D3*
G1X201713Y154321D3*
G1X201122Y153140D3*
G1X202303Y154321D3*
G1X202894Y154321D3*
G1X202303Y153140D3*
G1X202894Y152549D3*
G1X202303Y152549D3*
G1X202303Y153730D3*
G1X202894Y153730D3*
G1X202894Y153140D3*
G54D72*
G1X207402Y147923D3*
G1X206221Y147923D3*
G1X182008Y150285D3*
G1X182008Y149104D3*
G1X182008Y149695D3*
G1X182598Y150285D3*
G1X182598Y149695D3*
G1X182598Y149104D3*
G1X183780Y150285D3*
G1X183780Y149695D3*
G1X183189Y149104D3*
G1X183780Y149104D3*
G1X183189Y150285D3*
G1X183189Y149695D3*
G1X186142Y149695D3*
G1X186142Y149104D3*
G1X184961Y150285D3*
G1X184370Y150285D3*
G1X185551Y150285D3*
G1X185551Y149695D3*
G1X184961Y149104D3*
G1X185551Y149104D3*
G1X184370Y149695D3*
G1X184961Y149695D3*
G1X186142Y150285D3*
G1X184370Y149104D3*
G1X187913Y149104D3*
G1X187913Y150285D3*
G1X187913Y149695D3*
G1X187323Y150285D3*
G1X187323Y149695D3*
G1X187323Y149104D3*
G1X186732Y150285D3*
G1X186732Y149695D3*
G1X186732Y149104D3*
G1X189095Y150285D3*
G1X189095Y149695D3*
G1X189095Y149104D3*
G1X189685Y149695D3*
G1X189685Y149104D3*
G1X188504Y150285D3*
G1X188504Y149695D3*
G1X188504Y149104D3*
G1X189685Y150285D3*
G1X192047Y150285D3*
G1X192047Y149695D3*
G1X192047Y149104D3*
G1X191457Y149695D3*
G1X190866Y150285D3*
G1X190276Y149104D3*
G1X191457Y150285D3*
G1X191457Y149104D3*
G1X190866Y149104D3*
G1X190866Y149695D3*
G1X190276Y150285D3*
G1X190276Y149695D3*
G1X193228Y149695D3*
G1X193228Y149104D3*
G1X193819Y149695D3*
G1X192638Y149695D3*
G1X192638Y149104D3*
G1X193819Y149104D3*
G1X192638Y150285D3*
G1X193819Y150285D3*
G1X193228Y150285D3*
G1X195000Y150285D3*
G1X195000Y149695D3*
G1X194409Y149104D3*
G1X195591Y150285D3*
G1X194409Y150285D3*
G1X194409Y149695D3*
G1X196181Y150285D3*
G1X195000Y149104D3*
G1X207402Y150285D3*
G1X207992Y149695D3*
G1X207992Y150285D3*
G1X206221Y150285D3*
G1X209173Y149104D3*
G1X209764Y149104D3*
G1X208583Y150285D3*
G1X209173Y150285D3*
G1X209173Y149695D3*
G1X208583Y149695D3*
G1X209764Y150285D3*
G1X209764Y149695D3*
G1X208583Y149104D3*
G1X210945Y149104D3*
G1X210945Y150285D3*
G1X210945Y149695D3*
G1X211535Y150285D3*
G1X211535Y149104D3*
G1X211535Y149695D3*
G1X212126Y149695D3*
G1X212126Y149104D3*
G1X212126Y150285D3*
G1X210354Y149695D3*
G1X210354Y150285D3*
G1X210354Y149104D3*
G1X213898Y149695D3*
G1X213898Y149104D3*
G1X213307Y150285D3*
G1X213307Y149695D3*
G1X213307Y149104D3*
G1X212717Y149104D3*
G1X212717Y150285D3*
G1X212717Y149695D3*
G1X213898Y150285D3*
G1X214488Y149104D3*
G1X215079Y150285D3*
G1X215079Y149695D3*
G1X215079Y149104D3*
G1X215669Y150285D3*
G1X215669Y149695D3*
G1X215669Y149104D3*
G1X214488Y150285D3*
G1X214488Y149695D3*
G1X217441Y150285D3*
G1X217441Y149695D3*
G1X217441Y149104D3*
G1X216850Y150285D3*
G1X216260Y150285D3*
G1X216260Y149695D3*
G1X216260Y149104D3*
G1X216850Y149695D3*
G1X216850Y149104D3*
G1X182008Y150876D3*
G1X182008Y152057D3*
G1X182008Y151467D3*
G1X182598Y150876D3*
G1X183189Y151467D3*
G1X183780Y150876D3*
G1X183189Y152057D3*
G1X183189Y150876D3*
G1X183780Y152057D3*
G1X182598Y152057D3*
G1X182598Y151467D3*
G1X183780Y151467D3*
G1X184961Y151467D3*
G1X184961Y150876D3*
G1X184961Y152057D3*
G1X184370Y150876D3*
G1X186142Y151467D3*
G1X184370Y152057D3*
G1X184370Y151467D3*
G1X186142Y150876D3*
G1X186142Y152057D3*
G1X185551Y152057D3*
G1X185551Y150876D3*
G1X185551Y151467D3*
G1X186732Y150876D3*
G1X186732Y152057D3*
G1X186732Y151467D3*
G1X187913Y150876D3*
G1X187913Y152057D3*
G1X187913Y151467D3*
G1X187323Y152057D3*
G1X187323Y151467D3*
G1X187323Y150876D3*
G1X188504Y150876D3*
G1X189095Y151467D3*
G1X189095Y150876D3*
G1X188504Y152057D3*
G1X189685Y152057D3*
G1X189685Y151467D3*
G1X188504Y151467D3*
G1X189685Y150876D3*
G1X189095Y152057D3*
G1X192047Y151467D3*
G1X192047Y150876D3*
G1X190866Y152057D3*
G1X190866Y151467D3*
G1X192047Y152057D3*
G1X190866Y150876D3*
G1X191457Y151467D3*
G1X191457Y150876D3*
G1X190276Y152057D3*
G1X190276Y150876D3*
G1X190276Y151467D3*
G1X191457Y152057D3*
G1X193228Y151467D3*
G1X193228Y150876D3*
G1X192638Y152057D3*
G1X192638Y151467D3*
G1X192638Y150876D3*
G1X193819Y152057D3*
G1X193819Y151467D3*
G1X193819Y150876D3*
G1X193228Y152057D3*
G1X195000Y150876D3*
G1X196181Y152057D3*
G1X196181Y151467D3*
G1X195000Y152057D3*
G1X195000Y151467D3*
G1X194409Y151467D3*
G1X194409Y150876D3*
G1X196181Y150876D3*
G1X195591Y152057D3*
G1X195591Y151467D3*
G1X195591Y150876D3*
G1X194409Y152057D3*
G1X197953Y152057D3*
G1X197953Y151467D3*
G1X196772Y152057D3*
G1X196772Y151467D3*
G1X196772Y150876D3*
G1X197362Y152057D3*
G1X197362Y151467D3*
G1X197362Y150876D3*
G1X198543Y152057D3*
G1X199134Y152057D3*
G1X203858Y152057D3*
G1X203268Y152057D3*
G1X204449Y151467D3*
G1X205630Y152057D3*
G1X205039Y152057D3*
G1X205039Y151467D3*
G1X204449Y152057D3*
G1X205630Y151467D3*
G1X205630Y150876D3*
G1X207402Y152057D3*
G1X207402Y151467D3*
G1X207402Y150876D3*
G1X206811Y152057D3*
G1X206811Y151467D3*
G1X206811Y150876D3*
G1X207992Y151467D3*
G1X207992Y152057D3*
G1X207992Y150876D3*
G1X206221Y152057D3*
G1X206221Y150876D3*
G1X206221Y151467D3*
G1X209173Y151467D3*
G1X208583Y151467D3*
G1X208583Y150876D3*
G1X209173Y150876D3*
G1X209764Y152057D3*
G1X209764Y151467D3*
G1X209764Y150876D3*
G1X209173Y152057D3*
G1X208583Y152057D3*
G1X211535Y150876D3*
G1X212126Y151467D3*
G1X210354Y152057D3*
G1X211535Y152057D3*
G1X211535Y151467D3*
G1X212126Y150876D3*
G1X210354Y151467D3*
G1X210354Y150876D3*
G1X212126Y152057D3*
G1X210945Y150876D3*
G1X210945Y152057D3*
G1X210945Y151467D3*
G1X212717Y150876D3*
G1X213307Y152057D3*
G1X213898Y152057D3*
G1X213898Y151467D3*
G1X213307Y151467D3*
G1X213307Y150876D3*
G1X212717Y152057D3*
G1X212717Y151467D3*
G1X213898Y150876D3*
G1X214488Y152057D3*
G1X214488Y151467D3*
G1X215669Y152057D3*
G1X215669Y151467D3*
G1X215079Y152057D3*
G1X215669Y150876D3*
G1X215079Y151467D3*
G1X214488Y150876D3*
G1X215079Y150876D3*
G1X217441Y152057D3*
G1X216850Y152057D3*
G1X217441Y150876D3*
G1X216850Y151467D3*
G1X216260Y152057D3*
G1X216260Y151467D3*
G1X216260Y150876D3*
G1X216850Y150876D3*
G1X217441Y151467D3*
G1X182008Y152648D3*
G1X182008Y153238D3*
G1X182008Y153829D3*
G1X182598Y153829D3*
G1X182598Y153238D3*
G1X183189Y152648D3*
G1X182598Y152648D3*
G1X183189Y153829D3*
G1X183189Y153238D3*
G1X183780Y152648D3*
G1X183780Y153829D3*
G1X183780Y153238D3*
G1X185551Y153829D3*
G1X185551Y153238D3*
G1X184370Y153829D3*
G1X184370Y153238D3*
G1X184961Y153829D3*
G1X184370Y152648D3*
G1X186142Y153238D3*
G1X186142Y152648D3*
G1X186142Y153829D3*
G1X184961Y153238D3*
G1X184961Y152648D3*
G1X185551Y152648D3*
G1X186732Y153238D3*
G1X186732Y152648D3*
G1X187913Y152648D3*
G1X187323Y153829D3*
G1X186732Y153829D3*
G1X187913Y153829D3*
G1X187913Y153238D3*
G1X187323Y153238D3*
G1X187323Y152648D3*
G1X188504Y152648D3*
G1X189685Y153238D3*
G1X189685Y152648D3*
G1X188504Y153829D3*
G1X189685Y153829D3*
G1X188504Y153238D3*
G1X189095Y153829D3*
G1X189095Y153238D3*
G1X189095Y152648D3*
G1X190866Y152648D3*
G1X190276Y152648D3*
G1X192047Y153829D3*
G1X192047Y153238D3*
G1X192047Y152648D3*
G1X191457Y153829D3*
G1X190866Y153829D3*
G1X190866Y153238D3*
G1X191457Y153238D3*
G1X191457Y152648D3*
G1X190276Y153829D3*
G1X190276Y153238D3*
G1X193819Y152648D3*
G1X193228Y153238D3*
G1X193819Y153829D3*
G1X193819Y153238D3*
G1X193228Y153829D3*
G1X193228Y152648D3*
G1X192638Y153829D3*
G1X192638Y153238D3*
G1X192638Y152648D3*
G1X194409Y153238D3*
G1X194409Y152648D3*
G1X195591Y153238D3*
G1X195591Y152648D3*
G1X196181Y152648D3*
G1X195000Y153829D3*
G1X195000Y153238D3*
G1X195000Y152648D3*
G1X195591Y153829D3*
G1X194409Y153829D3*
G1X196181Y153829D3*
G1X196181Y153238D3*
G1X197953Y153238D3*
G1X197953Y152648D3*
G1X197362Y153829D3*
G1X196772Y152648D3*
G1X196772Y153238D3*
G1X197362Y153238D3*
G1X197362Y152648D3*
G1X197953Y153829D3*
G1X196772Y153829D3*
G1X198543Y153829D3*
G1X198543Y153238D3*
G1X199134Y152648D3*
G1X199134Y153829D3*
G1X199134Y153238D3*
G1X198543Y152648D3*
G1X203858Y153829D3*
G1X203858Y153238D3*
G1X203858Y152648D3*
G1X205039Y153829D3*
G1X204449Y153829D3*
G1X204449Y153238D3*
G1X204449Y152648D3*
G1X205630Y153829D3*
G1X205630Y153238D3*
G1X205630Y152648D3*
G1X205039Y153238D3*
G1X205039Y152648D3*
G1X207402Y153829D3*
G1X207402Y153238D3*
G1X207402Y152648D3*
G1X206221Y153829D3*
G1X206221Y153238D3*
G1X207992Y153238D3*
G1X207992Y153829D3*
G1X206811Y153829D3*
G1X207992Y152648D3*
G1X206811Y153238D3*
G1X206811Y152648D3*
G1X206221Y152648D3*
G1X208583Y153238D3*
G1X209764Y153238D3*
G1X209764Y152648D3*
G1X208583Y152648D3*
G1X209173Y153829D3*
G1X209173Y152648D3*
G1X209764Y153829D3*
G1X208583Y153829D3*
G1X209173Y153238D3*
G1X210945Y153829D3*
G1X210945Y153238D3*
G1X210354Y153238D3*
G1X211535Y153829D3*
G1X211535Y153238D3*
G1X210354Y152648D3*
G1X210354Y153829D3*
G1X211535Y152648D3*
G1X212126Y153829D3*
G1X212126Y153238D3*
G1X212126Y152648D3*
G1X210945Y152648D3*
G1X213898Y153829D3*
G1X213898Y153238D3*
G1X213898Y152648D3*
G1X212717Y152648D3*
G1X213307Y153829D3*
G1X212717Y153829D3*
G1X213307Y153238D3*
G1X213307Y152648D3*
G1X212717Y153238D3*
G1X214488Y153238D3*
G1X214488Y152648D3*
G1X215669Y153829D3*
G1X215079Y153238D3*
G1X215079Y152648D3*
G1X215669Y153238D3*
G1X215669Y152648D3*
G1X214488Y153829D3*
G1X215079Y153829D3*
G1X216850Y153829D3*
G1X217441Y152648D3*
G1X217441Y153829D3*
G1X217441Y153238D3*
G1X216850Y153238D3*
G1X216850Y152648D3*
G1X216260Y153829D3*
G1X216260Y153238D3*
G1X216260Y152648D3*
G1X182008Y156191D3*
G1X182008Y155600D3*
G1X182008Y154419D3*
G1X182008Y155010D3*
G1X183780Y155010D3*
G1X182598Y154419D3*
G1X183189Y156191D3*
G1X183189Y155600D3*
G1X183189Y154419D3*
G1X183780Y154419D3*
G1X183189Y155010D3*
G1X183780Y155600D3*
G1X183780Y156191D3*
G1X182598Y156191D3*
G1X182598Y155600D3*
G1X182598Y155010D3*
G1X185551Y155010D3*
G1X185551Y154419D3*
G1X185551Y156191D3*
G1X185551Y155600D3*
G1X184961Y156191D3*
G1X184961Y155600D3*
G1X184370Y154419D3*
G1X184961Y155010D3*
G1X184961Y154419D3*
G1X186142Y156191D3*
G1X186142Y155600D3*
G1X186142Y155010D3*
G1X186142Y154419D3*
G1X184370Y156191D3*
G1X184370Y155600D3*
G1X184370Y155010D3*
G1X186732Y156191D3*
G1X187323Y155600D3*
G1X187323Y155010D3*
G1X187323Y156191D3*
G1X186732Y155600D3*
G1X187323Y154419D3*
G1X187913Y156191D3*
G1X186732Y155010D3*
G1X186732Y154419D3*
G1X187913Y155600D3*
G1X187913Y155010D3*
G1X187913Y154419D3*
G1X189095Y156191D3*
G1X189685Y155600D3*
G1X189095Y155600D3*
G1X189685Y155010D3*
G1X189095Y155010D3*
G1X189685Y154419D3*
G1X188504Y156191D3*
G1X188504Y155600D3*
G1X188504Y155010D3*
G1X189095Y154419D3*
G1X188504Y154419D3*
G1X189685Y156191D3*
G1X191457Y156191D3*
G1X190276Y156191D3*
G1X190276Y155600D3*
G1X190276Y155010D3*
G1X191457Y155600D3*
G1X190866Y156191D3*
G1X190866Y155600D3*
G1X190866Y155010D3*
G1X190866Y154419D3*
G1X192047Y156191D3*
G1X192047Y155600D3*
G1X191457Y155010D3*
G1X191457Y154419D3*
G1X192047Y155010D3*
G1X192047Y154419D3*
G1X190276Y154419D3*
G1X193228Y156191D3*
G1X192638Y156191D3*
G1X192638Y155600D3*
G1X192638Y155010D3*
G1X193228Y155600D3*
G1X193228Y155010D3*
G1X193228Y154419D3*
G1X193819Y155010D3*
G1X193819Y154419D3*
G1X192638Y154419D3*
G1X193819Y156191D3*
G1X193819Y155600D3*
G1X195000Y154419D3*
G1X195000Y156191D3*
G1X195591Y155600D3*
G1X195000Y155600D3*
G1X195000Y155010D3*
G1X194409Y154419D3*
G1X195591Y155010D3*
G1X194409Y156191D3*
G1X194409Y155600D3*
G1X194409Y155010D3*
G1X195591Y156191D3*
G1X195591Y154419D3*
G1X196181Y156191D3*
G1X196181Y155600D3*
G1X196181Y154419D3*
G1X196181Y155010D3*
G1X197362Y155010D3*
G1X196772Y156191D3*
G1X196772Y155600D3*
G1X197953Y155010D3*
G1X197362Y154419D3*
G1X197953Y154419D3*
G1X196772Y155010D3*
G1X196772Y154419D3*
G1X197362Y155600D3*
G1X198543Y155010D3*
G1X198543Y154419D3*
G1X199134Y155010D3*
G1X199134Y154419D3*
G1X203858Y155010D3*
G1X203858Y154419D3*
G1X205039Y155010D3*
G1X205039Y154419D3*
G1X204449Y155010D3*
G1X204449Y154419D3*
G1X205630Y155010D3*
G1X205630Y154419D3*
G1X205630Y155600D3*
G1X207992Y155600D3*
G1X207992Y155010D3*
G1X207992Y154419D3*
G1X206811Y154419D3*
G1X206811Y156191D3*
G1X206811Y155600D3*
G1X206811Y155010D3*
G1X206221Y156191D3*
G1X207402Y156191D3*
G1X207402Y155600D3*
G1X207402Y155010D3*
G1X207402Y154419D3*
G1X207992Y156191D3*
G1X206221Y155600D3*
G1X206221Y155010D3*
G1X206221Y154419D3*
G1X209764Y155010D3*
G1X209764Y154419D3*
G1X209764Y156191D3*
G1X209764Y155600D3*
G1X208583Y155010D3*
G1X209173Y154419D3*
G1X209173Y156191D3*
G1X209173Y155600D3*
G1X208583Y156191D3*
G1X208583Y155600D3*
G1X208583Y154419D3*
G1X209173Y155010D3*
G1X210945Y154419D3*
G1X211535Y155010D3*
G1X211535Y154419D3*
G1X210354Y154419D3*
G1X210945Y156191D3*
G1X210354Y156191D3*
G1X210354Y155600D3*
G1X212126Y155010D3*
G1X212126Y154419D3*
G1X211535Y156191D3*
G1X210945Y155600D3*
G1X210945Y155010D3*
G1X212126Y156191D3*
G1X212126Y155600D3*
G1X210354Y155010D3*
G1X211535Y155600D3*
G1X212717Y156191D3*
G1X212717Y155600D3*
G1X213307Y156191D3*
G1X212717Y155010D3*
G1X213898Y154419D3*
G1X213307Y155600D3*
G1X213898Y156191D3*
G1X213898Y155600D3*
G1X213898Y155010D3*
G1X212717Y154419D3*
G1X213307Y155010D3*
G1X213307Y154419D3*
G1X215079Y156191D3*
G1X215079Y155010D3*
G1X215079Y155600D3*
G1X215669Y155600D3*
G1X215669Y155010D3*
G1X215669Y154419D3*
G1X214488Y155600D3*
G1X214488Y155010D3*
G1X215669Y156191D3*
G1X214488Y154419D3*
G1X214488Y156191D3*
G1X215079Y154419D3*
G1X216260Y156191D3*
G1X216850Y155010D3*
G1X216850Y154419D3*
G1X216260Y155600D3*
G1X216260Y155010D3*
G1X216260Y154419D3*
G1X216850Y156191D3*
G1X216850Y155600D3*
G1X217441Y154419D3*
G1X217441Y156191D3*
G1X217441Y155600D3*
G1X217441Y155010D3*
G1X182008Y156782D3*
G1X182008Y157963D3*
G1X182008Y157372D3*
G1X182598Y157963D3*
G1X182598Y157372D3*
G1X182598Y156782D3*
G1X183189Y157372D3*
G1X183780Y157963D3*
G1X183780Y157372D3*
G1X183780Y156782D3*
G1X183189Y156782D3*
G1X183189Y157963D3*
G1X185551Y157372D3*
G1X185551Y156782D3*
G1X184961Y156782D3*
G1X184370Y156782D3*
G1X186142Y157963D3*
G1X186142Y157372D3*
G1X186142Y156782D3*
G1X184961Y157963D3*
G1X184961Y157372D3*
G1X185551Y157963D3*
G1X184370Y157963D3*
G1X184370Y157372D3*
G1X187323Y157963D3*
G1X186732Y157963D3*
G1X187323Y157372D3*
G1X187323Y156782D3*
G1X187913Y157963D3*
G1X186732Y157372D3*
G1X186732Y156782D3*
G1X187913Y157372D3*
G1X187913Y156782D3*
G1X189095Y156782D3*
G1X188504Y157372D3*
G1X188504Y156782D3*
G1X189095Y157963D3*
G1X189095Y157372D3*
G1X189685Y156782D3*
G1X188504Y157963D3*
G1X189685Y157963D3*
G1X189685Y157372D3*
G1X192047Y157963D3*
G1X192047Y157372D3*
G1X192047Y156782D3*
G1X191457Y157963D3*
G1X191457Y157372D3*
G1X190276Y157372D3*
G1X190276Y156782D3*
G1X190866Y157963D3*
G1X190276Y157963D3*
G1X191457Y156782D3*
G1X190866Y157372D3*
G1X190866Y156782D3*
G1X193228Y156782D3*
G1X193819Y157963D3*
G1X192638Y156782D3*
G1X193228Y157372D3*
G1X192638Y157963D3*
G1X192638Y157372D3*
G1X193228Y157963D3*
G1X193819Y157372D3*
G1X193819Y156782D3*
G1X195591Y157963D3*
G1X195591Y157372D3*
G1X195591Y156782D3*
G1X196181Y157963D3*
G1X194409Y157372D3*
G1X196181Y157372D3*
G1X196181Y156782D3*
G1X194409Y157963D3*
G1X195000Y157372D3*
G1X195000Y156782D3*
G1X194409Y156782D3*
G1X195000Y157963D3*
G1X197362Y157963D3*
G1X197362Y157372D3*
G1X196772Y156782D3*
G1X197953Y157372D3*
G1X196772Y157963D3*
G1X196772Y157372D3*
G1X205630Y157963D3*
G1X205630Y157372D3*
G1X205039Y157372D3*
G1X207402Y157963D3*
G1X206811Y157963D3*
G1X206811Y157372D3*
G1X207992Y156782D3*
G1X207402Y157372D3*
G1X207402Y156782D3*
G1X206811Y156782D3*
G1X206221Y157963D3*
G1X206221Y157372D3*
G1X207992Y157963D3*
G1X206221Y156782D3*
G1X207992Y157372D3*
G1X208583Y156782D3*
G1X209173Y156782D3*
G1X209764Y157963D3*
G1X209764Y156782D3*
G1X209764Y157372D3*
G1X209173Y157963D3*
G1X209173Y157372D3*
G1X208583Y157963D3*
G1X208583Y157372D3*
G1X210945Y157963D3*
G1X210945Y157372D3*
G1X211535Y157963D3*
G1X211535Y157372D3*
G1X210945Y156782D3*
G1X210354Y156782D3*
G1X212126Y156782D3*
G1X211535Y156782D3*
G1X210354Y157963D3*
G1X210354Y157372D3*
G1X212126Y157963D3*
G1X212126Y157372D3*
G1X213307Y157963D3*
G1X213307Y157372D3*
G1X213898Y157963D3*
G1X213898Y157372D3*
G1X212717Y156782D3*
G1X213898Y156782D3*
G1X213307Y156782D3*
G1X212717Y157963D3*
G1X212717Y157372D3*
G1X215079Y157963D3*
G1X215079Y157372D3*
G1X215079Y156782D3*
G1X214488Y157963D3*
G1X214488Y157372D3*
G1X215669Y156782D3*
G1X215669Y157963D3*
G1X214488Y156782D3*
G1X215669Y157372D3*
G1X216260Y156782D3*
G1X217441Y157963D3*
G1X217441Y157372D3*
G1X217441Y156782D3*
G1X216850Y156782D3*
G1X216260Y157963D3*
G1X216850Y157963D3*
G1X216850Y157372D3*
G1X216260Y157372D3*
G1X182008Y159734D3*
G1X182008Y158553D3*
G1X182008Y160325D3*
G1X182008Y159144D3*
G1X183780Y160325D3*
G1X183189Y160325D3*
G1X183189Y159144D3*
G1X183189Y158553D3*
G1X182598Y160325D3*
G1X183189Y159734D3*
G1X183780Y159734D3*
G1X182598Y159734D3*
G1X182598Y159144D3*
G1X182598Y158553D3*
G1X183780Y159144D3*
G1X183780Y158553D3*
G1X184961Y159144D3*
G1X184370Y159734D3*
G1X186142Y160325D3*
G1X186142Y159734D3*
G1X186142Y159144D3*
G1X185551Y160325D3*
G1X184370Y159144D3*
G1X184961Y158553D3*
G1X186142Y158553D3*
G1X185551Y159734D3*
G1X185551Y159144D3*
G1X184961Y160325D3*
G1X184961Y159734D3*
G1X185551Y158553D3*
G1X184370Y160325D3*
G1X184370Y158553D3*
G1X186732Y159734D3*
G1X187913Y159734D3*
G1X186732Y159144D3*
G1X187913Y160325D3*
G1X186732Y160325D3*
G1X187913Y159144D3*
G1X187323Y160325D3*
G1X186732Y158553D3*
G1X187323Y158553D3*
G1X187913Y158553D3*
G1X187323Y159734D3*
G1X187323Y159144D3*
G1X189685Y160325D3*
G1X189685Y159144D3*
G1X189685Y158553D3*
G1X189095Y160325D3*
G1X189685Y159734D3*
G1X189095Y159734D3*
G1X189095Y159144D3*
G1X189095Y158553D3*
G1X188504Y160325D3*
G1X188504Y158553D3*
G1X188504Y159734D3*
G1X188504Y159144D3*
G1X192047Y158553D3*
G1X190866Y160325D3*
G1X192047Y160325D3*
G1X190276Y159734D3*
G1X191457Y158553D3*
G1X191457Y160325D3*
G1X190276Y159144D3*
G1X190866Y159734D3*
G1X192047Y159734D3*
G1X190276Y158553D3*
G1X192047Y159144D3*
G1X190276Y160325D3*
G1X191457Y159734D3*
G1X190866Y159144D3*
G1X190866Y158553D3*
G1X191457Y159144D3*
G1X193819Y158553D3*
G1X192638Y159734D3*
G1X192638Y159144D3*
G1X193228Y159144D3*
G1X193228Y158553D3*
G1X192638Y158553D3*
G1X193819Y159144D3*
G1X193819Y159734D3*
G1X193228Y159734D3*
G1X194409Y159734D3*
G1X194409Y159144D3*
G1X195591Y159144D3*
G1X195000Y159734D3*
G1X195591Y158553D3*
G1X195000Y159144D3*
G1X195000Y158553D3*
G1X195591Y160325D3*
G1X195591Y159734D3*
G1X196181Y159734D3*
G1X194409Y158553D3*
G1X196181Y159144D3*
G1X196181Y158553D3*
G1X196181Y160325D3*
G1X195000Y160325D3*
G1X197362Y159734D3*
G1X197362Y159144D3*
G1X197362Y158553D3*
G1X196772Y159144D3*
G1X196772Y160325D3*
G1X196772Y159734D3*
G1X196772Y158553D3*
G1X205630Y159734D3*
G1X205630Y159144D3*
G1X207402Y159144D3*
G1X207402Y158553D3*
G1X206221Y160325D3*
G1X206221Y159734D3*
G1X206221Y159144D3*
G1X206221Y158553D3*
G1X207402Y159734D3*
G1X207992Y160325D3*
G1X206811Y160325D3*
G1X207992Y158553D3*
G1X206811Y159734D3*
G1X207992Y159734D3*
G1X207992Y159144D3*
G1X206811Y159144D3*
G1X206811Y158553D3*
G1X207402Y160325D3*
G1X208583Y159734D3*
G1X209764Y158553D3*
G1X208583Y159144D3*
G1X208583Y158553D3*
G1X209764Y159734D3*
G1X209764Y159144D3*
G1X209173Y159734D3*
G1X209173Y159144D3*
G1X209173Y158553D3*
G1X211535Y160325D3*
G1X212126Y160325D3*
G1X212126Y159734D3*
G1X212126Y159144D3*
G1X210354Y158553D3*
G1X211535Y158553D3*
G1X212126Y158553D3*
G1X211535Y159734D3*
G1X210945Y159734D3*
G1X210354Y159734D3*
G1X210354Y159144D3*
G1X211535Y159144D3*
G1X210945Y160325D3*
G1X210945Y159144D3*
G1X210945Y158553D3*
G1X212717Y160325D3*
G1X212717Y159734D3*
G1X212717Y159144D3*
G1X212717Y158553D3*
G1X213307Y159734D3*
G1X213898Y160325D3*
G1X213898Y159734D3*
G1X213307Y159144D3*
G1X213307Y158553D3*
G1X213898Y159144D3*
G1X213898Y158553D3*
G1X213307Y160325D3*
G1X215669Y160325D3*
G1X214488Y160325D3*
G1X215669Y159734D3*
G1X215669Y159144D3*
G1X214488Y159734D3*
G1X214488Y159144D3*
G1X214488Y158553D3*
G1X215079Y159734D3*
G1X215079Y159144D3*
G1X215669Y158553D3*
G1X215079Y160325D3*
G1X215079Y158553D3*
G1X216260Y160325D3*
G1X217441Y159144D3*
G1X217441Y158553D3*
G1X216850Y159144D3*
G1X216260Y159734D3*
G1X216850Y160325D3*
G1X216260Y158553D3*
G1X217441Y160325D3*
G1X216260Y159144D3*
G1X216850Y158553D3*
G1X216850Y159734D3*
G1X217441Y159734D3*
G1X182008Y160915D3*
G1X183780Y160915D3*
G1X182598Y160915D3*
G1X183189Y160915D3*
G1X186142Y160915D3*
G1X184961Y160915D3*
G1X185551Y160915D3*
G1X184370Y160915D3*
G1X187323Y160915D3*
G1X187913Y160915D3*
G1X186732Y160915D3*
G1X189685Y160915D3*
G1X189095Y160915D3*
G1X188504Y160915D3*
G1X190866Y160915D3*
G1X190276Y160915D3*
G1X191457Y160915D3*
G1X192047Y160915D3*
G1X194409Y161506D3*
G1X195591Y160915D3*
G1X196181Y160915D3*
G1X195000Y160915D3*
G1X196772Y161506D3*
G1X196772Y160915D3*
G1X206221Y160915D3*
G1X206811Y160915D3*
G1X207992Y160915D3*
G1X207402Y160915D3*
G1X211535Y160915D3*
G1X212126Y160915D3*
G1X210945Y160915D3*
G1X212717Y160915D3*
G1X213307Y160915D3*
G1X213898Y160915D3*
G1X215669Y160915D3*
G1X214488Y160915D3*
G1X215079Y160915D3*
G1X217441Y160915D3*
G1X216850Y160915D3*
G1X216260Y160915D3*
G1X197362Y163278D3*
G1X197953Y163278D3*
G1X196772Y163278D3*
G1X196772Y162687D3*
G1X198543Y163278D3*
G1X205630Y163278D3*
G1X204449Y163278D3*
G1X205630Y163868D3*
G1X205039Y163278D3*
G1X205039Y163868D3*
G1X193228Y165049D3*
G1X194409Y165049D3*
G1X196772Y166230D3*
G1X199134Y166230D3*
G1X199724Y166230D3*
G1X199724Y165640D3*
G1X199724Y165049D3*
G1X199134Y165640D3*
G1X200315Y165640D3*
G1X200315Y166230D3*
G1X200315Y165049D3*
G1X203858Y166230D3*
G1X202677Y166230D3*
G1X203268Y166230D3*
G1X215079Y165640D3*
G1X215079Y165049D3*
G1X196772Y166821D3*
G1X199724Y166821D3*
G1X200315Y166821D3*
G1X202087Y166821D3*
G1X200906Y166821D3*
G1X202677Y166821D3*
G1X203268Y166821D3*
G1X196181Y173908D3*
G1X196181Y173317D3*
G1X196181Y172726D3*
G1X201496Y173317D3*
G1X201496Y172726D3*
G1X201496Y173908D3*
G1X206221Y173317D3*
G1X206221Y172726D3*
G1X206811Y173317D3*
G1X206811Y173908D3*
G1X206221Y173908D3*
G1X196181Y174498D3*
G1X201496Y174498D3*
G1X206221Y174498D3*
G1X206811Y174498D3*
G54D83*
G1X200374Y147982D3*
G1X204646Y147471D3*
G1X199547Y149026D3*
G1X200610Y149026D3*
G1X203032Y149439D3*
G1X203661Y149439D3*
G1X204646Y149459D3*
G1X198917Y150443D3*
G1X200158Y158435D3*
G1X200158Y158868D3*
G1X202185Y158435D3*
G1X202185Y158868D3*
G1X200551Y158868D3*
G1X200551Y158435D3*
G1X202579Y158868D3*
G1X202579Y158435D3*
G1X205591Y158553D3*
G54D204*
G1X213681Y167156D3*
G1X213681Y165187D3*
G1X216634Y165187D3*
G1X216634Y167156D3*
G54D205*
G1X207894Y171781D3*
G1X194894Y171781D3*
G54D206*
G1X197874Y145600D3*
G54D207*
G1X197874Y146600D3*
G1X198874Y145600D3*
G1X198874Y146600D3*
G1X199874Y145600D3*
G1X199874Y146600D3*
G1X200874Y145600D3*
G1X200874Y146600D3*
G1X201874Y145600D3*
G1X201874Y146600D3*
G1X202874Y145600D3*
G1X202874Y146600D3*
G1X203874Y145600D3*
G1X203874Y146600D3*
G1X204874Y145600D3*
G1X204874Y146600D3*
G54D208*
G1X201201Y149971D3*
G1X205315Y149971D3*
G1X202205Y150778D3*
G1X200295Y150423D3*
G1X204016Y150778D3*
G1X205020Y150423D3*
G1X205010Y175126D2*
G54D21*
G1X204965Y175154D1*
G1X204898Y175237D1*
G1X204898Y174656D1*
G1X203039Y175138D2*
G1X203039Y175165D1*
G1X203016Y175221D1*
G1X202994Y175249D1*
G1X202949Y175276D1*
G1X202860Y175276D1*
G1X202815Y175249D1*
G1X202793Y175221D1*
G1X202770Y175165D1*
G1X202770Y175110D1*
G1X202793Y175055D1*
G1X202837Y174972D1*
G1X203061Y174695D1*
G1X202748Y174695D1*
G1X199847Y175316D2*
G1X199601Y175316D1*
G1X199735Y175094D1*
G1X199668Y175094D1*
G1X199623Y175066D1*
G1X199601Y175039D1*
G1X199579Y174956D1*
G1X199579Y174900D1*
G1X199601Y174817D1*
G1X199646Y174762D1*
G1X199713Y174734D1*
G1X199780Y174734D1*
G1X199847Y174762D1*
G1X199869Y174790D1*
G1X199892Y174845D1*
G1X197660Y175355D2*
G1X197884Y174967D1*
G1X197548Y174967D1*
G1X197660Y175355D2*
G1X197660Y174774D1*
G1X198150Y170037D2*
G1X198122Y169992D1*
G1X198067Y169947D1*
G1X198012Y169925D1*
G1X197929Y169903D1*
G1X197790Y169903D1*
G1X197707Y169925D1*
G1X197652Y169947D1*
G1X197596Y169992D1*
G1X197569Y170037D1*
G1X197569Y170126D1*
G1X197596Y170171D1*
G1X197652Y170216D1*
G1X197707Y170238D1*
G1X197790Y170260D1*
G1X197929Y170260D1*
G1X198012Y170238D1*
G1X198067Y170216D1*
G1X198122Y170171D1*
G1X198150Y170126D1*
G1X198150Y170037D1*
G1X198150Y170462D2*
G1X197735Y170462D1*
G1X197652Y170484D1*
G1X197596Y170529D1*
G1X197569Y170596D1*
G1X197569Y170641D1*
G1X197596Y170708D1*
G1X197652Y170753D1*
G1X197735Y170775D1*
G1X198150Y170775D1*
G1X198150Y171133D2*
G1X197569Y171133D1*
G1X198150Y170976D2*
G1X198150Y171289D1*
G1X198039Y171491D2*
G1X198067Y171536D1*
G1X198150Y171603D1*
G1X197569Y171603D1*
G1X198150Y171983D2*
G1X197569Y171804D1*
G1X198150Y171983D2*
G1X197569Y172162D1*
G1X197763Y171871D2*
G1X197763Y172095D1*
G1X200158Y170037D2*
G1X200130Y169992D1*
G1X200075Y169947D1*
G1X200020Y169925D1*
G1X199936Y169903D1*
G1X199798Y169903D1*
G1X199715Y169925D1*
G1X199660Y169947D1*
G1X199604Y169992D1*
G1X199577Y170037D1*
G1X199577Y170126D1*
G1X199604Y170171D1*
G1X199660Y170216D1*
G1X199715Y170238D1*
G1X199798Y170260D1*
G1X199936Y170260D1*
G1X200020Y170238D1*
G1X200075Y170216D1*
G1X200130Y170171D1*
G1X200158Y170126D1*
G1X200158Y170037D1*
G1X200158Y170462D2*
G1X199743Y170462D1*
G1X199660Y170484D1*
G1X199604Y170529D1*
G1X199577Y170596D1*
G1X199577Y170641D1*
G1X199604Y170708D1*
G1X199660Y170753D1*
G1X199743Y170775D1*
G1X200158Y170775D1*
G1X200158Y171133D2*
G1X199577Y171133D1*
G1X200158Y170976D2*
G1X200158Y171289D1*
G1X200047Y171491D2*
G1X200075Y171536D1*
G1X200158Y171603D1*
G1X199577Y171603D1*
G1X200158Y171804D2*
G1X199577Y171804D1*
G1X200158Y171804D2*
G1X200158Y172005D1*
G1X200130Y172072D1*
G1X200103Y172095D1*
G1X200047Y172117D1*
G1X199992Y172117D1*
G1X199936Y172095D1*
G1X199909Y172072D1*
G1X199881Y172005D1*
G1X199881Y171804D2*
G1X199881Y172005D1*
G1X199853Y172072D1*
G1X199826Y172095D1*
G1X199770Y172117D1*
G1X199687Y172117D1*
G1X199632Y172095D1*
G1X199604Y172072D1*
G1X199577Y172005D1*
G1X199577Y171804D1*
G1X203367Y169919D2*
G1X203339Y169874D1*
G1X203284Y169829D1*
G1X203228Y169807D1*
G1X203145Y169785D1*
G1X203007Y169785D1*
G1X202924Y169807D1*
G1X202868Y169829D1*
G1X202813Y169874D1*
G1X202785Y169919D1*
G1X202785Y170008D1*
G1X202813Y170053D1*
G1X202868Y170098D1*
G1X202924Y170120D1*
G1X203007Y170142D1*
G1X203145Y170142D1*
G1X203228Y170120D1*
G1X203284Y170098D1*
G1X203339Y170053D1*
G1X203367Y170008D1*
G1X203367Y169919D1*
G1X203367Y170344D2*
G1X202951Y170344D1*
G1X202868Y170366D1*
G1X202813Y170411D1*
G1X202785Y170478D1*
G1X202785Y170523D1*
G1X202813Y170590D1*
G1X202868Y170635D1*
G1X202951Y170657D1*
G1X203367Y170657D1*
G1X203367Y171015D2*
G1X202785Y171015D1*
G1X203367Y170858D2*
G1X203367Y171171D1*
G1X203228Y171395D2*
G1X203256Y171395D1*
G1X203311Y171418D1*
G1X203339Y171440D1*
G1X203367Y171485D1*
G1X203367Y171574D1*
G1X203339Y171619D1*
G1X203311Y171641D1*
G1X203256Y171664D1*
G1X203200Y171664D1*
G1X203145Y171641D1*
G1X203062Y171596D1*
G1X202785Y171373D1*
G1X202785Y171686D1*
G1X203367Y172066D2*
G1X202785Y171887D1*
G1X203367Y172066D2*
G1X202785Y172245D1*
G1X202979Y171954D2*
G1X202979Y172178D1*
G1X205217Y169919D2*
G1X205189Y169874D1*
G1X205134Y169829D1*
G1X205079Y169807D1*
G1X204995Y169785D1*
G1X204857Y169785D1*
G1X204774Y169807D1*
G1X204719Y169829D1*
G1X204663Y169874D1*
G1X204636Y169919D1*
G1X204636Y170008D1*
G1X204663Y170053D1*
G1X204719Y170098D1*
G1X204774Y170120D1*
G1X204857Y170142D1*
G1X204995Y170142D1*
G1X205079Y170120D1*
G1X205134Y170098D1*
G1X205189Y170053D1*
G1X205217Y170008D1*
G1X205217Y169919D1*
G1X205217Y170344D2*
G1X204802Y170344D1*
G1X204719Y170366D1*
G1X204663Y170411D1*
G1X204636Y170478D1*
G1X204636Y170523D1*
G1X204663Y170590D1*
G1X204719Y170635D1*
G1X204802Y170657D1*
G1X205217Y170657D1*
G1X205217Y171015D2*
G1X204636Y171015D1*
G1X205217Y170858D2*
G1X205217Y171171D1*
G1X205079Y171395D2*
G1X205106Y171395D1*
G1X205162Y171418D1*
G1X205189Y171440D1*
G1X205217Y171485D1*
G1X205217Y171574D1*
G1X205189Y171619D1*
G1X205162Y171641D1*
G1X205106Y171664D1*
G1X205051Y171664D1*
G1X204995Y171641D1*
G1X204912Y171596D1*
G1X204636Y171373D1*
G1X204636Y171686D1*
G1X205217Y171887D2*
G1X204636Y171887D1*
G1X205217Y171887D2*
G1X205217Y172089D1*
G1X205189Y172156D1*
G1X205162Y172178D1*
G1X205106Y172200D1*
G1X205051Y172200D1*
G1X204995Y172178D1*
G1X204968Y172156D1*
G1X204940Y172089D1*
G1X204940Y171887D2*
G1X204940Y172089D1*
G1X204912Y172156D1*
G1X204885Y172178D1*
G1X204829Y172200D1*
G1X204746Y172200D1*
G1X204691Y172178D1*
G1X204663Y172156D1*
G1X204636Y172089D1*
G1X204636Y171887D1*
G1X187524Y163591D2*
G54D51*
G1X187407Y163591D1*
G1X187384Y163586D1*
G1X187346Y163572D1*
G1X187319Y163545D1*
G1X187309Y163498D1*
G1X187314Y163466D1*
G1X187328Y163438D1*
G1X187351Y163415D1*
G1X187380Y163401D1*
G1X187381Y163393D1*
G1X187261Y163245D1*
G1X187302Y163245D1*
G1X187413Y163384D1*
G1X187416Y163386D1*
G1X187480Y163386D1*
G1X187485Y163381D1*
G1X187485Y163245D1*
G1X187524Y163245D1*
G1X187524Y163591D1*
G1X187485Y163557D2*
G1X187485Y163420D1*
G1X187480Y163415D1*
G1X187436Y163415D1*
G1X187435Y163415D1*
G1X187401Y163420D1*
G1X187400Y163421D1*
G1X187370Y163435D1*
G1X187368Y163437D1*
G1X187354Y163462D1*
G1X187353Y163464D1*
G1X187348Y163498D1*
G1X187348Y163499D1*
G1X187348Y163500D1*
G1X187353Y163524D1*
G1X187354Y163526D1*
G1X187374Y163546D1*
G1X187375Y163547D1*
G1X187395Y163557D1*
G1X187396Y163557D1*
G1X187430Y163562D1*
G1X187431Y163562D1*
G1X187480Y163562D1*
G1X187485Y163557D1*
G1X187241Y163372D2*
G1X187231Y163433D1*
G1X187208Y163476D1*
G1X187175Y163504D1*
G1X187129Y163513D1*
G1X187082Y163504D1*
G1X187049Y163476D1*
G1X187026Y163433D1*
G1X187016Y163372D1*
G1X187026Y163315D1*
G1X187049Y163272D1*
G1X187082Y163245D1*
G1X187129Y163235D1*
G1X187176Y163245D1*
G1X187194Y163254D1*
G1X187212Y163272D1*
G1X187231Y163315D1*
G1X187241Y163372D1*
G1X187207Y163372D2*
G1X187207Y163371D1*
G1X187202Y163327D1*
G1X187201Y163326D1*
G1X187187Y163292D1*
G1X187185Y163290D1*
G1X187161Y163270D1*
G1X187159Y163269D1*
G1X187129Y163264D1*
G1X187128Y163264D1*
G1X187098Y163269D1*
G1X187096Y163270D1*
G1X187072Y163290D1*
G1X187070Y163292D1*
G1X187056Y163326D1*
G1X187055Y163327D1*
G1X187050Y163371D1*
G1X187050Y163372D1*
G1X187050Y163372D1*
G1X187055Y163421D1*
G1X187056Y163422D1*
G1X187070Y163457D1*
G1X187072Y163459D1*
G1X187096Y163478D1*
G1X187098Y163479D1*
G1X187128Y163484D1*
G1X187129Y163484D1*
G1X187159Y163479D1*
G1X187161Y163478D1*
G1X187185Y163459D1*
G1X187187Y163457D1*
G1X187201Y163422D1*
G1X187202Y163421D1*
G1X187207Y163372D1*
G1X187207Y163372D1*
G1X186958Y163591D2*
G1X186919Y163591D1*
G1X186919Y163455D1*
G1X186914Y163450D1*
G1X186748Y163450D1*
G1X186743Y163455D1*
G1X186743Y163591D1*
G1X186704Y163591D1*
G1X186704Y163245D1*
G1X186743Y163245D1*
G1X186743Y163411D1*
G1X186748Y163416D1*
G1X186914Y163416D1*
G1X186919Y163411D1*
G1X186919Y163245D1*
G1X186958Y163245D1*
G1X186958Y163591D1*
G1X186645Y163311D2*
G1X186624Y163295D1*
G1X186623Y163294D1*
G1X186594Y163279D1*
G1X186593Y163279D1*
G1X186564Y163269D1*
G1X186563Y163269D1*
G1X186534Y163264D1*
G1X186532Y163264D1*
G1X186498Y163269D1*
G1X186497Y163269D1*
G1X186468Y163279D1*
G1X186466Y163281D1*
G1X186451Y163300D1*
G1X186450Y163302D1*
G1X186445Y163332D1*
G1X186445Y163333D1*
G1X186445Y163334D1*
G1X186450Y163353D1*
G1X186450Y163354D1*
G1X186455Y163368D1*
G1X186457Y163371D1*
G1X186472Y163381D1*
G1X186472Y163381D1*
G1X186492Y163391D1*
G1X186493Y163391D1*
G1X186594Y163420D1*
G1X186617Y163438D1*
G1X186636Y163466D1*
G1X186640Y163503D1*
G1X186631Y163540D1*
G1X186608Y163573D1*
G1X186570Y163591D1*
G1X186523Y163601D1*
G1X186466Y163596D1*
G1X186421Y163578D1*
G1X186421Y163534D1*
G1X186437Y163546D1*
G1X186438Y163547D1*
G1X186462Y163561D1*
G1X186464Y163562D1*
G1X186522Y163572D1*
G1X186524Y163572D1*
G1X186553Y163567D1*
G1X186554Y163567D1*
G1X186579Y163557D1*
G1X186581Y163555D1*
G1X186596Y163536D1*
G1X186597Y163534D1*
G1X186601Y163509D1*
G1X186601Y163507D1*
G1X186597Y163488D1*
G1X186596Y163487D1*
G1X186586Y163467D1*
G1X186585Y163465D1*
G1X186570Y163455D1*
G1X186569Y163455D1*
G1X186550Y163445D1*
G1X186549Y163445D1*
G1X186510Y163435D1*
G1X186476Y163425D1*
G1X186443Y163411D1*
G1X186425Y163393D1*
G1X186411Y163370D1*
G1X186406Y163337D1*
G1X186406Y163319D1*
G1X186415Y163301D1*
G1X186439Y163268D1*
G1X186477Y163244D1*
G1X186500Y163235D1*
G1X186566Y163235D1*
G1X186595Y163245D1*
G1X186645Y163263D1*
G1X186645Y163311D1*
G1X186410Y163312D2*
G1X186410Y163363D1*
G1X186420Y163294D2*
G1X186420Y163385D1*
G1X186430Y163280D2*
G1X186430Y163398D1*
G1X186430Y163541D2*
G1X186430Y163582D1*
G1X186440Y163267D2*
G1X186440Y163408D1*
G1X186440Y163548D2*
G1X186440Y163586D1*
G1X186450Y163261D2*
G1X186450Y163303D1*
G1X186450Y163353D2*
G1X186450Y163414D1*
G1X186450Y163554D2*
G1X186450Y163590D1*
G1X186460Y163255D2*
G1X186460Y163288D1*
G1X186460Y163373D2*
G1X186460Y163419D1*
G1X186460Y163560D2*
G1X186460Y163594D1*
G1X186470Y163249D2*
G1X186470Y163278D1*
G1X186470Y163380D2*
G1X186470Y163423D1*
G1X186470Y163563D2*
G1X186470Y163596D1*
G1X186480Y163243D2*
G1X186480Y163275D1*
G1X186480Y163385D2*
G1X186480Y163427D1*
G1X186480Y163565D2*
G1X186480Y163597D1*
G1X186490Y163239D2*
G1X186490Y163272D1*
G1X186490Y163390D2*
G1X186490Y163429D1*
G1X186490Y163566D2*
G1X186490Y163598D1*
G1X186500Y163235D2*
G1X186500Y163269D1*
G1X186500Y163393D2*
G1X186500Y163432D1*
G1X186500Y163568D2*
G1X186500Y163599D1*
G1X186510Y163235D2*
G1X186510Y163267D1*
G1X186510Y163396D2*
G1X186510Y163435D1*
G1X186510Y163570D2*
G1X186510Y163600D1*
G1X186520Y163235D2*
G1X186520Y163266D1*
G1X186520Y163399D2*
G1X186520Y163438D1*
G1X186520Y163571D2*
G1X186520Y163601D1*
G1X186530Y163235D2*
G1X186530Y163265D1*
G1X186530Y163402D2*
G1X186530Y163440D1*
G1X186530Y163571D2*
G1X186530Y163599D1*
G1X186540Y163235D2*
G1X186540Y163265D1*
G1X186540Y163405D2*
G1X186540Y163443D1*
G1X186540Y163569D2*
G1X186540Y163597D1*
G1X186550Y163235D2*
G1X186550Y163267D1*
G1X186550Y163407D2*
G1X186550Y163445D1*
G1X186550Y163567D2*
G1X186550Y163595D1*
G1X186560Y163235D2*
G1X186560Y163269D1*
G1X186560Y163410D2*
G1X186560Y163450D1*
G1X186560Y163564D2*
G1X186560Y163593D1*
G1X186570Y163236D2*
G1X186570Y163271D1*
G1X186570Y163413D2*
G1X186570Y163455D1*
G1X186570Y163560D2*
G1X186570Y163591D1*
G1X186580Y163240D2*
G1X186580Y163275D1*
G1X186580Y163416D2*
G1X186580Y163462D1*
G1X186580Y163556D2*
G1X186580Y163587D1*
G1X186590Y163243D2*
G1X186590Y163278D1*
G1X186590Y163419D2*
G1X186590Y163474D1*
G1X186590Y163543D2*
G1X186590Y163582D1*
G1X186600Y163246D2*
G1X186600Y163282D1*
G1X186600Y163425D2*
G1X186600Y163502D1*
G1X186600Y163516D2*
G1X186600Y163577D1*
G1X186610Y163250D2*
G1X186610Y163287D1*
G1X186610Y163433D2*
G1X186610Y163570D1*
G1X186620Y163254D2*
G1X186620Y163292D1*
G1X186620Y163443D2*
G1X186620Y163556D1*
G1X186630Y163257D2*
G1X186630Y163299D1*
G1X186630Y163458D2*
G1X186630Y163542D1*
G1X186640Y163261D2*
G1X186640Y163307D1*
G1X186640Y163501D2*
G1X186640Y163504D1*
G1X186710Y163245D2*
G1X186710Y163591D1*
G1X186720Y163245D2*
G1X186720Y163591D1*
G1X186730Y163245D2*
G1X186730Y163591D1*
G1X186740Y163245D2*
G1X186740Y163591D1*
G1X186750Y163416D2*
G1X186750Y163450D1*
G1X186760Y163416D2*
G1X186760Y163450D1*
G1X186770Y163416D2*
G1X186770Y163450D1*
G1X186780Y163416D2*
G1X186780Y163450D1*
G1X186790Y163416D2*
G1X186790Y163450D1*
G1X186800Y163416D2*
G1X186800Y163450D1*
G1X186810Y163416D2*
G1X186810Y163450D1*
G1X186820Y163416D2*
G1X186820Y163450D1*
G1X186830Y163416D2*
G1X186830Y163450D1*
G1X186840Y163416D2*
G1X186840Y163450D1*
G1X186850Y163416D2*
G1X186850Y163450D1*
G1X186860Y163416D2*
G1X186860Y163450D1*
G1X186870Y163416D2*
G1X186870Y163450D1*
G1X186880Y163416D2*
G1X186880Y163450D1*
G1X186890Y163416D2*
G1X186890Y163450D1*
G1X186900Y163416D2*
G1X186900Y163450D1*
G1X186910Y163416D2*
G1X186910Y163450D1*
G1X186920Y163245D2*
G1X186920Y163591D1*
G1X186930Y163245D2*
G1X186930Y163591D1*
G1X186940Y163245D2*
G1X186940Y163591D1*
G1X186950Y163245D2*
G1X186950Y163591D1*
G1X187020Y163350D2*
G1X187020Y163395D1*
G1X187030Y163307D2*
G1X187030Y163441D1*
G1X187040Y163289D2*
G1X187040Y163459D1*
G1X187050Y163272D2*
G1X187050Y163476D1*
G1X187060Y163263D2*
G1X187060Y163315D1*
G1X187060Y163433D2*
G1X187060Y163485D1*
G1X187070Y163255D2*
G1X187070Y163292D1*
G1X187070Y163456D2*
G1X187070Y163493D1*
G1X187080Y163246D2*
G1X187080Y163283D1*
G1X187080Y163465D2*
G1X187080Y163502D1*
G1X187090Y163243D2*
G1X187090Y163275D1*
G1X187090Y163473D2*
G1X187090Y163505D1*
G1X187100Y163241D2*
G1X187100Y163269D1*
G1X187100Y163479D2*
G1X187100Y163507D1*
G1X187110Y163239D2*
G1X187110Y163267D1*
G1X187110Y163481D2*
G1X187110Y163509D1*
G1X187120Y163237D2*
G1X187120Y163265D1*
G1X187120Y163483D2*
G1X187120Y163511D1*
G1X187130Y163236D2*
G1X187130Y163264D1*
G1X187130Y163484D2*
G1X187130Y163513D1*
G1X187140Y163238D2*
G1X187140Y163266D1*
G1X187140Y163482D2*
G1X187140Y163511D1*
G1X187150Y163240D2*
G1X187150Y163268D1*
G1X187150Y163480D2*
G1X187150Y163509D1*
G1X187160Y163242D2*
G1X187160Y163270D1*
G1X187160Y163479D2*
G1X187160Y163507D1*
G1X187170Y163244D2*
G1X187170Y163277D1*
G1X187170Y163471D2*
G1X187170Y163505D1*
G1X187180Y163247D2*
G1X187180Y163285D1*
G1X187180Y163463D2*
G1X187180Y163499D1*
G1X187190Y163252D2*
G1X187190Y163299D1*
G1X187190Y163449D2*
G1X187190Y163491D1*
G1X187200Y163260D2*
G1X187200Y163322D1*
G1X187200Y163426D2*
G1X187200Y163482D1*
G1X187210Y163270D2*
G1X187210Y163471D1*
G1X187220Y163290D2*
G1X187220Y163453D1*
G1X187230Y163312D2*
G1X187230Y163435D1*
G1X187240Y163368D2*
G1X187240Y163375D1*
G1X187270Y163245D2*
G1X187270Y163256D1*
G1X187280Y163245D2*
G1X187280Y163268D1*
G1X187290Y163245D2*
G1X187290Y163281D1*
G1X187300Y163245D2*
G1X187300Y163293D1*
G1X187310Y163255D2*
G1X187310Y163305D1*
G1X187310Y163493D2*
G1X187310Y163502D1*
G1X187320Y163268D2*
G1X187320Y163317D1*
G1X187320Y163454D2*
G1X187320Y163546D1*
G1X187330Y163280D2*
G1X187330Y163330D1*
G1X187330Y163436D2*
G1X187330Y163556D1*
G1X187340Y163293D2*
G1X187340Y163342D1*
G1X187340Y163426D2*
G1X187340Y163566D1*
G1X187350Y163306D2*
G1X187350Y163354D1*
G1X187350Y163416D2*
G1X187350Y163484D1*
G1X187350Y163509D2*
G1X187350Y163574D1*
G1X187360Y163318D2*
G1X187360Y163367D1*
G1X187360Y163410D2*
G1X187360Y163451D1*
G1X187360Y163532D2*
G1X187360Y163578D1*
G1X187370Y163331D2*
G1X187370Y163379D1*
G1X187370Y163405D2*
G1X187370Y163436D1*
G1X187370Y163542D2*
G1X187370Y163581D1*
G1X187380Y163344D2*
G1X187380Y163391D1*
G1X187380Y163400D2*
G1X187380Y163431D1*
G1X187380Y163549D2*
G1X187380Y163585D1*
G1X187390Y163356D2*
G1X187390Y163426D1*
G1X187390Y163554D2*
G1X187390Y163588D1*
G1X187400Y163369D2*
G1X187400Y163421D1*
G1X187400Y163558D2*
G1X187400Y163590D1*
G1X187410Y163381D2*
G1X187410Y163419D1*
G1X187410Y163559D2*
G1X187410Y163591D1*
G1X187420Y163386D2*
G1X187420Y163418D1*
G1X187420Y163561D2*
G1X187420Y163591D1*
G1X187430Y163386D2*
G1X187430Y163416D1*
G1X187430Y163562D2*
G1X187430Y163591D1*
G1X187440Y163386D2*
G1X187440Y163415D1*
G1X187440Y163562D2*
G1X187440Y163591D1*
G1X187450Y163386D2*
G1X187450Y163415D1*
G1X187450Y163562D2*
G1X187450Y163591D1*
G1X187460Y163386D2*
G1X187460Y163415D1*
G1X187460Y163562D2*
G1X187460Y163591D1*
G1X187470Y163386D2*
G1X187470Y163415D1*
G1X187470Y163562D2*
G1X187470Y163591D1*
G1X187480Y163386D2*
G1X187480Y163415D1*
G1X187480Y163562D2*
G1X187480Y163591D1*
G1X187490Y163245D2*
G1X187490Y163591D1*
G1X187500Y163245D2*
G1X187500Y163591D1*
G1X187510Y163245D2*
G1X187510Y163591D1*
G1X187520Y163245D2*
G1X187520Y163591D1*
G1X187926Y163905D2*
G75*
G54D30*
G3X187926Y163905I-950J0D1*
G74*
G1X187539Y163980D2*
G1X187350Y164149D1*
G1X187484Y163949D2*
G1X187299Y164106D1*
G1X187417Y163909D2*
G1X187240Y164059D1*
G1X187350Y163874D2*
G1X187193Y164008D1*
G1X187279Y163830D2*
G1X187150Y163945D1*
G1X187216Y163783D2*
G1X187087Y163893D1*
G1X187157Y163740D2*
G1X186894Y163960D1*
G1X187110Y163697D2*
G1X187024Y163767D1*
G1X186894Y163964D2*
G1X186638Y164287D1*
G1X187024Y163901D2*
G1X186681Y164389D1*
G1X186838Y164106D2*
G1X186661Y164330D1*
G1X187071Y163905D2*
G1X186689Y164551D1*
G1X187055Y164004D2*
G1X186701Y164622D1*
G1X186815Y164275D2*
G1X186681Y164472D1*
G1X188094Y165012D2*
G54D33*
G1X185890Y165012D1*
G1X185890Y162807D1*
G1X188094Y162807D1*
G1X188094Y165012D1*
G1X187602Y163988D2*
G1X187382Y164181D1*
G1X187354Y164181D1*
G1X187224Y164071D1*
G1X187161Y164004D1*
G1X187110Y163921D1*
G1X187098Y163925D1*
G1X187083Y163996D1*
G1X187059Y164071D1*
G1X186996Y164216D1*
G1X186937Y164326D1*
G1X186858Y164449D1*
G1X186795Y164535D1*
G1X186720Y164622D1*
G1X186661Y164685D1*
G1X186657Y164685D1*
G1X186657Y164649D1*
G1X186661Y164649D1*
G1X186661Y164464D1*
G1X186657Y164464D1*
G1X186657Y164413D1*
G1X186650Y164413D1*
G1X186650Y164382D1*
G1X186642Y164382D1*
G1X186642Y164354D1*
G1X186638Y164354D1*
G1X186638Y164326D1*
G1X186630Y164326D1*
G1X186630Y164307D1*
G1X186622Y164307D1*
G1X186622Y164287D1*
G1X186618Y164287D1*
G1X186618Y164267D1*
G1X186610Y164267D1*
G1X186610Y164248D1*
G1X186602Y164248D1*
G1X186602Y164236D1*
G1X186594Y164236D1*
G1X186594Y164224D1*
G1X186610Y164224D1*
G1X186772Y164063D1*
G1X186874Y163949D1*
G1X186929Y163874D1*
G1X186980Y163807D1*
G1X187083Y163645D1*
G1X187197Y163748D1*
G1X187315Y163834D1*
G1X187401Y163886D1*
G1X187520Y163949D1*
G1X187587Y163980D1*
G1X187602Y163988D1*
G54D10*
G36*
G1X215567Y168594D2*
G1X215570Y168594D1*
G1X215573Y168594D1*
G1X215576Y168591D1*
G1X215579Y168591D1*
G1X215582Y168591D1*
G1X215585Y168591D1*
G1X215588Y168588D1*
G1X215591Y168588D1*
G1X215594Y168585D1*
G1X215597Y168585D1*
G1X215600Y168585D1*
G1X215600Y168582D1*
G1X215603Y168582D1*
G1X215606Y168578D1*
G1X215609Y168575D1*
G1X215612Y168575D1*
G1X215612Y168572D1*
G1X215615Y168572D1*
G1X215619Y168569D1*
G1X215622Y168566D1*
G1X215622Y168563D1*
G1X215625Y168563D1*
G1X215628Y168560D1*
G1X215631Y168557D1*
G1X215631Y168554D1*
G1X215634Y168548D1*
G1X215637Y168545D1*
G1X215637Y168542D1*
G1X215640Y168539D1*
G1X215643Y168536D1*
G1X215646Y168533D1*
G1X215646Y168527D1*
G1X215649Y168524D1*
G1X215652Y168521D1*
G1X215652Y168515D1*
G1X215655Y168512D1*
G1X215655Y168506D1*
G1X215658Y168503D1*
G1X215865Y167992D1*
G1X215886Y167992D1*
G1X216111Y168512D1*
G1X216114Y168515D1*
G1X216114Y168521D1*
G1X216117Y168524D1*
G1X216117Y168527D1*
G1X216120Y168530D1*
G1X216120Y168533D1*
G1X216123Y168536D1*
G1X216123Y168539D1*
G1X216126Y168542D1*
G1X216126Y168545D1*
G1X216126Y168548D1*
G1X216129Y168548D1*
G1X216129Y168551D1*
G1X216129Y168554D1*
G1X216132Y168554D1*
G1X216132Y168557D1*
G1X216135Y168557D1*
G1X216135Y168560D1*
G1X216138Y168563D1*
G1X216141Y168566D1*
G1X216141Y168569D1*
G1X216144Y168569D1*
G1X216144Y168572D1*
G1X216147Y168572D1*
G1X216147Y168575D1*
G1X216150Y168575D1*
G1X216153Y168578D1*
G1X216157Y168578D1*
G1X216157Y168582D1*
G1X216160Y168582D1*
G1X216163Y168585D1*
G1X216166Y168585D1*
G1X216169Y168588D1*
G1X216172Y168588D1*
G1X216175Y168588D1*
G1X216178Y168588D1*
G1X216178Y168591D1*
G1X216181Y168591D1*
G1X216184Y168591D1*
G1X216187Y168591D1*
G1X216190Y168591D1*
G1X216193Y168591D1*
G1X216196Y168594D1*
G1X216199Y168594D1*
G1X216202Y168594D1*
G1X216205Y168594D1*
G1X216205Y168609D1*
G1X215959Y168609D1*
G1X215959Y168594D1*
G1X215962Y168594D1*
G1X215968Y168594D1*
G1X215971Y168594D1*
G1X215974Y168591D1*
G1X215977Y168591D1*
G1X215980Y168591D1*
G1X215986Y168591D1*
G1X215989Y168591D1*
G1X215992Y168588D1*
G1X215995Y168588D1*
G1X215998Y168588D1*
G1X216002Y168585D1*
G1X216005Y168585D1*
G1X216008Y168582D1*
G1X216011Y168582D1*
G1X216014Y168578D1*
G1X216017Y168575D1*
G1X216020Y168572D1*
G1X216023Y168569D1*
G1X216023Y168566D1*
G1X216026Y168563D1*
G1X216026Y168560D1*
G1X216026Y168557D1*
G1X216026Y168554D1*
G1X216026Y168551D1*
G1X216026Y168548D1*
G1X216026Y168545D1*
G1X216026Y168542D1*
G1X216023Y168539D1*
G1X216023Y168536D1*
G1X216023Y168530D1*
G1X216023Y168527D1*
G1X216020Y168524D1*
G1X216020Y168521D1*
G1X216017Y168518D1*
G1X216017Y168515D1*
G1X216017Y168509D1*
G1X216014Y168506D1*
G1X216014Y168503D1*
G1X216011Y168496D1*
G1X216008Y168493D1*
G1X216008Y168487D1*
G1X216005Y168484D1*
G1X215850Y168129D1*
G1X215710Y168478D1*
G1X215707Y168484D1*
G1X215707Y168487D1*
G1X215704Y168493D1*
G1X215701Y168496D1*
G1X215701Y168503D1*
G1X215698Y168506D1*
G1X215698Y168512D1*
G1X215698Y168515D1*
G1X215695Y168518D1*
G1X215695Y168521D1*
G1X215691Y168527D1*
G1X215691Y168530D1*
G1X215691Y168533D1*
G1X215691Y168536D1*
G1X215688Y168539D1*
G1X215688Y168542D1*
G1X215688Y168545D1*
G1X215688Y168548D1*
G1X215688Y168551D1*
G1X215688Y168554D1*
G1X215688Y168557D1*
G1X215688Y168560D1*
G1X215691Y168560D1*
G1X215691Y168563D1*
G1X215691Y168566D1*
G1X215695Y168566D1*
G1X215695Y168569D1*
G1X215698Y168569D1*
G1X215698Y168572D1*
G1X215701Y168575D1*
G1X215704Y168575D1*
G1X215704Y168578D1*
G1X215707Y168578D1*
G1X215707Y168582D1*
G1X215710Y168582D1*
G1X215713Y168585D1*
G1X215716Y168585D1*
G1X215719Y168585D1*
G1X215719Y168588D1*
G1X215722Y168588D1*
G1X215725Y168588D1*
G1X215728Y168588D1*
G1X215728Y168591D1*
G1X215731Y168591D1*
G1X215734Y168591D1*
G1X215737Y168591D1*
G1X215740Y168594D1*
G1X215743Y168594D1*
G1X215746Y168594D1*
G1X215749Y168594D1*
G1X215752Y168594D1*
G1X215752Y168609D1*
G1X215567Y168609D1*
G1X215567Y168594D1*
G37*
G36*
G1X214995Y168414D2*
G1X215011Y168414D1*
G1X215014Y168423D1*
G1X215017Y168433D1*
G1X215020Y168442D1*
G1X215023Y168451D1*
G1X215026Y168457D1*
G1X215029Y168466D1*
G1X215032Y168472D1*
G1X215035Y168481D1*
G1X215041Y168487D1*
G1X215044Y168493D1*
G1X215047Y168503D1*
G1X215053Y168509D1*
G1X215056Y168515D1*
G1X215062Y168521D1*
G1X215065Y168524D1*
G1X215071Y168530D1*
G1X215074Y168536D1*
G1X215081Y168539D1*
G1X215084Y168545D1*
G1X215090Y168548D1*
G1X215096Y168551D1*
G1X215099Y168557D1*
G1X215105Y168560D1*
G1X215111Y168563D1*
G1X215114Y168566D1*
G1X215120Y168569D1*
G1X215126Y168572D1*
G1X215132Y168575D1*
G1X215138Y168578D1*
G1X215144Y168582D1*
G1X215150Y168582D1*
G1X215156Y168585D1*
G1X215163Y168585D1*
G1X215169Y168588D1*
G1X215175Y168588D1*
G1X215184Y168588D1*
G1X215190Y168591D1*
G1X215196Y168591D1*
G1X215205Y168591D1*
G1X215211Y168591D1*
G1X215217Y168591D1*
G1X215223Y168591D1*
G1X215229Y168591D1*
G1X215232Y168591D1*
G1X215239Y168588D1*
G1X215245Y168588D1*
G1X215251Y168588D1*
G1X215257Y168585D1*
G1X215260Y168585D1*
G1X215266Y168585D1*
G1X215272Y168582D1*
G1X215278Y168578D1*
G1X215281Y168578D1*
G1X215287Y168575D1*
G1X215293Y168572D1*
G1X215296Y168572D1*
G1X215302Y168569D1*
G1X215308Y168566D1*
G1X215312Y168563D1*
G1X215318Y168560D1*
G1X215324Y168557D1*
G1X215327Y168554D1*
G1X215333Y168551D1*
G1X215336Y168548D1*
G1X215342Y168542D1*
G1X215345Y168539D1*
G1X215348Y168536D1*
G1X215354Y168530D1*
G1X215357Y168527D1*
G1X215360Y168521D1*
G1X215363Y168515D1*
G1X215369Y168512D1*
G1X215372Y168506D1*
G1X215375Y168499D1*
G1X215378Y168493D1*
G1X215381Y168487D1*
G1X215384Y168481D1*
G1X215388Y168475D1*
G1X215391Y168469D1*
G1X215394Y168463D1*
G1X215397Y168457D1*
G1X215400Y168448D1*
G1X215400Y168442D1*
G1X215403Y168436D1*
G1X215406Y168427D1*
G1X215409Y168420D1*
G1X215409Y168411D1*
G1X215412Y168405D1*
G1X215412Y168396D1*
G1X215415Y168387D1*
G1X215415Y168378D1*
G1X215418Y168372D1*
G1X215418Y168363D1*
G1X215418Y168354D1*
G1X215418Y168344D1*
G1X215421Y168335D1*
G1X215421Y168326D1*
G1X215421Y168314D1*
G1X215421Y168305D1*
G1X215421Y168296D1*
G1X215421Y168287D1*
G1X215421Y168281D1*
G1X215421Y168271D1*
G1X215421Y168265D1*
G1X215418Y168256D1*
G1X215418Y168250D1*
G1X215418Y168244D1*
G1X215418Y168235D1*
G1X215415Y168229D1*
G1X215415Y168220D1*
G1X215412Y168214D1*
G1X215412Y168208D1*
G1X215409Y168202D1*
G1X215409Y168196D1*
G1X215406Y168186D1*
G1X215403Y168180D1*
G1X215400Y168174D1*
G1X215400Y168168D1*
G1X215397Y168162D1*
G1X215394Y168156D1*
G1X215391Y168150D1*
G1X215388Y168144D1*
G1X215384Y168138D1*
G1X215381Y168132D1*
G1X215378Y168129D1*
G1X215375Y168123D1*
G1X215372Y168116D1*
G1X215369Y168113D1*
G1X215366Y168107D1*
G1X215360Y168104D1*
G1X215357Y168098D1*
G1X215354Y168095D1*
G1X215348Y168089D1*
G1X215345Y168086D1*
G1X215339Y168083D1*
G1X215336Y168077D1*
G1X215330Y168074D1*
G1X215324Y168071D1*
G1X215321Y168068D1*
G1X215315Y168065D1*
G1X215308Y168062D1*
G1X215305Y168059D1*
G1X215299Y168056D1*
G1X215293Y168053D1*
G1X215287Y168050D1*
G1X215281Y168047D1*
G1X215275Y168047D1*
G1X215272Y168044D1*
G1X215266Y168040D1*
G1X215260Y168040D1*
G1X215254Y168037D1*
G1X215248Y168037D1*
G1X215242Y168034D1*
G1X215236Y168034D1*
G1X215229Y168034D1*
G1X215223Y168031D1*
G1X215214Y168031D1*
G1X215208Y168031D1*
G1X215202Y168031D1*
G1X215196Y168031D1*
G1X215190Y168031D1*
G1X215184Y168031D1*
G1X215178Y168031D1*
G1X215175Y168031D1*
G1X215169Y168034D1*
G1X215163Y168034D1*
G1X215156Y168034D1*
G1X215150Y168034D1*
G1X215147Y168037D1*
G1X215141Y168037D1*
G1X215135Y168037D1*
G1X215132Y168040D1*
G1X215126Y168040D1*
G1X215120Y168044D1*
G1X215117Y168047D1*
G1X215111Y168047D1*
G1X215108Y168050D1*
G1X215102Y168050D1*
G1X215099Y168053D1*
G1X215093Y168056D1*
G1X215087Y168059D1*
G1X215084Y168062D1*
G1X215077Y168065D1*
G1X215074Y168068D1*
G1X215068Y168071D1*
G1X215065Y168074D1*
G1X215059Y168080D1*
G1X215056Y168083D1*
G1X215050Y168089D1*
G1X215047Y168092D1*
G1X215041Y168098D1*
G1X215035Y168104D1*
G1X215032Y168110D1*
G1X215026Y168116D1*
G1X215020Y168123D1*
G1X215017Y168129D1*
G1X215011Y168135D1*
G1X215005Y168141D1*
G1X215001Y168150D1*
G1X214995Y168156D1*
G1X214980Y168150D1*
G1X214986Y168141D1*
G1X214989Y168135D1*
G1X214995Y168126D1*
G1X214998Y168120D1*
G1X215005Y168110D1*
G1X215008Y168104D1*
G1X215014Y168098D1*
G1X215020Y168092D1*
G1X215026Y168086D1*
G1X215029Y168080D1*
G1X215035Y168074D1*
G1X215041Y168068D1*
G1X215047Y168062D1*
G1X215050Y168059D1*
G1X215056Y168053D1*
G1X215062Y168047D1*
G1X215068Y168044D1*
G1X215074Y168040D1*
G1X215081Y168034D1*
G1X215087Y168031D1*
G1X215093Y168028D1*
G1X215099Y168025D1*
G1X215105Y168019D1*
G1X215111Y168016D1*
G1X215117Y168013D1*
G1X215126Y168010D1*
G1X215132Y168007D1*
G1X215138Y168007D1*
G1X215144Y168004D1*
G1X215153Y168004D1*
G1X215160Y168004D1*
G1X215169Y168001D1*
G1X215175Y168001D1*
G1X215181Y167998D1*
G1X215190Y167998D1*
G1X215196Y167998D1*
G1X215205Y167995D1*
G1X215214Y167995D1*
G1X215220Y167995D1*
G1X215229Y167995D1*
G1X215245Y167995D1*
G1X215260Y167995D1*
G1X215272Y167998D1*
G1X215287Y167998D1*
G1X215302Y168001D1*
G1X215315Y168004D1*
G1X215327Y168007D1*
G1X215339Y168010D1*
G1X215351Y168013D1*
G1X215363Y168019D1*
G1X215375Y168025D1*
G1X215388Y168031D1*
G1X215397Y168040D1*
G1X215409Y168047D1*
G1X215418Y168056D1*
G1X215427Y168065D1*
G1X215436Y168074D1*
G1X215445Y168083D1*
G1X215454Y168092D1*
G1X215463Y168104D1*
G1X215470Y168113D1*
G1X215476Y168120D1*
G1X215482Y168129D1*
G1X215485Y168138D1*
G1X215491Y168147D1*
G1X215494Y168156D1*
G1X215500Y168165D1*
G1X215503Y168174D1*
G1X215506Y168183D1*
G1X215509Y168192D1*
G1X215512Y168202D1*
G1X215515Y168214D1*
G1X215518Y168223D1*
G1X215518Y168232D1*
G1X215521Y168244D1*
G1X215521Y168253D1*
G1X215524Y168262D1*
G1X215524Y168275D1*
G1X215524Y168284D1*
G1X215524Y168296D1*
G1X215524Y168305D1*
G1X215524Y168314D1*
G1X215524Y168323D1*
G1X215521Y168332D1*
G1X215521Y168341D1*
G1X215521Y168351D1*
G1X215518Y168357D1*
G1X215518Y168366D1*
G1X215515Y168375D1*
G1X215515Y168384D1*
G1X215512Y168390D1*
G1X215509Y168399D1*
G1X215509Y168408D1*
G1X215506Y168417D1*
G1X215503Y168423D1*
G1X215500Y168433D1*
G1X215497Y168439D1*
G1X215491Y168448D1*
G1X215488Y168454D1*
G1X215485Y168463D1*
G1X215482Y168469D1*
G1X215476Y168478D1*
G1X215473Y168484D1*
G1X215467Y168493D1*
G1X215460Y168499D1*
G1X215457Y168506D1*
G1X215451Y168512D1*
G1X215445Y168518D1*
G1X215442Y168524D1*
G1X215436Y168530D1*
G1X215430Y168536D1*
G1X215424Y168542D1*
G1X215418Y168545D1*
G1X215412Y168551D1*
G1X215406Y168557D1*
G1X215400Y168560D1*
G1X215394Y168566D1*
G1X215388Y168569D1*
G1X215378Y168575D1*
G1X215372Y168578D1*
G1X215366Y168582D1*
G1X215357Y168588D1*
G1X215351Y168591D1*
G1X215345Y168594D1*
G1X215336Y168597D1*
G1X215330Y168600D1*
G1X215321Y168603D1*
G1X215315Y168606D1*
G1X215305Y168609D1*
G1X215299Y168612D1*
G1X215290Y168612D1*
G1X215284Y168615D1*
G1X215275Y168615D1*
G1X215266Y168618D1*
G1X215260Y168618D1*
G1X215251Y168618D1*
G1X215242Y168621D1*
G1X215236Y168621D1*
G1X215226Y168621D1*
G1X215217Y168621D1*
G1X215211Y168621D1*
G1X215205Y168621D1*
G1X215199Y168621D1*
G1X215193Y168621D1*
G1X215184Y168618D1*
G1X215178Y168618D1*
G1X215172Y168618D1*
G1X215166Y168615D1*
G1X215160Y168615D1*
G1X215153Y168612D1*
G1X215147Y168612D1*
G1X215141Y168609D1*
G1X215135Y168606D1*
G1X215129Y168606D1*
G1X215120Y168603D1*
G1X215114Y168600D1*
G1X215108Y168597D1*
G1X215102Y168594D1*
G1X215096Y168591D1*
G1X215090Y168588D1*
G1X215087Y168588D1*
G1X215087Y168585D1*
G1X215084Y168585D1*
G1X215081Y168585D1*
G1X215081Y168582D1*
G1X215077Y168582D1*
G1X215074Y168582D1*
G1X215071Y168582D1*
G1X215071Y168578D1*
G1X215068Y168578D1*
G1X215065Y168578D1*
G1X215062Y168578D1*
G1X215059Y168578D1*
G1X215056Y168578D1*
G1X215053Y168578D1*
G1X215053Y168582D1*
G1X215050Y168582D1*
G1X215047Y168582D1*
G1X215047Y168585D1*
G1X215044Y168585D1*
G1X215041Y168588D1*
G1X215038Y168591D1*
G1X215038Y168594D1*
G1X215035Y168597D1*
G1X215035Y168600D1*
G1X215032Y168603D1*
G1X215032Y168606D1*
G1X215029Y168609D1*
G1X215029Y168612D1*
G1X215029Y168615D1*
G1X215026Y168618D1*
G1X215026Y168621D1*
G1X215011Y168621D1*
G1X214995Y168414D1*
G37*
G36*
G1X214387Y168414D2*
G1X214403Y168414D1*
G1X214406Y168423D1*
G1X214409Y168433D1*
G1X214412Y168442D1*
G1X214415Y168451D1*
G1X214418Y168457D1*
G1X214421Y168466D1*
G1X214424Y168472D1*
G1X214427Y168481D1*
G1X214433Y168487D1*
G1X214436Y168493D1*
G1X214439Y168503D1*
G1X214445Y168509D1*
G1X214448Y168515D1*
G1X214454Y168521D1*
G1X214457Y168524D1*
G1X214463Y168530D1*
G1X214467Y168536D1*
G1X214473Y168539D1*
G1X214476Y168545D1*
G1X214482Y168548D1*
G1X214488Y168551D1*
G1X214491Y168557D1*
G1X214497Y168560D1*
G1X214503Y168563D1*
G1X214506Y168566D1*
G1X214512Y168569D1*
G1X214518Y168572D1*
G1X214524Y168575D1*
G1X214530Y168578D1*
G1X214536Y168582D1*
G1X214542Y168582D1*
G1X214549Y168585D1*
G1X214555Y168585D1*
G1X214561Y168588D1*
G1X214567Y168588D1*
G1X214576Y168588D1*
G1X214582Y168591D1*
G1X214588Y168591D1*
G1X214597Y168591D1*
G1X214603Y168591D1*
G1X214609Y168591D1*
G1X214615Y168591D1*
G1X214622Y168591D1*
G1X214625Y168591D1*
G1X214631Y168588D1*
G1X214637Y168588D1*
G1X214643Y168588D1*
G1X214649Y168585D1*
G1X214652Y168585D1*
G1X214658Y168585D1*
G1X214664Y168582D1*
G1X214670Y168578D1*
G1X214673Y168578D1*
G1X214679Y168575D1*
G1X214685Y168572D1*
G1X214688Y168572D1*
G1X214694Y168569D1*
G1X214701Y168566D1*
G1X214704Y168563D1*
G1X214710Y168560D1*
G1X214716Y168557D1*
G1X214719Y168554D1*
G1X214725Y168551D1*
G1X214728Y168548D1*
G1X214734Y168542D1*
G1X214737Y168539D1*
G1X214740Y168536D1*
G1X214746Y168530D1*
G1X214749Y168527D1*
G1X214752Y168521D1*
G1X214755Y168515D1*
G1X214761Y168512D1*
G1X214764Y168506D1*
G1X214767Y168499D1*
G1X214770Y168493D1*
G1X214774Y168487D1*
G1X214777Y168481D1*
G1X214780Y168475D1*
G1X214783Y168469D1*
G1X214786Y168463D1*
G1X214789Y168457D1*
G1X214792Y168448D1*
G1X214792Y168442D1*
G1X214795Y168436D1*
G1X214798Y168427D1*
G1X214801Y168420D1*
G1X214801Y168411D1*
G1X214804Y168405D1*
G1X214804Y168396D1*
G1X214807Y168387D1*
G1X214807Y168378D1*
G1X214810Y168372D1*
G1X214810Y168363D1*
G1X214810Y168354D1*
G1X214810Y168344D1*
G1X214813Y168335D1*
G1X214813Y168326D1*
G1X214813Y168314D1*
G1X214813Y168305D1*
G1X214813Y168296D1*
G1X214813Y168287D1*
G1X214813Y168281D1*
G1X214813Y168271D1*
G1X214813Y168265D1*
G1X214810Y168256D1*
G1X214810Y168250D1*
G1X214810Y168244D1*
G1X214810Y168235D1*
G1X214807Y168229D1*
G1X214807Y168220D1*
G1X214804Y168214D1*
G1X214804Y168208D1*
G1X214801Y168202D1*
G1X214801Y168196D1*
G1X214798Y168186D1*
G1X214795Y168180D1*
G1X214792Y168174D1*
G1X214792Y168168D1*
G1X214789Y168162D1*
G1X214786Y168156D1*
G1X214783Y168150D1*
G1X214780Y168144D1*
G1X214777Y168138D1*
G1X214774Y168132D1*
G1X214770Y168129D1*
G1X214767Y168123D1*
G1X214764Y168116D1*
G1X214761Y168113D1*
G1X214758Y168107D1*
G1X214752Y168104D1*
G1X214749Y168098D1*
G1X214746Y168095D1*
G1X214740Y168089D1*
G1X214737Y168086D1*
G1X214731Y168083D1*
G1X214728Y168077D1*
G1X214722Y168074D1*
G1X214716Y168071D1*
G1X214713Y168068D1*
G1X214707Y168065D1*
G1X214701Y168062D1*
G1X214698Y168059D1*
G1X214691Y168056D1*
G1X214685Y168053D1*
G1X214679Y168050D1*
G1X214673Y168047D1*
G1X214667Y168047D1*
G1X214664Y168044D1*
G1X214658Y168040D1*
G1X214652Y168040D1*
G1X214646Y168037D1*
G1X214640Y168037D1*
G1X214634Y168034D1*
G1X214628Y168034D1*
G1X214622Y168034D1*
G1X214615Y168031D1*
G1X214606Y168031D1*
G1X214600Y168031D1*
G1X214594Y168031D1*
G1X214588Y168031D1*
G1X214582Y168031D1*
G1X214576Y168031D1*
G1X214570Y168031D1*
G1X214567Y168031D1*
G1X214561Y168034D1*
G1X214555Y168034D1*
G1X214549Y168034D1*
G1X214542Y168034D1*
G1X214539Y168037D1*
G1X214533Y168037D1*
G1X214527Y168037D1*
G1X214524Y168040D1*
G1X214518Y168040D1*
G1X214512Y168044D1*
G1X214509Y168047D1*
G1X214503Y168047D1*
G1X214500Y168050D1*
G1X214494Y168050D1*
G1X214491Y168053D1*
G1X214485Y168056D1*
G1X214479Y168059D1*
G1X214476Y168062D1*
G1X214470Y168065D1*
G1X214467Y168068D1*
G1X214460Y168071D1*
G1X214457Y168074D1*
G1X214451Y168080D1*
G1X214448Y168083D1*
G1X214442Y168089D1*
G1X214439Y168092D1*
G1X214433Y168098D1*
G1X214427Y168104D1*
G1X214424Y168110D1*
G1X214418Y168116D1*
G1X214412Y168123D1*
G1X214409Y168129D1*
G1X214403Y168135D1*
G1X214397Y168141D1*
G1X214394Y168150D1*
G1X214387Y168156D1*
G1X214372Y168150D1*
G1X214378Y168141D1*
G1X214381Y168135D1*
G1X214387Y168126D1*
G1X214391Y168120D1*
G1X214397Y168110D1*
G1X214400Y168104D1*
G1X214406Y168098D1*
G1X214412Y168092D1*
G1X214418Y168086D1*
G1X214421Y168080D1*
G1X214427Y168074D1*
G1X214433Y168068D1*
G1X214439Y168062D1*
G1X214442Y168059D1*
G1X214448Y168053D1*
G1X214454Y168047D1*
G1X214460Y168044D1*
G1X214467Y168040D1*
G1X214473Y168034D1*
G1X214479Y168031D1*
G1X214485Y168028D1*
G1X214491Y168025D1*
G1X214497Y168019D1*
G1X214503Y168016D1*
G1X214509Y168013D1*
G1X214518Y168010D1*
G1X214524Y168007D1*
G1X214530Y168007D1*
G1X214536Y168004D1*
G1X214546Y168004D1*
G1X214552Y168004D1*
G1X214561Y168001D1*
G1X214567Y168001D1*
G1X214573Y167998D1*
G1X214582Y167998D1*
G1X214588Y167998D1*
G1X214597Y167995D1*
G1X214606Y167995D1*
G1X214612Y167995D1*
G1X214622Y167995D1*
G1X214637Y167995D1*
G1X214652Y167995D1*
G1X214664Y167998D1*
G1X214679Y167998D1*
G1X214694Y168001D1*
G1X214707Y168004D1*
G1X214719Y168007D1*
G1X214731Y168010D1*
G1X214743Y168013D1*
G1X214755Y168019D1*
G1X214767Y168025D1*
G1X214780Y168031D1*
G1X214789Y168040D1*
G1X214801Y168047D1*
G1X214810Y168056D1*
G1X214819Y168065D1*
G1X214828Y168074D1*
G1X214837Y168083D1*
G1X214846Y168092D1*
G1X214856Y168104D1*
G1X214862Y168113D1*
G1X214868Y168120D1*
G1X214874Y168129D1*
G1X214877Y168138D1*
G1X214883Y168147D1*
G1X214886Y168156D1*
G1X214892Y168165D1*
G1X214895Y168174D1*
G1X214898Y168183D1*
G1X214901Y168192D1*
G1X214904Y168202D1*
G1X214907Y168214D1*
G1X214910Y168223D1*
G1X214910Y168232D1*
G1X214913Y168244D1*
G1X214913Y168253D1*
G1X214916Y168262D1*
G1X214916Y168275D1*
G1X214916Y168284D1*
G1X214916Y168296D1*
G1X214916Y168305D1*
G1X214916Y168314D1*
G1X214916Y168323D1*
G1X214913Y168332D1*
G1X214913Y168341D1*
G1X214913Y168351D1*
G1X214910Y168357D1*
G1X214910Y168366D1*
G1X214907Y168375D1*
G1X214907Y168384D1*
G1X214904Y168390D1*
G1X214901Y168399D1*
G1X214901Y168408D1*
G1X214898Y168417D1*
G1X214895Y168423D1*
G1X214892Y168433D1*
G1X214889Y168439D1*
G1X214883Y168448D1*
G1X214880Y168454D1*
G1X214877Y168463D1*
G1X214874Y168469D1*
G1X214868Y168478D1*
G1X214865Y168484D1*
G1X214859Y168493D1*
G1X214853Y168499D1*
G1X214849Y168506D1*
G1X214843Y168512D1*
G1X214837Y168518D1*
G1X214834Y168524D1*
G1X214828Y168530D1*
G1X214822Y168536D1*
G1X214816Y168542D1*
G1X214810Y168545D1*
G1X214804Y168551D1*
G1X214798Y168557D1*
G1X214792Y168560D1*
G1X214786Y168566D1*
G1X214780Y168569D1*
G1X214770Y168575D1*
G1X214764Y168578D1*
G1X214758Y168582D1*
G1X214749Y168588D1*
G1X214743Y168591D1*
G1X214737Y168594D1*
G1X214728Y168597D1*
G1X214722Y168600D1*
G1X214713Y168603D1*
G1X214707Y168606D1*
G1X214698Y168609D1*
G1X214691Y168612D1*
G1X214682Y168612D1*
G1X214676Y168615D1*
G1X214667Y168615D1*
G1X214658Y168618D1*
G1X214652Y168618D1*
G1X214643Y168618D1*
G1X214634Y168621D1*
G1X214628Y168621D1*
G1X214618Y168621D1*
G1X214609Y168621D1*
G1X214603Y168621D1*
G1X214597Y168621D1*
G1X214591Y168621D1*
G1X214585Y168621D1*
G1X214576Y168618D1*
G1X214570Y168618D1*
G1X214564Y168618D1*
G1X214558Y168615D1*
G1X214552Y168615D1*
G1X214546Y168612D1*
G1X214539Y168612D1*
G1X214533Y168609D1*
G1X214527Y168606D1*
G1X214521Y168606D1*
G1X214512Y168603D1*
G1X214506Y168600D1*
G1X214500Y168597D1*
G1X214494Y168594D1*
G1X214488Y168591D1*
G1X214482Y168588D1*
G1X214479Y168588D1*
G1X214479Y168585D1*
G1X214476Y168585D1*
G1X214473Y168585D1*
G1X214473Y168582D1*
G1X214470Y168582D1*
G1X214467Y168582D1*
G1X214463Y168582D1*
G1X214463Y168578D1*
G1X214460Y168578D1*
G1X214457Y168578D1*
G1X214454Y168578D1*
G1X214451Y168578D1*
G1X214448Y168578D1*
G1X214445Y168578D1*
G1X214445Y168582D1*
G1X214442Y168582D1*
G1X214439Y168582D1*
G1X214439Y168585D1*
G1X214436Y168585D1*
G1X214433Y168588D1*
G1X214430Y168591D1*
G1X214430Y168594D1*
G1X214427Y168597D1*
G1X214427Y168600D1*
G1X214424Y168603D1*
G1X214424Y168606D1*
G1X214421Y168609D1*
G1X214421Y168612D1*
G1X214421Y168615D1*
G1X214418Y168618D1*
G1X214418Y168621D1*
G1X214403Y168621D1*
G1X214387Y168414D1*
G37*
G36*
G1X215708Y164186D2*
G1X215723Y164186D1*
G1X215726Y164192D1*
G1X215729Y164201D1*
G1X215729Y164207D1*
G1X215732Y164213D1*
G1X215735Y164220D1*
G1X215738Y164226D1*
G1X215742Y164232D1*
G1X215745Y164238D1*
G1X215748Y164244D1*
G1X215751Y164250D1*
G1X215754Y164256D1*
G1X215757Y164259D1*
G1X215760Y164265D1*
G1X215763Y164271D1*
G1X215766Y164274D1*
G1X215769Y164280D1*
G1X215772Y164283D1*
G1X215778Y164286D1*
G1X215781Y164292D1*
G1X215784Y164295D1*
G1X215790Y164302D1*
G1X215796Y164305D1*
G1X215799Y164311D1*
G1X215805Y164314D1*
G1X215811Y164317D1*
G1X215818Y164323D1*
G1X215824Y164326D1*
G1X215830Y164329D1*
G1X215839Y164332D1*
G1X215845Y164335D1*
G1X215851Y164338D1*
G1X215857Y164338D1*
G1X215866Y164341D1*
G1X215872Y164341D1*
G1X215881Y164344D1*
G1X215887Y164344D1*
G1X215897Y164347D1*
G1X215906Y164347D1*
G1X215912Y164347D1*
G1X215921Y164347D1*
G1X215933Y164347D1*
G1X215942Y164347D1*
G1X215954Y164344D1*
G1X215963Y164344D1*
G1X215973Y164341D1*
G1X215985Y164338D1*
G1X215994Y164335D1*
G1X216003Y164332D1*
G1X216012Y164329D1*
G1X216021Y164326D1*
G1X216030Y164320D1*
G1X216036Y164314D1*
G1X216045Y164308D1*
G1X216052Y164302D1*
G1X216061Y164295D1*
G1X216067Y164289D1*
G1X216076Y164280D1*
G1X216082Y164274D1*
G1X216088Y164265D1*
G1X216094Y164256D1*
G1X216100Y164247D1*
G1X216103Y164241D1*
G1X216106Y164232D1*
G1X216112Y164226D1*
G1X216115Y164216D1*
G1X216118Y164207D1*
G1X216121Y164198D1*
G1X216125Y164189D1*
G1X216128Y164180D1*
G1X216131Y164171D1*
G1X216134Y164162D1*
G1X216134Y164153D1*
G1X216137Y164144D1*
G1X216140Y164134D1*
G1X216140Y164125D1*
G1X216140Y164116D1*
G1X216143Y164104D1*
G1X216143Y164095D1*
G1X216143Y164083D1*
G1X216143Y164074D1*
G1X216143Y164064D1*
G1X216143Y164055D1*
G1X216143Y164049D1*
G1X216143Y164040D1*
G1X216140Y164031D1*
G1X216140Y164025D1*
G1X216140Y164016D1*
G1X216137Y164007D1*
G1X216137Y164001D1*
G1X216134Y163992D1*
G1X216134Y163982D1*
G1X216131Y163976D1*
G1X216128Y163967D1*
G1X216128Y163961D1*
G1X216125Y163952D1*
G1X216121Y163946D1*
G1X216118Y163937D1*
G1X216115Y163931D1*
G1X216112Y163922D1*
G1X216109Y163916D1*
G1X216106Y163909D1*
G1X216103Y163903D1*
G1X216100Y163894D1*
G1X216094Y163888D1*
G1X216091Y163882D1*
G1X216088Y163876D1*
G1X216082Y163870D1*
G1X216079Y163867D1*
G1X216076Y163861D1*
G1X216070Y163855D1*
G1X216067Y163849D1*
G1X216061Y163846D1*
G1X216058Y163840D1*
G1X216052Y163837D1*
G1X216049Y163830D1*
G1X216042Y163827D1*
G1X216036Y163824D1*
G1X216033Y163818D1*
G1X216027Y163815D1*
G1X216021Y163812D1*
G1X216015Y163809D1*
G1X216012Y163806D1*
G1X216006Y163803D1*
G1X216000Y163800D1*
G1X215994Y163797D1*
G1X215991Y163794D1*
G1X215985Y163794D1*
G1X215979Y163791D1*
G1X215973Y163788D1*
G1X215966Y163788D1*
G1X215963Y163785D1*
G1X215957Y163785D1*
G1X215951Y163782D1*
G1X215945Y163782D1*
G1X215939Y163782D1*
G1X215936Y163779D1*
G1X215930Y163779D1*
G1X215924Y163779D1*
G1X215918Y163779D1*
G1X215912Y163779D1*
G1X215909Y163779D1*
G1X215906Y163779D1*
G1X215903Y163779D1*
G1X215900Y163779D1*
G1X215897Y163779D1*
G1X215890Y163779D1*
G1X215887Y163779D1*
G1X215884Y163779D1*
G1X215881Y163782D1*
G1X215878Y163782D1*
G1X215875Y163782D1*
G1X215872Y163782D1*
G1X215869Y163782D1*
G1X215866Y163782D1*
G1X215863Y163785D1*
G1X215860Y163785D1*
G1X215857Y163785D1*
G1X215854Y163785D1*
G1X215851Y163788D1*
G1X215848Y163788D1*
G1X215845Y163788D1*
G1X215842Y163791D1*
G1X215839Y163791D1*
G1X215836Y163791D1*
G1X215833Y163794D1*
G1X215830Y163794D1*
G1X215827Y163794D1*
G1X215824Y163797D1*
G1X215821Y163797D1*
G1X215818Y163800D1*
G1X215814Y163800D1*
G1X215811Y163800D1*
G1X215808Y163803D1*
G1X215805Y163803D1*
G1X215802Y163806D1*
G1X215799Y163806D1*
G1X215796Y163809D1*
G1X215793Y163809D1*
G1X215790Y163812D1*
G1X215787Y163812D1*
G1X215787Y163985D1*
G1X215787Y163988D1*
G1X215787Y163995D1*
G1X215787Y163998D1*
G1X215787Y164004D1*
G1X215787Y164007D1*
G1X215787Y164010D1*
G1X215787Y164013D1*
G1X215787Y164016D1*
G1X215787Y164019D1*
G1X215790Y164022D1*
G1X215790Y164025D1*
G1X215790Y164028D1*
G1X215790Y164031D1*
G1X215790Y164034D1*
G1X215790Y164037D1*
G1X215790Y164040D1*
G1X215793Y164043D1*
G1X215793Y164046D1*
G1X215796Y164049D1*
G1X215796Y164052D1*
G1X215799Y164052D1*
G1X215799Y164055D1*
G1X215802Y164058D1*
G1X215802Y164061D1*
G1X215805Y164061D1*
G1X215805Y164064D1*
G1X215808Y164064D1*
G1X215808Y164068D1*
G1X215811Y164068D1*
G1X215814Y164071D1*
G1X215818Y164071D1*
G1X215821Y164074D1*
G1X215824Y164074D1*
G1X215827Y164074D1*
G1X215830Y164074D1*
G1X215833Y164074D1*
G1X215836Y164077D1*
G1X215839Y164077D1*
G1X215842Y164077D1*
G1X215845Y164077D1*
G1X215848Y164077D1*
G1X215851Y164077D1*
G1X215857Y164077D1*
G1X215860Y164077D1*
G1X215863Y164077D1*
G1X215866Y164077D1*
G1X215866Y164092D1*
G1X215632Y164092D1*
G1X215632Y164077D1*
G1X215644Y164077D1*
G1X215647Y164077D1*
G1X215650Y164077D1*
G1X215653Y164077D1*
G1X215656Y164077D1*
G1X215659Y164077D1*
G1X215662Y164074D1*
G1X215666Y164074D1*
G1X215669Y164074D1*
G1X215672Y164071D1*
G1X215675Y164071D1*
G1X215678Y164071D1*
G1X215681Y164068D1*
G1X215684Y164064D1*
G1X215687Y164061D1*
G1X215690Y164058D1*
G1X215693Y164055D1*
G1X215693Y164052D1*
G1X215693Y164049D1*
G1X215696Y164049D1*
G1X215696Y164046D1*
G1X215696Y164043D1*
G1X215699Y164040D1*
G1X215699Y164037D1*
G1X215699Y164034D1*
G1X215699Y164031D1*
G1X215699Y164028D1*
G1X215699Y164025D1*
G1X215702Y164022D1*
G1X215702Y164016D1*
G1X215702Y164013D1*
G1X215702Y164010D1*
G1X215702Y164004D1*
G1X215702Y164001D1*
G1X215702Y163995D1*
G1X215702Y163992D1*
G1X215702Y163985D1*
G1X215702Y163803D1*
G1X215708Y163800D1*
G1X215711Y163797D1*
G1X215717Y163794D1*
G1X215723Y163791D1*
G1X215726Y163788D1*
G1X215732Y163788D1*
G1X215738Y163785D1*
G1X215742Y163782D1*
G1X215748Y163779D1*
G1X215754Y163779D1*
G1X215757Y163776D1*
G1X215763Y163773D1*
G1X215769Y163773D1*
G1X215772Y163770D1*
G1X215778Y163767D1*
G1X215784Y163767D1*
G1X215787Y163764D1*
G1X215793Y163764D1*
G1X215796Y163761D1*
G1X215802Y163761D1*
G1X215808Y163761D1*
G1X215811Y163761D1*
G1X215818Y163761D1*
G1X215824Y163761D1*
G1X215827Y163757D1*
G1X215833Y163757D1*
G1X215839Y163757D1*
G1X215842Y163754D1*
G1X215848Y163754D1*
G1X215854Y163754D1*
G1X215860Y163754D1*
G1X215866Y163754D1*
G1X215869Y163751D1*
G1X215875Y163751D1*
G1X215881Y163751D1*
G1X215887Y163751D1*
G1X215894Y163751D1*
G1X215900Y163751D1*
G1X215906Y163751D1*
G1X215912Y163751D1*
G1X215930Y163751D1*
G1X215945Y163751D1*
G1X215963Y163754D1*
G1X215979Y163754D1*
G1X215994Y163757D1*
G1X216009Y163761D1*
G1X216024Y163764D1*
G1X216039Y163767D1*
G1X216055Y163770D1*
G1X216067Y163776D1*
G1X216079Y163782D1*
G1X216094Y163788D1*
G1X216106Y163797D1*
G1X216115Y163803D1*
G1X216128Y163812D1*
G1X216140Y163821D1*
G1X216149Y163830D1*
G1X216161Y163840D1*
G1X216170Y163849D1*
G1X216179Y163861D1*
G1X216185Y163870D1*
G1X216191Y163876D1*
G1X216197Y163885D1*
G1X216204Y163894D1*
G1X216210Y163903D1*
G1X216213Y163913D1*
G1X216219Y163922D1*
G1X216222Y163931D1*
G1X216225Y163940D1*
G1X216228Y163949D1*
G1X216234Y163958D1*
G1X216234Y163970D1*
G1X216237Y163979D1*
G1X216240Y163988D1*
G1X216243Y164001D1*
G1X216243Y164010D1*
G1X216246Y164019D1*
G1X216246Y164031D1*
G1X216246Y164040D1*
G1X216246Y164052D1*
G1X216246Y164061D1*
G1X216246Y164068D1*
G1X216246Y164077D1*
G1X216243Y164086D1*
G1X216243Y164092D1*
G1X216243Y164101D1*
G1X216240Y164110D1*
G1X216240Y164116D1*
G1X216237Y164125D1*
G1X216237Y164131D1*
G1X216234Y164140D1*
G1X216231Y164147D1*
G1X216231Y164156D1*
G1X216228Y164162D1*
G1X216225Y164171D1*
G1X216222Y164177D1*
G1X216219Y164186D1*
G1X216213Y164192D1*
G1X216210Y164201D1*
G1X216207Y164207D1*
G1X216204Y164216D1*
G1X216197Y164223D1*
G1X216194Y164232D1*
G1X216188Y164241D1*
G1X216182Y164247D1*
G1X216179Y164256D1*
G1X216173Y164262D1*
G1X216167Y164268D1*
G1X216161Y164277D1*
G1X216155Y164283D1*
G1X216149Y164289D1*
G1X216143Y164295D1*
G1X216137Y164302D1*
G1X216131Y164308D1*
G1X216121Y164314D1*
G1X216115Y164317D1*
G1X216109Y164323D1*
G1X216100Y164329D1*
G1X216094Y164332D1*
G1X216085Y164338D1*
G1X216079Y164341D1*
G1X216073Y164344D1*
G1X216064Y164350D1*
G1X216058Y164353D1*
G1X216052Y164356D1*
G1X216042Y164359D1*
G1X216036Y164362D1*
G1X216027Y164362D1*
G1X216021Y164365D1*
G1X216012Y164368D1*
G1X216006Y164368D1*
G1X215997Y164371D1*
G1X215988Y164371D1*
G1X215982Y164375D1*
G1X215973Y164375D1*
G1X215963Y164375D1*
G1X215957Y164378D1*
G1X215948Y164378D1*
G1X215939Y164378D1*
G1X215930Y164378D1*
G1X215927Y164378D1*
G1X215924Y164378D1*
G1X215921Y164378D1*
G1X215918Y164378D1*
G1X215915Y164378D1*
G1X215912Y164378D1*
G1X215909Y164378D1*
G1X215906Y164378D1*
G1X215903Y164378D1*
G1X215897Y164378D1*
G1X215897Y164375D1*
G1X215894Y164375D1*
G1X215890Y164375D1*
G1X215887Y164375D1*
G1X215884Y164375D1*
G1X215881Y164375D1*
G1X215878Y164375D1*
G1X215875Y164371D1*
G1X215872Y164371D1*
G1X215869Y164371D1*
G1X215866Y164371D1*
G1X215863Y164371D1*
G1X215860Y164371D1*
G1X215857Y164368D1*
G1X215854Y164368D1*
G1X215851Y164368D1*
G1X215848Y164368D1*
G1X215845Y164368D1*
G1X215839Y164365D1*
G1X215836Y164365D1*
G1X215833Y164365D1*
G1X215830Y164362D1*
G1X215824Y164362D1*
G1X215821Y164362D1*
G1X215818Y164359D1*
G1X215811Y164359D1*
G1X215808Y164356D1*
G1X215802Y164356D1*
G1X215799Y164353D1*
G1X215793Y164353D1*
G1X215790Y164353D1*
G1X215787Y164350D1*
G1X215784Y164350D1*
G1X215781Y164350D1*
G1X215781Y164347D1*
G1X215778Y164347D1*
G1X215775Y164347D1*
G1X215772Y164347D1*
G1X215769Y164344D1*
G1X215766Y164344D1*
G1X215763Y164344D1*
G1X215760Y164344D1*
G1X215757Y164344D1*
G1X215754Y164344D1*
G1X215751Y164347D1*
G1X215748Y164347D1*
G1X215745Y164350D1*
G1X215742Y164353D1*
G1X215742Y164356D1*
G1X215742Y164359D1*
G1X215738Y164359D1*
G1X215738Y164362D1*
G1X215738Y164365D1*
G1X215738Y164368D1*
G1X215738Y164371D1*
G1X215738Y164375D1*
G1X215738Y164378D1*
G1X215723Y164378D1*
G1X215708Y164186D1*
G37*
G36*
G1X215468Y164365D2*
G1X215097Y163913D1*
G1X215097Y164259D1*
G1X215097Y164265D1*
G1X215097Y164271D1*
G1X215097Y164274D1*
G1X215097Y164280D1*
G1X215097Y164286D1*
G1X215097Y164289D1*
G1X215097Y164295D1*
G1X215100Y164299D1*
G1X215100Y164302D1*
G1X215100Y164308D1*
G1X215100Y164311D1*
G1X215100Y164314D1*
G1X215103Y164317D1*
G1X215103Y164320D1*
G1X215103Y164323D1*
G1X215106Y164323D1*
G1X215106Y164326D1*
G1X215106Y164329D1*
G1X215109Y164329D1*
G1X215109Y164332D1*
G1X215112Y164335D1*
G1X215115Y164338D1*
G1X215118Y164341D1*
G1X215121Y164341D1*
G1X215124Y164344D1*
G1X215128Y164344D1*
G1X215131Y164347D1*
G1X215134Y164347D1*
G1X215137Y164347D1*
G1X215140Y164347D1*
G1X215143Y164350D1*
G1X215146Y164350D1*
G1X215152Y164350D1*
G1X215155Y164350D1*
G1X215158Y164350D1*
G1X215161Y164350D1*
G1X215182Y164350D1*
G1X215182Y164365D1*
G1X214973Y164365D1*
G1X214973Y164350D1*
G1X214994Y164350D1*
G1X214997Y164350D1*
G1X215003Y164350D1*
G1X215006Y164350D1*
G1X215009Y164350D1*
G1X215012Y164350D1*
G1X215015Y164347D1*
G1X215018Y164347D1*
G1X215021Y164347D1*
G1X215024Y164344D1*
G1X215027Y164344D1*
G1X215030Y164344D1*
G1X215033Y164341D1*
G1X215036Y164341D1*
G1X215036Y164338D1*
G1X215039Y164338D1*
G1X215042Y164335D1*
G1X215042Y164332D1*
G1X215045Y164332D1*
G1X215045Y164329D1*
G1X215048Y164326D1*
G1X215048Y164323D1*
G1X215052Y164323D1*
G1X215052Y164320D1*
G1X215052Y164317D1*
G1X215055Y164314D1*
G1X215055Y164311D1*
G1X215055Y164308D1*
G1X215055Y164305D1*
G1X215055Y164302D1*
G1X215055Y164299D1*
G1X215058Y164295D1*
G1X215058Y164289D1*
G1X215058Y164286D1*
G1X215058Y164283D1*
G1X215058Y164277D1*
G1X215058Y164274D1*
G1X215058Y164268D1*
G1X215058Y164265D1*
G1X215058Y164259D1*
G1X215058Y163751D1*
G1X215073Y163751D1*
G1X215474Y164238D1*
G1X215474Y163867D1*
G1X215474Y163861D1*
G1X215474Y163855D1*
G1X215474Y163852D1*
G1X215474Y163846D1*
G1X215474Y163840D1*
G1X215474Y163837D1*
G1X215474Y163830D1*
G1X215471Y163827D1*
G1X215471Y163824D1*
G1X215471Y163821D1*
G1X215471Y163815D1*
G1X215471Y163812D1*
G1X215468Y163809D1*
G1X215468Y163806D1*
G1X215468Y163803D1*
G1X215465Y163803D1*
G1X215465Y163800D1*
G1X215465Y163797D1*
G1X215462Y163797D1*
G1X215462Y163794D1*
G1X215459Y163791D1*
G1X215456Y163788D1*
G1X215453Y163785D1*
G1X215450Y163785D1*
G1X215447Y163782D1*
G1X215444Y163782D1*
G1X215441Y163782D1*
G1X215438Y163779D1*
G1X215435Y163779D1*
G1X215431Y163779D1*
G1X215428Y163776D1*
G1X215425Y163776D1*
G1X215419Y163776D1*
G1X215416Y163776D1*
G1X215413Y163776D1*
G1X215410Y163776D1*
G1X215389Y163776D1*
G1X215389Y163761D1*
G1X215599Y163761D1*
G1X215599Y163776D1*
G1X215577Y163776D1*
G1X215574Y163776D1*
G1X215568Y163776D1*
G1X215565Y163776D1*
G1X215562Y163776D1*
G1X215559Y163779D1*
G1X215556Y163779D1*
G1X215553Y163779D1*
G1X215550Y163779D1*
G1X215547Y163782D1*
G1X215544Y163782D1*
G1X215541Y163782D1*
G1X215538Y163785D1*
G1X215535Y163785D1*
G1X215535Y163788D1*
G1X215532Y163791D1*
G1X215529Y163791D1*
G1X215529Y163794D1*
G1X215526Y163794D1*
G1X215526Y163797D1*
G1X215523Y163800D1*
G1X215523Y163803D1*
G1X215520Y163803D1*
G1X215520Y163806D1*
G1X215520Y163809D1*
G1X215517Y163812D1*
G1X215517Y163815D1*
G1X215517Y163818D1*
G1X215517Y163821D1*
G1X215517Y163824D1*
G1X215517Y163827D1*
G1X215514Y163830D1*
G1X215514Y163837D1*
G1X215514Y163840D1*
G1X215514Y163843D1*
G1X215514Y163849D1*
G1X215514Y163852D1*
G1X215514Y163858D1*
G1X215514Y163861D1*
G1X215514Y163867D1*
G1X215514Y164286D1*
G1X215517Y164289D1*
G1X215520Y164292D1*
G1X215523Y164295D1*
G1X215523Y164299D1*
G1X215526Y164302D1*
G1X215529Y164302D1*
G1X215532Y164305D1*
G1X215532Y164308D1*
G1X215535Y164311D1*
G1X215538Y164311D1*
G1X215538Y164314D1*
G1X215541Y164314D1*
G1X215544Y164317D1*
G1X215544Y164320D1*
G1X215547Y164320D1*
G1X215547Y164323D1*
G1X215550Y164323D1*
G1X215553Y164326D1*
G1X215556Y164326D1*
G1X215556Y164329D1*
G1X215559Y164329D1*
G1X215562Y164332D1*
G1X215565Y164332D1*
G1X215568Y164335D1*
G1X215571Y164335D1*
G1X215574Y164338D1*
G1X215577Y164338D1*
G1X215580Y164341D1*
G1X215583Y164341D1*
G1X215587Y164341D1*
G1X215590Y164344D1*
G1X215593Y164344D1*
G1X215596Y164344D1*
G1X215599Y164344D1*
G1X215602Y164347D1*
G1X215605Y164347D1*
G1X215608Y164347D1*
G1X215611Y164347D1*
G1X215614Y164347D1*
G1X215617Y164347D1*
G1X215620Y164347D1*
G1X215623Y164347D1*
G1X215626Y164347D1*
G1X215629Y164347D1*
G1X215635Y164365D1*
G1X215468Y164365D1*
G37*
G36*
G1X214334Y164043D2*
G1X214337Y164031D1*
G1X214337Y164019D1*
G1X214340Y164007D1*
G1X214340Y163995D1*
G1X214343Y163982D1*
G1X214346Y163973D1*
G1X214349Y163961D1*
G1X214352Y163952D1*
G1X214359Y163940D1*
G1X214362Y163931D1*
G1X214368Y163919D1*
G1X214371Y163909D1*
G1X214395Y163873D1*
G1X214404Y163864D1*
G1X214410Y163855D1*
G1X214438Y163827D1*
G1X214447Y163821D1*
G1X214459Y163812D1*
G1X214468Y163806D1*
G1X214504Y163788D1*
G1X214520Y163785D1*
G1X214532Y163779D1*
G1X214544Y163776D1*
G1X214574Y163770D1*
G1X214590Y163767D1*
G1X214605Y163764D1*
G1X214620Y163764D1*
G1X214638Y163761D1*
G1X214942Y163761D1*
G1X214942Y163776D1*
G1X214906Y163776D1*
G1X214903Y163779D1*
G1X214893Y163779D1*
G1X214890Y163782D1*
G1X214884Y163782D1*
G1X214881Y163785D1*
G1X214878Y163785D1*
G1X214878Y163788D1*
G1X214875Y163791D1*
G1X214872Y163791D1*
G1X214872Y163794D1*
G1X214869Y163794D1*
G1X214869Y163797D1*
G1X214866Y163800D1*
G1X214866Y163803D1*
G1X214863Y163803D1*
G1X214863Y163809D1*
G1X214860Y163812D1*
G1X214860Y163827D1*
G1X214857Y163830D1*
G1X214857Y164063D1*
G1X214772Y164063D1*
G1X214772Y163803D1*
G1X214766Y163803D1*
G1X214760Y163800D1*
G1X214751Y163800D1*
G1X214745Y163797D1*
G1X214735Y163797D1*
G1X214729Y163794D1*
G1X214711Y163794D1*
G1X214705Y163791D1*
G1X214656Y163791D1*
G1X214647Y163794D1*
G1X214638Y163794D1*
G1X214629Y163797D1*
G1X214620Y163797D1*
G1X214593Y163806D1*
G1X214583Y163809D1*
G1X214574Y163812D1*
G1X214565Y163818D1*
G1X214556Y163821D1*
G1X214550Y163827D1*
G1X214526Y163843D1*
G1X214520Y163849D1*
G1X214510Y163858D1*
G1X214498Y163870D1*
G1X214486Y163888D1*
G1X214480Y163894D1*
G1X214474Y163903D1*
G1X214471Y163913D1*
G1X214465Y163922D1*
G1X214456Y163949D1*
G1X214450Y163961D1*
G1X214450Y163970D1*
G1X214447Y163982D1*
G1X214444Y163992D1*
G1X214441Y164004D1*
G1X214441Y164016D1*
G1X214438Y164028D1*
G1X214438Y164063D1*
G1X214334Y164063D1*
G1X214334Y164043D1*
G37*
G36*
G1X214334Y164063D2*
G1X214438Y164063D1*
G1X214438Y164101D1*
G1X214441Y164113D1*
G1X214441Y164122D1*
G1X214444Y164134D1*
G1X214447Y164147D1*
G1X214450Y164156D1*
G1X214450Y164165D1*
G1X214453Y164177D1*
G1X214459Y164186D1*
G1X214465Y164204D1*
G1X214471Y164213D1*
G1X214474Y164223D1*
G1X214480Y164232D1*
G1X214486Y164238D1*
G1X214498Y164256D1*
G1X214510Y164268D1*
G1X214520Y164277D1*
G1X214526Y164283D1*
G1X214535Y164289D1*
G1X214541Y164295D1*
G1X214550Y164299D1*
G1X214559Y164305D1*
G1X214565Y164308D1*
G1X214574Y164314D1*
G1X214583Y164317D1*
G1X214593Y164320D1*
G1X214629Y164332D1*
G1X214650Y164332D1*
G1X214659Y164335D1*
G1X214711Y164335D1*
G1X214714Y164332D1*
G1X214732Y164332D1*
G1X214738Y164329D1*
G1X214748Y164329D1*
G1X214751Y164326D1*
G1X214763Y164326D1*
G1X214766Y164323D1*
G1X214772Y164323D1*
G1X214772Y164063D1*
G1X214857Y164063D1*
G1X214857Y164295D1*
G1X214860Y164299D1*
G1X214860Y164314D1*
G1X214863Y164317D1*
G1X214863Y164323D1*
G1X214866Y164323D1*
G1X214866Y164329D1*
G1X214869Y164329D1*
G1X214869Y164332D1*
G1X214875Y164338D1*
G1X214878Y164338D1*
G1X214878Y164341D1*
G1X214884Y164341D1*
G1X214890Y164347D1*
G1X214903Y164347D1*
G1X214906Y164350D1*
G1X214942Y164350D1*
G1X214942Y164365D1*
G1X214644Y164365D1*
G1X214632Y164362D1*
G1X214611Y164362D1*
G1X214599Y164359D1*
G1X214577Y164359D1*
G1X214568Y164356D1*
G1X214556Y164353D1*
G1X214547Y164353D1*
G1X214529Y164347D1*
G1X214520Y164347D1*
G1X214514Y164344D1*
G1X214504Y164341D1*
G1X214495Y164338D1*
G1X214483Y164332D1*
G1X214474Y164329D1*
G1X214468Y164326D1*
G1X214462Y164320D1*
G1X214450Y164314D1*
G1X214444Y164308D1*
G1X214438Y164305D1*
G1X214431Y164299D1*
G1X214425Y164295D1*
G1X214419Y164289D1*
G1X214416Y164283D1*
G1X214404Y164271D1*
G1X214401Y164265D1*
G1X214389Y164253D1*
G1X214386Y164247D1*
G1X214380Y164238D1*
G1X214374Y164226D1*
G1X214368Y164216D1*
G1X214365Y164210D1*
G1X214362Y164201D1*
G1X214359Y164195D1*
G1X214355Y164186D1*
G1X214352Y164180D1*
G1X214349Y164171D1*
G1X214346Y164165D1*
G1X214343Y164156D1*
G1X214343Y164147D1*
G1X214340Y164140D1*
G1X214340Y164131D1*
G1X214337Y164122D1*
G1X214337Y164104D1*
G1X214334Y164095D1*
G1X214334Y164063D1*
G37*
G36*
G1X212432Y167491D2*
G1X212432Y167914D1*
G1X212414Y167914D1*
G1X212396Y167896D1*
G1X212381Y167878D1*
G1X212363Y167860D1*
G1X212349Y167842D1*
G1X212331Y167828D1*
G1X212316Y167813D1*
G1X212302Y167795D1*
G1X212287Y167781D1*
G1X212273Y167766D1*
G1X212258Y167755D1*
G1X212244Y167741D1*
G1X212229Y167730D1*
G1X212219Y167715D1*
G1X212204Y167705D1*
G1X212193Y167694D1*
G1X212179Y167686D1*
G1X212168Y167676D1*
G1X212157Y167668D1*
G1X212146Y167658D1*
G1X212135Y167650D1*
G1X212124Y167643D1*
G1X212114Y167636D1*
G1X212103Y167629D1*
G1X212092Y167621D1*
G1X212081Y167618D1*
G1X212070Y167611D1*
G1X212063Y167607D1*
G1X212052Y167603D1*
G1X212041Y167596D1*
G1X212030Y167592D1*
G1X212023Y167589D1*
G1X212012Y167585D1*
G1X212001Y167585D1*
G1X211991Y167582D1*
G1X211983Y167578D1*
G1X211972Y167578D1*
G1X211965Y167574D1*
G1X211954Y167574D1*
G1X211947Y167574D1*
G1X211936Y167574D1*
G1X211929Y167574D1*
G1X211922Y167574D1*
G1X211915Y167574D1*
G1X211911Y167574D1*
G1X211904Y167578D1*
G1X211896Y167578D1*
G1X211889Y167578D1*
G1X211886Y167582D1*
G1X211878Y167582D1*
G1X211875Y167585D1*
G1X211868Y167589D1*
G1X211860Y167589D1*
G1X211857Y167592D1*
G1X211849Y167596D1*
G1X211846Y167600D1*
G1X211839Y167603D1*
G1X211835Y167607D1*
G1X211831Y167611D1*
G1X211824Y167614D1*
G1X211820Y167618D1*
G1X211817Y167621D1*
G1X211813Y167625D1*
G1X211810Y167632D1*
G1X211806Y167636D1*
G1X211802Y167639D1*
G1X211799Y167647D1*
G1X211795Y167650D1*
G1X211792Y167654D1*
G1X211792Y167661D1*
G1X211788Y167665D1*
G1X211784Y167668D1*
G1X211784Y167676D1*
G1X211781Y167679D1*
G1X211781Y167686D1*
G1X211781Y167690D1*
G1X211777Y167697D1*
G1X211777Y167701D1*
G1X211777Y167708D1*
G1X211777Y167712D1*
G1X211777Y167719D1*
G1X211777Y167723D1*
G1X211777Y167730D1*
G1X211777Y167734D1*
G1X211777Y167741D1*
G1X211777Y167744D1*
G1X211781Y167752D1*
G1X211781Y167755D1*
G1X211781Y167762D1*
G1X211784Y167766D1*
G1X211784Y167770D1*
G1X211784Y167777D1*
G1X211788Y167781D1*
G1X211788Y167784D1*
G1X211792Y167791D1*
G1X211792Y167795D1*
G1X211795Y167799D1*
G1X211799Y167802D1*
G1X211799Y167810D1*
G1X211802Y167813D1*
G1X211806Y167817D1*
G1X211810Y167820D1*
G1X211813Y167824D1*
G1X211817Y167828D1*
G1X211820Y167835D1*
G1X211824Y167838D1*
G1X211828Y167842D1*
G1X211831Y167846D1*
G1X211835Y167846D1*
G1X211842Y167849D1*
G1X211846Y167853D1*
G1X211849Y167857D1*
G1X211853Y167860D1*
G1X211860Y167864D1*
G1X211864Y167864D1*
G1X211868Y167867D1*
G1X211875Y167871D1*
G1X211878Y167871D1*
G1X211886Y167875D1*
G1X211889Y167875D1*
G1X211896Y167878D1*
G1X211896Y167900D1*
G1X211886Y167900D1*
G1X211878Y167896D1*
G1X211868Y167896D1*
G1X211860Y167893D1*
G1X211849Y167889D1*
G1X211842Y167889D1*
G1X211835Y167886D1*
G1X211824Y167882D1*
G1X211817Y167878D1*
G1X211810Y167875D1*
G1X211802Y167871D1*
G1X211795Y167867D1*
G1X211788Y167864D1*
G1X211784Y167860D1*
G1X211777Y167857D1*
G1X211770Y167853D1*
G1X211763Y167846D1*
G1X211759Y167842D1*
G1X211752Y167835D1*
G1X211748Y167831D1*
G1X211744Y167824D1*
G1X211737Y167820D1*
G1X211734Y167813D1*
G1X211730Y167806D1*
G1X211726Y167802D1*
G1X211723Y167795D1*
G1X211719Y167788D1*
G1X211716Y167781D1*
G1X211712Y167773D1*
G1X211708Y167766D1*
G1X211708Y167759D1*
G1X211705Y167752D1*
G1X211705Y167744D1*
G1X211701Y167737D1*
G1X211701Y167730D1*
G1X211701Y167723D1*
G1X211697Y167715D1*
G1X211697Y167708D1*
G1X211697Y167697D1*
G1X211697Y167690D1*
G1X211697Y167683D1*
G1X211697Y167672D1*
G1X211697Y167665D1*
G1X211701Y167658D1*
G1X211701Y167647D1*
G1X211701Y167639D1*
G1X211705Y167632D1*
G1X211708Y167625D1*
G1X211708Y167618D1*
G1X211712Y167611D1*
G1X211716Y167603D1*
G1X211719Y167596D1*
G1X211723Y167589D1*
G1X211726Y167582D1*
G1X211730Y167574D1*
G1X211734Y167567D1*
G1X211741Y167560D1*
G1X211744Y167553D1*
G1X211748Y167549D1*
G1X211755Y167542D1*
G1X211763Y167535D1*
G1X211766Y167531D1*
G1X211773Y167527D1*
G1X211777Y167520D1*
G1X211784Y167516D1*
G1X211792Y167513D1*
G1X211795Y167509D1*
G1X211802Y167506D1*
G1X211810Y167502D1*
G1X211813Y167498D1*
G1X211820Y167495D1*
G1X211828Y167495D1*
G1X211835Y167491D1*
G1X211842Y167487D1*
G1X211849Y167487D1*
G1X211857Y167487D1*
G1X211864Y167484D1*
G1X211871Y167484D1*
G1X211878Y167484D1*
G1X211886Y167484D1*
G1X211893Y167484D1*
G1X211896Y167484D1*
G1X211904Y167484D1*
G1X211907Y167484D1*
G1X211915Y167484D1*
G1X211918Y167487D1*
G1X211925Y167487D1*
G1X211929Y167487D1*
G1X211936Y167487D1*
G1X211940Y167491D1*
G1X211947Y167491D1*
G1X211951Y167495D1*
G1X211958Y167495D1*
G1X211962Y167495D1*
G1X211969Y167498D1*
G1X211976Y167498D1*
G1X211980Y167502D1*
G1X211987Y167506D1*
G1X211991Y167506D1*
G1X211998Y167509D1*
G1X212005Y167513D1*
G1X212016Y167516D1*
G1X212023Y167524D1*
G1X212030Y167527D1*
G1X212041Y167531D1*
G1X212048Y167538D1*
G1X212059Y167542D1*
G1X212067Y167549D1*
G1X212077Y167556D1*
G1X212085Y167560D1*
G1X212095Y167567D1*
G1X212103Y167574D1*
G1X212114Y167582D1*
G1X212121Y167589D1*
G1X212132Y167596D1*
G1X212139Y167603D1*
G1X212150Y167611D1*
G1X212161Y167618D1*
G1X212168Y167629D1*
G1X212179Y167636D1*
G1X212193Y167650D1*
G1X212204Y167661D1*
G1X212219Y167672D1*
G1X212229Y167686D1*
G1X212244Y167697D1*
G1X212255Y167708D1*
G1X212266Y167719D1*
G1X212273Y167726D1*
G1X212284Y167737D1*
G1X212291Y167744D1*
G1X212302Y167755D1*
G1X212309Y167762D1*
G1X212316Y167770D1*
G1X212323Y167777D1*
G1X212331Y167781D1*
G1X212334Y167788D1*
G1X212342Y167791D1*
G1X212345Y167799D1*
G1X212349Y167802D1*
G1X212352Y167806D1*
G1X212352Y167618D1*
G1X212352Y167611D1*
G1X212352Y167607D1*
G1X212352Y167600D1*
G1X212352Y167596D1*
G1X212352Y167592D1*
G1X212352Y167585D1*
G1X212352Y167582D1*
G1X212352Y167578D1*
G1X212352Y167574D1*
G1X212352Y167567D1*
G1X212352Y167563D1*
G1X212352Y167560D1*
G1X212352Y167556D1*
G1X212352Y167553D1*
G1X212349Y167553D1*
G1X212349Y167549D1*
G1X212349Y167545D1*
G1X212349Y167542D1*
G1X212349Y167538D1*
G1X212349Y167535D1*
G1X212349Y167531D1*
G1X212345Y167527D1*
G1X212345Y167524D1*
G1X212345Y167520D1*
G1X212342Y167516D1*
G1X212342Y167513D1*
G1X212342Y167509D1*
G1X212338Y167509D1*
G1X212338Y167506D1*
G1X212334Y167502D1*
G1X212334Y167498D1*
G1X212331Y167498D1*
G1X212331Y167495D1*
G1X212327Y167491D1*
G1X212323Y167487D1*
G1X212320Y167484D1*
G1X212316Y167480D1*
G1X212313Y167477D1*
G1X212309Y167473D1*
G1X212305Y167469D1*
G1X212302Y167469D1*
G1X212302Y167466D1*
G1X212298Y167466D1*
G1X212298Y167462D1*
G1X212295Y167462D1*
G1X212295Y167440D1*
G1X212432Y167491D1*
G37*
G36*
G1X211697Y167042D2*
G1X211697Y166984D1*
G1X212164Y166984D1*
G1X212164Y166887D1*
G1X212240Y166887D1*
G1X212240Y166984D1*
G1X212432Y166984D1*
G1X212432Y167071D1*
G1X212240Y167071D1*
G1X212240Y167198D1*
G1X212164Y167198D1*
G1X212164Y167071D1*
G1X211806Y167071D1*
G1X211985Y167198D1*
G1X211919Y167198D1*
G1X211697Y167042D1*
G37*
G36*
G1X211919Y167198D2*
G1X211985Y167198D1*
G1X212164Y167325D1*
G1X212164Y167198D1*
G1X212240Y167198D1*
G1X212240Y167375D1*
G1X212171Y167375D1*
G1X211919Y167198D1*
G37*
G36*
G1X211730Y166076D2*
G1X211730Y166080D1*
G1X211730Y166083D1*
G1X211734Y166087D1*
G1X211734Y166091D1*
G1X211734Y166094D1*
G1X211734Y166098D1*
G1X211737Y166102D1*
G1X211737Y166105D1*
G1X211741Y166109D1*
G1X211741Y166112D1*
G1X211741Y166116D1*
G1X211744Y166116D1*
G1X211744Y166120D1*
G1X211748Y166123D1*
G1X211752Y166127D1*
G1X211752Y166131D1*
G1X211755Y166131D1*
G1X211755Y166134D1*
G1X211759Y166138D1*
G1X211763Y166141D1*
G1X211766Y166141D1*
G1X211766Y166145D1*
G1X211770Y166149D1*
G1X211773Y166152D1*
G1X211777Y166152D1*
G1X211784Y166156D1*
G1X211788Y166159D1*
G1X211792Y166159D1*
G1X211795Y166163D1*
G1X211799Y166167D1*
G1X211802Y166170D1*
G1X211810Y166170D1*
G1X211813Y166174D1*
G1X211817Y166178D1*
G1X211824Y166178D1*
G1X211828Y166181D1*
G1X211835Y166181D1*
G1X211839Y166185D1*
G1X212446Y166431D1*
G1X212446Y166456D1*
G1X211828Y166724D1*
G1X211824Y166728D1*
G1X211817Y166728D1*
G1X211813Y166731D1*
G1X211810Y166731D1*
G1X211806Y166735D1*
G1X211802Y166735D1*
G1X211799Y166738D1*
G1X211795Y166738D1*
G1X211792Y166742D1*
G1X211788Y166742D1*
G1X211784Y166742D1*
G1X211784Y166746D1*
G1X211781Y166746D1*
G1X211777Y166746D1*
G1X211777Y166749D1*
G1X211773Y166749D1*
G1X211773Y166753D1*
G1X211770Y166753D1*
G1X211766Y166757D1*
G1X211763Y166760D1*
G1X211759Y166760D1*
G1X211759Y166764D1*
G1X211755Y166764D1*
G1X211755Y166767D1*
G1X211752Y166767D1*
G1X211752Y166771D1*
G1X211748Y166775D1*
G1X211748Y166778D1*
G1X211744Y166778D1*
G1X211744Y166782D1*
G1X211741Y166785D1*
G1X211741Y166789D1*
G1X211737Y166793D1*
G1X211737Y166796D1*
G1X211737Y166800D1*
G1X211737Y166804D1*
G1X211734Y166804D1*
G1X211734Y166807D1*
G1X211734Y166811D1*
G1X211734Y166814D1*
G1X211734Y166818D1*
G1X211734Y166822D1*
G1X211730Y166825D1*
G1X211730Y166829D1*
G1X211730Y166833D1*
G1X211730Y166836D1*
G1X211712Y166836D1*
G1X211712Y166543D1*
G1X211730Y166543D1*
G1X211730Y166547D1*
G1X211730Y166554D1*
G1X211730Y166557D1*
G1X211734Y166561D1*
G1X211734Y166565D1*
G1X211734Y166568D1*
G1X211734Y166576D1*
G1X211734Y166579D1*
G1X211737Y166583D1*
G1X211737Y166586D1*
G1X211737Y166590D1*
G1X211741Y166594D1*
G1X211741Y166597D1*
G1X211744Y166601D1*
G1X211744Y166605D1*
G1X211748Y166608D1*
G1X211752Y166612D1*
G1X211755Y166615D1*
G1X211759Y166619D1*
G1X211763Y166619D1*
G1X211766Y166623D1*
G1X211770Y166623D1*
G1X211773Y166623D1*
G1X211777Y166623D1*
G1X211781Y166623D1*
G1X211784Y166623D1*
G1X211788Y166623D1*
G1X211792Y166623D1*
G1X211795Y166619D1*
G1X211799Y166619D1*
G1X211806Y166619D1*
G1X211810Y166619D1*
G1X211813Y166615D1*
G1X211817Y166615D1*
G1X211820Y166612D1*
G1X211824Y166612D1*
G1X211831Y166612D1*
G1X211835Y166608D1*
G1X211839Y166608D1*
G1X211846Y166605D1*
G1X211849Y166601D1*
G1X211857Y166601D1*
G1X211860Y166597D1*
G1X212284Y166413D1*
G1X211868Y166246D1*
G1X211860Y166243D1*
G1X211857Y166243D1*
G1X211849Y166239D1*
G1X211846Y166235D1*
G1X211839Y166235D1*
G1X211835Y166232D1*
G1X211828Y166232D1*
G1X211824Y166232D1*
G1X211820Y166228D1*
G1X211817Y166228D1*
G1X211810Y166225D1*
G1X211806Y166225D1*
G1X211802Y166225D1*
G1X211799Y166225D1*
G1X211795Y166221D1*
G1X211792Y166221D1*
G1X211788Y166221D1*
G1X211784Y166221D1*
G1X211781Y166221D1*
G1X211777Y166221D1*
G1X211773Y166221D1*
G1X211770Y166221D1*
G1X211770Y166225D1*
G1X211766Y166225D1*
G1X211763Y166225D1*
G1X211763Y166228D1*
G1X211759Y166228D1*
G1X211759Y166232D1*
G1X211755Y166232D1*
G1X211752Y166235D1*
G1X211752Y166239D1*
G1X211748Y166239D1*
G1X211748Y166243D1*
G1X211744Y166243D1*
G1X211744Y166246D1*
G1X211741Y166250D1*
G1X211741Y166254D1*
G1X211741Y166257D1*
G1X211737Y166257D1*
G1X211737Y166261D1*
G1X211737Y166264D1*
G1X211737Y166268D1*
G1X211734Y166268D1*
G1X211734Y166272D1*
G1X211734Y166275D1*
G1X211734Y166279D1*
G1X211730Y166282D1*
G1X211730Y166286D1*
G1X211730Y166290D1*
G1X211730Y166293D1*
G1X211730Y166297D1*
G1X211712Y166297D1*
G1X211712Y166076D1*
G1X211730Y166076D1*
G37*
G36*
G1X211712Y165689D2*
G1X211716Y165675D1*
G1X211716Y165649D1*
G1X211718Y165642D1*
G1X211762Y165642D1*
G1X211755Y165660D1*
G1X211752Y165671D1*
G1X211752Y165696D1*
G1X211748Y165707D1*
G1X211748Y165769D1*
G1X211752Y165772D1*
G1X211752Y165794D1*
G1X211755Y165801D1*
G1X211755Y165812D1*
G1X211759Y165816D1*
G1X211759Y165830D1*
G1X211763Y165834D1*
G1X211763Y165841D1*
G1X212381Y165841D1*
G1X212381Y165834D1*
G1X212385Y165827D1*
G1X212385Y165816D1*
G1X212389Y165808D1*
G1X212389Y165798D1*
G1X212392Y165790D1*
G1X212392Y165769D1*
G1X212396Y165761D1*
G1X212396Y165704D1*
G1X212392Y165693D1*
G1X212392Y165682D1*
G1X212389Y165671D1*
G1X212389Y165660D1*
G1X212382Y165642D1*
G1X212428Y165642D1*
G1X212428Y165660D1*
G1X212432Y165682D1*
G1X212432Y166044D1*
G1X212414Y166044D1*
G1X212414Y166000D1*
G1X212410Y165997D1*
G1X212410Y165986D1*
G1X212407Y165982D1*
G1X212407Y165975D1*
G1X212403Y165971D1*
G1X212403Y165968D1*
G1X212399Y165968D1*
G1X212396Y165964D1*
G1X212396Y165960D1*
G1X212392Y165960D1*
G1X212392Y165957D1*
G1X212389Y165957D1*
G1X212385Y165953D1*
G1X212381Y165953D1*
G1X212381Y165950D1*
G1X212374Y165950D1*
G1X212370Y165946D1*
G1X212352Y165946D1*
G1X212349Y165942D1*
G1X211795Y165942D1*
G1X211792Y165946D1*
G1X211773Y165946D1*
G1X211770Y165950D1*
G1X211763Y165950D1*
G1X211763Y165953D1*
G1X211755Y165953D1*
G1X211755Y165957D1*
G1X211752Y165957D1*
G1X211748Y165960D1*
G1X211744Y165964D1*
G1X211744Y165968D1*
G1X211741Y165968D1*
G1X211741Y165975D1*
G1X211734Y165982D1*
G1X211734Y165997D1*
G1X211730Y166000D1*
G1X211730Y166044D1*
G1X211712Y166044D1*
G1X211712Y165689D1*
G37*
G36*
G1X211718Y165642D2*
G1X211719Y165635D1*
G1X211719Y165609D1*
G1X211723Y165599D1*
G1X211726Y165584D1*
G1X211726Y165573D1*
G1X211730Y165562D1*
G1X211734Y165552D1*
G1X211734Y165541D1*
G1X211737Y165533D1*
G1X211741Y165523D1*
G1X211744Y165512D1*
G1X211748Y165504D1*
G1X211752Y165497D1*
G1X211755Y165486D1*
G1X211759Y165479D1*
G1X211766Y165472D1*
G1X211770Y165465D1*
G1X211773Y165457D1*
G1X211781Y165450D1*
G1X211784Y165443D1*
G1X211792Y165436D1*
G1X211795Y165429D1*
G1X211802Y165421D1*
G1X211810Y165418D1*
G1X211817Y165410D1*
G1X211824Y165403D1*
G1X211831Y165400D1*
G1X211846Y165385D1*
G1X211853Y165381D1*
G1X211864Y165374D1*
G1X211871Y165371D1*
G1X211878Y165367D1*
G1X211889Y165360D1*
G1X211896Y165356D1*
G1X211907Y165353D1*
G1X211915Y165349D1*
G1X211925Y165345D1*
G1X211933Y165342D1*
G1X211944Y165338D1*
G1X211951Y165334D1*
G1X211962Y165331D1*
G1X211972Y165331D1*
G1X211980Y165327D1*
G1X211991Y165327D1*
G1X212001Y165324D1*
G1X212023Y165324D1*
G1X212034Y165320D1*
G1X212095Y165320D1*
G1X212110Y165324D1*
G1X212124Y165324D1*
G1X212139Y165327D1*
G1X212153Y165327D1*
G1X212179Y165334D1*
G1X212193Y165338D1*
G1X212204Y165342D1*
G1X212219Y165349D1*
G1X212229Y165353D1*
G1X212244Y165360D1*
G1X212255Y165363D1*
G1X212266Y165371D1*
G1X212276Y165378D1*
G1X212298Y165392D1*
G1X212309Y165403D1*
G1X212320Y165410D1*
G1X212342Y165432D1*
G1X212352Y165443D1*
G1X212360Y165454D1*
G1X212370Y165468D1*
G1X212378Y165479D1*
G1X212385Y165494D1*
G1X212392Y165508D1*
G1X212399Y165523D1*
G1X212403Y165541D1*
G1X212410Y165555D1*
G1X212414Y165570D1*
G1X212418Y165588D1*
G1X212421Y165606D1*
G1X212425Y165624D1*
G1X212428Y165642D1*
G1X212382Y165642D1*
G1X212381Y165638D1*
G1X212378Y165628D1*
G1X212370Y165606D1*
G1X212363Y165595D1*
G1X212360Y165584D1*
G1X212352Y165577D1*
G1X212345Y165566D1*
G1X212342Y165559D1*
G1X212334Y165548D1*
G1X212309Y165523D1*
G1X212302Y165515D1*
G1X212280Y165501D1*
G1X212273Y165494D1*
G1X212262Y165486D1*
G1X212251Y165483D1*
G1X212240Y165476D1*
G1X212229Y165472D1*
G1X212219Y165468D1*
G1X212208Y165465D1*
G1X212193Y165457D1*
G1X212182Y165457D1*
G1X212168Y165454D1*
G1X212157Y165450D1*
G1X212143Y165447D1*
G1X212128Y165447D1*
G1X212114Y165443D1*
G1X212027Y165443D1*
G1X212012Y165447D1*
G1X212001Y165447D1*
G1X211987Y165450D1*
G1X211972Y165454D1*
G1X211962Y165457D1*
G1X211951Y165457D1*
G1X211936Y165461D1*
G1X211925Y165468D1*
G1X211915Y165472D1*
G1X211904Y165476D1*
G1X211893Y165483D1*
G1X211882Y165486D1*
G1X211871Y165494D1*
G1X211864Y165501D1*
G1X211842Y165515D1*
G1X211835Y165523D1*
G1X211810Y165548D1*
G1X211802Y165559D1*
G1X211795Y165566D1*
G1X211792Y165577D1*
G1X211784Y165588D1*
G1X211781Y165595D1*
G1X211773Y165606D1*
G1X211770Y165617D1*
G1X211766Y165628D1*
G1X211763Y165638D1*
G1X211762Y165642D1*
G1X211718Y165642D1*
G37*
G36*
G1X211944Y164611D2*
G1X211944Y164629D1*
G1X211933Y164632D1*
G1X211922Y164636D1*
G1X211911Y164640D1*
G1X211900Y164643D1*
G1X211893Y164647D1*
G1X211882Y164651D1*
G1X211875Y164654D1*
G1X211864Y164658D1*
G1X211857Y164665D1*
G1X211849Y164669D1*
G1X211839Y164672D1*
G1X211831Y164679D1*
G1X211824Y164683D1*
G1X211817Y164690D1*
G1X211813Y164694D1*
G1X211806Y164701D1*
G1X211799Y164705D1*
G1X211795Y164712D1*
G1X211788Y164716D1*
G1X211784Y164723D1*
G1X211781Y164730D1*
G1X211773Y164734D1*
G1X211770Y164741D1*
G1X211766Y164748D1*
G1X211763Y164752D1*
G1X211759Y164759D1*
G1X211755Y164766D1*
G1X211752Y164774D1*
G1X211748Y164781D1*
G1X211744Y164788D1*
G1X211744Y164795D1*
G1X211741Y164802D1*
G1X211741Y164810D1*
G1X211737Y164817D1*
G1X211737Y164824D1*
G1X211737Y164835D1*
G1X211734Y164842D1*
G1X211734Y164850D1*
G1X211734Y164860D1*
G1X211734Y164868D1*
G1X211734Y164875D1*
G1X211734Y164882D1*
G1X211734Y164889D1*
G1X211734Y164893D1*
G1X211737Y164900D1*
G1X211737Y164907D1*
G1X211737Y164915D1*
G1X211741Y164922D1*
G1X211741Y164926D1*
G1X211741Y164933D1*
G1X211744Y164940D1*
G1X211748Y164947D1*
G1X211748Y164951D1*
G1X211752Y164958D1*
G1X211755Y164965D1*
G1X211755Y164969D1*
G1X211759Y164976D1*
G1X211763Y164983D1*
G1X211766Y164987D1*
G1X211770Y164994D1*
G1X211773Y165002D1*
G1X211777Y165005D1*
G1X211781Y165012D1*
G1X211784Y165016D1*
G1X211792Y165023D1*
G1X211795Y165027D1*
G1X211799Y165030D1*
G1X211806Y165038D1*
G1X211810Y165041D1*
G1X211817Y165045D1*
G1X211824Y165049D1*
G1X211828Y165056D1*
G1X211835Y165059D1*
G1X211842Y165063D1*
G1X211849Y165067D1*
G1X211857Y165070D1*
G1X211864Y165074D1*
G1X211871Y165077D1*
G1X211878Y165081D1*
G1X211886Y165085D1*
G1X211893Y165088D1*
G1X211904Y165092D1*
G1X211911Y165092D1*
G1X211918Y165096D1*
G1X211929Y165099D1*
G1X211936Y165103D1*
G1X211947Y165103D1*
G1X211954Y165106D1*
G1X211965Y165106D1*
G1X211976Y165110D1*
G1X211987Y165110D1*
G1X211994Y165114D1*
G1X212005Y165114D1*
G1X212016Y165114D1*
G1X212027Y165114D1*
G1X212038Y165117D1*
G1X212048Y165117D1*
G1X212063Y165117D1*
G1X212074Y165117D1*
G1X212085Y165117D1*
G1X212095Y165117D1*
G1X212103Y165117D1*
G1X212114Y165117D1*
G1X212121Y165117D1*
G1X212132Y165114D1*
G1X212139Y165114D1*
G1X212146Y165114D1*
G1X212157Y165114D1*
G1X212164Y165110D1*
G1X212175Y165110D1*
G1X212182Y165106D1*
G1X212190Y165106D1*
G1X212197Y165103D1*
G1X212204Y165103D1*
G1X212215Y165099D1*
G1X212222Y165096D1*
G1X212229Y165092D1*
G1X212237Y165092D1*
G1X212244Y165088D1*
G1X212251Y165085D1*
G1X212258Y165081D1*
G1X212266Y165077D1*
G1X212273Y165074D1*
G1X212280Y165070D1*
G1X212284Y165067D1*
G1X212291Y165063D1*
G1X212298Y165059D1*
G1X212302Y165056D1*
G1X212309Y165052D1*
G1X212313Y165045D1*
G1X212320Y165041D1*
G1X212323Y165038D1*
G1X212331Y165030D1*
G1X212334Y165027D1*
G1X212338Y165020D1*
G1X212345Y165016D1*
G1X212349Y165009D1*
G1X212352Y165002D1*
G1X212356Y164998D1*
G1X212360Y164991D1*
G1X212363Y164983D1*
G1X212367Y164980D1*
G1X212370Y164973D1*
G1X212374Y164965D1*
G1X212378Y164958D1*
G1X212381Y164951D1*
G1X212381Y164944D1*
G1X212385Y164940D1*
G1X212389Y164933D1*
G1X212389Y164926D1*
G1X212392Y164918D1*
G1X212392Y164911D1*
G1X212396Y164904D1*
G1X212396Y164897D1*
G1X212396Y164889D1*
G1X212399Y164882D1*
G1X212399Y164871D1*
G1X212399Y164864D1*
G1X212399Y164857D1*
G1X212399Y164850D1*
G1X212399Y164842D1*
G1X212399Y164835D1*
G1X212399Y164828D1*
G1X212399Y164824D1*
G1X212396Y164817D1*
G1X212396Y164810D1*
G1X212396Y164802D1*
G1X212396Y164795D1*
G1X212392Y164792D1*
G1X212392Y164784D1*
G1X212392Y164777D1*
G1X212389Y164774D1*
G1X212389Y164766D1*
G1X212385Y164759D1*
G1X212381Y164755D1*
G1X212381Y164748D1*
G1X212378Y164745D1*
G1X212378Y164737D1*
G1X212374Y164734D1*
G1X212370Y164726D1*
G1X212367Y164719D1*
G1X212363Y164716D1*
G1X212360Y164708D1*
G1X212356Y164705D1*
G1X212352Y164698D1*
G1X212349Y164694D1*
G1X212342Y164687D1*
G1X212338Y164683D1*
G1X212331Y164676D1*
G1X212327Y164672D1*
G1X212320Y164665D1*
G1X212313Y164658D1*
G1X212305Y164654D1*
G1X212298Y164647D1*
G1X212291Y164640D1*
G1X212284Y164636D1*
G1X212276Y164629D1*
G1X212269Y164622D1*
G1X212258Y164618D1*
G1X212251Y164611D1*
G1X212258Y164593D1*
G1X212269Y164600D1*
G1X212276Y164603D1*
G1X212287Y164611D1*
G1X212295Y164614D1*
G1X212305Y164622D1*
G1X212313Y164625D1*
G1X212320Y164632D1*
G1X212327Y164640D1*
G1X212334Y164647D1*
G1X212342Y164651D1*
G1X212349Y164658D1*
G1X212356Y164665D1*
G1X212363Y164672D1*
G1X212367Y164676D1*
G1X212374Y164683D1*
G1X212381Y164690D1*
G1X212385Y164698D1*
G1X212389Y164705D1*
G1X212396Y164712D1*
G1X212399Y164719D1*
G1X212403Y164726D1*
G1X212407Y164734D1*
G1X212414Y164741D1*
G1X212418Y164748D1*
G1X212421Y164755D1*
G1X212425Y164766D1*
G1X212428Y164774D1*
G1X212428Y164781D1*
G1X212432Y164788D1*
G1X212432Y164799D1*
G1X212432Y164806D1*
G1X212436Y164817D1*
G1X212436Y164824D1*
G1X212439Y164831D1*
G1X212439Y164842D1*
G1X212439Y164850D1*
G1X212443Y164860D1*
G1X212443Y164871D1*
G1X212443Y164878D1*
G1X212443Y164889D1*
G1X212443Y164907D1*
G1X212443Y164926D1*
G1X212439Y164940D1*
G1X212439Y164958D1*
G1X212436Y164976D1*
G1X212432Y164991D1*
G1X212428Y165005D1*
G1X212425Y165020D1*
G1X212421Y165034D1*
G1X212414Y165049D1*
G1X212407Y165063D1*
G1X212399Y165077D1*
G1X212389Y165088D1*
G1X212381Y165103D1*
G1X212370Y165114D1*
G1X212360Y165125D1*
G1X212349Y165135D1*
G1X212338Y165146D1*
G1X212327Y165157D1*
G1X212313Y165168D1*
G1X212302Y165175D1*
G1X212295Y165182D1*
G1X212284Y165190D1*
G1X212273Y165193D1*
G1X212262Y165201D1*
G1X212251Y165204D1*
G1X212240Y165211D1*
G1X212229Y165215D1*
G1X212219Y165219D1*
G1X212208Y165222D1*
G1X212197Y165226D1*
G1X212182Y165229D1*
G1X212171Y165233D1*
G1X212161Y165233D1*
G1X212146Y165237D1*
G1X212135Y165237D1*
G1X212124Y165240D1*
G1X212110Y165240D1*
G1X212099Y165240D1*
G1X212085Y165240D1*
G1X212074Y165240D1*
G1X212063Y165240D1*
G1X212052Y165240D1*
G1X212041Y165237D1*
G1X212030Y165237D1*
G1X212019Y165237D1*
G1X212012Y165233D1*
G1X212001Y165233D1*
G1X211991Y165229D1*
G1X211980Y165229D1*
G1X211972Y165226D1*
G1X211962Y165222D1*
G1X211951Y165222D1*
G1X211940Y165219D1*
G1X211933Y165215D1*
G1X211922Y165211D1*
G1X211915Y165208D1*
G1X211904Y165201D1*
G1X211896Y165197D1*
G1X211886Y165193D1*
G1X211878Y165190D1*
G1X211868Y165182D1*
G1X211860Y165179D1*
G1X211849Y165172D1*
G1X211842Y165164D1*
G1X211835Y165161D1*
G1X211828Y165153D1*
G1X211820Y165146D1*
G1X211813Y165143D1*
G1X211806Y165135D1*
G1X211799Y165128D1*
G1X211792Y165121D1*
G1X211788Y165114D1*
G1X211781Y165106D1*
G1X211773Y165099D1*
G1X211770Y165092D1*
G1X211763Y165085D1*
G1X211759Y165077D1*
G1X211752Y165067D1*
G1X211748Y165059D1*
G1X211744Y165052D1*
G1X211737Y165041D1*
G1X211734Y165034D1*
G1X211730Y165027D1*
G1X211726Y165016D1*
G1X211723Y165009D1*
G1X211719Y164998D1*
G1X211716Y164991D1*
G1X211712Y164980D1*
G1X211708Y164973D1*
G1X211708Y164962D1*
G1X211705Y164954D1*
G1X211705Y164944D1*
G1X211701Y164933D1*
G1X211701Y164926D1*
G1X211701Y164915D1*
G1X211697Y164904D1*
G1X211697Y164897D1*
G1X211697Y164886D1*
G1X211697Y164875D1*
G1X211697Y164868D1*
G1X211697Y164860D1*
G1X211697Y164853D1*
G1X211697Y164846D1*
G1X211701Y164835D1*
G1X211701Y164828D1*
G1X211701Y164821D1*
G1X211705Y164813D1*
G1X211705Y164806D1*
G1X211708Y164799D1*
G1X211708Y164792D1*
G1X211712Y164784D1*
G1X211716Y164777D1*
G1X211716Y164770D1*
G1X211719Y164759D1*
G1X211723Y164752D1*
G1X211726Y164745D1*
G1X211730Y164737D1*
G1X211734Y164730D1*
G1X211737Y164723D1*
G1X211737Y164719D1*
G1X211741Y164719D1*
G1X211741Y164716D1*
G1X211741Y164712D1*
G1X211744Y164712D1*
G1X211744Y164708D1*
G1X211744Y164705D1*
G1X211744Y164701D1*
G1X211748Y164701D1*
G1X211748Y164698D1*
G1X211748Y164694D1*
G1X211748Y164690D1*
G1X211748Y164687D1*
G1X211748Y164683D1*
G1X211748Y164679D1*
G1X211744Y164679D1*
G1X211744Y164676D1*
G1X211744Y164672D1*
G1X211741Y164672D1*
G1X211741Y164669D1*
G1X211737Y164665D1*
G1X211734Y164661D1*
G1X211730Y164661D1*
G1X211726Y164658D1*
G1X211723Y164658D1*
G1X211719Y164654D1*
G1X211716Y164654D1*
G1X211712Y164651D1*
G1X211708Y164651D1*
G1X211705Y164651D1*
G1X211701Y164647D1*
G1X211697Y164647D1*
G1X211697Y164629D1*
G1X211944Y164611D1*
G37*
M2*
