%
T1C.01181F095S3
X019902Y005709
X018996Y006161
X020906Y006516
X022717Y006516
X02372Y006161
X024016Y005709
T2C.01575F095S3
X015039Y005177
X017618Y006181
X018858Y014606
X019252Y014606
X020886Y014606
X02128Y014606
X018858Y014173
X019252Y014173
X020886Y014173
X02128Y014173
X018228Y006181
X021732Y005177
X022362Y005177
X018248Y004764
X019311Y004764
X019075Y00372
X023346Y003209
X023346Y005197
X024291Y014291
T3C.02362F197S55
X000709Y000709
X001299Y000709
X00248Y000709
X00189Y000709
X003071Y000709
X003071Y001299
X000709Y001299
X000709Y00189
X000709Y00248
X000709Y003071
X001299Y003071
X003071Y003071
X000709Y003661
X00189Y003661
X00248Y003661
X001299Y003661
X003071Y003661
X000709Y004252
X001299Y004252
X00189Y004252
X00248Y004252
X003071Y004252
X001299Y004843
X000709Y004843
X00189Y004843
X00248Y004843
X003071Y004843
X001299Y005433
X000709Y005433
X00189Y005433
X003071Y005433
X00248Y005433
X00248Y006024
X003071Y006024
X000709Y006024
X00189Y006024
X001299Y006024
X000709Y006614
X001299Y006614
X00248Y006614
X00189Y006614
X003071Y006614
X000709Y007205
X001299Y007205
X00248Y007205
X00189Y007205
X003071Y007205
X00189Y007795
X000709Y007795
X00248Y007795
X003071Y007795
X001299Y007795
X000709Y008386
X00189Y008386
X001299Y008386
X00248Y008386
X003071Y008386
X000709Y008976
X00189Y008976
X00248Y008976
X003071Y008976
X001299Y008976
X00248Y009567
X00189Y009567
X003071Y009567
X000709Y009567
X001299Y009567
X000709Y010157
X001299Y010157
X00189Y010157
X00248Y010157
X003071Y010157
X000709Y010748
X00189Y010748
X001299Y010748
X00248Y010748
X003071Y010748
X00248Y011339
X001299Y011339
X00189Y011339
X003071Y011339
X000709Y011339
X00248Y011929
X000709Y011929
X003071Y011929
X001299Y011929
X00189Y011929
X000709Y01252
X001299Y01252
X00248Y01252
X00189Y01252
X003071Y01252
X00189Y01311
X00248Y01311
X000709Y01311
X001299Y01311
X003071Y01311
X001299Y013701
X00189Y013701
X000709Y013701
X003071Y013701
X00248Y013701
X000709Y014291
X00189Y014291
X001299Y014291
X00248Y014291
X003071Y014291
X00189Y014882
X001299Y014882
X00248Y014882
X000709Y014882
X003071Y014882
X00248Y015472
X001299Y015472
X000709Y015472
X003071Y015472
X00189Y015472
X001299Y016063
X000709Y016063
X00189Y016063
X003071Y016063
X00248Y016063
X000709Y016654
X00248Y016654
X001299Y016654
X00189Y016654
X003071Y016654
X000709Y017244
X001299Y017244
X00189Y017244
X003071Y017244
X00248Y017244
X001299Y017835
X000709Y017835
X00248Y017835
X003071Y017835
X00189Y017835
X000709Y018425
X00248Y018425
X001299Y018425
X00189Y018425
X003071Y018425
X000709Y019016
X001299Y019016
X00189Y019016
X003071Y019016
X00248Y019016
X00189Y019606
X001299Y019606
X003071Y019606
X000709Y019606
X00248Y019606
X000709Y020197
X00248Y020197
X001299Y020197
X00189Y020197
X003071Y020197
X001299Y020787
X000709Y020787
X00189Y020787
X00248Y020787
X003071Y020787
X00248Y021378
X00189Y021378
X000709Y021378
X001299Y021378
X003071Y021378
X00248Y021969
X00189Y021969
X003071Y021969
X001299Y021969
X000709Y021969
X000709Y022559
X00189Y022559
X00248Y022559
X001299Y022559
X003071Y022559
X00189Y02315
X00248Y02315
X000709Y02315
X001299Y02315
X003071Y02315
X000709Y02374
X00248Y02374
X00189Y02374
X003071Y02374
X001299Y02374
X000709Y024331
X00248Y024331
X001299Y024331
X00189Y024331
X003071Y024331
X00248Y024921
X000709Y024921
X001299Y024921
X00189Y024921
X003071Y024921
X00189Y025512
X001299Y025512
X000709Y025512
X003071Y025512
X00248Y025512
X00189Y026102
X00248Y026102
X003071Y026102
X000709Y026102
X001299Y026102
X000709Y026693
X001299Y026693
X00189Y026693
X00248Y026693
X003071Y026693
X00189Y027283
X000709Y027283
X00248Y027283
X003071Y027283
X001299Y027283
X00189Y027874
X001299Y027874
X00248Y027874
X000709Y027874
X003071Y027874
X000709Y028465
X001299Y028465
X003071Y028465
X000709Y029055
X000709Y029646
X000709Y030236
X003071Y030236
X003661Y030236
X004252Y030236
X004843Y030236
X005433Y030236
X003661Y029646
X004252Y029646
X004843Y029646
X005433Y029646
X003661Y029055
X004252Y029055
X004843Y029055
X005433Y029055
X003661Y028465
X004252Y028465
X004843Y028465
X005433Y028465
X003661Y027874
X004252Y027874
X004843Y027874
X005433Y027874
X003661Y027283
X004252Y027283
X004843Y027283
X005433Y027283
X003661Y026693
X004252Y026693
X004843Y026693
X005433Y026693
X004252Y026102
X004843Y026102
X003661Y026102
X005433Y026102
X004252Y025512
X004843Y025512
X003661Y025512
X005433Y025512
X004252Y024921
X004843Y024921
X003661Y024921
X005433Y024921
X004252Y024331
X004843Y024331
X003661Y024331
X005433Y024331
X004252Y02374
X003661Y02374
X004843Y02374
X005433Y02374
X003661Y02315
X004843Y02315
X004252Y02315
X005433Y02315
X003661Y022559
X004843Y022559
X004252Y022559
X005433Y022559
X003661Y021969
X004843Y021969
X004252Y021969
X005433Y021969
X003661Y021378
X004843Y021378
X004252Y021378
X005433Y021378
X004843Y020787
X003661Y020787
X004252Y020787
X005433Y020787
X004843Y020197
X003661Y020197
X004252Y020197
X005433Y020197
X004252Y019606
X004843Y019606
X003661Y019606
X005433Y019606
X004252Y019016
X004843Y019016
X003661Y019016
X005433Y019016
X003661Y018425
X004252Y018425
X004843Y018425
X005433Y018425
X004252Y017835
X003661Y017835
X004843Y017835
X005433Y017835
X003661Y017244
X004252Y017244
X004843Y017244
X005433Y017244
X004843Y016654
X003661Y016654
X004252Y016654
X005433Y016654
X005433Y016063
X004252Y016063
X004843Y016063
X003661Y016063
X005433Y015472
X004843Y015472
X004252Y015472
X003661Y015472
X005433Y014882
X004252Y014882
X004843Y014882
X003661Y014882
X005433Y014291
X003661Y014291
X004843Y014291
X004252Y014291
X005433Y013701
X003661Y013701
X004843Y013701
X004252Y013701
X005433Y01311
X003661Y01311
X004252Y01311
X004843Y01311
X004843Y01252
X004252Y01252
X003661Y01252
X005433Y01252
X004252Y011929
X003661Y011929
X004843Y011929
X005433Y011929
X005433Y011339
X003661Y011339
X004843Y011339
X004252Y011339
X005433Y010748
X004843Y010748
X003661Y010748
X004252Y010748
X005433Y010157
X004252Y010157
X003661Y010157
X004843Y010157
X004843Y009567
X003661Y009567
X005433Y009567
X004252Y009567
X004252Y008976
X005433Y008976
X003661Y008976
X004843Y008976
X005433Y008386
X003661Y008386
X004843Y008386
X004252Y008386
X005433Y007795
X003661Y007795
X004843Y007795
X004252Y007795
X005433Y007205
X004843Y007205
X003661Y007205
X004252Y007205
X005433Y006614
X003661Y006614
X004252Y006614
X004843Y006614
X004252Y006024
X004843Y006024
X003661Y006024
X005433Y006024
X005433Y005433
X004843Y005433
X004252Y005433
X003661Y005433
X005433Y004843
X004843Y004843
X003661Y004843
X004252Y004843
X005433Y004252
X004252Y004252
X004843Y004252
X003661Y004252
X003661Y003661
X004843Y003661
X004252Y003661
X005433Y003661
X005433Y003071
X004843Y003071
X004252Y003071
X003661Y003071
X003661Y00248
X004252Y00248
X005433Y00248
X004843Y00248
X004843Y00189
X004252Y00189
X003661Y00189
X005433Y00189
X004843Y001299
X004252Y001299
X003661Y001299
X005433Y001299
X004252Y000709
X003661Y000709
X005433Y000709
X004843Y000709
X006614Y000709
X006024Y000709
X007795Y000709
X007205Y000709
X007795Y001299
X006614Y001299
X006024Y001299
X007205Y001299
X007795Y00189
X006614Y00189
X006024Y00189
X007205Y00189
X006024Y00248
X006614Y00248
X007795Y00248
X007205Y00248
X006614Y003071
X006024Y003071
X007795Y003071
X007205Y003071
X006024Y003661
X006614Y003661
X007795Y003661
X007205Y003661
X006024Y004252
X006614Y004252
X007795Y004252
X007205Y004252
X006614Y004843
X006024Y004843
X007795Y004843
X007205Y004843
X006614Y005433
X006024Y005433
X007795Y005433
X007205Y005433
X007795Y006024
X006024Y006024
X007205Y006024
X006614Y006024
X007795Y006614
X006614Y006614
X006024Y006614
X007205Y006614
X007205Y007205
X006024Y007205
X007795Y007205
X006614Y007205
X006614Y007795
X007205Y007795
X007795Y007795
X006024Y007795
X006614Y008386
X006024Y008386
X007205Y008386
X007795Y008386
X007205Y008976
X007795Y008976
X006614Y008976
X006024Y008976
X007795Y009567
X006024Y009567
X006614Y009567
X007205Y009567
X006614Y010157
X007205Y010157
X007795Y010157
X006024Y010157
X006024Y010748
X007205Y010748
X006614Y010748
X007795Y010748
X006024Y011339
X007205Y011339
X007795Y011339
X006614Y011339
X006024Y011929
X007795Y011929
X007205Y011929
X006614Y011929
X007795Y01252
X006024Y01252
X006614Y01252
X007205Y01252
X007795Y01311
X007205Y01311
X006614Y01311
X006024Y01311
X007205Y013701
X006614Y013701
X006024Y013701
X007795Y013701
X006024Y014291
X007795Y014291
X007205Y014291
X006614Y014291
X006614Y014882
X006024Y014882
X007205Y014882
X007795Y014882
X006024Y015472
X007205Y015472
X006614Y015472
X007795Y015472
X006024Y016063
X007205Y016063
X007795Y016063
X006614Y016063
X007795Y016654
X006024Y016654
X007205Y016654
X006614Y016654
X007205Y017244
X007795Y017244
X006024Y017244
X006614Y017244
X007205Y017835
X006614Y017835
X006024Y017835
X007795Y017835
X007205Y018425
X006024Y018425
X007795Y018425
X006614Y018425
X006024Y019016
X007205Y019016
X006614Y019016
X007795Y019016
X006024Y019606
X006614Y019606
X007205Y019606
X007795Y019606
X007205Y020197
X007795Y020197
X006024Y020197
X006614Y020197
X007795Y020787
X006614Y020787
X007205Y020787
X006024Y020787
X006024Y021378
X007205Y021378
X007795Y021378
X006614Y021378
X006024Y021969
X007205Y021969
X007795Y021969
X006614Y021969
X007795Y022559
X007205Y022559
X006614Y022559
X006024Y022559
X007205Y02315
X007795Y02315
X006024Y02315
X006614Y02315
X006024Y02374
X007795Y02374
X007205Y02374
X006614Y02374
X007795Y024331
X007205Y024331
X006614Y024331
X006024Y024331
X007795Y024921
X007205Y024921
X006024Y024921
X006614Y024921
X006024Y025512
X007205Y025512
X006614Y025512
X007795Y025512
X007795Y026102
X006024Y026102
X007205Y026102
X006614Y026102
X007795Y026693
X007205Y026693
X006614Y026693
X006024Y026693
X007205Y027283
X007795Y027283
X006024Y027283
X006614Y027283
X007795Y027874
X006614Y027874
X006024Y027874
X007205Y027874
X007795Y028465
X007205Y028465
X006024Y028465
X006614Y028465
X007205Y029055
X006024Y029055
X006614Y029055
X007795Y029055
X007795Y029646
X006024Y029646
X007205Y029646
X006614Y029646
X006024Y030236
X006614Y030236
X007205Y030236
X007795Y030236
X008386Y030236
X008976Y030236
X010157Y030236
X009567Y030236
X008386Y029646
X008976Y029646
X009567Y029646
X010157Y029646
X008386Y029055
X008976Y029055
X009567Y029055
X010157Y029055
X008386Y028465
X008976Y028465
X010157Y028465
X009567Y028465
X008386Y027874
X010157Y027874
X009567Y027874
X008976Y027874
X008386Y027283
X009567Y027283
X010157Y027283
X008976Y027283
X008386Y026693
X009567Y026693
X010157Y026693
X008976Y026693
X008386Y026102
X008976Y026102
X009567Y026102
X010157Y026102
X008386Y025512
X008976Y025512
X009567Y025512
X010157Y025512
X008386Y024921
X008976Y024921
X010157Y024921
X009567Y024921
X008386Y024331
X010157Y024331
X008976Y024331
X009567Y024331
X008386Y02374
X009567Y02374
X010157Y02374
X008976Y02374
X008386Y02315
X009567Y02315
X008976Y02315
X010157Y02315
X008386Y022559
X010157Y022559
X008976Y022559
X009567Y022559
X008386Y021969
X009567Y021969
X010157Y021969
X008976Y021969
X008386Y021378
X010157Y021378
X008976Y021378
X009567Y021378
X008386Y020787
X010157Y020787
X008976Y020787
X009567Y020787
X008386Y020197
X010157Y020197
X008976Y020197
X009567Y020197
X008386Y019606
X009567Y019606
X010157Y019606
X008976Y019606
X008386Y019016
X008976Y019016
X009567Y019016
X010157Y019016
X008386Y018425
X008976Y018425
X009567Y018425
X010157Y018425
X009567Y017835
X008976Y017835
X010157Y017835
X008386Y017835
X008976Y017244
X008386Y017244
X009567Y017244
X010157Y017244
X008976Y016654
X008386Y016654
X010157Y016654
X009567Y016654
X008976Y016063
X010157Y016063
X008386Y016063
X009567Y016063
X010157Y015472
X008386Y015472
X009567Y015472
X008976Y015472
X010157Y014882
X009567Y014882
X008976Y014882
X008386Y014882
X010157Y014291
X008386Y014291
X008976Y014291
X009567Y014291
X009567Y013701
X008976Y013701
X010157Y013701
X008386Y013701
X009567Y01311
X008386Y01311
X010157Y01311
X008976Y01311
X008976Y01252
X009567Y01252
X010157Y01252
X008386Y01252
X008386Y011929
X010157Y011929
X008976Y011929
X009567Y011929
X008976Y011339
X009567Y011339
X010157Y011339
X008386Y011339
X008976Y010748
X009567Y010748
X010157Y010748
X008386Y010748
X010157Y010157
X008976Y010157
X008386Y010157
X009567Y010157
X010157Y009567
X009567Y009567
X008386Y009567
X008976Y009567
X009567Y008976
X010157Y008976
X008976Y008976
X008386Y008976
X009567Y008386
X008976Y008386
X010157Y008386
X008386Y008386
X008976Y007795
X008386Y007795
X009567Y007795
X010157Y007795
X008976Y007205
X008386Y007205
X009567Y007205
X010157Y007205
X008976Y006614
X010157Y006614
X008386Y006614
X009567Y006614
X008386Y006024
X008976Y006024
X010157Y006024
X009567Y006024
X008386Y005433
X009567Y005433
X008976Y005433
X010157Y005433
X008976Y004843
X008386Y004843
X009567Y004843
X010157Y004843
X010157Y004252
X008386Y004252
X009567Y004252
X008976Y004252
X009567Y003661
X010157Y003661
X008976Y003661
X008386Y003661
X010157Y003071
X009567Y003071
X008976Y003071
X008386Y003071
X008386Y00248
X008976Y00248
X010157Y00248
X009567Y00248
X008976Y00189
X008386Y00189
X009567Y00189
X010157Y00189
X008386Y001299
X008976Y001299
X009567Y001299
X010157Y001299
X008976Y000709
X009567Y000709
X010157Y000709
X008386Y000709
X01252Y000709
X011339Y000709
X01311Y000709
X010748Y000709
X011929Y000709
X01252Y001299
X011929Y001299
X01311Y001299
X010748Y001299
X011339Y001299
X01311Y00189
X010748Y00189
X01252Y00189
X011339Y00189
X011929Y00189
X010748Y00248
X01252Y00248
X011929Y00248
X011339Y00248
X01311Y00248
X010748Y003071
X01252Y003071
X011929Y003071
X011339Y003071
X01311Y003071
X010748Y003661
X01252Y003661
X011929Y003661
X011339Y003661
X01311Y003661
X011339Y004252
X01252Y004252
X01311Y004252
X011929Y004252
X010748Y004252
X01311Y004843
X01252Y004843
X011929Y004843
X011339Y004843
X010748Y004843
X01311Y005433
X01252Y005433
X010748Y005433
X011339Y005433
X011929Y005433
X01252Y006024
X011929Y006024
X01311Y006024
X010748Y006024
X011339Y006024
X011929Y006614
X011339Y006614
X01252Y006614
X01311Y006614
X010748Y006614
X011929Y007205
X011339Y007205
X01252Y007205
X01311Y007205
X010748Y007205
X011339Y007795
X01252Y007795
X011929Y007795
X010748Y007795
X01311Y007795
X010748Y008386
X01252Y008386
X011929Y008386
X011339Y008386
X01311Y008386
X010748Y008976
X011929Y008976
X01252Y008976
X011339Y008976
X01311Y008976
X010748Y009567
X01252Y009567
X011929Y009567
X011339Y009567
X01311Y009567
X010748Y010157
X011929Y010157
X01252Y010157
X011339Y010157
X01311Y010157
X010748Y010748
X011339Y010748
X011929Y010748
X01252Y010748
X01311Y010748
X010748Y011339
X011339Y011339
X011929Y011339
X01252Y011339
X01311Y011339
X010748Y011929
X011929Y011929
X011339Y011929
X01252Y011929
X01311Y011929
X011339Y01252
X01311Y01252
X010748Y01252
X01252Y01252
X011929Y01252
X01311Y01311
X011339Y01311
X010748Y01311
X01252Y01311
X011929Y01311
X010748Y013701
X011339Y013701
X011929Y013701
X01252Y013701
X01311Y013701
X011339Y014291
X010748Y014291
X01311Y014291
X011929Y014291
X01252Y014291
X01311Y014882
X010748Y014882
X01252Y014882
X011339Y014882
X011929Y014882
X011929Y015472
X010748Y015472
X01311Y015472
X011339Y015472
X01252Y015472
X010748Y016063
X010748Y016654
X010748Y017244
X01311Y017244
X010748Y017835
X011339Y018425
X011929Y018425
X010748Y018425
X011339Y019016
X010748Y019016
X011339Y019606
X010748Y019606
X010748Y020197
X011339Y020197
X011929Y020787
X011339Y020787
X01311Y020787
X010748Y020787
X011339Y021378
X010748Y021378
X010748Y021969
X010748Y022559
X011339Y02315
X010748Y02315
X010748Y02374
X010748Y024331
X010748Y024921
X010748Y025512
X010748Y026102
X01252Y026102
X011339Y026102
X011929Y026102
X011339Y026693
X011929Y026693
X010748Y026693
X010748Y027283
X011929Y027283
X011339Y027283
X011929Y027874
X011339Y027874
X010748Y027874
X010748Y028465
X011929Y028465
X011339Y028465
X011929Y029055
X010748Y029055
X01252Y029055
X011339Y029055
X01311Y029055
X01252Y029646
X011339Y029646
X01311Y029646
X011929Y029646
X010748Y029646
X010748Y030236
X011339Y030236
X011929Y030236
X01252Y030236
X01311Y030236
X013701Y030236
X014291Y030236
X014882Y030236
X014882Y029646
X013701Y029646
X014291Y029646
X014882Y029055
X014291Y029055
X013701Y029055
X014882Y028465
X015472Y022559
X015472Y021969
X015472Y021378
X015472Y020787
X015472Y020197
X015472Y019606
X015472Y019016
X015472Y018425
X015472Y017244
X014291Y016654
X014882Y016654
X013701Y016654
X015472Y016654
X013701Y016063
X015472Y016063
X014882Y016063
X014291Y016063
X015472Y015472
X014291Y015472
X014882Y015472
X013701Y015472
X015472Y014882
X013701Y014882
X014882Y014882
X014291Y014882
X015472Y014291
X013701Y014291
X014882Y014291
X014291Y014291
X014291Y013701
X014882Y013701
X013701Y013701
X015472Y013701
X014291Y01311
X014882Y01311
X013701Y01311
X015472Y01311
X014291Y01252
X014882Y01252
X013701Y01252
X015472Y01252
X013701Y011929
X014291Y011929
X014882Y011929
X015472Y011929
X014291Y011339
X013701Y011339
X014882Y011339
X015472Y011339
X013701Y010748
X014291Y010748
X014882Y010748
X015472Y010748
X013701Y010157
X014291Y010157
X014882Y010157
X015472Y010157
X015472Y009567
X013701Y009567
X014291Y009567
X014882Y009567
X015472Y008976
X014882Y008976
X014291Y008976
X013701Y008976
X014291Y008386
X014882Y008386
X015472Y008386
X013701Y008386
X013701Y007795
X015472Y007795
X014882Y007795
X014291Y007795
X013701Y007205
X014291Y007205
X014882Y007205
X015472Y007205
X013701Y006614
X014291Y006614
X015472Y006614
X014882Y006614
X014882Y006024
X013701Y006024
X014291Y006024
X014291Y005433
X013701Y005433
X014291Y004843
X013701Y004843
X014291Y004252
X014882Y004252
X013701Y004252
X015472Y004252
X014291Y003661
X014882Y003661
X013701Y003661
X015472Y003661
X014882Y003071
X013701Y003071
X014291Y003071
X015472Y003071
X015472Y00248
X014291Y00248
X013701Y00248
X014882Y00248
X013701Y00189
X014882Y00189
X015472Y00189
X014291Y00189
X014291Y001299
X014882Y001299
X013701Y001299
X015472Y001299
X014882Y000709
X014291Y000709
X013701Y000709
X015472Y000709
X016063Y003661
X016063Y004252
X016063Y006614
X016063Y007205
X016654Y007205
X017244Y007795
X017835Y007795
X016654Y007795
X016063Y007795
X016654Y008386
X016063Y008386
X017835Y008386
X017244Y008386
X016063Y008976
X017244Y008976
X017835Y008976
X016654Y008976
X016063Y009567
X016654Y009567
X017244Y009567
X017835Y009567
X016063Y010157
X016654Y010157
X017244Y010157
X017835Y010157
X016063Y010748
X016654Y010748
X017244Y010748
X017835Y010748
X016063Y011339
X016063Y01311
X016654Y01311
X016063Y013701
X016063Y014291
X016063Y014882
X016063Y015472
X017835Y017244
X017835Y017835
X017835Y018425
X017244Y019016
X016063Y019016
X016654Y019016
X016063Y019606
X016654Y019606
X016063Y020197
X017835Y021378
X017835Y021969
X017835Y022559
X017835Y02315
X017835Y02374
X017835Y024331
X017835Y024921
X017244Y024921
X017835Y025512
X020197Y030236
X020197Y029646
X020197Y029055
X020197Y028465
X020197Y027874
X020197Y027283
X019606Y027283
X020197Y026693
X019016Y026693
X019606Y026693
X018425Y026102
X020197Y026102
X019016Y026102
X019606Y026102
X018425Y025512
X020197Y025512
X019606Y025512
X019016Y025512
X018425Y024921
X020197Y024921
X019016Y024921
X019606Y024921
X019606Y024331
X019016Y024331
X018425Y024331
X020197Y024331
X020197Y02374
X019606Y02374
X018425Y02374
X019016Y02374
X020197Y02315
X019016Y02315
X019606Y02315
X018425Y02315
X019606Y022559
X019016Y022559
X018425Y022559
X019016Y021969
X018425Y021969
X019016Y021378
X018425Y021378
X018425Y020787
X019016Y020787
X02315Y007205
X022559Y007795
X021969Y007795
X02315Y007795
X022559Y008386
X02315Y008386
X02315Y008976
X022559Y008976
X02315Y009567
X022559Y009567
X02315Y010157
X022559Y010157
X02315Y010748
X022559Y010748
X022559Y017244
X021969Y017835
X022559Y017835
X022559Y018425
X02315Y019016
X021378Y021969
X022559Y021969
X021969Y021969
X022559Y022559
X020787Y022559
X021378Y022559
X021969Y022559
X021969Y02315
X022559Y02315
X021378Y02315
X020787Y02315
X022559Y02374
X021969Y02374
X021378Y02374
X020787Y02374
X021969Y024331
X022559Y024331
X020787Y024331
X021378Y024331
X021969Y024921
X021378Y024921
X02315Y024921
X020787Y024921
X022559Y024921
X021969Y025512
X022559Y025512
X020787Y025512
X021378Y025512
X021378Y026102
X021969Y026102
X020787Y026102
X021378Y026693
X020787Y026693
X020787Y027283
X024921Y030236
X025512Y030236
X025512Y029646
X024921Y029646
X024921Y029055
X025512Y029055
X024921Y028465
X024921Y027874
X02374Y019606
X024331Y019606
X02374Y019016
X024331Y019016
X024921Y016654
X025512Y016654
X024921Y016063
X025512Y016063
X024921Y015472
X025512Y015472
X024331Y015472
X024921Y014882
X025512Y014882
X024331Y014882
X024921Y014291
X025512Y014291
X024331Y013701
X025512Y013701
X024921Y013701
X024331Y01311
X02374Y01311
X025512Y01311
X024921Y01311
X025512Y01252
X024921Y01252
X025512Y011929
X024921Y011929
X024331Y011339
X025512Y011339
X024921Y011339
X024331Y010748
X025512Y010748
X024921Y010748
X02374Y010748
X024331Y010157
X025512Y010157
X02374Y010157
X024921Y010157
X024921Y009567
X024331Y009567
X025512Y009567
X02374Y009567
X024921Y008976
X024331Y008976
X02374Y008976
X025512Y008976
X024331Y008386
X024921Y008386
X025512Y008386
X02374Y008386
X024331Y007795
X024921Y007795
X02374Y007795
X025512Y007795
X02374Y007205
X025512Y007205
X024921Y007205
X024331Y007205
X024921Y006614
X025512Y006614
X024331Y006614
X024921Y006024
X024921Y003661
X025512Y003071
X024921Y003071
X024921Y00248
X025512Y00248
X024921Y00189
X025512Y00189
X024921Y001299
X026693Y000709
X026102Y000709
X027283Y000709
X027874Y000709
X026693Y001299
X027874Y001299
X027283Y001299
X027874Y00189
X027283Y00189
X026102Y00248
X027874Y00248
X027283Y00248
X026102Y003071
X027874Y003071
X027283Y003071
X026102Y003661
X027874Y003661
X027283Y003661
X027874Y004252
X027283Y004252
X027874Y004843
X027283Y004843
X026693Y005433
X027874Y005433
X027283Y005433
X026693Y006024
X026102Y006024
X027283Y006024
X027874Y006024
X026102Y006614
X026693Y006614
X027283Y006614
X027874Y006614
X026693Y007205
X026102Y007205
X027874Y007205
X027283Y007205
X026102Y007795
X026693Y007795
X027874Y007795
X027283Y007795
X027283Y008386
X026102Y008386
X027874Y008386
X026693Y008386
X026102Y008976
X026693Y008976
X027283Y008976
X027874Y008976
X026102Y009567
X026693Y009567
X027283Y009567
X027874Y009567
X026693Y010157
X026102Y010157
X027874Y010157
X027283Y010157
X026102Y010748
X027283Y010748
X026693Y010748
X027874Y010748
X026102Y011339
X026693Y011339
X027874Y011339
X027283Y011339
X026693Y011929
X027874Y011929
X027283Y011929
X026102Y011929
X026693Y01252
X026102Y01252
X027283Y01252
X027874Y01252
X026102Y01311
X026693Y01311
X027874Y01311
X027283Y01311
X026102Y013701
X026693Y013701
X027874Y013701
X027283Y013701
X026102Y014291
X026693Y014291
X027283Y014291
X027874Y014291
X026102Y014882
X027874Y014882
X026693Y014882
X027283Y014882
X027283Y015472
X027874Y015472
X026102Y015472
X026693Y015472
X026693Y016063
X026102Y016063
X026693Y016654
X026102Y016654
X027874Y026102
X027283Y026102
X027874Y026693
X027874Y028465
X027874Y029055
X027283Y029055
X026102Y029055
X026693Y029055
X027283Y029646
X026693Y029646
X027874Y029646
X026102Y029646
X026102Y030236
X026693Y030236
X027874Y030236
X027283Y030236
X028465Y030236
X029055Y030236
X030236Y030236
X029646Y030236
X028465Y029646
X030236Y029646
X029055Y029646
X029646Y029646
X028465Y029055
X030236Y029055
X029055Y029055
X029646Y029055
X028465Y028465
X029646Y028465
X029055Y028465
X030236Y028465
X028465Y027874
X030236Y027874
X029055Y027874
X029646Y027874
X028465Y027283
X029055Y027283
X030236Y027283
X029646Y027283
X028465Y026693
X030236Y026693
X029055Y026693
X029646Y026693
X028465Y026102
X029646Y026102
X030236Y026102
X029055Y026102
X029646Y025512
X030236Y025512
X030236Y024921
X029646Y024921
X030236Y024331
X029646Y024331
X029646Y02374
X029055Y02315
X028465Y02315
X030236Y020197
X029646Y019606
X030236Y019606
X030236Y019016
X029055Y019016
X029646Y019016
X028465Y018425
X029055Y018425
X029646Y018425
X030236Y018425
X029646Y017835
X030236Y017835
X030236Y017244
X029646Y017244
X029646Y016654
X030236Y016654
X029646Y016063
X030236Y016063
X028465Y015472
X029055Y015472
X030236Y015472
X029646Y015472
X028465Y014882
X029646Y014882
X029055Y014882
X030236Y014882
X029646Y014291
X029055Y014291
X030236Y014291
X028465Y014291
X029055Y013701
X029646Y013701
X030236Y013701
X028465Y013701
X030236Y01311
X029055Y01311
X029646Y01311
X028465Y01311
X030236Y01252
X029646Y01252
X029055Y01252
X028465Y01252
X028465Y011929
X030236Y011929
X029646Y011929
X029055Y011929
X028465Y011339
X029646Y011339
X030236Y011339
X029055Y011339
X029646Y010748
X029055Y010748
X028465Y010748
X030236Y010748
X029646Y010157
X030236Y010157
X029055Y010157
X028465Y010157
X030236Y009567
X029055Y009567
X028465Y009567
X029646Y009567
X029646Y008976
X029055Y008976
X030236Y008976
X028465Y008976
X029055Y008386
X030236Y008386
X029646Y008386
X028465Y008386
X028465Y007795
X029646Y007795
X029055Y007795
X030236Y007795
X028465Y007205
X029055Y007205
X029646Y007205
X030236Y007205
X030236Y006614
X028465Y006614
X029646Y006614
X029055Y006614
X029646Y006024
X030236Y006024
X028465Y006024
X029055Y006024
X028465Y005433
X029646Y005433
X030236Y005433
X029055Y005433
X028465Y004843
X030236Y004843
X029646Y004843
X029055Y004843
X028465Y004252
X029646Y004252
X030236Y004252
X029055Y004252
X029055Y003661
X030236Y003661
X028465Y003661
X029646Y003661
X028465Y003071
X030236Y003071
X029055Y003071
X029646Y003071
X029055Y00248
X029646Y00248
X028465Y00248
X030236Y00248
X029646Y00189
X030236Y00189
X029055Y00189
X028465Y00189
X030236Y001299
X029055Y001299
X029646Y001299
X028465Y001299
X029055Y000709
X028465Y000709
X029646Y000709
X030236Y000709
X032598Y000709
X030827Y000709
X031417Y000709
X033189Y000709
X032008Y000709
X032598Y001299
X031417Y001299
X030827Y001299
X032008Y001299
X033189Y001299
X030827Y00189
X031417Y00189
X033189Y00189
X032598Y00189
X032008Y00189
X030827Y00248
X033189Y00248
X031417Y00248
X032598Y00248
X032008Y00248
X030827Y003071
X031417Y003071
X032008Y003071
X033189Y003071
X032598Y003071
X030827Y003661
X032598Y003661
X031417Y003661
X032008Y003661
X033189Y003661
X033189Y004252
X032008Y004252
X032598Y004252
X031417Y004252
X030827Y004252
X032008Y004843
X031417Y004843
X033189Y004843
X032598Y004843
X030827Y004843
X032008Y005433
X033189Y005433
X031417Y005433
X032598Y005433
X030827Y005433
X033189Y006024
X031417Y006024
X032008Y006024
X032598Y006024
X030827Y006024
X030827Y006614
X031417Y006614
X033189Y006614
X032008Y006614
X032598Y006614
X032598Y007205
X032008Y007205
X030827Y007205
X031417Y007205
X033189Y007205
X032008Y007795
X030827Y007795
X032598Y007795
X031417Y007795
X033189Y007795
X033189Y008386
X032008Y008386
X031417Y008386
X030827Y008386
X032598Y008386
X031417Y008976
X033189Y008976
X032008Y008976
X032598Y008976
X030827Y008976
X033189Y009567
X031417Y009567
X030827Y009567
X032598Y009567
X032008Y009567
X031417Y010157
X032008Y010157
X033189Y010157
X032598Y010157
X030827Y010157
X033189Y010748
X032008Y010748
X032598Y010748
X030827Y010748
X031417Y010748
X030827Y011339
X031417Y011339
X032598Y011339
X032008Y011339
X033189Y011339
X030827Y011929
X033189Y011929
X031417Y011929
X032008Y011929
X032598Y011929
X031417Y01252
X030827Y01252
X033189Y01252
X032598Y01252
X032008Y01252
X030827Y01311
X032598Y01311
X032008Y01311
X033189Y01311
X031417Y01311
X030827Y013701
X032008Y013701
X031417Y013701
X033189Y013701
X032598Y013701
X030827Y014291
X031417Y014291
X032008Y014291
X032598Y014291
X033189Y014291
X030827Y014882
X031417Y014882
X032008Y014882
X032598Y014882
X033189Y014882
X030827Y015472
X031417Y015472
X032008Y015472
X032598Y015472
X033189Y015472
X030827Y016063
X033189Y016063
X031417Y016063
X032598Y016063
X032008Y016063
X031417Y016654
X030827Y016654
X032598Y016654
X032008Y016654
X033189Y016654
X033189Y017244
X032008Y017244
X030827Y017244
X032598Y017244
X031417Y017244
X033189Y017835
X030827Y017835
X032008Y017835
X032598Y017835
X031417Y017835
X033189Y018425
X031417Y018425
X032598Y018425
X030827Y018425
X032008Y018425
X032598Y019016
X030827Y019016
X033189Y019016
X032008Y019016
X031417Y019016
X032598Y019606
X030827Y019606
X032008Y019606
X031417Y019606
X033189Y019606
X030827Y020197
X031417Y020197
X030827Y020787
X033189Y024331
X032008Y024331
X032598Y024331
X031417Y024331
X030827Y024331
X033189Y024921
X032598Y024921
X032008Y024921
X030827Y024921
X031417Y024921
X031417Y025512
X032008Y025512
X030827Y025512
X033189Y025512
X032598Y025512
X033189Y026102
X032008Y026102
X032598Y026102
X031417Y026102
X030827Y026102
X033189Y026693
X032008Y026693
X032598Y026693
X030827Y026693
X031417Y026693
X033189Y027283
X032008Y027283
X030827Y027283
X032598Y027283
X031417Y027283
X032008Y027874
X033189Y027874
X032598Y027874
X031417Y027874
X030827Y027874
X030827Y028465
X033189Y028465
X032598Y028465
X032008Y028465
X031417Y028465
X031417Y029055
X033189Y029055
X032008Y029055
X030827Y029055
X032598Y029055
X031417Y029646
X030827Y029646
X032598Y029646
X032008Y029646
X033189Y029646
X030827Y030236
X031417Y030236
X032008Y030236
X032598Y030236
X033189Y030236
X03378Y030236
X03437Y030236
X03378Y029646
X03378Y029055
X03437Y028465
X03378Y028465
X03437Y027874
X03378Y027874
X034961Y027874
X035551Y027874
X03437Y027283
X03378Y027283
X034961Y027283
X035551Y027283
X03437Y026693
X03378Y026693
X035551Y026693
X034961Y026693
X03378Y026102
X03437Y026102
X035551Y026102
X034961Y026102
X03437Y025512
X03378Y025512
X035551Y025512
X034961Y025512
X03437Y024921
X03378Y024921
X035551Y024921
X034961Y024921
X03437Y024331
X03378Y024331
X035551Y024331
X034961Y024331
X03378Y021378
X03378Y020787
X03437Y020197
X03378Y020197
X03378Y019606
X03437Y019606
X035551Y019606
X034961Y019606
X03378Y019016
X03437Y019016
X035551Y019016
X034961Y019016
X03378Y018425
X03437Y018425
X034961Y018425
X035551Y018425
X034961Y017835
X035551Y017835
X03378Y017835
X03437Y017835
X03378Y017244
X034961Y017244
X035551Y017244
X03437Y017244
X03378Y016654
X035551Y016654
X034961Y016654
X03437Y016654
X03378Y016063
X034961Y016063
X03437Y016063
X035551Y016063
X03378Y015472
X03437Y015472
X035551Y015472
X034961Y015472
X03378Y014882
X03437Y014882
X035551Y014882
X034961Y014882
X03437Y014291
X035551Y014291
X03378Y014291
X034961Y014291
X034961Y013701
X03437Y013701
X035551Y013701
X03378Y013701
X035551Y01311
X034961Y01311
X03378Y01311
X03437Y01311
X034961Y01252
X035551Y01252
X03378Y01252
X03437Y01252
X03437Y011929
X03378Y011929
X035551Y011929
X034961Y011929
X034961Y011339
X03437Y011339
X03378Y011339
X035551Y011339
X034961Y010748
X03437Y010748
X035551Y010748
X03378Y010748
X03437Y010157
X034961Y010157
X03378Y010157
X035551Y010157
X035551Y009567
X03378Y009567
X034961Y009567
X03437Y009567
X03437Y008976
X035551Y008976
X034961Y008976
X03378Y008976
X034961Y008386
X03378Y008386
X03437Y008386
X035551Y008386
X034961Y007795
X03378Y007795
X03437Y007795
X035551Y007795
X03378Y007205
X034961Y007205
X03437Y007205
X035551Y007205
X035551Y006614
X03437Y006614
X03378Y006614
X034961Y006614
X034961Y006024
X03378Y006024
X03437Y006024
X035551Y006024
X035551Y005433
X03437Y005433
X034961Y005433
X03378Y005433
X034961Y004843
X03378Y004843
X035551Y004843
X03437Y004843
X03437Y004252
X034961Y004252
X035551Y004252
X03378Y004252
X035551Y003661
X034961Y003661
X03378Y003661
X03437Y003661
X03378Y003071
X03437Y003071
X03378Y00248
X03378Y00189
X03437Y001299
X03378Y001299
X03437Y000709
X03378Y000709
X034961Y000709
X035551Y000709
X036142Y000709
X036142Y003071
X036142Y003661
X036142Y004252
X036142Y004843
X036142Y005433
X036142Y006024
X036142Y006614
X036142Y007205
X036142Y007795
X036142Y008386
X036142Y008976
X036142Y009567
X036142Y010157
X036142Y010748
X036142Y011339
X036142Y011929
X036142Y01252
X036142Y01311
X036142Y013701
X036142Y014291
X036142Y014882
X036142Y015472
X036142Y016063
X036142Y016654
X036142Y017244
X036142Y017835
X036142Y018425
X036142Y019016
X036142Y019606
X036142Y024331
X036142Y024921
X036142Y025512
X036142Y026102
X036142Y026693
X036142Y027283
X036142Y027874
X036142Y028465
T4C.03937F197S55
X012559Y019902
X012559Y02187
X020098Y02187
X020098Y019902
X018642Y010059
X019823Y010059
X019232Y010059
X020413Y010059
X020413Y009469
X019823Y009469
X019232Y009469
X018642Y009469
X020413Y008878
X019232Y008878
X018642Y008878
X019823Y008878
X019232Y008287
X020413Y008287
X019823Y008287
X018642Y008287
X025472Y004114
X025472Y005098
X021594Y008287
X021004Y008287
X021004Y008878
X021594Y008878
X021594Y009469
X021004Y009469
X021594Y010059
X021004Y010059
X027657Y02187
X027657Y019902
X03248Y022894G85X032283Y022894
X03248Y020925G85X032283Y020925
X035433Y020925G85X035236Y020925
X035433Y022894G85X035236Y022894
T5C.04F139S55
X016644Y029069
X016444Y029069
X018594Y029069
X018394Y029069
X021794Y029069
X021594Y029069
X023544Y029069
X023744Y029069
T6C.04331F139S55
X014449Y017835
X014449Y023898
X016433Y023898
X016433Y017835
X016575Y002339
X017575Y002339
X018575Y002339
X019575Y002339
X020575Y002339
X017575Y001339
X019575Y001339
X016575Y001339
X020575Y001339
X018575Y001339
X021575Y001339
X022575Y001339
X023575Y001339
X022575Y002339
X021575Y002339
X023575Y002339
X023783Y017835
X023783Y023898
X025768Y023898
X025768Y017835
T7C.16F035S1033
X026594Y027619G85X026594Y027419
X013594Y027619G85X013594Y027419
M30
