*
%LPD*%
%LNTopSoldermask*%
%FSLAX24Y24*%
%MOIN*%
%AD*%
%ADD17C,0.07874*%
%ADD18C,0.06299*%
%ADD19C,0.09843*%
%ADD21C,0.00984*%
%ADD22C,0.03937*%
%ADD25C,0.01181*%
%ADD33C,0.00591*%
%ADD55C,0.07087*%
%ADD60C,0.0315*%
%ADD61C,0.04724*%
%ADD80C,0.02362*%
%ADD158R,0.06X0.06*%
%ADD181R,0.038X0.03*%
%ADD182R,0.03X0.038*%
%ADD195R,0.06693X0.06693*%
%ADD196O,0.01063X0.05906*%
%ADD197O,0.11811X0.07874*%
%ADD198R,0.1X0.1*%
%ADD199O,0.16X0.18*%
%ADD201R,0.0748X0.0748*%
%ADD202C,0.0748*%
G54D17*
%SRX1Y1I0.0J0.0*%
G1X208957Y164163D3*
G1X208957Y166132D3*
G1X193858Y166132D3*
G1X193858Y164163D3*
G54D18*
G1X205083Y162097D3*
G1X207067Y162097D3*
G1X197732Y162097D3*
G1X195748Y162097D3*
G1X197732Y168159D3*
G1X195748Y168159D3*
G1X205083Y168159D3*
G1X207067Y168159D3*
G54D19*
G1X201398Y164163D3*
G1X201398Y166132D3*
G1X199636Y155669D2*
G54D21*
G1X198387Y155669D1*
G1X198603Y155453D1*
G1X199636Y155453D1*
G1X199636Y155669D1*
G1X199675Y151614D2*
G1X198662Y151614D1*
G1X198190Y151142D1*
G1X199675Y151142D1*
G1X199675Y151614D1*
G1X198426Y155630D2*
G1X199636Y155630D1*
G1X198515Y155541D2*
G1X199636Y155541D1*
G1X198633Y151585D2*
G1X199675Y151585D1*
G1X198544Y151496D2*
G1X199675Y151496D1*
G1X198455Y151407D2*
G1X199675Y151407D1*
G1X198367Y151319D2*
G1X199675Y151319D1*
G1X198278Y151230D2*
G1X199675Y151230D1*
G1X203087Y154688D2*
G1X203297Y154478D1*
G1X203297Y152072D1*
G1X199478Y152072D1*
G1X199478Y154688D1*
G1X203087Y154688D1*
G1X199478Y154464D2*
G1X203297Y154464D1*
G1X199478Y154376D2*
G1X203297Y154376D1*
G1X199478Y154287D2*
G1X203297Y154287D1*
G1X199478Y154198D2*
G1X203297Y154198D1*
G1X199478Y154110D2*
G1X203297Y154110D1*
G1X199478Y154021D2*
G1X203297Y154021D1*
G1X199478Y153933D2*
G1X203297Y153933D1*
G1X199478Y153844D2*
G1X203297Y153844D1*
G1X199478Y153755D2*
G1X203297Y153755D1*
G1X199478Y153667D2*
G1X203297Y153667D1*
G1X199478Y153578D2*
G1X203297Y153578D1*
G1X199478Y153490D2*
G1X203297Y153490D1*
G1X199478Y153401D2*
G1X203297Y153401D1*
G1X199478Y153313D2*
G1X203297Y153313D1*
G1X199478Y153224D2*
G1X203297Y153224D1*
G1X199478Y153135D2*
G1X203297Y153135D1*
G1X199478Y153047D2*
G1X203297Y153047D1*
G1X199478Y152958D2*
G1X203297Y152958D1*
G1X199478Y152870D2*
G1X203297Y152870D1*
G1X199478Y152781D2*
G1X203297Y152781D1*
G1X199478Y152692D2*
G1X203297Y152692D1*
G1X199478Y152604D2*
G1X203297Y152604D1*
G1X199478Y152515D2*
G1X203297Y152515D1*
G1X199478Y152427D2*
G1X203297Y152427D1*
G1X199478Y152338D2*
G1X203297Y152338D1*
G1X199478Y152250D2*
G1X203297Y152250D1*
G1X199478Y152161D2*
G1X203297Y152161D1*
G1X199478Y154553D2*
G1X203222Y154553D1*
G1X199478Y154641D2*
G1X203134Y154641D1*
G1X181299Y144262D2*
G1X218701Y144262D1*
G1X218701Y175738D1*
G1X181299Y175738D1*
G1X181299Y144262D1*
G54D22*
G1X207402Y147923D3*
G1X206221Y147923D3*
G1X182008Y150285D3*
G1X182008Y149104D3*
G1X182008Y149695D3*
G1X182598Y150285D3*
G1X182598Y149695D3*
G1X182598Y149104D3*
G1X183780Y150285D3*
G1X183780Y149695D3*
G1X183189Y149104D3*
G1X183780Y149104D3*
G1X183189Y150285D3*
G1X183189Y149695D3*
G1X186142Y149695D3*
G1X186142Y149104D3*
G1X184961Y150285D3*
G1X184370Y150285D3*
G1X185551Y150285D3*
G1X185551Y149695D3*
G1X184961Y149104D3*
G1X185551Y149104D3*
G1X184370Y149695D3*
G1X184961Y149695D3*
G1X186142Y150285D3*
G1X184370Y149104D3*
G1X187913Y149104D3*
G1X187913Y150285D3*
G1X187913Y149695D3*
G1X187323Y150285D3*
G1X187323Y149695D3*
G1X187323Y149104D3*
G1X186732Y150285D3*
G1X186732Y149695D3*
G1X186732Y149104D3*
G1X189095Y150285D3*
G1X189095Y149695D3*
G1X189095Y149104D3*
G1X189685Y149695D3*
G1X189685Y149104D3*
G1X188504Y150285D3*
G1X188504Y149695D3*
G1X188504Y149104D3*
G1X189685Y150285D3*
G1X192047Y150285D3*
G1X192047Y149695D3*
G1X192047Y149104D3*
G1X191457Y149695D3*
G1X190866Y150285D3*
G1X190276Y149104D3*
G1X191457Y150285D3*
G1X191457Y149104D3*
G1X190866Y149104D3*
G1X190866Y149695D3*
G1X190276Y150285D3*
G1X190276Y149695D3*
G1X193228Y149695D3*
G1X193228Y149104D3*
G1X193819Y149695D3*
G1X192638Y149695D3*
G1X192638Y149104D3*
G1X193819Y149104D3*
G1X192638Y150285D3*
G1X193819Y150285D3*
G1X193228Y150285D3*
G1X195000Y150285D3*
G1X195000Y149695D3*
G1X194409Y149104D3*
G1X195591Y150285D3*
G1X194409Y150285D3*
G1X194409Y149695D3*
G1X196181Y150285D3*
G1X195000Y149104D3*
G1X207402Y150285D3*
G1X207992Y149695D3*
G1X207992Y150285D3*
G1X206221Y150285D3*
G1X209173Y149104D3*
G1X209764Y149104D3*
G1X208583Y150285D3*
G1X209173Y150285D3*
G1X209173Y149695D3*
G1X208583Y149695D3*
G1X209764Y150285D3*
G1X209764Y149695D3*
G1X208583Y149104D3*
G1X210945Y149104D3*
G1X210945Y150285D3*
G1X210945Y149695D3*
G1X211535Y150285D3*
G1X211535Y149104D3*
G1X211535Y149695D3*
G1X212126Y149695D3*
G1X212126Y149104D3*
G1X212126Y150285D3*
G1X210354Y149695D3*
G1X210354Y150285D3*
G1X210354Y149104D3*
G1X213898Y149695D3*
G1X213898Y149104D3*
G1X213307Y150285D3*
G1X213307Y149695D3*
G1X213307Y149104D3*
G1X212717Y149104D3*
G1X212717Y150285D3*
G1X212717Y149695D3*
G1X213898Y150285D3*
G1X214488Y149104D3*
G1X215079Y150285D3*
G1X215079Y149695D3*
G1X215079Y149104D3*
G1X215669Y150285D3*
G1X215669Y149695D3*
G1X215669Y149104D3*
G1X214488Y150285D3*
G1X214488Y149695D3*
G1X217441Y150285D3*
G1X217441Y149695D3*
G1X217441Y149104D3*
G1X216850Y150285D3*
G1X216260Y150285D3*
G1X216260Y149695D3*
G1X216260Y149104D3*
G1X216850Y149695D3*
G1X216850Y149104D3*
G1X182008Y150876D3*
G1X182008Y152057D3*
G1X182008Y151467D3*
G1X182598Y150876D3*
G1X183189Y151467D3*
G1X183780Y150876D3*
G1X183189Y152057D3*
G1X183189Y150876D3*
G1X183780Y152057D3*
G1X182598Y152057D3*
G1X182598Y151467D3*
G1X183780Y151467D3*
G1X184961Y151467D3*
G1X184961Y150876D3*
G1X184961Y152057D3*
G1X184370Y150876D3*
G1X186142Y151467D3*
G1X184370Y152057D3*
G1X184370Y151467D3*
G1X186142Y150876D3*
G1X186142Y152057D3*
G1X185551Y152057D3*
G1X185551Y150876D3*
G1X185551Y151467D3*
G1X186732Y150876D3*
G1X186732Y152057D3*
G1X186732Y151467D3*
G1X187913Y150876D3*
G1X187913Y152057D3*
G1X187913Y151467D3*
G1X187323Y152057D3*
G1X187323Y151467D3*
G1X187323Y150876D3*
G1X188504Y150876D3*
G1X189095Y151467D3*
G1X189095Y150876D3*
G1X188504Y152057D3*
G1X189685Y152057D3*
G1X189685Y151467D3*
G1X188504Y151467D3*
G1X189685Y150876D3*
G1X189095Y152057D3*
G1X192047Y151467D3*
G1X192047Y150876D3*
G1X190866Y152057D3*
G1X190866Y151467D3*
G1X192047Y152057D3*
G1X190866Y150876D3*
G1X191457Y151467D3*
G1X191457Y150876D3*
G1X190276Y152057D3*
G1X190276Y150876D3*
G1X190276Y151467D3*
G1X191457Y152057D3*
G1X193228Y151467D3*
G1X193228Y150876D3*
G1X192638Y152057D3*
G1X192638Y151467D3*
G1X192638Y150876D3*
G1X193819Y152057D3*
G1X193819Y151467D3*
G1X193819Y150876D3*
G1X193228Y152057D3*
G1X195000Y150876D3*
G1X196181Y152057D3*
G1X196181Y151467D3*
G1X195000Y152057D3*
G1X195000Y151467D3*
G1X194409Y151467D3*
G1X194409Y150876D3*
G1X196181Y150876D3*
G1X195591Y152057D3*
G1X195591Y151467D3*
G1X195591Y150876D3*
G1X194409Y152057D3*
G1X197953Y152057D3*
G1X197953Y151467D3*
G1X196772Y152057D3*
G1X196772Y151467D3*
G1X196772Y150876D3*
G1X197362Y152057D3*
G1X197362Y151467D3*
G1X197362Y150876D3*
G1X198543Y152057D3*
G1X199134Y152057D3*
G1X203858Y152057D3*
G1X203268Y152057D3*
G1X204449Y151467D3*
G1X205630Y152057D3*
G1X205039Y152057D3*
G1X205039Y151467D3*
G1X204449Y152057D3*
G1X205630Y151467D3*
G1X205630Y150876D3*
G1X207402Y152057D3*
G1X207402Y151467D3*
G1X207402Y150876D3*
G1X206811Y152057D3*
G1X206811Y151467D3*
G1X206811Y150876D3*
G1X207992Y151467D3*
G1X207992Y152057D3*
G1X207992Y150876D3*
G1X206221Y152057D3*
G1X206221Y150876D3*
G1X206221Y151467D3*
G1X209173Y151467D3*
G1X208583Y151467D3*
G1X208583Y150876D3*
G1X209173Y150876D3*
G1X209764Y152057D3*
G1X209764Y151467D3*
G1X209764Y150876D3*
G1X209173Y152057D3*
G1X208583Y152057D3*
G1X211535Y150876D3*
G1X212126Y151467D3*
G1X210354Y152057D3*
G1X211535Y152057D3*
G1X211535Y151467D3*
G1X212126Y150876D3*
G1X210354Y151467D3*
G1X210354Y150876D3*
G1X212126Y152057D3*
G1X210945Y150876D3*
G1X210945Y152057D3*
G1X210945Y151467D3*
G1X212717Y150876D3*
G1X213307Y152057D3*
G1X213898Y152057D3*
G1X213898Y151467D3*
G1X213307Y151467D3*
G1X213307Y150876D3*
G1X212717Y152057D3*
G1X212717Y151467D3*
G1X213898Y150876D3*
G1X214488Y152057D3*
G1X214488Y151467D3*
G1X215669Y152057D3*
G1X215669Y151467D3*
G1X215079Y152057D3*
G1X215669Y150876D3*
G1X215079Y151467D3*
G1X214488Y150876D3*
G1X215079Y150876D3*
G1X217441Y152057D3*
G1X216850Y152057D3*
G1X217441Y150876D3*
G1X216850Y151467D3*
G1X216260Y152057D3*
G1X216260Y151467D3*
G1X216260Y150876D3*
G1X216850Y150876D3*
G1X217441Y151467D3*
G1X182008Y152648D3*
G1X182008Y153238D3*
G1X182008Y153829D3*
G1X182598Y153829D3*
G1X182598Y153238D3*
G1X183189Y152648D3*
G1X182598Y152648D3*
G1X183189Y153829D3*
G1X183189Y153238D3*
G1X183780Y152648D3*
G1X183780Y153829D3*
G1X183780Y153238D3*
G1X185551Y153829D3*
G1X185551Y153238D3*
G1X184370Y153829D3*
G1X184370Y153238D3*
G1X184961Y153829D3*
G1X184370Y152648D3*
G1X186142Y153238D3*
G1X186142Y152648D3*
G1X186142Y153829D3*
G1X184961Y153238D3*
G1X184961Y152648D3*
G1X185551Y152648D3*
G1X186732Y153238D3*
G1X186732Y152648D3*
G1X187913Y152648D3*
G1X187323Y153829D3*
G1X186732Y153829D3*
G1X187913Y153829D3*
G1X187913Y153238D3*
G1X187323Y153238D3*
G1X187323Y152648D3*
G1X188504Y152648D3*
G1X189685Y153238D3*
G1X189685Y152648D3*
G1X188504Y153829D3*
G1X189685Y153829D3*
G1X188504Y153238D3*
G1X189095Y153829D3*
G1X189095Y153238D3*
G1X189095Y152648D3*
G1X190866Y152648D3*
G1X190276Y152648D3*
G1X192047Y153829D3*
G1X192047Y153238D3*
G1X192047Y152648D3*
G1X191457Y153829D3*
G1X190866Y153829D3*
G1X190866Y153238D3*
G1X191457Y153238D3*
G1X191457Y152648D3*
G1X190276Y153829D3*
G1X190276Y153238D3*
G1X193819Y152648D3*
G1X193228Y153238D3*
G1X193819Y153829D3*
G1X193819Y153238D3*
G1X193228Y153829D3*
G1X193228Y152648D3*
G1X192638Y153829D3*
G1X192638Y153238D3*
G1X192638Y152648D3*
G1X194409Y153238D3*
G1X194409Y152648D3*
G1X195591Y153238D3*
G1X195591Y152648D3*
G1X196181Y152648D3*
G1X195000Y153829D3*
G1X195000Y153238D3*
G1X195000Y152648D3*
G1X195591Y153829D3*
G1X194409Y153829D3*
G1X196181Y153829D3*
G1X196181Y153238D3*
G1X197953Y153238D3*
G1X197953Y152648D3*
G1X197362Y153829D3*
G1X196772Y152648D3*
G1X196772Y153238D3*
G1X197362Y153238D3*
G1X197362Y152648D3*
G1X197953Y153829D3*
G1X196772Y153829D3*
G1X198543Y153829D3*
G1X198543Y153238D3*
G1X199134Y152648D3*
G1X199134Y153829D3*
G1X199134Y153238D3*
G1X198543Y152648D3*
G1X203858Y153829D3*
G1X203858Y153238D3*
G1X203858Y152648D3*
G1X205039Y153829D3*
G1X204449Y153829D3*
G1X204449Y153238D3*
G1X204449Y152648D3*
G1X205630Y153829D3*
G1X205630Y153238D3*
G1X205630Y152648D3*
G1X205039Y153238D3*
G1X205039Y152648D3*
G1X207402Y153829D3*
G1X207402Y153238D3*
G1X207402Y152648D3*
G1X206221Y153829D3*
G1X206221Y153238D3*
G1X207992Y153238D3*
G1X207992Y153829D3*
G1X206811Y153829D3*
G1X207992Y152648D3*
G1X206811Y153238D3*
G1X206811Y152648D3*
G1X206221Y152648D3*
G1X208583Y153238D3*
G1X209764Y153238D3*
G1X209764Y152648D3*
G1X208583Y152648D3*
G1X209173Y153829D3*
G1X209173Y152648D3*
G1X209764Y153829D3*
G1X208583Y153829D3*
G1X209173Y153238D3*
G1X210945Y153829D3*
G1X210945Y153238D3*
G1X210354Y153238D3*
G1X211535Y153829D3*
G1X211535Y153238D3*
G1X210354Y152648D3*
G1X210354Y153829D3*
G1X211535Y152648D3*
G1X212126Y153829D3*
G1X212126Y153238D3*
G1X212126Y152648D3*
G1X210945Y152648D3*
G1X213898Y153829D3*
G1X213898Y153238D3*
G1X213898Y152648D3*
G1X212717Y152648D3*
G1X213307Y153829D3*
G1X212717Y153829D3*
G1X213307Y153238D3*
G1X213307Y152648D3*
G1X212717Y153238D3*
G1X214488Y153238D3*
G1X214488Y152648D3*
G1X215669Y153829D3*
G1X215079Y153238D3*
G1X215079Y152648D3*
G1X215669Y153238D3*
G1X215669Y152648D3*
G1X214488Y153829D3*
G1X215079Y153829D3*
G1X216850Y153829D3*
G1X217441Y152648D3*
G1X217441Y153829D3*
G1X217441Y153238D3*
G1X216850Y153238D3*
G1X216850Y152648D3*
G1X216260Y153829D3*
G1X216260Y153238D3*
G1X216260Y152648D3*
G1X182008Y156191D3*
G1X182008Y155600D3*
G1X182008Y154419D3*
G1X182008Y155010D3*
G1X183780Y155010D3*
G1X182598Y154419D3*
G1X183189Y156191D3*
G1X183189Y155600D3*
G1X183189Y154419D3*
G1X183780Y154419D3*
G1X183189Y155010D3*
G1X183780Y155600D3*
G1X183780Y156191D3*
G1X182598Y156191D3*
G1X182598Y155600D3*
G1X182598Y155010D3*
G1X185551Y155010D3*
G1X185551Y154419D3*
G1X185551Y156191D3*
G1X185551Y155600D3*
G1X184961Y156191D3*
G1X184961Y155600D3*
G1X184370Y154419D3*
G1X184961Y155010D3*
G1X184961Y154419D3*
G1X186142Y156191D3*
G1X186142Y155600D3*
G1X186142Y155010D3*
G1X186142Y154419D3*
G1X184370Y156191D3*
G1X184370Y155600D3*
G1X184370Y155010D3*
G1X186732Y156191D3*
G1X187323Y155600D3*
G1X187323Y155010D3*
G1X187323Y156191D3*
G1X186732Y155600D3*
G1X187323Y154419D3*
G1X187913Y156191D3*
G1X186732Y155010D3*
G1X186732Y154419D3*
G1X187913Y155600D3*
G1X187913Y155010D3*
G1X187913Y154419D3*
G1X189095Y156191D3*
G1X189685Y155600D3*
G1X189095Y155600D3*
G1X189685Y155010D3*
G1X189095Y155010D3*
G1X189685Y154419D3*
G1X188504Y156191D3*
G1X188504Y155600D3*
G1X188504Y155010D3*
G1X189095Y154419D3*
G1X188504Y154419D3*
G1X189685Y156191D3*
G1X191457Y156191D3*
G1X190276Y156191D3*
G1X190276Y155600D3*
G1X190276Y155010D3*
G1X191457Y155600D3*
G1X190866Y156191D3*
G1X190866Y155600D3*
G1X190866Y155010D3*
G1X190866Y154419D3*
G1X192047Y156191D3*
G1X192047Y155600D3*
G1X191457Y155010D3*
G1X191457Y154419D3*
G1X192047Y155010D3*
G1X192047Y154419D3*
G1X190276Y154419D3*
G1X193228Y156191D3*
G1X192638Y156191D3*
G1X192638Y155600D3*
G1X192638Y155010D3*
G1X193228Y155600D3*
G1X193228Y155010D3*
G1X193228Y154419D3*
G1X193819Y155010D3*
G1X193819Y154419D3*
G1X192638Y154419D3*
G1X193819Y156191D3*
G1X193819Y155600D3*
G1X195000Y154419D3*
G1X195000Y156191D3*
G1X195591Y155600D3*
G1X195000Y155600D3*
G1X195000Y155010D3*
G1X194409Y154419D3*
G1X195591Y155010D3*
G1X194409Y156191D3*
G1X194409Y155600D3*
G1X194409Y155010D3*
G1X195591Y156191D3*
G1X195591Y154419D3*
G1X196181Y156191D3*
G1X196181Y155600D3*
G1X196181Y154419D3*
G1X196181Y155010D3*
G1X197362Y155010D3*
G1X196772Y156191D3*
G1X196772Y155600D3*
G1X197953Y155010D3*
G1X197362Y154419D3*
G1X197953Y154419D3*
G1X196772Y155010D3*
G1X196772Y154419D3*
G1X197362Y155600D3*
G1X198543Y155010D3*
G1X198543Y154419D3*
G1X199134Y155010D3*
G1X199134Y154419D3*
G1X203858Y155010D3*
G1X203858Y154419D3*
G1X205039Y155010D3*
G1X205039Y154419D3*
G1X204449Y155010D3*
G1X204449Y154419D3*
G1X205630Y155010D3*
G1X205630Y154419D3*
G1X207992Y155600D3*
G1X207992Y155010D3*
G1X207992Y154419D3*
G1X206811Y154419D3*
G1X206811Y156191D3*
G1X206811Y155600D3*
G1X206811Y155010D3*
G1X206221Y156191D3*
G1X207402Y156191D3*
G1X207402Y155600D3*
G1X207402Y155010D3*
G1X207402Y154419D3*
G1X207992Y156191D3*
G1X206221Y155600D3*
G1X206221Y155010D3*
G1X206221Y154419D3*
G1X209764Y155010D3*
G1X209764Y154419D3*
G1X209764Y156191D3*
G1X209764Y155600D3*
G1X208583Y155010D3*
G1X209173Y154419D3*
G1X209173Y156191D3*
G1X209173Y155600D3*
G1X208583Y156191D3*
G1X208583Y155600D3*
G1X208583Y154419D3*
G1X209173Y155010D3*
G1X210945Y154419D3*
G1X211535Y155010D3*
G1X211535Y154419D3*
G1X210354Y154419D3*
G1X210945Y156191D3*
G1X210354Y156191D3*
G1X210354Y155600D3*
G1X212126Y155010D3*
G1X212126Y154419D3*
G1X211535Y156191D3*
G1X210945Y155600D3*
G1X210945Y155010D3*
G1X212126Y156191D3*
G1X212126Y155600D3*
G1X210354Y155010D3*
G1X211535Y155600D3*
G1X212717Y156191D3*
G1X212717Y155600D3*
G1X213307Y156191D3*
G1X212717Y155010D3*
G1X213898Y154419D3*
G1X213307Y155600D3*
G1X213898Y156191D3*
G1X213898Y155600D3*
G1X213898Y155010D3*
G1X212717Y154419D3*
G1X213307Y155010D3*
G1X213307Y154419D3*
G1X215079Y156191D3*
G1X215079Y155010D3*
G1X215079Y155600D3*
G1X215669Y155600D3*
G1X215669Y155010D3*
G1X215669Y154419D3*
G1X214488Y155600D3*
G1X214488Y155010D3*
G1X215669Y156191D3*
G1X214488Y154419D3*
G1X214488Y156191D3*
G1X215079Y154419D3*
G1X216260Y156191D3*
G1X216850Y155010D3*
G1X216850Y154419D3*
G1X216260Y155600D3*
G1X216260Y155010D3*
G1X216260Y154419D3*
G1X216850Y156191D3*
G1X216850Y155600D3*
G1X217441Y154419D3*
G1X217441Y156191D3*
G1X217441Y155600D3*
G1X217441Y155010D3*
G1X182008Y156782D3*
G1X182008Y157963D3*
G1X182008Y157372D3*
G1X182598Y157963D3*
G1X182598Y157372D3*
G1X182598Y156782D3*
G1X183189Y157372D3*
G1X183780Y157963D3*
G1X183780Y157372D3*
G1X183780Y156782D3*
G1X183189Y156782D3*
G1X183189Y157963D3*
G1X185551Y157372D3*
G1X185551Y156782D3*
G1X184961Y156782D3*
G1X184370Y156782D3*
G1X186142Y157963D3*
G1X186142Y157372D3*
G1X186142Y156782D3*
G1X184961Y157963D3*
G1X184961Y157372D3*
G1X185551Y157963D3*
G1X184370Y157963D3*
G1X184370Y157372D3*
G1X187323Y157963D3*
G1X186732Y157963D3*
G1X187323Y157372D3*
G1X187323Y156782D3*
G1X187913Y157963D3*
G1X186732Y157372D3*
G1X186732Y156782D3*
G1X187913Y157372D3*
G1X187913Y156782D3*
G1X189095Y156782D3*
G1X188504Y157372D3*
G1X188504Y156782D3*
G1X189095Y157963D3*
G1X189095Y157372D3*
G1X189685Y156782D3*
G1X188504Y157963D3*
G1X189685Y157963D3*
G1X189685Y157372D3*
G1X192047Y157963D3*
G1X192047Y157372D3*
G1X192047Y156782D3*
G1X191457Y157963D3*
G1X191457Y157372D3*
G1X190276Y157372D3*
G1X190276Y156782D3*
G1X190866Y157963D3*
G1X190276Y157963D3*
G1X191457Y156782D3*
G1X190866Y157372D3*
G1X190866Y156782D3*
G1X193228Y156782D3*
G1X193819Y157963D3*
G1X192638Y156782D3*
G1X193228Y157372D3*
G1X192638Y157963D3*
G1X192638Y157372D3*
G1X193228Y157963D3*
G1X193819Y157372D3*
G1X193819Y156782D3*
G1X195591Y157963D3*
G1X195591Y157372D3*
G1X195591Y156782D3*
G1X196181Y157963D3*
G1X194409Y157372D3*
G1X196181Y157372D3*
G1X196181Y156782D3*
G1X194409Y157963D3*
G1X195000Y157372D3*
G1X195000Y156782D3*
G1X194409Y156782D3*
G1X195000Y157963D3*
G1X196772Y156782D3*
G1X196772Y157963D3*
G1X196772Y157372D3*
G1X205630Y157963D3*
G1X207402Y157963D3*
G1X206811Y157963D3*
G1X206811Y157372D3*
G1X207992Y156782D3*
G1X207402Y157372D3*
G1X207402Y156782D3*
G1X206811Y156782D3*
G1X206221Y157963D3*
G1X206221Y157372D3*
G1X207992Y157963D3*
G1X206221Y156782D3*
G1X207992Y157372D3*
G1X208583Y156782D3*
G1X209173Y156782D3*
G1X209764Y157963D3*
G1X209764Y156782D3*
G1X209764Y157372D3*
G1X209173Y157963D3*
G1X209173Y157372D3*
G1X208583Y157963D3*
G1X208583Y157372D3*
G1X210945Y157963D3*
G1X210945Y157372D3*
G1X211535Y157963D3*
G1X211535Y157372D3*
G1X210945Y156782D3*
G1X210354Y156782D3*
G1X212126Y156782D3*
G1X211535Y156782D3*
G1X210354Y157963D3*
G1X210354Y157372D3*
G1X212126Y157963D3*
G1X212126Y157372D3*
G1X213307Y157963D3*
G1X213307Y157372D3*
G1X213898Y157963D3*
G1X213898Y157372D3*
G1X212717Y156782D3*
G1X213898Y156782D3*
G1X213307Y156782D3*
G1X212717Y157963D3*
G1X212717Y157372D3*
G1X215079Y157963D3*
G1X215079Y157372D3*
G1X215079Y156782D3*
G1X214488Y157963D3*
G1X214488Y157372D3*
G1X215669Y156782D3*
G1X215669Y157963D3*
G1X214488Y156782D3*
G1X215669Y157372D3*
G1X216260Y156782D3*
G1X217441Y157963D3*
G1X217441Y157372D3*
G1X217441Y156782D3*
G1X216850Y156782D3*
G1X216260Y157963D3*
G1X216850Y157963D3*
G1X216850Y157372D3*
G1X216260Y157372D3*
G1X182008Y158553D3*
G1X182008Y159144D3*
G1X183189Y159144D3*
G1X183189Y158553D3*
G1X182598Y159144D3*
G1X182598Y158553D3*
G1X183780Y159144D3*
G1X183780Y158553D3*
G1X184961Y159144D3*
G1X186142Y159144D3*
G1X184370Y159144D3*
G1X184961Y158553D3*
G1X186142Y158553D3*
G1X185551Y159144D3*
G1X185551Y158553D3*
G1X184370Y158553D3*
G1X186732Y159144D3*
G1X187913Y159144D3*
G1X186732Y158553D3*
G1X187323Y158553D3*
G1X187913Y158553D3*
G1X187323Y159144D3*
G1X189685Y159144D3*
G1X189685Y158553D3*
G1X189095Y159144D3*
G1X189095Y158553D3*
G1X188504Y158553D3*
G1X188504Y159144D3*
G1X192047Y158553D3*
G1X191457Y158553D3*
G1X190276Y159144D3*
G1X190276Y158553D3*
G1X192047Y159144D3*
G1X190866Y159144D3*
G1X190866Y158553D3*
G1X191457Y159144D3*
G1X193819Y158553D3*
G1X192638Y159734D3*
G1X192638Y159144D3*
G1X193228Y159144D3*
G1X193228Y158553D3*
G1X192638Y158553D3*
G1X193819Y159144D3*
G1X193819Y159734D3*
G1X193228Y159734D3*
G1X194409Y159144D3*
G1X195591Y159144D3*
G1X195591Y158553D3*
G1X195000Y159144D3*
G1X195000Y158553D3*
G1X194409Y158553D3*
G1X196181Y159144D3*
G1X196181Y158553D3*
G1X196181Y160325D3*
G1X196772Y159144D3*
G1X196772Y160325D3*
G1X196772Y158553D3*
G1X205630Y159144D3*
G1X207402Y159144D3*
G1X207402Y158553D3*
G1X206221Y159144D3*
G1X206221Y158553D3*
G1X207992Y158553D3*
G1X207992Y159144D3*
G1X206811Y159144D3*
G1X206811Y158553D3*
G1X208583Y159734D3*
G1X209764Y158553D3*
G1X208583Y159144D3*
G1X208583Y158553D3*
G1X209764Y159734D3*
G1X209764Y159144D3*
G1X209173Y159734D3*
G1X209173Y159144D3*
G1X209173Y158553D3*
G1X212126Y159144D3*
G1X210354Y158553D3*
G1X211535Y158553D3*
G1X212126Y158553D3*
G1X210354Y159734D3*
G1X210354Y159144D3*
G1X211535Y159144D3*
G1X210945Y159144D3*
G1X210945Y158553D3*
G1X212717Y159144D3*
G1X212717Y158553D3*
G1X213307Y159144D3*
G1X213307Y158553D3*
G1X213898Y159144D3*
G1X213898Y158553D3*
G1X215669Y159144D3*
G1X214488Y159144D3*
G1X214488Y158553D3*
G1X215079Y159144D3*
G1X215669Y158553D3*
G1X215079Y158553D3*
G1X217441Y159144D3*
G1X217441Y158553D3*
G1X216850Y159144D3*
G1X216260Y158553D3*
G1X216260Y159144D3*
G1X216850Y158553D3*
G1X194409Y161506D3*
G1X196181Y160915D3*
G1X196772Y161506D3*
G1X196772Y160915D3*
G1X197362Y163278D3*
G1X197953Y163278D3*
G1X196772Y163278D3*
G1X196772Y162687D3*
G1X198543Y163278D3*
G1X205630Y163278D3*
G1X204449Y163278D3*
G1X205630Y163868D3*
G1X205039Y163278D3*
G1X205039Y163868D3*
G1X193228Y165049D3*
G1X194409Y165049D3*
G1X196772Y166230D3*
G1X199134Y166230D3*
G1X199724Y166230D3*
G1X199724Y165640D3*
G1X199724Y165049D3*
G1X199134Y165640D3*
G1X200315Y165640D3*
G1X200315Y166230D3*
G1X200315Y165049D3*
G1X203858Y166230D3*
G1X202677Y166230D3*
G1X203268Y166230D3*
G1X215079Y165640D3*
G1X215079Y165049D3*
G1X196772Y166821D3*
G1X199724Y166821D3*
G1X200315Y166821D3*
G1X202087Y166821D3*
G1X200906Y166821D3*
G1X202677Y166821D3*
G1X203268Y166821D3*
G1X196181Y173908D3*
G1X196181Y173317D3*
G1X196181Y172726D3*
G1X201496Y173317D3*
G1X201496Y172726D3*
G1X201496Y173908D3*
G1X206221Y173317D3*
G1X206221Y172726D3*
G1X206811Y173317D3*
G1X206811Y173908D3*
G1X206221Y173908D3*
G1X196181Y174498D3*
G1X201496Y174498D3*
G1X206221Y174498D3*
G1X206811Y174498D3*
G1X181555Y159163D2*
G54D25*
G1X196595Y159163D1*
G1X196595Y155064D1*
G1X196826Y154833D1*
G1X205733Y154833D1*
G1X206063Y155163D1*
G1X206063Y159163D1*
G1X218445Y159163D1*
G1X218445Y149242D1*
G1X208686Y149242D1*
G1X207800Y150128D1*
G1X206161Y150128D1*
G1X206161Y151767D1*
G1X205930Y151998D1*
G1X196826Y151998D1*
G1X196595Y151767D1*
G1X196595Y150782D1*
G1X195054Y149242D1*
G1X181555Y149242D1*
G1X181555Y159163D1*
G1X206063Y159128D2*
G1X218445Y159128D1*
G1X206063Y159022D2*
G1X218445Y159022D1*
G1X206063Y158915D2*
G1X218445Y158915D1*
G1X206063Y158809D2*
G1X218445Y158809D1*
G1X206063Y158703D2*
G1X218445Y158703D1*
G1X206063Y158596D2*
G1X218445Y158596D1*
G1X206063Y158490D2*
G1X218445Y158490D1*
G1X206063Y158384D2*
G1X218445Y158384D1*
G1X206063Y158277D2*
G1X218445Y158277D1*
G1X206063Y158171D2*
G1X218445Y158171D1*
G1X206063Y158065D2*
G1X218445Y158065D1*
G1X206063Y157959D2*
G1X218445Y157959D1*
G1X206063Y157852D2*
G1X218445Y157852D1*
G1X206063Y157746D2*
G1X218445Y157746D1*
G1X206063Y157640D2*
G1X218445Y157640D1*
G1X206063Y157533D2*
G1X218445Y157533D1*
G1X206063Y157427D2*
G1X218445Y157427D1*
G1X206063Y157321D2*
G1X218445Y157321D1*
G1X206063Y157214D2*
G1X218445Y157214D1*
G1X206063Y157108D2*
G1X218445Y157108D1*
G1X206063Y157002D2*
G1X218445Y157002D1*
G1X206063Y156896D2*
G1X218445Y156896D1*
G1X206063Y156789D2*
G1X218445Y156789D1*
G1X206063Y156683D2*
G1X218445Y156683D1*
G1X206063Y156577D2*
G1X218445Y156577D1*
G1X206063Y156470D2*
G1X218445Y156470D1*
G1X206063Y156364D2*
G1X218445Y156364D1*
G1X206063Y156258D2*
G1X218445Y156258D1*
G1X206063Y156151D2*
G1X218445Y156151D1*
G1X206063Y156045D2*
G1X218445Y156045D1*
G1X206063Y155939D2*
G1X218445Y155939D1*
G1X206063Y155833D2*
G1X218445Y155833D1*
G1X206063Y155726D2*
G1X218445Y155726D1*
G1X206063Y155620D2*
G1X218445Y155620D1*
G1X206063Y155514D2*
G1X218445Y155514D1*
G1X206063Y155407D2*
G1X218445Y155407D1*
G1X206063Y155301D2*
G1X218445Y155301D1*
G1X206063Y155195D2*
G1X218445Y155195D1*
G1X205989Y155089D2*
G1X218445Y155089D1*
G1X205883Y154982D2*
G1X218445Y154982D1*
G1X205776Y154876D2*
G1X218445Y154876D1*
G1X181555Y154770D2*
G1X218445Y154770D1*
G1X181555Y154663D2*
G1X218445Y154663D1*
G1X181555Y154557D2*
G1X218445Y154557D1*
G1X181555Y154451D2*
G1X218445Y154451D1*
G1X181555Y154344D2*
G1X218445Y154344D1*
G1X181555Y154238D2*
G1X218445Y154238D1*
G1X181555Y154132D2*
G1X218445Y154132D1*
G1X181555Y154026D2*
G1X218445Y154026D1*
G1X181555Y153919D2*
G1X218445Y153919D1*
G1X181555Y153813D2*
G1X218445Y153813D1*
G1X181555Y153707D2*
G1X218445Y153707D1*
G1X181555Y153600D2*
G1X218445Y153600D1*
G1X181555Y153494D2*
G1X218445Y153494D1*
G1X181555Y153388D2*
G1X218445Y153388D1*
G1X181555Y153281D2*
G1X218445Y153281D1*
G1X181555Y153175D2*
G1X218445Y153175D1*
G1X181555Y153069D2*
G1X218445Y153069D1*
G1X181555Y152963D2*
G1X218445Y152963D1*
G1X181555Y152856D2*
G1X218445Y152856D1*
G1X181555Y152750D2*
G1X218445Y152750D1*
G1X181555Y152644D2*
G1X218445Y152644D1*
G1X181555Y152537D2*
G1X218445Y152537D1*
G1X181555Y152431D2*
G1X218445Y152431D1*
G1X181555Y152325D2*
G1X218445Y152325D1*
G1X181555Y152218D2*
G1X218445Y152218D1*
G1X181555Y152112D2*
G1X218445Y152112D1*
G1X181555Y152006D2*
G1X218445Y152006D1*
G1X206029Y151900D2*
G1X218445Y151900D1*
G1X206135Y151793D2*
G1X218445Y151793D1*
G1X206161Y151687D2*
G1X218445Y151687D1*
G1X206161Y151581D2*
G1X218445Y151581D1*
G1X206161Y151474D2*
G1X218445Y151474D1*
G1X206161Y151368D2*
G1X218445Y151368D1*
G1X206161Y151262D2*
G1X218445Y151262D1*
G1X206161Y151155D2*
G1X218445Y151155D1*
G1X206161Y151049D2*
G1X218445Y151049D1*
G1X206161Y150943D2*
G1X218445Y150943D1*
G1X206161Y150837D2*
G1X218445Y150837D1*
G1X206161Y150730D2*
G1X218445Y150730D1*
G1X206161Y150624D2*
G1X218445Y150624D1*
G1X206161Y150518D2*
G1X218445Y150518D1*
G1X206161Y150411D2*
G1X218445Y150411D1*
G1X206161Y150305D2*
G1X218445Y150305D1*
G1X206161Y150199D2*
G1X218445Y150199D1*
G1X207836Y150092D2*
G1X218445Y150092D1*
G1X207942Y149986D2*
G1X218445Y149986D1*
G1X208048Y149880D2*
G1X218445Y149880D1*
G1X208155Y149774D2*
G1X218445Y149774D1*
G1X208261Y149667D2*
G1X218445Y149667D1*
G1X208367Y149561D2*
G1X218445Y149561D1*
G1X208473Y149455D2*
G1X218445Y149455D1*
G1X208580Y149348D2*
G1X218445Y149348D1*
G1X181555Y154876D2*
G1X196783Y154876D1*
G1X181555Y151900D2*
G1X196727Y151900D1*
G1X181555Y154982D2*
G1X196677Y154982D1*
G1X181555Y151793D2*
G1X196621Y151793D1*
G1X181555Y159128D2*
G1X196595Y159128D1*
G1X181555Y159022D2*
G1X196595Y159022D1*
G1X181555Y158915D2*
G1X196595Y158915D1*
G1X181555Y158809D2*
G1X196595Y158809D1*
G1X181555Y158703D2*
G1X196595Y158703D1*
G1X181555Y158596D2*
G1X196595Y158596D1*
G1X181555Y158490D2*
G1X196595Y158490D1*
G1X181555Y158384D2*
G1X196595Y158384D1*
G1X181555Y158277D2*
G1X196595Y158277D1*
G1X181555Y158171D2*
G1X196595Y158171D1*
G1X181555Y158065D2*
G1X196595Y158065D1*
G1X181555Y157959D2*
G1X196595Y157959D1*
G1X181555Y157852D2*
G1X196595Y157852D1*
G1X181555Y157746D2*
G1X196595Y157746D1*
G1X181555Y157640D2*
G1X196595Y157640D1*
G1X181555Y157533D2*
G1X196595Y157533D1*
G1X181555Y157427D2*
G1X196595Y157427D1*
G1X181555Y157321D2*
G1X196595Y157321D1*
G1X181555Y157214D2*
G1X196595Y157214D1*
G1X181555Y157108D2*
G1X196595Y157108D1*
G1X181555Y157002D2*
G1X196595Y157002D1*
G1X181555Y156896D2*
G1X196595Y156896D1*
G1X181555Y156789D2*
G1X196595Y156789D1*
G1X181555Y156683D2*
G1X196595Y156683D1*
G1X181555Y156577D2*
G1X196595Y156577D1*
G1X181555Y156470D2*
G1X196595Y156470D1*
G1X181555Y156364D2*
G1X196595Y156364D1*
G1X181555Y156258D2*
G1X196595Y156258D1*
G1X181555Y156151D2*
G1X196595Y156151D1*
G1X181555Y156045D2*
G1X196595Y156045D1*
G1X181555Y155939D2*
G1X196595Y155939D1*
G1X181555Y155833D2*
G1X196595Y155833D1*
G1X181555Y155726D2*
G1X196595Y155726D1*
G1X181555Y155620D2*
G1X196595Y155620D1*
G1X181555Y155514D2*
G1X196595Y155514D1*
G1X181555Y155407D2*
G1X196595Y155407D1*
G1X181555Y155301D2*
G1X196595Y155301D1*
G1X181555Y155195D2*
G1X196595Y155195D1*
G1X181555Y155089D2*
G1X196595Y155089D1*
G1X181555Y151687D2*
G1X196595Y151687D1*
G1X181555Y151581D2*
G1X196595Y151581D1*
G1X181555Y151474D2*
G1X196595Y151474D1*
G1X181555Y151368D2*
G1X196595Y151368D1*
G1X181555Y151262D2*
G1X196595Y151262D1*
G1X181555Y151155D2*
G1X196595Y151155D1*
G1X181555Y151049D2*
G1X196595Y151049D1*
G1X181555Y150943D2*
G1X196595Y150943D1*
G1X181555Y150837D2*
G1X196595Y150837D1*
G1X181555Y150730D2*
G1X196542Y150730D1*
G1X181555Y150624D2*
G1X196436Y150624D1*
G1X181555Y150518D2*
G1X196330Y150518D1*
G1X181555Y150411D2*
G1X196223Y150411D1*
G1X181555Y150305D2*
G1X196117Y150305D1*
G1X181555Y150199D2*
G1X196011Y150199D1*
G1X181555Y150092D2*
G1X195905Y150092D1*
G1X181555Y149986D2*
G1X195798Y149986D1*
G1X181555Y149880D2*
G1X195692Y149880D1*
G1X181555Y149774D2*
G1X195586Y149774D1*
G1X181555Y149667D2*
G1X195479Y149667D1*
G1X181555Y149561D2*
G1X195373Y149561D1*
G1X181555Y149455D2*
G1X195267Y149455D1*
G1X181555Y149348D2*
G1X195160Y149348D1*
G1X217323Y146230D2*
G75*
G54D33*
G3X217323Y146230I-591J0D1*
G1X183858Y173789D2*
G3X183858Y173789I-591J0D1*
G1X217323Y173789D2*
G3X217323Y173789I-591J0D1*
G1X183858Y146230D2*
G3X183858Y146230I-591J0D1*
G74*
G54D55*
G1X206772Y149360D3*
G1X206772Y148376D3*
G54D60*
G1X200374Y147982D3*
G1X204646Y147471D3*
G1X199547Y149026D3*
G1X200610Y149026D3*
G1X203032Y149439D3*
G1X203661Y149439D3*
G1X204646Y149459D3*
G1X198917Y150443D3*
G1X200158Y158435D3*
G1X200158Y158868D3*
G1X202185Y158435D3*
G1X202185Y158868D3*
G1X200551Y158868D3*
G1X200551Y158435D3*
G1X202579Y158868D3*
G1X202579Y158435D3*
G1X205591Y158553D3*
G54D61*
G1X197874Y146600D3*
G1X198874Y145600D3*
G1X198874Y146600D3*
G1X199874Y145600D3*
G1X199874Y146600D3*
G1X200874Y145600D3*
G1X200874Y146600D3*
G1X201874Y145600D3*
G1X201874Y146600D3*
G1X202874Y145600D3*
G1X202874Y146600D3*
G1X203874Y145600D3*
G1X203874Y146600D3*
G1X204874Y145600D3*
G1X204874Y146600D3*
G1X199941Y152549D3*
G1X199941Y154321D3*
G1X199941Y153730D3*
G1X199941Y153140D3*
G1X201122Y152549D3*
G1X201713Y153730D3*
G1X201713Y153140D3*
G1X201122Y154321D3*
G1X201122Y153730D3*
G1X201713Y152549D3*
G1X200532Y153730D3*
G1X200532Y154321D3*
G1X200532Y152549D3*
G1X200532Y153140D3*
G1X201713Y154321D3*
G1X201122Y153140D3*
G1X202303Y154321D3*
G1X202894Y154321D3*
G1X202303Y153140D3*
G1X202894Y152549D3*
G1X202303Y152549D3*
G1X202303Y153730D3*
G1X202894Y153730D3*
G1X202894Y153140D3*
G54D80*
G1X201201Y149971D3*
G1X205315Y149971D3*
G1X202205Y150778D3*
G1X200295Y150423D3*
G1X204016Y150778D3*
G1X205020Y150423D3*
G54D158*
G1X192913Y161866D3*
G1X192913Y160516D3*
G1X192913Y168154D3*
G1X192913Y169504D3*
G1X209921Y161866D3*
G1X209921Y160516D3*
G1X209902Y168154D3*
G1X209902Y169504D3*
G1X199128Y160049D3*
G1X200478Y160049D3*
G1X203687Y160049D3*
G1X202337Y160049D3*
G1X199455Y158553D3*
G1X198105Y158553D3*
G1X203341Y158553D3*
G1X204691Y158553D3*
G54D181*
G1X199867Y161093D3*
G1X200487Y161093D3*
G1X202948Y161093D3*
G1X202328Y161093D3*
G1X203027Y147943D3*
G1X202407Y147943D3*
G1X203027Y148829D3*
G1X202407Y148829D3*
G1X204021Y148829D3*
G1X204641Y148829D3*
G1X203037Y149990D3*
G1X203657Y149990D3*
G1X198597Y149144D3*
G1X197977Y149144D3*
G1X199552Y148612D3*
G1X200172Y148612D3*
G1X197977Y149990D3*
G1X198597Y149990D3*
G1X204641Y147943D3*
G1X204021Y147943D3*
G1X197485Y156742D3*
G1X198105Y156742D3*
G1X205271Y156703D3*
G1X204651Y156703D3*
G1X199552Y149518D3*
G1X200172Y149518D3*
G1X197977Y148219D3*
G1X198597Y148219D3*
G54D182*
G1X193996Y162623D3*
G1X193996Y162003D3*
G1X193996Y167456D3*
G1X193996Y168076D3*
G1X193996Y161048D3*
G1X193996Y160428D3*
G1X193996Y168991D3*
G1X193996Y169611D3*
G1X208819Y161048D3*
G1X208819Y160428D3*
G1X208819Y168991D3*
G1X208819Y169611D3*
G1X208819Y162623D3*
G1X208819Y162003D3*
G1X208819Y167456D3*
G1X208819Y168076D3*
G1X200453Y157820D3*
G1X200453Y157200D3*
G1X202343Y157820D3*
G1X202343Y157200D3*
G1X201063Y149355D3*
G1X201063Y148735D3*
G1X196890Y149808D3*
G1X196890Y149188D3*
G54D195*
G1X197874Y145600D3*
G54D196*
G1X203071Y155423D3*
G1X202874Y155423D3*
G1X202677Y155423D3*
G1X202480Y155423D3*
G1X202284Y155423D3*
G1X202087Y155423D3*
G1X201890Y155423D3*
G1X201693Y155423D3*
G1X201496Y155423D3*
G1X201299Y155423D3*
G1X201102Y155423D3*
G1X200906Y155423D3*
G1X200709Y155423D3*
G1X200512Y155423D3*
G1X200315Y155423D3*
G1X200118Y155423D3*
G1X199921Y155423D3*
G1X199724Y155423D3*
G1X199724Y151368D3*
G1X199921Y151368D3*
G1X200118Y151368D3*
G1X200315Y151368D3*
G1X200512Y151368D3*
G1X200709Y151368D3*
G1X200906Y151368D3*
G1X201102Y151368D3*
G1X201299Y151368D3*
G1X201496Y151368D3*
G1X201693Y151368D3*
G1X201890Y151368D3*
G1X202087Y151368D3*
G1X202284Y151368D3*
G1X202480Y151368D3*
G1X202677Y151368D3*
G1X202874Y151368D3*
G1X203071Y151368D3*
G54D197*
G1X213681Y167156D3*
G1X213681Y165187D3*
G1X216634Y165187D3*
G1X216634Y167156D3*
G54D198*
G1X205044Y173331D3*
G1X203094Y173331D3*
G1X199894Y173331D3*
G1X197944Y173331D3*
G1X197744Y173331D3*
G1X204844Y173331D3*
G1X202894Y173331D3*
G1X199694Y173331D3*
G54D199*
G1X207894Y171781D3*
G1X194894Y171781D3*
G54D201*
G1X197874Y145600D3*
G54D202*
G1X197874Y146600D3*
G1X198874Y145600D3*
G1X198874Y146600D3*
G1X199874Y145600D3*
G1X199874Y146600D3*
G1X200874Y145600D3*
G1X200874Y146600D3*
G1X201874Y145600D3*
G1X201874Y146600D3*
G1X202874Y145600D3*
G1X202874Y146600D3*
G1X203874Y145600D3*
G1X203874Y146600D3*
G1X204874Y145600D3*
G1X204874Y146600D3*
G1X173171Y159400D2*
G54D21*
G1X179601Y159400D1*
M2*
