  0
SECTION
  2
HEADER
  9
$ACADVER
  1
AC1009
  9
$DWGCODEPAGE
  3
mac-roman
  9
$INSBASE
 10
0.0
 20
0.0
 30
0.0
  9
$EXTMIN
 10
17.2000014722222
 20
-313.5999879722223
 30
0.0
  9
$EXTMAX
 10
269.9999686944444
 20
280.0001481388889
 30
0.0
  9
$LIMMIN
 10
0.0
 20
0.0
  9
$LIMMAX
 10
12.0
 20
9.0
  9
$ORTHOMODE
 70
     0
  9
$REGENMODE
 70
     1
  9
$FILLMODE
 70
     1
  9
$QTEXTMODE
 70
     0
  9
$MIRRTEXT
 70
     1
  9
$DRAGMODE
 70
     2
  9
$LTSCALE
 40
1.0
  9
$OSMODE
 70
    37
  9
$ATTMODE
 70
     1
  9
$TEXTSIZE
 40
0.2
  9
$TRACEWID
 40
0.05
  9
$TEXTSTYLE
  7
STANDARD
  9
$CLAYER
  8
DEFAULT
  9
$CELTYPE
  6
BYLAYER
  9
$CECOLOR
 62
   256
  9
$DIMSCALE
 40
1.0
  9
$DIMASZ
 40
0.18
  9
$DIMEXO
 40
0.0625
  9
$DIMDLI
 40
0.38
  9
$DIMRND
 40
0.0
  9
$DIMDLE
 40
0.0
  9
$DIMEXE
 40
0.18
  9
$DIMTP
 40
0.0
  9
$DIMTM
 40
0.0
  9
$DIMTXT
 40
0.18
  9
$DIMCEN
 40
0.09
  9
$DIMTSZ
 40
0.0
  9
$DIMTOL
 70
     0
  9
$DIMLIM
 70
     0
  9
$DIMTIH
 70
     1
  9
$DIMTOH
 70
     1
  9
$DIMSE1
 70
     0
  9
$DIMSE2
 70
     0
  9
$DIMTAD
 70
     0
  9
$DIMZIN
 70
     0
  9
$DIMBLK
  1

  9
$DIMASO
 70
     1
  9
$DIMSHO
 70
     1
  9
$DIMPOST
  1

  9
$DIMAPOST
  1

  9
$DIMALT
 70
     0
  9
$DIMALTD
 70
     2
  9
$DIMALTF
 40
25.4
  9
$DIMLFAC
 40
1.0
  9
$DIMTOFL
 70
     0
  9
$DIMTVP
 40
0.0
  9
$DIMTIX
 70
     0
  9
$DIMSOXD
 70
     0
  9
$DIMSAH
 70
     0
  9
$DIMBLK1
  1

  9
$DIMBLK2
  1

  9
$DIMSTYLE
  2
STANDARD
  9
$DIMCLRD
 70
     0
  9
$DIMCLRE
 70
     0
  9
$DIMCLRT
 70
     0
  9
$DIMTFAC
 40
1.0
  9
$DIMGAP
 40
0.09
  9
$LUNITS
 70
     2
  9
$LUPREC
 70
     2
  9
$SKETCHINC
 40
0.1
  9
$FILLETRAD
 40
0.5
  9
$AUNITS
 70
     0
  9
$AUPREC
 70
     0
  9
$MENU
  1
.
  9
$ELEVATION
 40
0.0
  9
$PELEVATION
 40
0.0
  9
$THICKNESS
 40
0.0
  9
$LIMCHECK
 70
     0
  9
$CHAMFERA
 40
0.0
  9
$CHAMFERB
 40
0.0
  9
$SKPOLY
 70
     0
  9
$TDCREATE
 40
2457523.259074074
  9
$TDUPDATE
 40
2457523.259097222
  9
$TDINDWG
 40
0.0000000116
  9
$TDUSRTIMER
 40
0.0000000116
  9
$USRTIMER
 70
     1
  9
$ANGBASE
 50
0.0
  9
$ANGDIR
 70
     0
  9
$PDMODE
 70
     0
  9
$PDSIZE
 40
0.0
  9
$PLINEWID
 40
0.0
  9
$COORDS
 70
     1
  9
$SPLFRAME
 70
     0
  9
$SPLINETYPE
 70
     6
  9
$SPLINESEGS
 70
     8
  9
$ATTDIA
 70
     0
  9
$ATTREQ
 70
     1
  9
$HANDLING
 70
     1
  9
$HANDSEED
  5
435
  9
$SURFTAB1
 70
     6
  9
$SURFTAB2
 70
     6
  9
$SURFTYPE
 70
     6
  9
$SURFU
 70
     6
  9
$SURFV
 70
     6
  9
$UCSNAME
  2

  9
$UCSORG
 10
0.0
 20
0.0
 30
0.0
  9
$UCSXDIR
 10
1.0
 20
0.0
 30
0.0
  9
$UCSYDIR
 10
0.0
 20
1.0
 30
0.0
  9
$PUCSNAME
  2

  9
$PUCSORG
 10
0.0
 20
0.0
 30
0.0
  9
$PUCSXDIR
 10
1.0
 20
0.0
 30
0.0
  9
$PUCSYDIR
 10
0.0
 20
1.0
 30
0.0
  9
$USERI1
 70
     0
  9
$USERI2
 70
     0
  9
$USERI3
 70
     0
  9
$USERI4
 70
     0
  9
$USERI5
 70
     0
  9
$USERR1
 40
0.0
  9
$USERR2
 40
0.0
  9
$USERR3
 40
0.0
  9
$USERR4
 40
0.0
  9
$USERR5
 40
0.0
  9
$WORLDVIEW
 70
     1
  9
$SHADEDGE
 70
     3
  9
$SHADEDIF
 70
    70
  9
$TILEMODE
 70
     1
  9
$MAXACTVP
 70
    64
  9
$PLIMCHECK
 70
     0
  9
$PEXTMIN
 10
1.000000000000000E+20
 20
1.000000000000000E+20
 30
1.000000000000000E+20
  9
$PEXTMAX
 10
-1.000000000000000E+20
 20
-1.000000000000000E+20
 30
-1.000000000000000E+20
  9
$PLIMMIN
 10
0.0
 20
0.0
  9
$PLIMMAX
 10
12.0
 20
9.0
  9
$UNITMODE
 70
     0
  9
$VISRETAIN
 70
     1
  9
$PLINEGEN
 70
     0
  9
$PSLTSCALE
 70
     1
  0
ENDSEC
  0
SECTION
  2
TABLES
  0
TABLE
  2
VPORT
 70
     1
  0
VPORT
  2
*ACTIVE
 70
     0
 10
0.0
 20
0.0
 11
1.0
 21
1.0
 12
143.5999850833333
 22
-16.79991991666674
 13
0.0
 23
0.0
 14
0.5
 24
0.5
 15
0.5
 25
0.5
 16
0.0
 26
0.0
 36
1.0
 17
0.0
 27
0.0
 37
0.0
 40
605.4721388333334
 41
0.4258758579106907
 42
50.0
 43
0.0
 44
0.0
 50
0.0
 51
0.0
 71
     0
 72
   100
 73
     1
 74
     3
 75
     0
 76
     0
 77
     0
 78
     0
  0
ENDTAB
  0
TABLE
  2
LTYPE
 70
     1
  0
LTYPE
  2
CONTINUOUS
 70
     0
  3
Solid line
 72
    65
 73
     0
 40
0.0
  0
ENDTAB
  0
TABLE
  2
LAYER
 70
     4
  0
LAYER
  2
0
 70
     0
 62
     7
  6
CONTINUOUS
  0
LAYER
  2
LAYER_01
 70
     0
 62
     1
  6
CONTINUOUS
  0
LAYER
  2
DEFAULT
 70
     0
 62
     7
  6
CONTINUOUS
  0
LAYER
  2
LAYER_02
 70
     0
 62
   192
  6
CONTINUOUS
  0
ENDTAB
  0
TABLE
  2
STYLE
 70
     1
  0
STYLE
  2
STANDARD
 70
     0
 40
0.0
 41
1.0
 50
0.0
 71
     0
 42
0.2
  3
txt
  4

  0
ENDTAB
  0
TABLE
  2
VIEW
 70
     0
  0
ENDTAB
  0
TABLE
  2
UCS
 70
     0
  0
ENDTAB
  0
TABLE
  2
APPID
 70
     1
  0
APPID
  2
ACAD
 70
     0
  0
ENDTAB
  0
TABLE
  2
DIMSTYLE
 70
     1
  0
DIMSTYLE
  2
STANDARD
 70
     0
  3

  4

  5

  6

  7

 40
1.0
 41
0.18
 42
0.0625
 43
0.38
 44
0.18
 45
0.0
 46
0.0
 47
0.0
 48
0.0
140
0.18
141
0.09
142
0.0
143
25.4
144
1.0
145
0.0
146
1.0
147
0.09
 71
     0
 72
     0
 73
     1
 74
     1
 75
     0
 76
     0
 77
     0
 78
     0
170
     0
171
     2
172
     0
173
     0
174
     0
175
     0
176
     0
177
     0
178
     0
  0
ENDTAB
  0
ENDSEC
  0
SECTION
  2
BLOCKS
  0
BLOCK
  8
0
  2
$MODEL_SPACE
 70
     0
 10
0.0
 20
0.0
 30
0.0
  3
$MODEL_SPACE
  1

  0
ENDBLK
  5
21
  8
0
  0
BLOCK
 67
     1
  8
0
  2
$PAPER_SPACE
 70
     0
 10
0.0
 20
0.0
 30
0.0
  3
$PAPER_SPACE
  1

  0
ENDBLK
  5
1D
 67
     1
  8
0
  0
ENDSEC
  0
SECTION
  2
ENTITIES
  0
LINE
  5
6F
  8
LAYER_01
 10
167.4999723055555
 20
85.50003425000006
 30
0.0
 11
167.4999723055555
 21
81.50003425000006
 31
0.0
  0
LINE
  5
70
  8
LAYER_01
 10
167.4999723055555
 20
81.50003425000006
 30
0.0
 11
257.4999723055556
 21
81.50003425000006
 31
0.0
  0
LINE
  5
71
  8
LAYER_01
 10
257.4999723055556
 20
81.50003425000006
 30
0.0
 11
257.4999723055556
 21
85.50003425000006
 31
0.0
  0
LINE
  5
72
  8
LAYER_01
 10
257.4999723055556
 20
85.50003425000006
 30
0.0
 11
167.4999723055555
 21
85.50003425000006
 31
0.0
  0
LINE
  5
73
  8
LAYER_01
 10
167.4999723055555
 20
95.50003425000006
 30
0.0
 11
167.4999723055555
 21
91.50003425000006
 31
0.0
  0
LINE
  5
74
  8
LAYER_01
 10
167.4999723055555
 20
91.50003425000006
 30
0.0
 11
257.4999723055556
 21
91.50003425000006
 31
0.0
  0
LINE
  5
75
  8
LAYER_01
 10
257.4999723055556
 20
91.50003425000006
 30
0.0
 11
257.4999723055556
 21
95.50003425000006
 31
0.0
  0
LINE
  5
76
  8
LAYER_01
 10
257.4999723055556
 20
95.50003425000006
 30
0.0
 11
167.4999723055555
 21
95.50003425000006
 31
0.0
  0
LINE
  5
77
  8
LAYER_01
 10
167.4999723055555
 20
-84.49996574999989
 30
0.0
 11
167.4999723055555
 21
-88.49996574999989
 31
0.0
  0
LINE
  5
78
  8
LAYER_01
 10
167.4999723055555
 20
-88.49996574999989
 30
0.0
 11
257.4999723055556
 21
-88.49996574999989
 31
0.0
  0
LINE
  5
79
  8
LAYER_01
 10
257.4999723055556
 20
-88.49996574999989
 30
0.0
 11
257.4999723055556
 21
-84.49996574999989
 31
0.0
  0
LINE
  5
7A
  8
LAYER_01
 10
257.4999723055556
 20
-84.49996574999989
 30
0.0
 11
167.4999723055555
 21
-84.49996574999989
 31
0.0
  0
LINE
  5
7B
  8
LAYER_01
 10
167.4999723055555
 20
-74.49996574999989
 30
0.0
 11
167.4999723055555
 21
-78.49996574999989
 31
0.0
  0
LINE
  5
7C
  8
LAYER_01
 10
167.4999723055555
 20
-78.49996574999989
 30
0.0
 11
257.4999723055556
 21
-78.49996574999989
 31
0.0
  0
LINE
  5
7D
  8
LAYER_01
 10
257.4999723055556
 20
-78.49996574999989
 30
0.0
 11
257.4999723055556
 21
-74.49996574999989
 31
0.0
  0
LINE
  5
7E
  8
LAYER_01
 10
257.4999723055556
 20
-74.49996574999989
 30
0.0
 11
167.4999723055555
 21
-74.49996574999989
 31
0.0
  0
LINE
  5
7F
  8
LAYER_01
 10
167.4999723055555
 20
-64.49996574999989
 30
0.0
 11
167.4999723055555
 21
-68.49996574999989
 31
0.0
  0
LINE
  5
80
  8
LAYER_01
 10
167.4999723055555
 20
-68.49996574999989
 30
0.0
 11
257.4999723055556
 21
-68.49996574999989
 31
0.0
  0
LINE
  5
81
  8
LAYER_01
 10
257.4999723055556
 20
-68.49996574999989
 30
0.0
 11
257.4999723055556
 21
-64.49996574999989
 31
0.0
  0
LINE
  5
82
  8
LAYER_01
 10
257.4999723055556
 20
-64.49996574999989
 30
0.0
 11
167.4999723055555
 21
-64.49996574999989
 31
0.0
  0
LINE
  5
83
  8
LAYER_01
 10
167.4999723055555
 20
-54.49996574999989
 30
0.0
 11
167.4999723055555
 21
-58.49996574999989
 31
0.0
  0
LINE
  5
84
  8
LAYER_01
 10
167.4999723055555
 20
-58.49996574999989
 30
0.0
 11
257.4999723055556
 21
-58.49996574999989
 31
0.0
  0
LINE
  5
85
  8
LAYER_01
 10
257.4999723055556
 20
-58.49996574999989
 30
0.0
 11
257.4999723055556
 21
-54.49996574999989
 31
0.0
  0
LINE
  5
86
  8
LAYER_01
 10
257.4999723055556
 20
-54.49996574999989
 30
0.0
 11
167.4999723055555
 21
-54.49996574999989
 31
0.0
  0
LINE
  5
87
  8
LAYER_01
 10
167.4999723055555
 20
-44.49996574999989
 30
0.0
 11
167.4999723055555
 21
-48.49996574999989
 31
0.0
  0
LINE
  5
88
  8
LAYER_01
 10
167.4999723055555
 20
-48.49996574999989
 30
0.0
 11
257.4999723055556
 21
-48.49996574999989
 31
0.0
  0
LINE
  5
89
  8
LAYER_01
 10
257.4999723055556
 20
-48.49996574999989
 30
0.0
 11
257.4999723055556
 21
-44.49996574999989
 31
0.0
  0
LINE
  5
8A
  8
LAYER_01
 10
257.4999723055556
 20
-44.49996574999989
 30
0.0
 11
167.4999723055555
 21
-44.49996574999989
 31
0.0
  0
LINE
  5
8B
  8
LAYER_01
 10
167.4999723055555
 20
-34.49996574999989
 30
0.0
 11
167.4999723055555
 21
-38.49996574999989
 31
0.0
  0
LINE
  5
8C
  8
LAYER_01
 10
167.4999723055555
 20
-38.49996574999989
 30
0.0
 11
257.4999723055556
 21
-38.49996574999989
 31
0.0
  0
LINE
  5
8D
  8
LAYER_01
 10
257.4999723055556
 20
-38.49996574999989
 30
0.0
 11
257.4999723055556
 21
-34.49996574999989
 31
0.0
  0
LINE
  5
8E
  8
LAYER_01
 10
257.4999723055556
 20
-34.49996574999989
 30
0.0
 11
167.4999723055555
 21
-34.49996574999989
 31
0.0
  0
LINE
  5
8F
  8
LAYER_01
 10
167.4999723055555
 20
-24.49996574999989
 30
0.0
 11
167.4999723055555
 21
-28.49996574999989
 31
0.0
  0
LINE
  5
90
  8
LAYER_01
 10
167.4999723055555
 20
-28.49996574999989
 30
0.0
 11
257.4999723055556
 21
-28.49996574999989
 31
0.0
  0
LINE
  5
91
  8
LAYER_01
 10
257.4999723055556
 20
-28.49996574999989
 30
0.0
 11
257.4999723055556
 21
-24.49996574999989
 31
0.0
  0
LINE
  5
92
  8
LAYER_01
 10
257.4999723055556
 20
-24.49996574999989
 30
0.0
 11
167.4999723055555
 21
-24.49996574999989
 31
0.0
  0
LINE
  5
93
  8
LAYER_01
 10
167.4999723055555
 20
-14.49996574999989
 30
0.0
 11
167.4999723055555
 21
-18.49996574999989
 31
0.0
  0
LINE
  5
94
  8
LAYER_01
 10
167.4999723055555
 20
-18.49996574999989
 30
0.0
 11
257.4999723055556
 21
-18.49996574999989
 31
0.0
  0
LINE
  5
95
  8
LAYER_01
 10
257.4999723055556
 20
-18.49996574999989
 30
0.0
 11
257.4999723055556
 21
-14.49996574999989
 31
0.0
  0
LINE
  5
96
  8
LAYER_01
 10
257.4999723055556
 20
-14.49996574999989
 30
0.0
 11
167.4999723055555
 21
-14.49996574999989
 31
0.0
  0
LINE
  5
97
  8
LAYER_01
 10
167.4999723055555
 20
-4.499965749999888
 30
0.0
 11
167.4999723055555
 21
-8.499965749999888
 31
0.0
  0
LINE
  5
98
  8
LAYER_01
 10
167.4999723055555
 20
-8.499965749999888
 30
0.0
 11
257.4999723055556
 21
-8.499965749999888
 31
0.0
  0
LINE
  5
99
  8
LAYER_01
 10
257.4999723055556
 20
-8.499965749999888
 30
0.0
 11
257.4999723055556
 21
-4.499965749999888
 31
0.0
  0
LINE
  5
9A
  8
LAYER_01
 10
257.4999723055556
 20
-4.499965749999888
 30
0.0
 11
167.4999723055555
 21
-4.499965749999888
 31
0.0
  0
LINE
  5
9B
  8
LAYER_01
 10
167.4999723055555
 20
5.500034250000112
 30
0.0
 11
167.4999723055555
 21
1.500034250000112
 31
0.0
  0
LINE
  5
9C
  8
LAYER_01
 10
167.4999723055555
 20
1.500034250000112
 30
0.0
 11
257.4999723055556
 21
1.500034250000112
 31
0.0
  0
LINE
  5
9D
  8
LAYER_01
 10
257.4999723055556
 20
1.500034250000112
 30
0.0
 11
257.4999723055556
 21
5.500034250000112
 31
0.0
  0
LINE
  5
9E
  8
LAYER_01
 10
257.4999723055556
 20
5.500034250000112
 30
0.0
 11
167.4999723055555
 21
5.500034250000112
 31
0.0
  0
LINE
  5
9F
  8
LAYER_01
 10
167.4999723055555
 20
15.50003425000011
 30
0.0
 11
167.4999723055555
 21
11.50003425000011
 31
0.0
  0
LINE
  5
A0
  8
LAYER_01
 10
167.4999723055555
 20
11.50003425000011
 30
0.0
 11
257.4999723055556
 21
11.50003425000011
 31
0.0
  0
LINE
  5
A1
  8
LAYER_01
 10
257.4999723055556
 20
11.50003425000011
 30
0.0
 11
257.4999723055556
 21
15.50003425000011
 31
0.0
  0
LINE
  5
A2
  8
LAYER_01
 10
257.4999723055556
 20
15.50003425000011
 30
0.0
 11
167.4999723055555
 21
15.50003425000011
 31
0.0
  0
LINE
  5
A3
  8
LAYER_01
 10
167.4999723055555
 20
25.50003425000011
 30
0.0
 11
167.4999723055555
 21
21.50003425000011
 31
0.0
  0
LINE
  5
A4
  8
LAYER_01
 10
167.4999723055555
 20
21.50003425000011
 30
0.0
 11
257.4999723055556
 21
21.50003425000011
 31
0.0
  0
LINE
  5
A5
  8
LAYER_01
 10
257.4999723055556
 20
21.50003425000011
 30
0.0
 11
257.4999723055556
 21
25.50003425000011
 31
0.0
  0
LINE
  5
A6
  8
LAYER_01
 10
257.4999723055556
 20
25.50003425000011
 30
0.0
 11
167.4999723055555
 21
25.50003425000011
 31
0.0
  0
LINE
  5
A7
  8
LAYER_01
 10
167.4999723055555
 20
35.50003425000011
 30
0.0
 11
167.4999723055555
 21
31.50003425000011
 31
0.0
  0
LINE
  5
A8
  8
LAYER_01
 10
167.4999723055555
 20
31.50003425000011
 30
0.0
 11
257.4999723055556
 21
31.50003425000011
 31
0.0
  0
LINE
  5
A9
  8
LAYER_01
 10
257.4999723055556
 20
31.50003425000011
 30
0.0
 11
257.4999723055556
 21
35.50003425000011
 31
0.0
  0
LINE
  5
AA
  8
LAYER_01
 10
257.4999723055556
 20
35.50003425000011
 30
0.0
 11
167.4999723055555
 21
35.50003425000011
 31
0.0
  0
LINE
  5
AB
  8
LAYER_01
 10
167.4999723055555
 20
45.50003425
 30
0.0
 11
167.4999723055555
 21
41.50003425000011
 31
0.0
  0
LINE
  5
AC
  8
LAYER_01
 10
167.4999723055555
 20
41.50003425000011
 30
0.0
 11
257.4999723055556
 21
41.50003425000011
 31
0.0
  0
LINE
  5
AD
  8
LAYER_01
 10
257.4999723055556
 20
41.50003425000011
 30
0.0
 11
257.4999723055556
 21
45.50003425
 31
0.0
  0
LINE
  5
AE
  8
LAYER_01
 10
257.4999723055556
 20
45.50003425
 30
0.0
 11
167.4999723055555
 21
45.50003425
 31
0.0
  0
LINE
  5
AF
  8
LAYER_01
 10
167.4999723055555
 20
55.50003425
 30
0.0
 11
167.4999723055555
 21
51.50003425
 31
0.0
  0
LINE
  5
B0
  8
LAYER_01
 10
167.4999723055555
 20
51.50003425
 30
0.0
 11
257.4999723055556
 21
51.50003425
 31
0.0
  0
LINE
  5
B1
  8
LAYER_01
 10
257.4999723055556
 20
51.50003425
 30
0.0
 11
257.4999723055556
 21
55.50003425
 31
0.0
  0
LINE
  5
B2
  8
LAYER_01
 10
257.4999723055556
 20
55.50003425
 30
0.0
 11
167.4999723055555
 21
55.50003425
 31
0.0
  0
LINE
  5
B3
  8
LAYER_01
 10
167.4999723055555
 20
65.50003425
 30
0.0
 11
167.4999723055555
 21
61.50003425
 31
0.0
  0
LINE
  5
B4
  8
LAYER_01
 10
167.4999723055555
 20
61.50003425
 30
0.0
 11
257.4999723055556
 21
61.50003425
 31
0.0
  0
LINE
  5
B5
  8
LAYER_01
 10
257.4999723055556
 20
61.50003425
 30
0.0
 11
257.4999723055556
 21
65.50003425
 31
0.0
  0
LINE
  5
B6
  8
LAYER_01
 10
257.4999723055556
 20
65.50003425
 30
0.0
 11
167.4999723055555
 21
65.50003425
 31
0.0
  0
LINE
  5
B7
  8
LAYER_01
 10
167.4999723055555
 20
75.50003425
 30
0.0
 11
167.4999723055555
 21
71.50003425
 31
0.0
  0
LINE
  5
B8
  8
LAYER_01
 10
167.4999723055555
 20
71.50003425
 30
0.0
 11
257.4999723055556
 21
71.50003425
 31
0.0
  0
LINE
  5
B9
  8
LAYER_01
 10
257.4999723055556
 20
71.50003425
 30
0.0
 11
257.4999723055556
 21
75.50003425
 31
0.0
  0
LINE
  5
BA
  8
LAYER_01
 10
257.4999723055556
 20
75.50003425
 30
0.0
 11
167.4999723055555
 21
75.50003425
 31
0.0
  0
LINE
  5
BC
  8
DEFAULT
 62
     7
 10
169.8428561944444
 20
113.8001870277778
 30
0.0
 11
181.1999723055555
 21
113.8001870277778
 31
0.0
  0
LINE
  5
BD
  8
DEFAULT
 62
     7
 10
169.8428561944444
 20
109.8000398055556
 30
0.0
 11
169.8428561944444
 21
113.8001870277778
 31
0.0
  0
LINE
  5
BE
  8
DEFAULT
 62
     7
 10
158.1857025833333
 20
109.8000398055556
 30
0.0
 11
169.8428561944444
 21
109.8000398055556
 31
0.0
  0
LINE
  5
BF
  8
DEFAULT
 62
     7
 10
158.1857025833333
 20
109.8000398055556
 30
0.0
 11
158.1857025833333
 21
113.8001870277778
 31
0.0
  0
LINE
  5
C0
  8
DEFAULT
 62
     7
 10
146.9285636944444
 20
113.8001870277778
 30
0.0
 11
158.1857025833333
 21
113.8001870277778
 31
0.0
  0
LINE
  5
C1
  8
DEFAULT
 62
     7
 10
146.9285636944444
 20
109.8000398055556
 30
0.0
 11
146.9285636944444
 21
113.8001870277778
 31
0.0
  0
LINE
  5
C2
  8
DEFAULT
 62
     7
 10
135.2714100833333
 20
109.8000398055556
 30
0.0
 11
146.9285636944444
 21
109.8000398055556
 31
0.0
  0
LINE
  5
C3
  8
DEFAULT
 62
     7
 10
135.2714100833333
 20
109.8000398055556
 30
0.0
 11
135.2714100833333
 21
113.8001870277778
 31
0.0
  0
LINE
  5
C4
  8
DEFAULT
 62
     7
 10
124.0142711944444
 20
113.8001870277778
 30
0.0
 11
135.2714100833333
 21
113.8001870277778
 31
0.0
  0
LINE
  5
C5
  8
DEFAULT
 62
     7
 10
124.0142711944444
 20
109.8000398055556
 30
0.0
 11
124.0142711944444
 21
113.8001870277778
 31
0.0
  0
LINE
  5
C6
  8
DEFAULT
 62
     7
 10
112.3571175833333
 20
109.8000398055556
 30
0.0
 11
124.0142711944444
 21
109.8000398055556
 31
0.0
  0
LINE
  5
C7
  8
DEFAULT
 62
     7
 10
112.3571175833333
 20
109.8000398055556
 30
0.0
 11
112.3571175833333
 21
113.8001870277778
 31
0.0
  0
LINE
  5
C8
  8
DEFAULT
 62
     7
 10
101.0000014722222
 20
113.8001870277778
 30
0.0
 11
112.3571175833333
 21
113.8001870277778
 31
0.0
  0
LINE
  5
C9
  8
DEFAULT
 62
     7
 10
169.6428311944445
 20
280.0001481388889
 30
0.0
 11
181.1999723055555
 21
280.0001481388889
 31
0.0
  0
LINE
  5
CA
  8
DEFAULT
 62
     7
 10
169.6428311944445
 20
276.0000009166667
 30
0.0
 11
169.6428311944445
 21
280.0001481388889
 31
0.0
  0
LINE
  5
CB
  8
DEFAULT
 62
     7
 10
158.3856923055556
 20
276.0000009166667
 30
0.0
 11
169.6428311944445
 21
276.0000009166667
 31
0.0
  0
LINE
  5
CC
  8
DEFAULT
 62
     7
 10
158.3856923055556
 20
276.0000009166667
 30
0.0
 11
158.3856923055556
 21
280.0001481388889
 31
0.0
  0
LINE
  5
CD
  8
DEFAULT
 62
     7
 10
146.7285739722222
 20
280.0001481388889
 30
0.0
 11
158.3856923055556
 21
280.0001481388889
 31
0.0
  0
LINE
  5
CE
  8
DEFAULT
 62
     7
 10
146.7285739722222
 20
276.0000009166667
 30
0.0
 11
146.7285739722222
 21
280.0001481388889
 31
0.0
  0
LINE
  5
CF
  8
DEFAULT
 62
     7
 10
135.4713998055556
 20
276.0000009166667
 30
0.0
 11
146.7285739722222
 21
276.0000009166667
 31
0.0
  0
LINE
  5
D0
  8
DEFAULT
 62
     7
 10
135.4713998055556
 20
276.0000009166667
 30
0.0
 11
135.4713998055556
 21
280.0001481388889
 31
0.0
  0
LINE
  5
D1
  8
DEFAULT
 62
     7
 10
123.8142814722222
 20
280.0001481388889
 30
0.0
 11
135.4713998055556
 21
280.0001481388889
 31
0.0
  0
LINE
  5
D2
  8
DEFAULT
 62
     7
 10
123.8142814722222
 20
276.0000009166667
 30
0.0
 11
123.8142814722222
 21
280.0001481388889
 31
0.0
  0
LINE
  5
D3
  8
DEFAULT
 62
     7
 10
112.5571425833333
 20
276.0000009166667
 30
0.0
 11
123.8142814722222
 21
276.0000009166667
 31
0.0
  0
LINE
  5
D4
  8
DEFAULT
 62
     7
 10
112.5571425833333
 20
276.0000009166667
 30
0.0
 11
112.5571425833333
 21
280.0001481388889
 31
0.0
  0
LINE
  5
D5
  8
DEFAULT
 62
     7
 10
101.0000014722222
 20
280.0001481388889
 30
0.0
 11
112.5571425833333
 21
280.0001481388889
 31
0.0
  0
LINE
  5
D6
  8
DEFAULT
 62
     7
 10
181.1999723055555
 20
122.9921648055555
 30
0.0
 11
181.1999723055555
 21
113.8001870277778
 31
0.0
  0
LINE
  5
D7
  8
DEFAULT
 62
     7
 10
181.1999723055555
 20
122.9921648055555
 30
0.0
 11
177.2000014722222
 21
122.9921648055555
 31
0.0
  0
LINE
  5
D8
  8
DEFAULT
 62
     7
 10
177.2000014722222
 20
135.8847814722222
 30
0.0
 11
177.2000014722222
 21
122.9921648055555
 31
0.0
  0
LINE
  5
D9
  8
DEFAULT
 62
     7
 10
181.1999723055555
 20
135.8847814722222
 30
0.0
 11
177.2000014722222
 21
135.8847814722222
 31
0.0
  0
LINE
  5
DA
  8
DEFAULT
 62
     7
 10
181.1999723055555
 20
149.1770953611111
 30
0.0
 11
181.1999723055555
 21
135.8847814722222
 31
0.0
  0
LINE
  5
DB
  8
DEFAULT
 62
     7
 10
181.1999723055555
 20
149.1770953611111
 30
0.0
 11
177.2000014722222
 21
149.1770953611111
 31
0.0
  0
LINE
  5
DC
  8
DEFAULT
 62
     7
 10
177.2000014722222
 20
162.06935925
 30
0.0
 11
177.2000014722222
 21
149.1770953611111
 31
0.0
  0
LINE
  5
DD
  8
DEFAULT
 62
     7
 10
181.1999723055555
 20
162.06935925
 30
0.0
 11
177.2000014722222
 21
162.06935925
 31
0.0
  0
LINE
  5
DE
  8
DEFAULT
 62
     7
 10
181.1999723055555
 20
175.3616731388889
 30
0.0
 11
181.1999723055555
 21
162.06935925
 31
0.0
  0
LINE
  5
DF
  8
DEFAULT
 62
     7
 10
181.1999723055555
 20
175.3616731388889
 30
0.0
 11
177.2000014722222
 21
175.3616731388889
 31
0.0
  0
LINE
  5
E0
  8
DEFAULT
 62
     7
 10
177.2000014722222
 20
188.2539370277778
 30
0.0
 11
177.2000014722222
 21
175.3616731388889
 31
0.0
  0
LINE
  5
E1
  8
DEFAULT
 62
     7
 10
181.1999723055555
 20
188.2539370277778
 30
0.0
 11
177.2000014722222
 21
188.2539370277778
 31
0.0
  0
LINE
  5
E2
  8
DEFAULT
 62
     7
 10
181.1999723055555
 20
201.5462509166666
 30
0.0
 11
181.1999723055555
 21
188.2539370277778
 31
0.0
  0
LINE
  5
E3
  8
DEFAULT
 62
     7
 10
181.1999723055555
 20
201.5462509166666
 30
0.0
 11
177.2000014722222
 21
201.5462509166666
 31
0.0
  0
LINE
  5
E4
  8
DEFAULT
 62
     7
 10
177.2000014722222
 20
214.4385148055555
 30
0.0
 11
177.2000014722222
 21
201.5462509166666
 31
0.0
  0
LINE
  5
E5
  8
DEFAULT
 62
     7
 10
181.1999723055555
 20
214.4385148055555
 30
0.0
 11
177.2000014722222
 21
214.4385148055555
 31
0.0
  0
LINE
  5
E6
  8
DEFAULT
 62
     7
 10
181.1999723055555
 20
227.7308286944445
 30
0.0
 11
181.1999723055555
 21
214.4385148055555
 31
0.0
  0
LINE
  5
E7
  8
DEFAULT
 62
     7
 10
181.1999723055555
 20
227.7308286944445
 30
0.0
 11
177.2000014722222
 21
227.7308286944445
 31
0.0
  0
LINE
  5
E8
  8
DEFAULT
 62
     7
 10
177.2000014722222
 20
240.6230925833333
 30
0.0
 11
177.2000014722222
 21
227.7308286944445
 31
0.0
  0
LINE
  5
E9
  8
DEFAULT
 62
     7
 10
181.1999723055555
 20
240.6230925833333
 30
0.0
 11
177.2000014722222
 21
240.6230925833333
 31
0.0
  0
LINE
  5
EA
  8
DEFAULT
 62
     7
 10
181.1999723055555
 20
253.9154064722222
 30
0.0
 11
181.1999723055555
 21
240.6230925833333
 31
0.0
  0
LINE
  5
EB
  8
DEFAULT
 62
     7
 10
181.1999723055555
 20
253.9154064722222
 30
0.0
 11
177.2000014722222
 21
253.9154064722222
 31
0.0
  0
LINE
  5
EC
  8
DEFAULT
 62
     7
 10
177.2000014722222
 20
266.8076703611111
 30
0.0
 11
177.2000014722222
 21
253.9154064722222
 31
0.0
  0
LINE
  5
ED
  8
DEFAULT
 62
     7
 10
181.1999723055555
 20
266.8076703611111
 30
0.0
 11
177.2000014722222
 21
266.8076703611111
 31
0.0
  0
LINE
  5
EE
  8
DEFAULT
 62
     7
 10
181.1999723055555
 20
280.0001481388889
 30
0.0
 11
181.1999723055555
 21
266.8076703611111
 31
0.0
  0
LINE
  5
EF
  8
DEFAULT
 62
     7
 10
101.0000014722222
 20
122.9921648055555
 30
0.0
 11
101.0000014722222
 21
113.8001870277778
 31
0.0
  0
LINE
  5
F0
  8
DEFAULT
 62
     7
 10
104.9999723055556
 20
122.9921648055555
 30
0.0
 11
101.0000014722222
 21
122.9921648055555
 31
0.0
  0
LINE
  5
F1
  8
DEFAULT
 62
     7
 10
104.9999723055556
 20
135.8847814722222
 30
0.0
 11
104.9999723055556
 21
122.9921648055555
 31
0.0
  0
LINE
  5
F2
  8
DEFAULT
 62
     7
 10
104.9999723055556
 20
135.8847814722222
 30
0.0
 11
101.0000014722222
 21
135.8847814722222
 31
0.0
  0
LINE
  5
F3
  8
DEFAULT
 62
     7
 10
101.0000014722222
 20
149.1770953611111
 30
0.0
 11
101.0000014722222
 21
135.8847814722222
 31
0.0
  0
LINE
  5
F4
  8
DEFAULT
 62
     7
 10
104.9999723055556
 20
149.1770953611111
 30
0.0
 11
101.0000014722222
 21
149.1770953611111
 31
0.0
  0
LINE
  5
F5
  8
DEFAULT
 62
     7
 10
104.9999723055556
 20
162.06935925
 30
0.0
 11
104.9999723055556
 21
149.1770953611111
 31
0.0
  0
LINE
  5
F6
  8
DEFAULT
 62
     7
 10
104.9999723055556
 20
162.06935925
 30
0.0
 11
101.0000014722222
 21
162.06935925
 31
0.0
  0
LINE
  5
F7
  8
DEFAULT
 62
     7
 10
101.0000014722222
 20
175.3616731388889
 30
0.0
 11
101.0000014722222
 21
162.06935925
 31
0.0
  0
LINE
  5
F8
  8
DEFAULT
 62
     7
 10
104.9999723055556
 20
175.3616731388889
 30
0.0
 11
101.0000014722222
 21
175.3616731388889
 31
0.0
  0
LINE
  5
F9
  8
DEFAULT
 62
     7
 10
104.9999723055556
 20
188.2539370277778
 30
0.0
 11
104.9999723055556
 21
175.3616731388889
 31
0.0
  0
LINE
  5
FA
  8
DEFAULT
 62
     7
 10
104.9999723055556
 20
188.2539370277778
 30
0.0
 11
101.0000014722222
 21
188.2539370277778
 31
0.0
  0
LINE
  5
FB
  8
DEFAULT
 62
     7
 10
101.0000014722222
 20
201.5462509166666
 30
0.0
 11
101.0000014722222
 21
188.2539370277778
 31
0.0
  0
LINE
  5
FC
  8
DEFAULT
 62
     7
 10
104.9999723055556
 20
201.5462509166666
 30
0.0
 11
101.0000014722222
 21
201.5462509166666
 31
0.0
  0
LINE
  5
FD
  8
DEFAULT
 62
     7
 10
104.9999723055556
 20
214.4385148055555
 30
0.0
 11
104.9999723055556
 21
201.5462509166666
 31
0.0
  0
LINE
  5
FE
  8
DEFAULT
 62
     7
 10
104.9999723055556
 20
214.4385148055555
 30
0.0
 11
101.0000014722222
 21
214.4385148055555
 31
0.0
  0
LINE
  5
FF
  8
DEFAULT
 62
     7
 10
101.0000014722222
 20
227.7308286944445
 30
0.0
 11
101.0000014722222
 21
214.4385148055555
 31
0.0
  0
LINE
  5
100
  8
DEFAULT
 62
     7
 10
104.9999723055556
 20
227.7308286944445
 30
0.0
 11
101.0000014722222
 21
227.7308286944445
 31
0.0
  0
LINE
  5
101
  8
DEFAULT
 62
     7
 10
104.9999723055556
 20
240.6230925833333
 30
0.0
 11
104.9999723055556
 21
227.7308286944445
 31
0.0
  0
LINE
  5
102
  8
DEFAULT
 62
     7
 10
104.9999723055556
 20
240.6230925833333
 30
0.0
 11
101.0000014722222
 21
240.6230925833333
 31
0.0
  0
LINE
  5
103
  8
DEFAULT
 62
     7
 10
101.0000014722222
 20
253.9154064722222
 30
0.0
 11
101.0000014722222
 21
240.6230925833333
 31
0.0
  0
LINE
  5
104
  8
DEFAULT
 62
     7
 10
104.9999723055556
 20
253.9154064722222
 30
0.0
 11
101.0000014722222
 21
253.9154064722222
 31
0.0
  0
LINE
  5
105
  8
DEFAULT
 62
     7
 10
104.9999723055556
 20
266.8076703611111
 30
0.0
 11
104.9999723055556
 21
253.9154064722222
 31
0.0
  0
LINE
  5
106
  8
DEFAULT
 62
     7
 10
104.9999723055556
 20
266.8076703611111
 30
0.0
 11
101.0000014722222
 21
266.8076703611111
 31
0.0
  0
LINE
  5
107
  8
DEFAULT
 62
     7
 10
101.0000014722222
 20
280.0001481388889
 30
0.0
 11
101.0000014722222
 21
266.8076703611111
 31
0.0
  0
LINE
  5
109
  8
LAYER_02
 10
144.2580395526476
 20
-54.68862194146084
 30
0.0
 11
144.2580395526476
 21
-55.28862194146086
 31
0.0
  0
LINE
  5
10A
  8
LAYER_02
 10
130.4580395526476
 20
-54.68862194146084
 30
0.0
 11
144.2580395526476
 21
-54.68862194146084
 31
0.0
  0
LINE
  5
10B
  8
LAYER_02
 10
130.4580395526476
 20
-46.28862194146086
 30
0.0
 11
130.4580395526476
 21
-54.68862194146084
 31
0.0
  0
LINE
  5
10C
  8
LAYER_02
 10
138.8580395526476
 20
-46.28862194146086
 30
0.0
 11
130.4580395526476
 21
-46.28862194146086
 31
0.0
  0
LINE
  5
10D
  8
LAYER_02
 10
138.8580395526476
 20
-52.88862194146088
 30
0.0
 11
138.8580395526476
 21
-46.28862194146086
 31
0.0
  0
LINE
  5
10E
  8
LAYER_02
 10
139.4580395526476
 20
-52.88862194146088
 30
0.0
 11
138.8580395526476
 21
-52.88862194146088
 31
0.0
  0
LINE
  5
10F
  8
LAYER_02
 10
139.4580395526476
 20
-45.68862194146084
 30
0.0
 11
139.4580395526476
 21
-52.88862194146088
 31
0.0
  0
LINE
  5
110
  8
LAYER_02
 10
129.8580395526476
 20
-45.68862194146084
 30
0.0
 11
139.4580395526476
 21
-45.68862194146084
 31
0.0
  0
LINE
  5
111
  8
LAYER_02
 10
129.8580395526476
 20
-55.28862194146086
 30
0.0
 11
129.8580395526476
 21
-45.68862194146084
 31
0.0
  0
LINE
  5
112
  8
LAYER_02
 10
144.2580395526476
 20
-55.28862194146086
 30
0.0
 11
129.8580395526476
 21
-55.28862194146086
 31
0.0
  0
LINE
  5
113
  8
LAYER_02
 10
139.4580395526476
 20
-33.68862194146084
 30
0.0
 11
139.4580395526476
 21
-43.28862194146086
 31
0.0
  0
LINE
  5
114
  8
LAYER_02
 10
129.8580395526476
 20
-33.68862194146084
 30
0.0
 11
139.4580395526476
 21
-33.68862194146084
 31
0.0
  0
LINE
  5
115
  8
LAYER_02
 10
129.8580395526476
 20
-34.28862194146086
 30
0.0
 11
129.8580395526476
 21
-33.68862194146084
 31
0.0
  0
LINE
  5
116
  8
LAYER_02
 10
138.8580395526476
 20
-34.28862194146086
 30
0.0
 11
129.8580395526476
 21
-34.28862194146086
 31
0.0
  0
LINE
  5
117
  8
LAYER_02
 10
138.8580395526476
 20
-42.68862194146084
 30
0.0
 11
138.8580395526476
 21
-34.28862194146086
 31
0.0
  0
LINE
  5
118
  8
LAYER_02
 10
129.8580395526476
 20
-42.68862194146084
 30
0.0
 11
138.8580395526476
 21
-42.68862194146084
 31
0.0
  0
LINE
  5
119
  8
LAYER_02
 10
129.8580395526476
 20
-43.28862194146086
 30
0.0
 11
129.8580395526476
 21
-42.68862194146084
 31
0.0
  0
LINE
  5
11A
  8
LAYER_02
 10
139.4580395526476
 20
-43.28862194146086
 30
0.0
 11
129.8580395526476
 21
-43.28862194146086
 31
0.0
  0
LINE
  5
11B
  8
LAYER_02
 10
129.8580395526476
 20
-31.28862194146086
 30
0.0
 11
129.8580395526476
 21
-21.68862194146084
 31
0.0
  0
LINE
  5
11C
  8
LAYER_02
 10
139.4580395526476
 20
-31.28862194146086
 30
0.0
 11
129.8580395526476
 21
-31.28862194146086
 31
0.0
  0
LINE
  5
11D
  8
LAYER_02
 10
139.4580395526476
 20
-30.68862194146084
 30
0.0
 11
139.4580395526476
 21
-31.28862194146086
 31
0.0
  0
LINE
  5
11E
  8
LAYER_02
 10
130.4580395526476
 20
-30.68862194146084
 30
0.0
 11
139.4580395526476
 21
-30.68862194146084
 31
0.0
  0
LINE
  5
11F
  8
LAYER_02
 10
130.4580395526476
 20
-22.28862194146086
 30
0.0
 11
130.4580395526476
 21
-30.68862194146084
 31
0.0
  0
LINE
  5
120
  8
LAYER_02
 10
139.4580395526476
 20
-22.28862194146086
 30
0.0
 11
130.4580395526476
 21
-22.28862194146086
 31
0.0
  0
LINE
  5
121
  8
LAYER_02
 10
139.4580395526476
 20
-21.68862194146084
 30
0.0
 11
139.4580395526476
 21
-22.28862194146086
 31
0.0
  0
LINE
  5
122
  8
LAYER_02
 10
129.8580395526476
 20
-21.68862194146084
 30
0.0
 11
139.4580395526476
 21
-21.68862194146084
 31
0.0
  0
LINE
  5
123
  8
LAYER_02
 10
138.8580395526476
 20
-18.68862194146084
 30
0.0
 11
138.8580395526476
 21
-10.28862194146086
 31
0.0
  0
LINE
  5
124
  8
LAYER_02
 10
130.4580395526476
 20
-18.68862194146084
 30
0.0
 11
138.8580395526476
 21
-18.68862194146084
 31
0.0
  0
LINE
  5
125
  8
LAYER_02
 10
130.4580395526476
 20
-10.28862194146086
 30
0.0
 11
130.4580395526476
 21
-18.68862194146084
 31
0.0
  0
LINE
  5
126
  8
LAYER_02
 10
138.8580395526476
 20
-10.28862194146086
 30
0.0
 11
130.4580395526476
 21
-10.28862194146086
 31
0.0
  0
LINE
  5
127
  8
LAYER_02
 10
139.4580395526476
 20
-9.688621941460838
 30
0.0
 11
139.4580395526476
 21
-19.28862194146086
 31
0.0
  0
LINE
  5
128
  8
LAYER_02
 10
129.8580395526476
 20
-9.688621941460838
 30
0.0
 11
139.4580395526476
 21
-9.688621941460838
 31
0.0
  0
LINE
  5
129
  8
LAYER_02
 10
129.8580395526476
 20
-19.28862194146086
 30
0.0
 11
129.8580395526476
 21
-9.688621941460838
 31
0.0
  0
LINE
  5
12A
  8
LAYER_02
 10
139.4580395526476
 20
-19.28862194146086
 30
0.0
 11
129.8580395526476
 21
-19.28862194146086
 31
0.0
  0
LINE
  5
12B
  8
LAYER_02
 10
139.4580395526476
 20
2.311378058539162
 30
0.0
 11
139.4580395526476
 21
-7.28862194146086
 31
0.0
  0
LINE
  5
12C
  8
LAYER_02
 10
136.4580395526476
 20
2.311378058539162
 30
0.0
 11
139.4580395526476
 21
2.311378058539162
 31
0.0
  0
LINE
  5
12D
  8
LAYER_02
 10
136.4580395526476
 20
-6.688621941460838
 30
0.0
 11
136.4580395526476
 21
2.311378058539162
 31
0.0
  0
LINE
  5
12E
  8
LAYER_02
 10
130.4580395526476
 20
-6.688621941460838
 30
0.0
 11
136.4580395526476
 21
-6.688621941460838
 31
0.0
  0
LINE
  5
12F
  8
LAYER_02
 10
130.4580395526476
 20
2.311378058539162
 30
0.0
 11
130.4580395526476
 21
-6.688621941460838
 31
0.0
  0
LINE
  5
130
  8
LAYER_02
 10
129.8580395526476
 20
2.311378058539162
 30
0.0
 11
130.4580395526476
 21
2.311378058539162
 31
0.0
  0
LINE
  5
131
  8
LAYER_02
 10
129.8580395526476
 20
-7.28862194146086
 30
0.0
 11
129.8580395526476
 21
2.311378058539162
 31
0.0
  0
LINE
  5
132
  8
LAYER_02
 10
137.0580395526476
 20
-7.28862194146086
 30
0.0
 11
129.8580395526476
 21
-7.28862194146086
 31
0.0
  0
LINE
  5
133
  8
LAYER_02
 10
137.0580395526476
 20
1.71137805853914
 30
0.0
 11
137.0580395526476
 21
-7.28862194146086
 31
0.0
  0
LINE
  5
134
  8
LAYER_02
 10
138.8580395526476
 20
1.71137805853914
 30
0.0
 11
137.0580395526476
 21
1.71137805853914
 31
0.0
  0
LINE
  5
135
  8
LAYER_02
 10
138.8580395526476
 20
-7.28862194146086
 30
0.0
 11
138.8580395526476
 21
1.71137805853914
 31
0.0
  0
LINE
  5
136
  8
LAYER_02
 10
139.4580395526476
 20
-7.28862194146086
 30
0.0
 11
138.8580395526476
 21
-7.28862194146086
 31
0.0
  0
LINE
  5
137
  8
LAYER_02
 10
139.4580395526476
 20
14.31137805853916
 30
0.0
 11
139.4580395526476
 21
4.71137805853914
 31
0.0
  0
LINE
  5
138
  8
LAYER_02
 10
129.8580395526476
 20
14.31137805853916
 30
0.0
 11
139.4580395526476
 21
14.31137805853916
 31
0.0
  0
LINE
  5
139
  8
LAYER_02
 10
129.8580395526476
 20
13.71137805853914
 30
0.0
 11
129.8580395526476
 21
14.31137805853916
 31
0.0
  0
LINE
  5
13A
  8
LAYER_02
 10
138.8580395526476
 20
13.71137805853914
 30
0.0
 11
129.8580395526476
 21
13.71137805853914
 31
0.0
  0
LINE
  5
13B
  8
LAYER_02
 10
138.8580395526476
 20
4.71137805853914
 30
0.0
 11
138.8580395526476
 21
13.71137805853914
 31
0.0
  0
LINE
  5
13C
  8
LAYER_02
 10
139.4580395526476
 20
4.71137805853914
 30
0.0
 11
138.8580395526476
 21
4.71137805853914
 31
0.0
  0
LINE
  5
13D
  8
LAYER_02
 10
138.8580395526476
 20
17.31137805853916
 30
0.0
 11
138.8580395526476
 21
25.71137805853914
 31
0.0
  0
LINE
  5
13E
  8
LAYER_02
 10
130.4580395526476
 20
17.31137805853916
 30
0.0
 11
138.8580395526476
 21
17.31137805853916
 31
0.0
  0
LINE
  5
13F
  8
LAYER_02
 10
130.4580395526476
 20
25.71137805853914
 30
0.0
 11
130.4580395526476
 21
17.31137805853916
 31
0.0
  0
LINE
  5
140
  8
LAYER_02
 10
138.8580395526476
 20
25.71137805853914
 30
0.0
 11
130.4580395526476
 21
25.71137805853914
 31
0.0
  0
LINE
  5
141
  8
LAYER_02
 10
139.4580395526476
 20
26.31137805853916
 30
0.0
 11
139.4580395526476
 21
16.71137805853914
 31
0.0
  0
LINE
  5
142
  8
LAYER_02
 10
129.8580395526476
 20
26.31137805853916
 30
0.0
 11
139.4580395526476
 21
26.31137805853916
 31
0.0
  0
LINE
  5
143
  8
LAYER_02
 10
129.8580395526476
 20
16.71137805853914
 30
0.0
 11
129.8580395526476
 21
26.31137805853916
 31
0.0
  0
LINE
  5
144
  8
LAYER_02
 10
139.4580395526476
 20
16.71137805853914
 30
0.0
 11
129.8580395526476
 21
16.71137805853914
 31
0.0
  0
LINE
  5
145
  8
LAYER_02
 10
125.0580395526476
 20
38.31137805853916
 30
0.0
 11
139.4580395526476
 21
38.31137805853916
 31
0.0
  0
LINE
  5
146
  8
LAYER_02
 10
125.0580395526476
 20
37.71137805853914
 30
0.0
 11
125.0580395526476
 21
38.31137805853916
 31
0.0
  0
LINE
  5
147
  8
LAYER_02
 10
138.8580395526476
 20
37.71137805853914
 30
0.0
 11
125.0580395526476
 21
37.71137805853914
 31
0.0
  0
LINE
  5
148
  8
LAYER_02
 10
138.8580395526476
 20
29.31137805853916
 30
0.0
 11
138.8580395526476
 21
37.71137805853914
 31
0.0
  0
LINE
  5
149
  8
LAYER_02
 10
130.4580395526476
 20
29.31137805853916
 30
0.0
 11
138.8580395526476
 21
29.31137805853916
 31
0.0
  0
LINE
  5
14A
  8
LAYER_02
 10
130.4580395526476
 20
35.91137805853907
 30
0.0
 11
130.4580395526476
 21
29.31137805853916
 31
0.0
  0
LINE
  5
14B
  8
LAYER_02
 10
129.8580395526476
 20
35.91137805853907
 30
0.0
 11
130.4580395526476
 21
35.91137805853907
 31
0.0
  0
LINE
  5
14C
  8
LAYER_02
 10
129.8580395526476
 20
28.71137805853914
 30
0.0
 11
129.8580395526476
 21
35.91137805853907
 31
0.0
  0
LINE
  5
14D
  8
LAYER_02
 10
139.4580395526476
 20
28.71137805853914
 30
0.0
 11
129.8580395526476
 21
28.71137805853914
 31
0.0
  0
LINE
  5
14E
  8
LAYER_02
 10
139.4580395526476
 20
38.31137805853916
 30
0.0
 11
139.4580395526476
 21
28.71137805853914
 31
0.0
  0
LINE
  5
14F
  8
LAYER_02
 10
139.4580395526476
 20
40.71137805853914
 30
0.0
 11
129.8580395526476
 21
40.71137805853914
 31
0.0
  0
LINE
  5
150
  8
LAYER_02
 10
139.4580395526476
 20
50.31137805853916
 30
0.0
 11
139.4580395526476
 21
40.71137805853914
 31
0.0
  0
LINE
  5
151
  8
LAYER_02
 10
138.8580395526476
 20
50.31137805853916
 30
0.0
 11
139.4580395526476
 21
50.31137805853916
 31
0.0
  0
LINE
  5
152
  8
LAYER_02
 10
138.8580395526476
 20
41.31137805853916
 30
0.0
 11
138.8580395526476
 21
50.31137805853916
 31
0.0
  0
LINE
  5
153
  8
LAYER_02
 10
130.4580395526476
 20
41.31137805853916
 30
0.0
 11
138.8580395526476
 21
41.31137805853916
 31
0.0
  0
LINE
  5
154
  8
LAYER_02
 10
130.4580395526476
 20
49.71137805853914
 30
0.0
 11
130.4580395526476
 21
41.31137805853916
 31
0.0
  0
LINE
  5
155
  8
LAYER_02
 10
136.4580395526476
 20
49.71137805853914
 30
0.0
 11
130.4580395526476
 21
49.71137805853914
 31
0.0
  0
LINE
  5
156
  8
LAYER_02
 10
136.4580395526476
 20
43.11137805853912
 30
0.0
 11
136.4580395526476
 21
49.71137805853914
 31
0.0
  0
LINE
  5
157
  8
LAYER_02
 10
137.0580395526476
 20
43.11137805853912
 30
0.0
 11
136.4580395526476
 21
43.11137805853912
 31
0.0
  0
LINE
  5
158
  8
LAYER_02
 10
137.0580395526476
 20
50.31137805853916
 30
0.0
 11
137.0580395526476
 21
43.11137805853912
 31
0.0
  0
LINE
  5
159
  8
LAYER_02
 10
129.8580395526476
 20
50.31137805853916
 30
0.0
 11
137.0580395526476
 21
50.31137805853916
 31
0.0
  0
LINE
  5
15A
  8
LAYER_02
 10
129.8580395526476
 20
40.71137805853914
 30
0.0
 11
129.8580395526476
 21
50.31137805853916
 31
0.0
  0
LINE
  5
15B
  8
LAYER_02
 10
129.8580395526476
 20
57.79937805853916
 30
0.0
 11
139.4580395526476
 21
62.31137805853916
 31
0.0
  0
LINE
  5
15C
  8
LAYER_02
 10
129.8580395526476
 20
57.2233780585392
 30
0.0
 11
129.8580395526476
 21
57.79937805853916
 31
0.0
  0
LINE
  5
15D
  8
LAYER_02
 10
132.6420395526476
 20
55.92737805853915
 30
0.0
 11
129.8580395526476
 21
57.2233780585392
 31
0.0
  0
LINE
  5
15E
  8
LAYER_02
 10
134.0820395526476
 20
55.25537805853912
 30
0.0
 11
132.6420395526476
 21
55.92737805853915
 31
0.0
  0
LINE
  5
15F
  8
LAYER_02
 10
134.6340395526476
 20
55.00337805853917
 30
0.0
 11
134.0820395526476
 21
55.25537805853912
 31
0.0
  0
LINE
  5
160
  8
LAYER_02
 10
134.7300395526476
 20
54.96737805853917
 30
0.0
 11
134.6340395526476
 21
55.00337805853917
 31
0.0
  0
LINE
  5
161
  8
LAYER_02
 10
134.8140395526476
 20
54.93137805853917
 30
0.0
 11
134.7300395526476
 21
54.96737805853917
 31
0.0
  0
LINE
  5
162
  8
LAYER_02
 10
135.3420395526476
 20
54.67937805853916
 30
0.0
 11
134.8140395526476
 21
54.93137805853917
 31
0.0
  0
LINE
  5
163
  8
LAYER_02
 10
139.4580395526476
 20
52.71137805853914
 30
0.0
 11
135.3420395526476
 21
54.67937805853916
 31
0.0
  0
LINE
  5
164
  8
LAYER_02
 10
139.4580395526476
 20
53.31137805853916
 30
0.0
 11
139.4580395526476
 21
52.71137805853914
 31
0.0
  0
LINE
  5
165
  8
LAYER_02
 10
130.4580395526476
 20
57.51137805853915
 30
0.0
 11
139.4580395526476
 21
53.31137805853916
 31
0.0
  0
LINE
  5
166
  8
LAYER_02
 10
139.4580395526476
 20
61.71137805853914
 30
0.0
 11
130.4580395526476
 21
57.51137805853915
 31
0.0
  0
LINE
  5
167
  8
LAYER_02
 10
139.4580395526476
 20
62.31137805853916
 30
0.0
 11
139.4580395526476
 21
61.71137805853914
 31
0.0
  0
LINE
  5
168
  8
DEFAULT
 62
     7
 10
257.0078520277778
 20
-97.59984075
 30
0.0
 11
266.0001575833333
 21
-97.59984075
 31
0.0
  0
LINE
  5
169
  8
DEFAULT
 62
     7
 10
257.0078520277778
 20
-101.5999879722223
 30
0.0
 11
257.0078520277778
 21
-97.59984075
 31
0.0
  0
LINE
  5
16A
  8
DEFAULT
 62
     7
 10
243.7155381388889
 20
-101.5999879722223
 30
0.0
 11
257.0078520277778
 21
-101.5999879722223
 31
0.0
  0
LINE
  5
16B
  8
DEFAULT
 62
     7
 10
243.7155381388889
 20
-101.5999879722223
 30
0.0
 11
243.7155381388889
 21
-97.59984075
 31
0.0
  0
LINE
  5
16C
  8
DEFAULT
 62
     7
 10
230.8229214722222
 20
-97.59984075
 30
0.0
 11
243.7155381388889
 21
-97.59984075
 31
0.0
  0
LINE
  5
16D
  8
DEFAULT
 62
     7
 10
230.8229214722222
 20
-101.5999879722223
 30
0.0
 11
230.8229214722222
 21
-97.59984075
 31
0.0
  0
LINE
  5
16E
  8
DEFAULT
 62
     7
 10
217.5306075833333
 20
-101.5999879722223
 30
0.0
 11
230.8229214722222
 21
-101.5999879722223
 31
0.0
  0
LINE
  5
16F
  8
DEFAULT
 62
     7
 10
217.5306075833333
 20
-101.5999879722223
 30
0.0
 11
217.5306075833333
 21
-97.59984075
 31
0.0
  0
LINE
  5
170
  8
DEFAULT
 62
     7
 10
204.6383436944445
 20
-97.59984075
 30
0.0
 11
217.5306075833333
 21
-97.59984075
 31
0.0
  0
LINE
  5
171
  8
DEFAULT
 62
     7
 10
204.6383436944445
 20
-101.5999879722223
 30
0.0
 11
204.6383436944445
 21
-97.59984075
 31
0.0
  0
LINE
  5
172
  8
DEFAULT
 62
     7
 10
191.3460298055555
 20
-101.5999879722223
 30
0.0
 11
204.6383436944445
 21
-101.5999879722223
 31
0.0
  0
LINE
  5
173
  8
DEFAULT
 62
     7
 10
191.3460298055555
 20
-101.5999879722223
 30
0.0
 11
191.3460298055555
 21
-97.59984075
 31
0.0
  0
LINE
  5
174
  8
DEFAULT
 62
     7
 10
178.4537659166667
 20
-97.59984075
 30
0.0
 11
191.3460298055555
 21
-97.59984075
 31
0.0
  0
LINE
  5
175
  8
DEFAULT
 62
     7
 10
178.4537659166667
 20
-101.5999879722223
 30
0.0
 11
178.4537659166667
 21
-97.59984075
 31
0.0
  0
LINE
  5
176
  8
DEFAULT
 62
     7
 10
165.1614520277778
 20
-101.5999879722223
 30
0.0
 11
178.4537659166667
 21
-101.5999879722223
 31
0.0
  0
LINE
  5
177
  8
DEFAULT
 62
     7
 10
165.1614520277778
 20
-101.5999879722223
 30
0.0
 11
165.1614520277778
 21
-97.59984075
 31
0.0
  0
LINE
  5
178
  8
DEFAULT
 62
     7
 10
152.2691881388889
 20
-97.59984075
 30
0.0
 11
165.1614520277778
 21
-97.59984075
 31
0.0
  0
LINE
  5
179
  8
DEFAULT
 62
     7
 10
152.2691881388889
 20
-101.5999879722223
 30
0.0
 11
152.2691881388889
 21
-97.59984075
 31
0.0
  0
LINE
  5
17A
  8
DEFAULT
 62
     7
 10
138.97687425
 20
-101.5999879722223
 30
0.0
 11
152.2691881388889
 21
-101.5999879722223
 31
0.0
  0
LINE
  5
17B
  8
DEFAULT
 62
     7
 10
138.97687425
 20
-101.5999879722223
 30
0.0
 11
138.97687425
 21
-97.59984075
 31
0.0
  0
LINE
  5
17C
  8
DEFAULT
 62
     7
 10
126.0846103611111
 20
-97.59984075
 30
0.0
 11
138.97687425
 21
-97.59984075
 31
0.0
  0
LINE
  5
17D
  8
DEFAULT
 62
     7
 10
126.0846103611111
 20
-101.5999879722223
 30
0.0
 11
126.0846103611111
 21
-97.59984075
 31
0.0
  0
LINE
  5
17E
  8
DEFAULT
 62
     7
 10
112.7922964722222
 20
-101.5999879722223
 30
0.0
 11
126.0846103611111
 21
-101.5999879722223
 31
0.0
  0
LINE
  5
17F
  8
DEFAULT
 62
     7
 10
112.7922964722222
 20
-101.5999879722223
 30
0.0
 11
112.7922964722222
 21
-97.59984075
 31
0.0
  0
LINE
  5
180
  8
DEFAULT
 62
     7
 10
103.7999909166667
 20
-97.59984075
 30
0.0
 11
112.7922964722222
 21
-97.59984075
 31
0.0
  0
LINE
  5
181
  8
DEFAULT
 62
     7
 10
257.0078520277778
 20
104.60003425
 30
0.0
 11
266.0001575833333
 21
104.60003425
 31
0.0
  0
LINE
  5
182
  8
DEFAULT
 62
     7
 10
257.0078520277778
 20
104.60003425
 30
0.0
 11
257.0078520277778
 21
108.6000050833334
 31
0.0
  0
LINE
  5
183
  8
DEFAULT
 62
     7
 10
243.7155381388889
 20
108.6000050833334
 30
0.0
 11
257.0078520277778
 21
108.6000050833334
 31
0.0
  0
LINE
  5
184
  8
DEFAULT
 62
     7
 10
243.7155381388889
 20
104.60003425
 30
0.0
 11
243.7155381388889
 21
108.6000050833334
 31
0.0
  0
LINE
  5
185
  8
DEFAULT
 62
     7
 10
230.8229214722222
 20
104.60003425
 30
0.0
 11
243.7155381388889
 21
104.60003425
 31
0.0
  0
LINE
  5
186
  8
DEFAULT
 62
     7
 10
230.8229214722222
 20
104.60003425
 30
0.0
 11
230.8229214722222
 21
108.6000050833334
 31
0.0
  0
LINE
  5
187
  8
DEFAULT
 62
     7
 10
217.5306075833333
 20
108.6000050833334
 30
0.0
 11
230.8229214722222
 21
108.6000050833334
 31
0.0
  0
LINE
  5
188
  8
DEFAULT
 62
     7
 10
217.5306075833333
 20
104.60003425
 30
0.0
 11
217.5306075833333
 21
108.6000050833334
 31
0.0
  0
LINE
  5
189
  8
DEFAULT
 62
     7
 10
204.6383436944445
 20
104.60003425
 30
0.0
 11
217.5306075833333
 21
104.60003425
 31
0.0
  0
LINE
  5
18A
  8
DEFAULT
 62
     7
 10
204.6383436944445
 20
104.60003425
 30
0.0
 11
204.6383436944445
 21
108.6000050833334
 31
0.0
  0
LINE
  5
18B
  8
DEFAULT
 62
     7
 10
191.3460298055555
 20
108.6000050833334
 30
0.0
 11
204.6383436944445
 21
108.6000050833334
 31
0.0
  0
LINE
  5
18C
  8
DEFAULT
 62
     7
 10
191.3460298055555
 20
104.60003425
 30
0.0
 11
191.3460298055555
 21
108.6000050833334
 31
0.0
  0
LINE
  5
18D
  8
DEFAULT
 62
     7
 10
178.4537659166667
 20
104.60003425
 30
0.0
 11
191.3460298055555
 21
104.60003425
 31
0.0
  0
LINE
  5
18E
  8
DEFAULT
 62
     7
 10
178.4537659166667
 20
104.60003425
 30
0.0
 11
178.4537659166667
 21
108.6000050833334
 31
0.0
  0
LINE
  5
18F
  8
DEFAULT
 62
     7
 10
165.1614520277778
 20
108.6000050833334
 30
0.0
 11
178.4537659166667
 21
108.6000050833334
 31
0.0
  0
LINE
  5
190
  8
DEFAULT
 62
     7
 10
165.1614520277778
 20
104.60003425
 30
0.0
 11
165.1614520277778
 21
108.6000050833334
 31
0.0
  0
LINE
  5
191
  8
DEFAULT
 62
     7
 10
152.2691881388889
 20
104.60003425
 30
0.0
 11
165.1614520277778
 21
104.60003425
 31
0.0
  0
LINE
  5
192
  8
DEFAULT
 62
     7
 10
152.2691881388889
 20
104.60003425
 30
0.0
 11
152.2691881388889
 21
108.6000050833334
 31
0.0
  0
LINE
  5
193
  8
DEFAULT
 62
     7
 10
138.97687425
 20
108.6000050833334
 30
0.0
 11
152.2691881388889
 21
108.6000050833334
 31
0.0
  0
LINE
  5
194
  8
DEFAULT
 62
     7
 10
138.97687425
 20
104.60003425
 30
0.0
 11
138.97687425
 21
108.6000050833334
 31
0.0
  0
LINE
  5
195
  8
DEFAULT
 62
     7
 10
126.0846103611111
 20
104.60003425
 30
0.0
 11
138.97687425
 21
104.60003425
 31
0.0
  0
LINE
  5
196
  8
DEFAULT
 62
     7
 10
126.0846103611111
 20
104.60003425
 30
0.0
 11
126.0846103611111
 21
108.6000050833334
 31
0.0
  0
LINE
  5
197
  8
DEFAULT
 62
     7
 10
112.7922964722222
 20
108.6000050833334
 30
0.0
 11
126.0846103611111
 21
108.6000050833334
 31
0.0
  0
LINE
  5
198
  8
DEFAULT
 62
     7
 10
112.7922964722222
 20
104.60003425
 30
0.0
 11
112.7922964722222
 21
108.6000050833334
 31
0.0
  0
LINE
  5
199
  8
DEFAULT
 62
     7
 10
103.7999909166667
 20
104.60003425
 30
0.0
 11
112.7922964722222
 21
104.60003425
 31
0.0
  0
LINE
  5
19A
  8
DEFAULT
 62
     7
 10
266.0001575833333
 20
-89.33531574999995
 30
0.0
 11
266.0001575833333
 21
-97.59984075
 31
0.0
  0
LINE
  5
19B
  8
DEFAULT
 62
     7
 10
269.9999520277777
 20
-89.33531574999995
 30
0.0
 11
266.0001575833333
 21
-89.33531574999995
 31
0.0
  0
LINE
  5
19C
  8
DEFAULT
 62
     7
 10
269.9999520277777
 20
-76.77042963888891
 30
0.0
 11
269.9999520277777
 21
-89.33531574999995
 31
0.0
  0
LINE
  5
19D
  8
DEFAULT
 62
     7
 10
269.9999520277777
 20
-76.77042963888891
 30
0.0
 11
266.0001575833333
 21
-76.77042963888891
 31
0.0
  0
LINE
  5
19E
  8
DEFAULT
 62
     7
 10
266.0001575833333
 20
-64.60594630555556
 30
0.0
 11
266.0001575833333
 21
-76.77042963888891
 31
0.0
  0
LINE
  5
19F
  8
DEFAULT
 62
     7
 10
269.9999520277777
 20
-64.60594630555556
 30
0.0
 11
266.0001575833333
 21
-64.60594630555556
 31
0.0
  0
LINE
  5
1A0
  8
DEFAULT
 62
     7
 10
269.9999520277777
 20
-52.04116602777776
 30
0.0
 11
269.9999520277777
 21
-64.60594630555556
 31
0.0
  0
LINE
  5
1A1
  8
DEFAULT
 62
     7
 10
269.9999520277777
 20
-52.04116602777776
 30
0.0
 11
266.0001575833333
 21
-52.04116602777776
 31
0.0
  0
LINE
  5
1A2
  8
DEFAULT
 62
     7
 10
266.0001575833333
 20
-39.87643575000004
 30
0.0
 11
266.0001575833333
 21
-52.04116602777776
 31
0.0
  0
LINE
  5
1A3
  8
DEFAULT
 62
     7
 10
269.9999520277777
 20
-39.87643575000004
 30
0.0
 11
266.0001575833333
 21
-39.87643575000004
 31
0.0
  0
LINE
  5
1A4
  8
DEFAULT
 62
     7
 10
269.9999520277777
 20
-27.31176130555548
 30
0.0
 11
269.9999520277777
 21
-39.87643575000004
 31
0.0
  0
LINE
  5
1A5
  8
DEFAULT
 62
     7
 10
269.9999520277777
 20
-27.31176130555548
 30
0.0
 11
266.0001575833333
 21
-27.31176130555548
 31
0.0
  0
LINE
  5
1A6
  8
DEFAULT
 62
     7
 10
266.0001575833333
 20
-15.14703102777776
 30
0.0
 11
266.0001575833333
 21
-27.31176130555548
 31
0.0
  0
LINE
  5
1A7
  8
DEFAULT
 62
     7
 10
269.9999520277777
 20
-15.14703102777776
 30
0.0
 11
266.0001575833333
 21
-15.14703102777776
 31
0.0
  0
LINE
  5
1A8
  8
DEFAULT
 62
     7
 10
269.9999520277777
 20
-2.582321305555638
 30
0.0
 11
269.9999520277777
 21
-15.14703102777776
 31
0.0
  0
LINE
  5
1A9
  8
DEFAULT
 62
     7
 10
269.9999520277777
 20
-2.582321305555638
 30
0.0
 11
266.0001575833333
 21
-2.582321305555638
 31
0.0
  0
LINE
  5
1AA
  8
DEFAULT
 62
     7
 10
266.0001575833333
 20
9.582373694444527
 30
0.0
 11
266.0001575833333
 21
-2.582321305555638
 31
0.0
  0
LINE
  5
1AB
  8
DEFAULT
 62
     7
 10
269.9999520277777
 20
9.582373694444527
 30
0.0
 11
266.0001575833333
 21
9.582373694444527
 31
0.0
  0
LINE
  5
1AC
  8
DEFAULT
 62
     7
 10
269.9999520277777
 20
22.14708341666676
 30
0.0
 11
269.9999520277777
 21
9.582373694444527
 31
0.0
  0
LINE
  5
1AD
  8
DEFAULT
 62
     7
 10
269.9999520277777
 20
22.14708341666676
 30
0.0
 11
266.0001575833333
 21
22.14708341666676
 31
0.0
  0
LINE
  5
1AE
  8
DEFAULT
 62
     7
 10
266.0001575833333
 20
34.3117784166667
 30
0.0
 11
266.0001575833333
 21
22.14708341666676
 31
0.0
  0
LINE
  5
1AF
  8
DEFAULT
 62
     7
 10
269.9999520277777
 20
34.3117784166667
 30
0.0
 11
266.0001575833333
 21
34.3117784166667
 31
0.0
  0
LINE
  5
1B0
  8
DEFAULT
 62
     7
 10
269.9999520277777
 20
46.87648813888893
 30
0.0
 11
269.9999520277777
 21
34.3117784166667
 31
0.0
  0
LINE
  5
1B1
  8
DEFAULT
 62
     7
 10
269.9999520277777
 20
46.87648813888893
 30
0.0
 11
266.0001575833333
 21
46.87648813888893
 31
0.0
  0
LINE
  5
1B2
  8
DEFAULT
 62
     7
 10
266.0001575833333
 20
59.04118313888887
 30
0.0
 11
266.0001575833333
 21
46.87648813888893
 31
0.0
  0
LINE
  5
1B3
  8
DEFAULT
 62
     7
 10
269.9999520277777
 20
59.04118313888887
 30
0.0
 11
266.0001575833333
 21
59.04118313888887
 31
0.0
  0
LINE
  5
1B4
  8
DEFAULT
 62
     7
 10
269.9999520277777
 20
71.6058928611111
 30
0.0
 11
269.9999520277777
 21
59.04118313888887
 31
0.0
  0
LINE
  5
1B5
  8
DEFAULT
 62
     7
 10
269.9999520277777
 20
71.6058928611111
 30
0.0
 11
266.0001575833333
 21
71.6058928611111
 31
0.0
  0
LINE
  5
1B6
  8
DEFAULT
 62
     7
 10
266.0001575833333
 20
83.77062313888888
 30
0.0
 11
266.0001575833333
 21
71.6058928611111
 31
0.0
  0
LINE
  5
1B7
  8
DEFAULT
 62
     7
 10
269.9999520277777
 20
83.77062313888888
 30
0.0
 11
266.0001575833333
 21
83.77062313888888
 31
0.0
  0
LINE
  5
1B8
  8
DEFAULT
 62
     7
 10
269.9999520277777
 20
96.33529758333333
 30
0.0
 11
269.9999520277777
 21
83.77062313888888
 31
0.0
  0
LINE
  5
1B9
  8
DEFAULT
 62
     7
 10
269.9999520277777
 20
96.33529758333333
 30
0.0
 11
266.0001575833333
 21
96.33529758333333
 31
0.0
  0
LINE
  5
1BA
  8
DEFAULT
 62
     7
 10
266.0001575833333
 20
104.60003425
 30
0.0
 11
266.0001575833333
 21
96.33529758333333
 31
0.0
  0
LINE
  5
1BB
  8
DEFAULT
 62
     7
 10
103.7999909166667
 20
-89.33531574999995
 30
0.0
 11
103.7999909166667
 21
-97.59984075
 31
0.0
  0
LINE
  5
1BC
  8
DEFAULT
 62
     7
 10
103.7999909166667
 20
-89.33531574999995
 30
0.0
 11
99.7998436944445
 21
-89.33531574999995
 31
0.0
  0
LINE
  5
1BD
  8
DEFAULT
 62
     7
 10
99.7998436944445
 20
-76.77042963888891
 30
0.0
 11
99.7998436944445
 21
-89.33531574999995
 31
0.0
  0
LINE
  5
1BE
  8
DEFAULT
 62
     7
 10
103.7999909166667
 20
-76.77042963888891
 30
0.0
 11
99.7998436944445
 21
-76.77042963888891
 31
0.0
  0
LINE
  5
1BF
  8
DEFAULT
 62
     7
 10
103.7999909166667
 20
-64.60594630555556
 30
0.0
 11
103.7999909166667
 21
-76.77042963888891
 31
0.0
  0
LINE
  5
1C0
  8
DEFAULT
 62
     7
 10
103.7999909166667
 20
-64.60594630555556
 30
0.0
 11
99.7998436944445
 21
-64.60594630555556
 31
0.0
  0
LINE
  5
1C1
  8
DEFAULT
 62
     7
 10
99.7998436944445
 20
-52.04116602777776
 30
0.0
 11
99.7998436944445
 21
-64.60594630555556
 31
0.0
  0
LINE
  5
1C2
  8
DEFAULT
 62
     7
 10
103.7999909166667
 20
-52.04116602777776
 30
0.0
 11
99.7998436944445
 21
-52.04116602777776
 31
0.0
  0
LINE
  5
1C3
  8
DEFAULT
 62
     7
 10
103.7999909166667
 20
-39.87643575000004
 30
0.0
 11
103.7999909166667
 21
-52.04116602777776
 31
0.0
  0
LINE
  5
1C4
  8
DEFAULT
 62
     7
 10
103.7999909166667
 20
-39.87643575000004
 30
0.0
 11
99.7998436944445
 21
-39.87643575000004
 31
0.0
  0
LINE
  5
1C5
  8
DEFAULT
 62
     7
 10
99.7998436944445
 20
-27.31176130555548
 30
0.0
 11
99.7998436944445
 21
-39.87643575000004
 31
0.0
  0
LINE
  5
1C6
  8
DEFAULT
 62
     7
 10
103.7999909166667
 20
-27.31176130555548
 30
0.0
 11
99.7998436944445
 21
-27.31176130555548
 31
0.0
  0
LINE
  5
1C7
  8
DEFAULT
 62
     7
 10
103.7999909166667
 20
-15.14703102777776
 30
0.0
 11
103.7999909166667
 21
-27.31176130555548
 31
0.0
  0
LINE
  5
1C8
  8
DEFAULT
 62
     7
 10
103.7999909166667
 20
-15.14703102777776
 30
0.0
 11
99.7998436944445
 21
-15.14703102777776
 31
0.0
  0
LINE
  5
1C9
  8
DEFAULT
 62
     7
 10
99.7998436944445
 20
-2.582321305555638
 30
0.0
 11
99.7998436944445
 21
-15.14703102777776
 31
0.0
  0
LINE
  5
1CA
  8
DEFAULT
 62
     7
 10
103.7999909166667
 20
-2.582321305555638
 30
0.0
 11
99.7998436944445
 21
-2.582321305555638
 31
0.0
  0
LINE
  5
1CB
  8
DEFAULT
 62
     7
 10
103.7999909166667
 20
9.582373694444527
 30
0.0
 11
103.7999909166667
 21
-2.582321305555638
 31
0.0
  0
LINE
  5
1CC
  8
DEFAULT
 62
     7
 10
103.7999909166667
 20
9.582373694444527
 30
0.0
 11
99.7998436944445
 21
9.582373694444527
 31
0.0
  0
LINE
  5
1CD
  8
DEFAULT
 62
     7
 10
99.7998436944445
 20
22.14708341666676
 30
0.0
 11
99.7998436944445
 21
9.582373694444527
 31
0.0
  0
LINE
  5
1CE
  8
DEFAULT
 62
     7
 10
103.7999909166667
 20
22.14708341666676
 30
0.0
 11
99.7998436944445
 21
22.14708341666676
 31
0.0
  0
LINE
  5
1CF
  8
DEFAULT
 62
     7
 10
103.7999909166667
 20
34.3117784166667
 30
0.0
 11
103.7999909166667
 21
22.14708341666676
 31
0.0
  0
LINE
  5
1D0
  8
DEFAULT
 62
     7
 10
103.7999909166667
 20
34.3117784166667
 30
0.0
 11
99.7998436944445
 21
34.3117784166667
 31
0.0
  0
LINE
  5
1D1
  8
DEFAULT
 62
     7
 10
99.7998436944445
 20
46.87648813888893
 30
0.0
 11
99.7998436944445
 21
34.3117784166667
 31
0.0
  0
LINE
  5
1D2
  8
DEFAULT
 62
     7
 10
103.7999909166667
 20
46.87648813888893
 30
0.0
 11
99.7998436944445
 21
46.87648813888893
 31
0.0
  0
LINE
  5
1D3
  8
DEFAULT
 62
     7
 10
103.7999909166667
 20
59.04118313888887
 30
0.0
 11
103.7999909166667
 21
46.87648813888893
 31
0.0
  0
LINE
  5
1D4
  8
DEFAULT
 62
     7
 10
103.7999909166667
 20
59.04118313888887
 30
0.0
 11
99.7998436944445
 21
59.04118313888887
 31
0.0
  0
LINE
  5
1D5
  8
DEFAULT
 62
     7
 10
99.7998436944445
 20
71.6058928611111
 30
0.0
 11
99.7998436944445
 21
59.04118313888887
 31
0.0
  0
LINE
  5
1D6
  8
DEFAULT
 62
     7
 10
103.7999909166667
 20
71.6058928611111
 30
0.0
 11
99.7998436944445
 21
71.6058928611111
 31
0.0
  0
LINE
  5
1D7
  8
DEFAULT
 62
     7
 10
103.7999909166667
 20
83.77062313888888
 30
0.0
 11
103.7999909166667
 21
71.6058928611111
 31
0.0
  0
LINE
  5
1D8
  8
DEFAULT
 62
     7
 10
103.7999909166667
 20
83.77062313888888
 30
0.0
 11
99.7998436944445
 21
83.77062313888888
 31
0.0
  0
LINE
  5
1D9
  8
DEFAULT
 62
     7
 10
99.7998436944445
 20
96.33529758333333
 30
0.0
 11
99.7998436944445
 21
83.77062313888888
 31
0.0
  0
LINE
  5
1DA
  8
DEFAULT
 62
     7
 10
103.7999909166667
 20
96.33529758333333
 30
0.0
 11
99.7998436944445
 21
96.33529758333333
 31
0.0
  0
LINE
  5
1DB
  8
DEFAULT
 62
     7
 10
103.7999909166667
 20
104.60003425
 30
0.0
 11
103.7999909166667
 21
96.33529758333333
 31
0.0
  0
LINE
  5
1DC
  8
DEFAULT
 62
     7
 10
103.7999723055556
 20
-107.39996575
 30
0.0
 11
103.7999723055556
 21
-115.6647024166667
 31
0.0
  0
LINE
  5
1DD
  8
DEFAULT
 62
     7
 10
103.7999723055556
 20
-115.6647024166667
 30
0.0
 11
99.8000014722222
 21
-115.6647024166667
 31
0.0
  0
LINE
  5
1DE
  8
DEFAULT
 62
     7
 10
99.8000014722222
 20
-115.6647024166667
 30
0.0
 11
99.8000014722222
 21
-128.2293768611111
 31
0.0
  0
LINE
  5
1DF
  8
DEFAULT
 62
     7
 10
103.7999723055556
 20
-128.2293768611111
 30
0.0
 11
99.8000014722222
 21
-128.2293768611111
 31
0.0
  0
LINE
  5
1E0
  8
DEFAULT
 62
     7
 10
103.7999723055556
 20
-128.2293768611111
 30
0.0
 11
103.7999723055556
 21
-140.3941071388889
 31
0.0
  0
LINE
  5
1E1
  8
DEFAULT
 62
     7
 10
103.7999723055556
 20
-140.3941071388889
 30
0.0
 11
99.8000014722222
 21
-140.3941071388889
 31
0.0
  0
LINE
  5
1E2
  8
DEFAULT
 62
     7
 10
99.8000014722222
 20
-140.3941071388889
 30
0.0
 11
99.8000014722222
 21
-152.9588168611111
 31
0.0
  0
LINE
  5
1E3
  8
DEFAULT
 62
     7
 10
103.7999723055556
 20
-152.9588168611111
 30
0.0
 11
99.8000014722222
 21
-152.9588168611111
 31
0.0
  0
LINE
  5
1E4
  8
DEFAULT
 62
     7
 10
103.7999723055556
 20
-152.9588168611111
 30
0.0
 11
103.7999723055556
 21
-165.1235118611111
 31
0.0
  0
LINE
  5
1E5
  8
DEFAULT
 62
     7
 10
103.7999723055556
 20
-165.1235118611111
 30
0.0
 11
99.8000014722222
 21
-165.1235118611111
 31
0.0
  0
LINE
  5
1E6
  8
DEFAULT
 62
     7
 10
99.8000014722222
 20
-165.1235118611111
 30
0.0
 11
99.8000014722222
 21
-177.6882215833333
 31
0.0
  0
LINE
  5
1E7
  8
DEFAULT
 62
     7
 10
103.7999723055556
 20
-177.6882215833333
 30
0.0
 11
99.8000014722222
 21
-177.6882215833333
 31
0.0
  0
LINE
  5
1E8
  8
DEFAULT
 62
     7
 10
103.7999723055556
 20
-177.6882215833333
 30
0.0
 11
103.7999723055556
 21
-189.8529165833332
 31
0.0
  0
LINE
  5
1E9
  8
DEFAULT
 62
     7
 10
103.7999723055556
 20
-189.8529165833332
 30
0.0
 11
99.8000014722222
 21
-189.8529165833332
 31
0.0
  0
LINE
  5
1EA
  8
DEFAULT
 62
     7
 10
99.8000014722222
 20
-189.8529165833332
 30
0.0
 11
99.8000014722222
 21
-202.4176263055555
 31
0.0
  0
LINE
  5
1EB
  8
DEFAULT
 62
     7
 10
103.7999723055556
 20
-202.4176263055555
 30
0.0
 11
99.8000014722222
 21
-202.4176263055555
 31
0.0
  0
LINE
  5
1EC
  8
DEFAULT
 62
     7
 10
103.7999723055556
 20
-202.4176263055555
 30
0.0
 11
103.7999723055556
 21
-214.5823213055556
 31
0.0
  0
LINE
  5
1ED
  8
DEFAULT
 62
     7
 10
103.7999723055556
 20
-214.5823213055556
 30
0.0
 11
99.8000014722222
 21
-214.5823213055556
 31
0.0
  0
LINE
  5
1EE
  8
DEFAULT
 62
     7
 10
99.8000014722222
 20
-214.5823213055556
 30
0.0
 11
99.8000014722222
 21
-227.1470310277779
 31
0.0
  0
LINE
  5
1EF
  8
DEFAULT
 62
     7
 10
103.7999723055556
 20
-227.1470310277779
 30
0.0
 11
99.8000014722222
 21
-227.1470310277779
 31
0.0
  0
LINE
  5
1F0
  8
DEFAULT
 62
     7
 10
103.7999723055556
 20
-227.1470310277779
 30
0.0
 11
103.7999723055556
 21
-239.3117613055555
 31
0.0
  0
LINE
  5
1F1
  8
DEFAULT
 62
     7
 10
103.7999723055556
 20
-239.3117613055555
 30
0.0
 11
99.8000014722222
 21
-239.3117613055555
 31
0.0
  0
LINE
  5
1F2
  8
DEFAULT
 62
     7
 10
99.8000014722222
 20
-239.3117613055555
 30
0.0
 11
99.8000014722222
 21
-251.87643575
 31
0.0
  0
LINE
  5
1F3
  8
DEFAULT
 62
     7
 10
103.7999723055556
 20
-251.87643575
 30
0.0
 11
99.8000014722222
 21
-251.87643575
 31
0.0
  0
LINE
  5
1F4
  8
DEFAULT
 62
     7
 10
103.7999723055556
 20
-251.87643575
 30
0.0
 11
103.7999723055556
 21
-264.0411660277779
 31
0.0
  0
LINE
  5
1F5
  8
DEFAULT
 62
     7
 10
103.7999723055556
 20
-264.0411660277779
 30
0.0
 11
99.8000014722222
 21
-264.0411660277779
 31
0.0
  0
LINE
  5
1F6
  8
DEFAULT
 62
     7
 10
99.8000014722222
 20
-264.0411660277779
 30
0.0
 11
99.8000014722222
 21
-276.6059463055557
 31
0.0
  0
LINE
  5
1F7
  8
DEFAULT
 62
     7
 10
103.7999723055556
 20
-276.6059463055557
 30
0.0
 11
99.8000014722222
 21
-276.6059463055557
 31
0.0
  0
LINE
  5
1F8
  8
DEFAULT
 62
     7
 10
103.7999723055556
 20
-276.6059463055557
 30
0.0
 11
103.7999723055556
 21
-288.7704296388889
 31
0.0
  0
LINE
  5
1F9
  8
DEFAULT
 62
     7
 10
103.7999723055556
 20
-288.7704296388889
 30
0.0
 11
99.8000014722222
 21
-288.7704296388889
 31
0.0
  0
LINE
  5
1FA
  8
DEFAULT
 62
     7
 10
99.8000014722222
 20
-288.7704296388889
 30
0.0
 11
99.8000014722222
 21
-301.3353157499999
 31
0.0
  0
LINE
  5
1FB
  8
DEFAULT
 62
     7
 10
103.7999723055556
 20
-301.3353157499999
 30
0.0
 11
99.8000014722222
 21
-301.3353157499999
 31
0.0
  0
LINE
  5
1FC
  8
DEFAULT
 62
     7
 10
103.7999723055556
 20
-301.3353157499999
 30
0.0
 11
103.7999723055556
 21
-309.59984075
 31
0.0
  0
LINE
  5
1FD
  8
DEFAULT
 62
     7
 10
265.9999978611111
 20
-107.39996575
 30
0.0
 11
265.9999978611111
 21
-115.6647024166667
 31
0.0
  0
LINE
  5
1FE
  8
DEFAULT
 62
     7
 10
269.9999686944444
 20
-115.6647024166667
 30
0.0
 11
265.9999978611111
 21
-115.6647024166667
 31
0.0
  0
LINE
  5
1FF
  8
DEFAULT
 62
     7
 10
269.9999686944444
 20
-115.6647024166667
 30
0.0
 11
269.9999686944444
 21
-128.2293768611111
 31
0.0
  0
LINE
  5
200
  8
DEFAULT
 62
     7
 10
269.9999686944444
 20
-128.2293768611111
 30
0.0
 11
265.9999978611111
 21
-128.2293768611111
 31
0.0
  0
LINE
  5
201
  8
DEFAULT
 62
     7
 10
265.9999978611111
 20
-128.2293768611111
 30
0.0
 11
265.9999978611111
 21
-140.3941071388889
 31
0.0
  0
LINE
  5
202
  8
DEFAULT
 62
     7
 10
269.9999686944444
 20
-140.3941071388889
 30
0.0
 11
265.9999978611111
 21
-140.3941071388889
 31
0.0
  0
LINE
  5
203
  8
DEFAULT
 62
     7
 10
269.9999686944444
 20
-140.3941071388889
 30
0.0
 11
269.9999686944444
 21
-152.9588168611111
 31
0.0
  0
LINE
  5
204
  8
DEFAULT
 62
     7
 10
269.9999686944444
 20
-152.9588168611111
 30
0.0
 11
265.9999978611111
 21
-152.9588168611111
 31
0.0
  0
LINE
  5
205
  8
DEFAULT
 62
     7
 10
265.9999978611111
 20
-152.9588168611111
 30
0.0
 11
265.9999978611111
 21
-165.1235118611111
 31
0.0
  0
LINE
  5
206
  8
DEFAULT
 62
     7
 10
269.9999686944444
 20
-165.1235118611111
 30
0.0
 11
265.9999978611111
 21
-165.1235118611111
 31
0.0
  0
LINE
  5
207
  8
DEFAULT
 62
     7
 10
269.9999686944444
 20
-165.1235118611111
 30
0.0
 11
269.9999686944444
 21
-177.6882215833333
 31
0.0
  0
LINE
  5
208
  8
DEFAULT
 62
     7
 10
269.9999686944444
 20
-177.6882215833333
 30
0.0
 11
265.9999978611111
 21
-177.6882215833333
 31
0.0
  0
LINE
  5
209
  8
DEFAULT
 62
     7
 10
265.9999978611111
 20
-177.6882215833333
 30
0.0
 11
265.9999978611111
 21
-189.8529165833332
 31
0.0
  0
LINE
  5
20A
  8
DEFAULT
 62
     7
 10
269.9999686944444
 20
-189.8529165833332
 30
0.0
 11
265.9999978611111
 21
-189.8529165833332
 31
0.0
  0
LINE
  5
20B
  8
DEFAULT
 62
     7
 10
269.9999686944444
 20
-189.8529165833332
 30
0.0
 11
269.9999686944444
 21
-202.4176263055555
 31
0.0
  0
LINE
  5
20C
  8
DEFAULT
 62
     7
 10
269.9999686944444
 20
-202.4176263055555
 30
0.0
 11
265.9999978611111
 21
-202.4176263055555
 31
0.0
  0
LINE
  5
20D
  8
DEFAULT
 62
     7
 10
265.9999978611111
 20
-202.4176263055555
 30
0.0
 11
265.9999978611111
 21
-214.5823213055556
 31
0.0
  0
LINE
  5
20E
  8
DEFAULT
 62
     7
 10
269.9999686944444
 20
-214.5823213055556
 30
0.0
 11
265.9999978611111
 21
-214.5823213055556
 31
0.0
  0
LINE
  5
20F
  8
DEFAULT
 62
     7
 10
269.9999686944444
 20
-214.5823213055556
 30
0.0
 11
269.9999686944444
 21
-227.1470310277779
 31
0.0
  0
LINE
  5
210
  8
DEFAULT
 62
     7
 10
269.9999686944444
 20
-227.1470310277779
 30
0.0
 11
265.9999978611111
 21
-227.1470310277779
 31
0.0
  0
LINE
  5
211
  8
DEFAULT
 62
     7
 10
265.9999978611111
 20
-227.1470310277779
 30
0.0
 11
265.9999978611111
 21
-239.3117613055555
 31
0.0
  0
LINE
  5
212
  8
DEFAULT
 62
     7
 10
269.9999686944444
 20
-239.3117613055555
 30
0.0
 11
265.9999978611111
 21
-239.3117613055555
 31
0.0
  0
LINE
  5
213
  8
DEFAULT
 62
     7
 10
269.9999686944444
 20
-239.3117613055555
 30
0.0
 11
269.9999686944444
 21
-251.87643575
 31
0.0
  0
LINE
  5
214
  8
DEFAULT
 62
     7
 10
269.9999686944444
 20
-251.87643575
 30
0.0
 11
265.9999978611111
 21
-251.87643575
 31
0.0
  0
LINE
  5
215
  8
DEFAULT
 62
     7
 10
265.9999978611111
 20
-251.87643575
 30
0.0
 11
265.9999978611111
 21
-264.0411660277779
 31
0.0
  0
LINE
  5
216
  8
DEFAULT
 62
     7
 10
269.9999686944444
 20
-264.0411660277779
 30
0.0
 11
265.9999978611111
 21
-264.0411660277779
 31
0.0
  0
LINE
  5
217
  8
DEFAULT
 62
     7
 10
269.9999686944444
 20
-264.0411660277779
 30
0.0
 11
269.9999686944444
 21
-276.6059463055557
 31
0.0
  0
LINE
  5
218
  8
DEFAULT
 62
     7
 10
269.9999686944444
 20
-276.6059463055557
 30
0.0
 11
265.9999978611111
 21
-276.6059463055557
 31
0.0
  0
LINE
  5
219
  8
DEFAULT
 62
     7
 10
265.9999978611111
 20
-276.6059463055557
 30
0.0
 11
265.9999978611111
 21
-288.7704296388889
 31
0.0
  0
LINE
  5
21A
  8
DEFAULT
 62
     7
 10
269.9999686944444
 20
-288.7704296388889
 30
0.0
 11
265.9999978611111
 21
-288.7704296388889
 31
0.0
  0
LINE
  5
21B
  8
DEFAULT
 62
     7
 10
269.9999686944444
 20
-288.7704296388889
 30
0.0
 11
269.9999686944444
 21
-301.3353157499999
 31
0.0
  0
LINE
  5
21C
  8
DEFAULT
 62
     7
 10
269.9999686944444
 20
-301.3353157499999
 30
0.0
 11
265.9999978611111
 21
-301.3353157499999
 31
0.0
  0
LINE
  5
21D
  8
DEFAULT
 62
     7
 10
265.9999978611111
 20
-301.3353157499999
 30
0.0
 11
265.9999978611111
 21
-309.59984075
 31
0.0
  0
LINE
  5
21E
  8
DEFAULT
 62
     7
 10
103.7999723055556
 20
-107.39996575
 30
0.0
 11
112.7922778611111
 21
-107.39996575
 31
0.0
  0
LINE
  5
21F
  8
DEFAULT
 62
     7
 10
112.7922778611111
 20
-107.39996575
 30
0.0
 11
112.7922778611111
 21
-103.3999949166667
 31
0.0
  0
LINE
  5
220
  8
DEFAULT
 62
     7
 10
112.7922778611111
 20
-103.3999949166667
 30
0.0
 11
126.08459175
 21
-103.3999949166667
 31
0.0
  0
LINE
  5
221
  8
DEFAULT
 62
     7
 10
126.08459175
 20
-107.39996575
 30
0.0
 11
126.08459175
 21
-103.3999949166667
 31
0.0
  0
LINE
  5
222
  8
DEFAULT
 62
     7
 10
126.08459175
 20
-107.39996575
 30
0.0
 11
138.9768909166667
 21
-107.39996575
 31
0.0
  0
LINE
  5
223
  8
DEFAULT
 62
     7
 10
138.9768909166667
 20
-107.39996575
 30
0.0
 11
138.9768909166667
 21
-103.3999949166667
 31
0.0
  0
LINE
  5
224
  8
DEFAULT
 62
     7
 10
138.9768909166667
 20
-103.3999949166667
 30
0.0
 11
152.2692048055555
 21
-103.3999949166667
 31
0.0
  0
LINE
  5
225
  8
DEFAULT
 62
     7
 10
152.2692048055555
 20
-107.39996575
 30
0.0
 11
152.2692048055555
 21
-103.3999949166667
 31
0.0
  0
LINE
  5
226
  8
DEFAULT
 62
     7
 10
152.2692048055555
 20
-107.39996575
 30
0.0
 11
165.16153925
 21
-107.39996575
 31
0.0
  0
LINE
  5
227
  8
DEFAULT
 62
     7
 10
165.16153925
 20
-107.39996575
 30
0.0
 11
165.16153925
 21
-103.3999949166667
 31
0.0
  0
LINE
  5
228
  8
DEFAULT
 62
     7
 10
165.16153925
 20
-103.3999949166667
 30
0.0
 11
178.4538178611111
 21
-103.3999949166667
 31
0.0
  0
LINE
  5
229
  8
DEFAULT
 62
     7
 10
178.4538178611111
 20
-107.39996575
 30
0.0
 11
178.4538178611111
 21
-103.3999949166667
 31
0.0
  0
LINE
  5
22A
  8
DEFAULT
 62
     7
 10
178.4538178611111
 20
-107.39996575
 30
0.0
 11
191.3461523055555
 21
-107.39996575
 31
0.0
  0
LINE
  5
22B
  8
DEFAULT
 62
     7
 10
191.3461523055555
 20
-107.39996575
 30
0.0
 11
191.3461523055555
 21
-103.3999949166667
 31
0.0
  0
LINE
  5
22C
  8
DEFAULT
 62
     7
 10
191.3461523055555
 20
-103.3999949166667
 30
0.0
 11
204.6384309166667
 21
-103.3999949166667
 31
0.0
  0
LINE
  5
22D
  8
DEFAULT
 62
     7
 10
204.6384309166667
 20
-107.39996575
 30
0.0
 11
204.6384309166667
 21
-103.3999949166667
 31
0.0
  0
LINE
  5
22E
  8
DEFAULT
 62
     7
 10
204.6384309166667
 20
-107.39996575
 30
0.0
 11
217.5307653611111
 21
-107.39996575
 31
0.0
  0
LINE
  5
22F
  8
DEFAULT
 62
     7
 10
217.5307653611111
 20
-107.39996575
 30
0.0
 11
217.5307653611111
 21
-103.3999949166667
 31
0.0
  0
LINE
  5
230
  8
DEFAULT
 62
     7
 10
217.5307653611111
 20
-103.3999949166667
 30
0.0
 11
230.82307925
 21
-103.3999949166667
 31
0.0
  0
LINE
  5
231
  8
DEFAULT
 62
     7
 10
230.82307925
 20
-107.39996575
 30
0.0
 11
230.82307925
 21
-103.3999949166667
 31
0.0
  0
LINE
  5
232
  8
DEFAULT
 62
     7
 10
230.82307925
 20
-107.39996575
 30
0.0
 11
243.7153784166667
 21
-107.39996575
 31
0.0
  0
LINE
  5
233
  8
DEFAULT
 62
     7
 10
243.7153784166667
 20
-107.39996575
 30
0.0
 11
243.7153784166667
 21
-103.3999949166667
 31
0.0
  0
LINE
  5
234
  8
DEFAULT
 62
     7
 10
243.7153784166667
 20
-103.3999949166667
 30
0.0
 11
257.0076923055556
 21
-103.3999949166667
 31
0.0
  0
LINE
  5
235
  8
DEFAULT
 62
     7
 10
257.0076923055556
 20
-107.39996575
 30
0.0
 11
257.0076923055556
 21
-103.3999949166667
 31
0.0
  0
LINE
  5
236
  8
DEFAULT
 62
     7
 10
257.0076923055556
 20
-107.39996575
 30
0.0
 11
265.9999978611111
 21
-107.39996575
 31
0.0
  0
LINE
  5
237
  8
DEFAULT
 62
     7
 10
103.7999723055556
 20
-309.59984075
 30
0.0
 11
112.7922778611111
 21
-309.59984075
 31
0.0
  0
LINE
  5
238
  8
DEFAULT
 62
     7
 10
112.7922778611111
 20
-313.5999879722223
 30
0.0
 11
112.7922778611111
 21
-309.59984075
 31
0.0
  0
LINE
  5
239
  8
DEFAULT
 62
     7
 10
112.7922778611111
 20
-313.5999879722223
 30
0.0
 11
126.08459175
 21
-313.5999879722223
 31
0.0
  0
LINE
  5
23A
  8
DEFAULT
 62
     7
 10
126.08459175
 20
-313.5999879722223
 30
0.0
 11
126.08459175
 21
-309.59984075
 31
0.0
  0
LINE
  5
23B
  8
DEFAULT
 62
     7
 10
126.08459175
 20
-309.59984075
 30
0.0
 11
138.9768909166667
 21
-309.59984075
 31
0.0
  0
LINE
  5
23C
  8
DEFAULT
 62
     7
 10
138.9768909166667
 20
-313.5999879722223
 30
0.0
 11
138.9768909166667
 21
-309.59984075
 31
0.0
  0
LINE
  5
23D
  8
DEFAULT
 62
     7
 10
138.9768909166667
 20
-313.5999879722223
 30
0.0
 11
152.2692048055555
 21
-313.5999879722223
 31
0.0
  0
LINE
  5
23E
  8
DEFAULT
 62
     7
 10
152.2692048055555
 20
-313.5999879722223
 30
0.0
 11
152.2692048055555
 21
-309.59984075
 31
0.0
  0
LINE
  5
23F
  8
DEFAULT
 62
     7
 10
152.2692048055555
 20
-309.59984075
 30
0.0
 11
165.16153925
 21
-309.59984075
 31
0.0
  0
LINE
  5
240
  8
DEFAULT
 62
     7
 10
165.16153925
 20
-313.5999879722223
 30
0.0
 11
165.16153925
 21
-309.59984075
 31
0.0
  0
LINE
  5
241
  8
DEFAULT
 62
     7
 10
165.16153925
 20
-313.5999879722223
 30
0.0
 11
178.4538178611111
 21
-313.5999879722223
 31
0.0
  0
LINE
  5
242
  8
DEFAULT
 62
     7
 10
178.4538178611111
 20
-313.5999879722223
 30
0.0
 11
178.4538178611111
 21
-309.59984075
 31
0.0
  0
LINE
  5
243
  8
DEFAULT
 62
     7
 10
178.4538178611111
 20
-309.59984075
 30
0.0
 11
191.3461523055555
 21
-309.59984075
 31
0.0
  0
LINE
  5
244
  8
DEFAULT
 62
     7
 10
191.3461523055555
 20
-313.5999879722223
 30
0.0
 11
191.3461523055555
 21
-309.59984075
 31
0.0
  0
LINE
  5
245
  8
DEFAULT
 62
     7
 10
191.3461523055555
 20
-313.5999879722223
 30
0.0
 11
204.6384309166667
 21
-313.5999879722223
 31
0.0
  0
LINE
  5
246
  8
DEFAULT
 62
     7
 10
204.6384309166667
 20
-313.5999879722223
 30
0.0
 11
204.6384309166667
 21
-309.59984075
 31
0.0
  0
LINE
  5
247
  8
DEFAULT
 62
     7
 10
204.6384309166667
 20
-309.59984075
 30
0.0
 11
217.5307653611111
 21
-309.59984075
 31
0.0
  0
LINE
  5
248
  8
DEFAULT
 62
     7
 10
217.5307653611111
 20
-313.5999879722223
 30
0.0
 11
217.5307653611111
 21
-309.59984075
 31
0.0
  0
LINE
  5
249
  8
DEFAULT
 62
     7
 10
217.5307653611111
 20
-313.5999879722223
 30
0.0
 11
230.82307925
 21
-313.5999879722223
 31
0.0
  0
LINE
  5
24A
  8
DEFAULT
 62
     7
 10
230.82307925
 20
-313.5999879722223
 30
0.0
 11
230.82307925
 21
-309.59984075
 31
0.0
  0
LINE
  5
24B
  8
DEFAULT
 62
     7
 10
230.82307925
 20
-309.59984075
 30
0.0
 11
243.7153784166667
 21
-309.59984075
 31
0.0
  0
LINE
  5
24C
  8
DEFAULT
 62
     7
 10
243.7153784166667
 20
-313.5999879722223
 30
0.0
 11
243.7153784166667
 21
-309.59984075
 31
0.0
  0
LINE
  5
24D
  8
DEFAULT
 62
     7
 10
243.7153784166667
 20
-313.5999879722223
 30
0.0
 11
257.0076923055556
 21
-313.5999879722223
 31
0.0
  0
LINE
  5
24E
  8
DEFAULT
 62
     7
 10
257.0076923055556
 20
-313.5999879722223
 30
0.0
 11
257.0076923055556
 21
-309.59984075
 31
0.0
  0
LINE
  5
24F
  8
DEFAULT
 62
     7
 10
257.0076923055556
 20
-309.59984075
 30
0.0
 11
265.9999978611111
 21
-309.59984075
 31
0.0
  0
CIRCLE
  5
250
  8
LAYER_01
 10
182.8999723055555
 20
-277.4999657499999
 30
0.0
 40
1.6
  0
CIRCLE
  5
251
  8
LAYER_01
 10
248.8999723055554
 20
-280.4999657499999
 30
0.0
 40
1.6
  0
CIRCLE
  5
252
  8
LAYER_01
 10
248.8999723055554
 20
-232.4999657499999
 30
0.0
 40
1.6
  0
CIRCLE
  5
253
  8
LAYER_01
 10
182.8999723055555
 20
-235.4999657499999
 30
0.0
 40
1.6
  0
CIRCLE
  5
254
  8
LAYER_01
 10
181.8999723055555
 20
-225.4999657499999
 30
0.0
 40
1.6
  0
CIRCLE
  5
255
  8
LAYER_01
 10
255.8999723055554
 20
-225.4999657499999
 30
0.0
 40
1.6
  0
CIRCLE
  5
256
  8
LAYER_01
 10
255.8999723055554
 20
-140.4999657499999
 30
0.0
 40
1.6
  0
CIRCLE
  5
257
  8
LAYER_01
 10
181.8999723055555
 20
-140.4999657499999
 30
0.0
 40
1.6
  0
LINE
  5
258
  8
LAYER_01
 10
256.2999723055555
 20
-116.4999657499999
 30
0.0
 11
166.2999723055555
 21
-116.4999657499999
 31
0.0
  0
LINE
  5
259
  8
LAYER_01
 10
256.2999723055555
 20
-120.4999657499999
 30
0.0
 11
256.2999723055555
 21
-116.4999657499999
 31
0.0
  0
LINE
  5
25A
  8
LAYER_01
 10
166.2999723055555
 20
-120.4999657499999
 30
0.0
 11
256.2999723055555
 21
-120.4999657499999
 31
0.0
  0
LINE
  5
25B
  8
LAYER_01
 10
166.2999723055555
 20
-116.4999657499999
 30
0.0
 11
166.2999723055555
 21
-120.4999657499999
 31
0.0
  0
LINE
  5
25C
  8
LAYER_01
 10
256.2999723055555
 20
-126.4999657499999
 30
0.0
 11
166.2999723055555
 21
-126.4999657499999
 31
0.0
  0
LINE
  5
25D
  8
LAYER_01
 10
256.2999723055555
 20
-130.4999657499999
 30
0.0
 11
256.2999723055555
 21
-126.4999657499999
 31
0.0
  0
LINE
  5
25E
  8
LAYER_01
 10
166.2999723055555
 20
-130.4999657499999
 30
0.0
 11
256.2999723055555
 21
-130.4999657499999
 31
0.0
  0
LINE
  5
25F
  8
LAYER_01
 10
166.2999723055555
 20
-126.4999657499999
 30
0.0
 11
166.2999723055555
 21
-130.4999657499999
 31
0.0
  0
LINE
  5
260
  8
LAYER_01
 10
250.8999723055554
 20
-136.4999657499999
 30
0.0
 11
186.8999723055555
 21
-136.4999657499999
 31
0.0
  0
LINE
  5
261
  8
LAYER_01
 10
250.8999723055554
 20
-140.4999657499999
 30
0.0
 11
250.8999723055554
 21
-136.4999657499999
 31
0.0
  0
LINE
  5
262
  8
LAYER_01
 10
186.8999723055555
 20
-140.4999657499999
 30
0.0
 11
250.8999723055554
 21
-140.4999657499999
 31
0.0
  0
LINE
  5
263
  8
LAYER_01
 10
186.8999723055555
 20
-136.4999657499999
 30
0.0
 11
186.8999723055555
 21
-140.4999657499999
 31
0.0
  0
LINE
  5
264
  8
LAYER_01
 10
256.2999723055555
 20
-146.4999657499999
 30
0.0
 11
166.2999723055555
 21
-146.4999657499999
 31
0.0
  0
LINE
  5
265
  8
LAYER_01
 10
256.2999723055555
 20
-150.4999657499999
 30
0.0
 11
256.2999723055555
 21
-146.4999657499999
 31
0.0
  0
LINE
  5
266
  8
LAYER_01
 10
166.2999723055555
 20
-150.4999657499999
 30
0.0
 11
256.2999723055555
 21
-150.4999657499999
 31
0.0
  0
LINE
  5
267
  8
LAYER_01
 10
166.2999723055555
 20
-146.4999657499999
 30
0.0
 11
166.2999723055555
 21
-150.4999657499999
 31
0.0
  0
LINE
  5
268
  8
LAYER_01
 10
256.2999723055555
 20
-166.4999657499999
 30
0.0
 11
166.2999723055555
 21
-166.4999657499999
 31
0.0
  0
LINE
  5
269
  8
LAYER_01
 10
256.2999723055555
 20
-170.4999657499999
 30
0.0
 11
256.2999723055555
 21
-166.4999657499999
 31
0.0
  0
LINE
  5
26A
  8
LAYER_01
 10
166.2999723055555
 20
-170.4999657499999
 30
0.0
 11
256.2999723055555
 21
-170.4999657499999
 31
0.0
  0
LINE
  5
26B
  8
LAYER_01
 10
166.2999723055555
 20
-166.4999657499999
 30
0.0
 11
166.2999723055555
 21
-170.4999657499999
 31
0.0
  0
LINE
  5
26C
  8
LAYER_01
 10
256.2999723055555
 20
-156.4999657499999
 30
0.0
 11
166.2999723055555
 21
-156.4999657499999
 31
0.0
  0
LINE
  5
26D
  8
LAYER_01
 10
256.2999723055555
 20
-160.4999657499999
 30
0.0
 11
256.2999723055555
 21
-156.4999657499999
 31
0.0
  0
LINE
  5
26E
  8
LAYER_01
 10
166.2999723055555
 20
-160.4999657499999
 30
0.0
 11
256.2999723055555
 21
-160.4999657499999
 31
0.0
  0
LINE
  5
26F
  8
LAYER_01
 10
166.2999723055555
 20
-156.4999657499999
 30
0.0
 11
166.2999723055555
 21
-160.4999657499999
 31
0.0
  0
LINE
  5
270
  8
LAYER_01
 10
256.2999723055555
 20
-176.4999657499999
 30
0.0
 11
166.2999723055555
 21
-176.4999657499999
 31
0.0
  0
LINE
  5
271
  8
LAYER_01
 10
256.2999723055555
 20
-180.4999657499999
 30
0.0
 11
256.2999723055555
 21
-176.4999657499999
 31
0.0
  0
LINE
  5
272
  8
LAYER_01
 10
166.2999723055555
 20
-180.4999657499999
 30
0.0
 11
256.2999723055555
 21
-180.4999657499999
 31
0.0
  0
LINE
  5
273
  8
LAYER_01
 10
166.2999723055555
 20
-176.4999657499999
 30
0.0
 11
166.2999723055555
 21
-180.4999657499999
 31
0.0
  0
LINE
  5
274
  8
LAYER_01
 10
256.2999723055555
 20
-186.4999657499999
 30
0.0
 11
166.2999723055555
 21
-186.4999657499999
 31
0.0
  0
LINE
  5
275
  8
LAYER_01
 10
256.2999723055555
 20
-190.4999657499999
 30
0.0
 11
256.2999723055555
 21
-186.4999657499999
 31
0.0
  0
LINE
  5
276
  8
LAYER_01
 10
166.2999723055555
 20
-190.4999657499999
 30
0.0
 11
256.2999723055555
 21
-190.4999657499999
 31
0.0
  0
LINE
  5
277
  8
LAYER_01
 10
166.2999723055555
 20
-186.4999657499999
 30
0.0
 11
166.2999723055555
 21
-190.4999657499999
 31
0.0
  0
LINE
  5
278
  8
LAYER_01
 10
256.2999723055555
 20
-196.4999657499999
 30
0.0
 11
166.2999723055555
 21
-196.4999657499999
 31
0.0
  0
LINE
  5
279
  8
LAYER_01
 10
256.2999723055555
 20
-200.4999657499999
 30
0.0
 11
256.2999723055555
 21
-196.4999657499999
 31
0.0
  0
LINE
  5
27A
  8
LAYER_01
 10
166.2999723055555
 20
-200.4999657499999
 30
0.0
 11
256.2999723055555
 21
-200.4999657499999
 31
0.0
  0
LINE
  5
27B
  8
LAYER_01
 10
166.2999723055555
 20
-196.4999657499999
 30
0.0
 11
166.2999723055555
 21
-200.4999657499999
 31
0.0
  0
LINE
  5
27C
  8
LAYER_01
 10
256.2999723055555
 20
-206.4999657499999
 30
0.0
 11
166.2999723055555
 21
-206.4999657499999
 31
0.0
  0
LINE
  5
27D
  8
LAYER_01
 10
256.2999723055555
 20
-210.4999657499999
 30
0.0
 11
256.2999723055555
 21
-206.4999657499999
 31
0.0
  0
LINE
  5
27E
  8
LAYER_01
 10
166.2999723055555
 20
-210.4999657499999
 30
0.0
 11
256.2999723055555
 21
-210.4999657499999
 31
0.0
  0
LINE
  5
27F
  8
LAYER_01
 10
166.2999723055555
 20
-206.4999657499999
 30
0.0
 11
166.2999723055555
 21
-210.4999657499999
 31
0.0
  0
LINE
  5
280
  8
LAYER_01
 10
256.2999723055555
 20
-216.4999657499999
 30
0.0
 11
166.2999723055555
 21
-216.4999657499999
 31
0.0
  0
LINE
  5
281
  8
LAYER_01
 10
256.2999723055555
 20
-220.4999657499999
 30
0.0
 11
256.2999723055555
 21
-216.4999657499999
 31
0.0
  0
LINE
  5
282
  8
LAYER_01
 10
166.2999723055555
 20
-220.4999657499999
 30
0.0
 11
256.2999723055555
 21
-220.4999657499999
 31
0.0
  0
LINE
  5
283
  8
LAYER_01
 10
166.2999723055555
 20
-216.4999657499999
 30
0.0
 11
166.2999723055555
 21
-220.4999657499999
 31
0.0
  0
LINE
  5
284
  8
LAYER_01
 10
243.8999723055554
 20
-226.4999657499999
 30
0.0
 11
187.8999723055555
 21
-226.4999657499999
 31
0.0
  0
LINE
  5
285
  8
LAYER_01
 10
243.8999723055554
 20
-230.4999657499999
 30
0.0
 11
243.8999723055554
 21
-226.4999657499999
 31
0.0
  0
LINE
  5
286
  8
LAYER_01
 10
187.8999723055555
 20
-230.4999657499999
 30
0.0
 11
243.8999723055554
 21
-230.4999657499999
 31
0.0
  0
LINE
  5
287
  8
LAYER_01
 10
187.8999723055555
 20
-226.4999657499999
 30
0.0
 11
187.8999723055555
 21
-230.4999657499999
 31
0.0
  0
LINE
  5
288
  8
LAYER_01
 10
243.8999723055554
 20
-236.4999657499999
 30
0.0
 11
187.8999723055555
 21
-236.4999657499999
 31
0.0
  0
LINE
  5
289
  8
LAYER_01
 10
243.8999723055554
 20
-240.4999657499999
 30
0.0
 11
243.8999723055554
 21
-236.4999657499999
 31
0.0
  0
LINE
  5
28A
  8
LAYER_01
 10
187.8999723055555
 20
-240.4999657499999
 30
0.0
 11
243.8999723055554
 21
-240.4999657499999
 31
0.0
  0
LINE
  5
28B
  8
LAYER_01
 10
187.8999723055555
 20
-236.4999657499999
 30
0.0
 11
187.8999723055555
 21
-240.4999657499999
 31
0.0
  0
LINE
  5
28C
  8
LAYER_01
 10
256.2999723055555
 20
-246.4999657499999
 30
0.0
 11
166.2999723055555
 21
-246.4999657499999
 31
0.0
  0
LINE
  5
28D
  8
LAYER_01
 10
256.2999723055555
 20
-250.4999657499999
 30
0.0
 11
256.2999723055555
 21
-246.4999657499999
 31
0.0
  0
LINE
  5
28E
  8
LAYER_01
 10
166.2999723055555
 20
-250.4999657499999
 30
0.0
 11
256.2999723055555
 21
-250.4999657499999
 31
0.0
  0
LINE
  5
28F
  8
LAYER_01
 10
166.2999723055555
 20
-246.4999657499999
 30
0.0
 11
166.2999723055555
 21
-250.4999657499999
 31
0.0
  0
LINE
  5
290
  8
LAYER_01
 10
256.2999723055555
 20
-256.4999657499999
 30
0.0
 11
166.2999723055555
 21
-256.4999657499999
 31
0.0
  0
LINE
  5
291
  8
LAYER_01
 10
256.2999723055555
 20
-260.4999657499999
 30
0.0
 11
256.2999723055555
 21
-256.4999657499999
 31
0.0
  0
LINE
  5
292
  8
LAYER_01
 10
166.2999723055555
 20
-260.4999657499999
 30
0.0
 11
256.2999723055555
 21
-260.4999657499999
 31
0.0
  0
LINE
  5
293
  8
LAYER_01
 10
166.2999723055555
 20
-256.4999657499999
 30
0.0
 11
166.2999723055555
 21
-260.4999657499999
 31
0.0
  0
LINE
  5
294
  8
LAYER_01
 10
256.2999723055555
 20
-266.4999657499999
 30
0.0
 11
166.2999723055555
 21
-266.4999657499999
 31
0.0
  0
LINE
  5
295
  8
LAYER_01
 10
256.2999723055555
 20
-270.4999657499999
 30
0.0
 11
256.2999723055555
 21
-266.4999657499999
 31
0.0
  0
LINE
  5
296
  8
LAYER_01
 10
166.2999723055555
 20
-270.4999657499999
 30
0.0
 11
256.2999723055555
 21
-270.4999657499999
 31
0.0
  0
LINE
  5
297
  8
LAYER_01
 10
166.2999723055555
 20
-266.4999657499999
 30
0.0
 11
166.2999723055555
 21
-270.4999657499999
 31
0.0
  0
LINE
  5
298
  8
LAYER_01
 10
243.8999723055554
 20
-276.4999657499999
 30
0.0
 11
187.8999723055555
 21
-276.4999657499999
 31
0.0
  0
LINE
  5
299
  8
LAYER_01
 10
243.8999723055554
 20
-280.4999657499999
 30
0.0
 11
243.8999723055554
 21
-276.4999657499999
 31
0.0
  0
LINE
  5
29A
  8
LAYER_01
 10
187.8999723055555
 20
-280.4999657499999
 30
0.0
 11
243.8999723055554
 21
-280.4999657499999
 31
0.0
  0
LINE
  5
29B
  8
LAYER_01
 10
187.8999723055555
 20
-276.4999657499999
 30
0.0
 11
187.8999723055555
 21
-280.4999657499999
 31
0.0
  0
LINE
  5
29C
  8
LAYER_01
 10
256.2999723055555
 20
-286.4999657499999
 30
0.0
 11
166.2999723055555
 21
-286.4999657499999
 31
0.0
  0
LINE
  5
29D
  8
LAYER_01
 10
256.2999723055555
 20
-290.4999657499999
 30
0.0
 11
256.2999723055555
 21
-286.4999657499999
 31
0.0
  0
LINE
  5
29E
  8
LAYER_01
 10
166.2999723055555
 20
-290.4999657499999
 30
0.0
 11
256.2999723055555
 21
-290.4999657499999
 31
0.0
  0
LINE
  5
29F
  8
LAYER_01
 10
166.2999723055555
 20
-286.4999657499999
 30
0.0
 11
166.2999723055555
 21
-290.4999657499999
 31
0.0
  0
LINE
  5
2A0
  8
LAYER_01
 10
256.2999723055555
 20
-296.4999657499999
 30
0.0
 11
166.2999723055555
 21
-296.4999657499999
 31
0.0
  0
LINE
  5
2A1
  8
LAYER_01
 10
256.2999723055555
 20
-300.4999657499999
 30
0.0
 11
256.2999723055555
 21
-296.4999657499999
 31
0.0
  0
LINE
  5
2A2
  8
LAYER_01
 10
166.2999723055555
 20
-300.4999657499999
 30
0.0
 11
256.2999723055555
 21
-300.4999657499999
 31
0.0
  0
LINE
  5
2A3
  8
LAYER_01
 10
166.2999723055555
 20
-296.4999657499999
 30
0.0
 11
166.2999723055555
 21
-300.4999657499999
 31
0.0
  0
CIRCLE
  5
2A4
  8
LAYER_01
 10
58.49997369444447
 20
-85.00002713888892
 30
0.0
 40
1.6
  0
CIRCLE
  5
2A5
  8
LAYER_01
 10
82.49997369444446
 20
-66.00002713888892
 30
0.0
 40
1.6
  0
CIRCLE
  5
2A6
  8
LAYER_01
 10
70.49997369444446
 20
-75.50002713888892
 30
0.0
 40
11.8
  0
CIRCLE
  5
2A7
  8
LAYER_01
 10
74.49997369444446
 20
-34.50002713888892
 30
0.0
 40
3.0
  0
CIRCLE
  5
2A8
  8
LAYER_01
 10
74.49997369444446
 20
-14.50002713888892
 30
0.0
 40
3.0
  0
CIRCLE
  5
2A9
  8
LAYER_01
 10
74.49997369444446
 20
14.49997286111108
 30
0.0
 40
3.0
  0
CIRCLE
  5
2AA
  8
LAYER_01
 10
74.49997369444446
 20
34.49997286111108
 30
0.0
 40
3.0
  0
CIRCLE
  5
2AB
  8
LAYER_01
 10
72.59998683333333
 20
-123.5999949166668
 30
0.0
 40
1.6
  0
CIRCLE
  5
2AC
  8
LAYER_01
 10
42.59998683333334
 20
-123.5999949166668
 30
0.0
 40
1.6
  0
CIRCLE
  5
2AD
  8
LAYER_01
 10
79.49997369444446
 20
90.49997286111108
 30
0.0
 40
1.6
  0
CIRCLE
  5
2AE
  8
LAYER_01
 10
49.49997369444447
 20
90.49997286111108
 30
0.0
 40
1.6
  0
CIRCLE
  5
2AF
  8
LAYER_01
 10
63.49997369444447
 20
69.49997286111108
 30
0.0
 40
4.0
  0
CIRCLE
  5
2B0
  8
LAYER_01
 10
81.49997369444446
 20
69.49997286111108
 30
0.0
 40
4.0
  0
LINE
  5
2B1
  8
LAYER_01
 10
29.49997369444446
 20
44.49997286111108
 30
0.0
 11
29.49997369444446
 21
62.49997286111108
 31
0.0
  0
LINE
  5
2B2
  8
LAYER_01
 10
29.49997369444446
 20
62.49997286111108
 30
0.0
 11
45.49997369444447
 21
62.49997286111108
 31
0.0
  0
LINE
  5
2B3
  8
LAYER_01
 10
45.49997369444447
 20
62.49997286111108
 30
0.0
 11
45.49997369444447
 21
44.49997286111108
 31
0.0
  0
LINE
  5
2B4
  8
LAYER_01
 10
45.49997369444447
 20
44.49997286111108
 30
0.0
 11
29.49997369444446
 21
44.49997286111108
 31
0.0
  0
LINE
  5
2B5
  8
LAYER_01
 10
57.49997369444447
 20
86.99997286111108
 30
0.0
 11
57.49997369444447
 21
93.99997286111108
 31
0.0
  0
LINE
  5
2B6
  8
LAYER_01
 10
57.49997369444447
 20
93.99997286111108
 30
0.0
 11
71.49997369444446
 21
93.99997286111108
 31
0.0
  0
LINE
  5
2B7
  8
LAYER_01
 10
71.49997369444446
 20
93.99997286111108
 30
0.0
 11
71.49997369444446
 21
86.99997286111108
 31
0.0
  0
LINE
  5
2B8
  8
LAYER_01
 10
71.49997369444446
 20
86.99997286111108
 30
0.0
 11
57.49997369444447
 21
86.99997286111108
 31
0.0
  0
LINE
  5
2B9
  8
DEFAULT
 62
     7
 10
17.39997369444445
 20
108.5999949166666
 30
0.0
 11
17.39997369444445
 21
96.13529769444438
 31
0.0
  0
LINE
  5
2BA
  8
DEFAULT
 62
     7
 10
21.39997980555557
 20
96.13529769444438
 30
0.0
 11
17.39997369444445
 21
96.13529769444438
 31
0.0
  0
LINE
  5
2BB
  8
DEFAULT
 62
     7
 10
21.39997980555557
 20
96.13529769444438
 30
0.0
 11
21.39997980555557
 21
83.97060269444444
 31
0.0
  0
LINE
  5
2BC
  8
DEFAULT
 62
     7
 10
21.39997980555557
 20
83.97060269444444
 30
0.0
 11
17.39997369444445
 21
83.97060269444444
 31
0.0
  0
LINE
  5
2BD
  8
DEFAULT
 62
     7
 10
17.39997369444445
 20
83.97060269444444
 30
0.0
 11
17.39997369444445
 21
71.4058929722222
 31
0.0
  0
LINE
  5
2BE
  8
DEFAULT
 62
     7
 10
21.39997980555557
 20
71.4058929722222
 30
0.0
 11
17.39997369444445
 21
71.4058929722222
 31
0.0
  0
LINE
  5
2BF
  8
DEFAULT
 62
     7
 10
21.39997980555557
 20
71.4058929722222
 30
0.0
 11
21.39997980555557
 21
59.24119797222227
 31
0.0
  0
LINE
  5
2C0
  8
DEFAULT
 62
     7
 10
21.39997980555557
 20
59.24119797222227
 30
0.0
 11
17.39997369444445
 21
59.24119797222227
 31
0.0
  0
LINE
  5
2C1
  8
DEFAULT
 62
     7
 10
17.39997369444445
 20
59.24119797222227
 30
0.0
 11
17.39997369444445
 21
46.67648825000003
 31
0.0
  0
LINE
  5
2C2
  8
DEFAULT
 62
     7
 10
21.39997980555557
 20
46.67648825000003
 30
0.0
 11
17.39997369444445
 21
46.67648825000003
 31
0.0
  0
LINE
  5
2C3
  8
DEFAULT
 62
     7
 10
21.39997980555557
 20
46.67648825000003
 30
0.0
 11
21.39997980555557
 21
34.5117579722222
 31
0.0
  0
LINE
  5
2C4
  8
DEFAULT
 62
     7
 10
21.39997980555557
 20
34.5117579722222
 30
0.0
 11
17.39997369444445
 21
34.5117579722222
 31
0.0
  0
LINE
  5
2C5
  8
DEFAULT
 62
     7
 10
17.39997369444445
 20
34.5117579722222
 30
0.0
 11
17.39997369444445
 21
21.94708352777775
 31
0.0
  0
LINE
  5
2C6
  8
DEFAULT
 62
     7
 10
21.39997980555557
 20
21.94708352777775
 30
0.0
 11
17.39997369444445
 21
21.94708352777775
 31
0.0
  0
LINE
  5
2C7
  8
DEFAULT
 62
     7
 10
21.39997980555557
 20
21.94708352777775
 30
0.0
 11
21.39997980555557
 21
9.782353250000028
 31
0.0
  0
LINE
  5
2C8
  8
DEFAULT
 62
     7
 10
21.39997980555557
 20
9.782353250000028
 30
0.0
 11
17.39997369444445
 21
9.782353250000028
 31
0.0
  0
LINE
  5
2C9
  8
DEFAULT
 62
     7
 10
17.39997369444445
 20
9.782353250000028
 30
0.0
 11
17.39997369444445
 21
-2.782356472222205
 31
0.0
  0
LINE
  5
2CA
  8
DEFAULT
 62
     7
 10
21.39997980555557
 20
-2.782356472222205
 30
0.0
 11
17.39997369444445
 21
-2.782356472222205
 31
0.0
  0
LINE
  5
2CB
  8
DEFAULT
 62
     7
 10
21.39997980555557
 20
-2.782356472222205
 30
0.0
 11
21.39997980555557
 21
-14.94705147222226
 31
0.0
  0
LINE
  5
2CC
  8
DEFAULT
 62
     7
 10
21.39997980555557
 20
-14.94705147222226
 30
0.0
 11
17.39997369444445
 21
-14.94705147222226
 31
0.0
  0
LINE
  5
2CD
  8
DEFAULT
 62
     7
 10
17.39997369444445
 20
-14.94705147222226
 30
0.0
 11
17.39997369444445
 21
-27.51176119444449
 31
0.0
  0
LINE
  5
2CE
  8
DEFAULT
 62
     7
 10
21.39997980555557
 20
-27.51176119444449
 30
0.0
 11
17.39997369444445
 21
-27.51176119444449
 31
0.0
  0
LINE
  5
2CF
  8
DEFAULT
 62
     7
 10
21.39997980555557
 20
-27.51176119444449
 30
0.0
 11
21.39997980555557
 21
-39.67645619444454
 31
0.0
  0
LINE
  5
2D0
  8
DEFAULT
 62
     7
 10
21.39997980555557
 20
-39.67645619444454
 30
0.0
 11
17.39997369444445
 21
-39.67645619444454
 31
0.0
  0
LINE
  5
2D1
  8
DEFAULT
 62
     7
 10
17.39997369444445
 20
-39.67645619444454
 30
0.0
 11
17.39997369444445
 21
-52.24116591666666
 31
0.0
  0
LINE
  5
2D2
  8
DEFAULT
 62
     7
 10
21.39997980555557
 20
-52.24116591666666
 30
0.0
 11
17.39997369444445
 21
-52.24116591666666
 31
0.0
  0
LINE
  5
2D3
  8
DEFAULT
 62
     7
 10
21.39997980555557
 20
-52.24116591666666
 30
0.0
 11
21.39997980555557
 21
-64.40593147222222
 31
0.0
  0
LINE
  5
2D4
  8
DEFAULT
 62
     7
 10
21.39997980555557
 20
-64.40593147222222
 30
0.0
 11
17.39997369444445
 21
-64.40593147222222
 31
0.0
  0
LINE
  5
2D5
  8
DEFAULT
 62
     7
 10
17.39997369444445
 20
-64.40593147222222
 30
0.0
 11
17.39997369444445
 21
-76.97046480555554
 31
0.0
  0
LINE
  5
2D6
  8
DEFAULT
 62
     7
 10
21.39997980555557
 20
-76.97046480555554
 30
0.0
 11
17.39997369444445
 21
-76.97046480555554
 31
0.0
  0
LINE
  5
2D7
  8
DEFAULT
 62
     7
 10
21.39997980555557
 20
-76.97046480555554
 30
0.0
 11
21.39997980555557
 21
-89.13530091666667
 31
0.0
  0
LINE
  5
2D8
  8
DEFAULT
 62
     7
 10
21.39997980555557
 20
-89.13530091666667
 30
0.0
 11
17.39997369444445
 21
-89.13530091666667
 31
0.0
  0
LINE
  5
2D9
  8
DEFAULT
 62
     7
 10
17.39997369444445
 20
-89.13530091666667
 30
0.0
 11
17.39997369444445
 21
-97.5998509166667
 31
0.0
  0
LINE
  5
2DA
  8
DEFAULT
 62
     7
 10
97.59997980555556
 20
108.5999949166666
 30
0.0
 11
97.59997980555556
 21
96.13529769444438
 31
0.0
  0
LINE
  5
2DB
  8
DEFAULT
 62
     7
 10
97.59997980555556
 20
96.13529769444438
 30
0.0
 11
93.5998325833333
 21
96.13529769444438
 31
0.0
  0
LINE
  5
2DC
  8
DEFAULT
 62
     7
 10
93.5998325833333
 20
96.13529769444438
 30
0.0
 11
93.5998325833333
 21
83.97060269444444
 31
0.0
  0
LINE
  5
2DD
  8
DEFAULT
 62
     7
 10
97.59997980555556
 20
83.97060269444444
 30
0.0
 11
93.5998325833333
 21
83.97060269444444
 31
0.0
  0
LINE
  5
2DE
  8
DEFAULT
 62
     7
 10
97.59997980555556
 20
83.97060269444444
 30
0.0
 11
97.59997980555556
 21
71.4058929722222
 31
0.0
  0
LINE
  5
2DF
  8
DEFAULT
 62
     7
 10
97.59997980555556
 20
71.4058929722222
 30
0.0
 11
93.5998325833333
 21
71.4058929722222
 31
0.0
  0
LINE
  5
2E0
  8
DEFAULT
 62
     7
 10
93.5998325833333
 20
71.4058929722222
 30
0.0
 11
93.5998325833333
 21
59.24119797222227
 31
0.0
  0
LINE
  5
2E1
  8
DEFAULT
 62
     7
 10
97.59997980555556
 20
59.24119797222227
 30
0.0
 11
93.5998325833333
 21
59.24119797222227
 31
0.0
  0
LINE
  5
2E2
  8
DEFAULT
 62
     7
 10
97.59997980555556
 20
59.24119797222227
 30
0.0
 11
97.59997980555556
 21
46.67648825000003
 31
0.0
  0
LINE
  5
2E3
  8
DEFAULT
 62
     7
 10
97.59997980555556
 20
46.67648825000003
 30
0.0
 11
93.5998325833333
 21
46.67648825000003
 31
0.0
  0
LINE
  5
2E4
  8
DEFAULT
 62
     7
 10
93.5998325833333
 20
46.67648825000003
 30
0.0
 11
93.5998325833333
 21
34.5117579722222
 31
0.0
  0
LINE
  5
2E5
  8
DEFAULT
 62
     7
 10
97.59997980555556
 20
34.5117579722222
 30
0.0
 11
93.5998325833333
 21
34.5117579722222
 31
0.0
  0
LINE
  5
2E6
  8
DEFAULT
 62
     7
 10
97.59997980555556
 20
34.5117579722222
 30
0.0
 11
97.59997980555556
 21
21.94708352777775
 31
0.0
  0
LINE
  5
2E7
  8
DEFAULT
 62
     7
 10
97.59997980555556
 20
21.94708352777775
 30
0.0
 11
93.5998325833333
 21
21.94708352777775
 31
0.0
  0
LINE
  5
2E8
  8
DEFAULT
 62
     7
 10
93.5998325833333
 20
21.94708352777775
 30
0.0
 11
93.5998325833333
 21
9.782353250000028
 31
0.0
  0
LINE
  5
2E9
  8
DEFAULT
 62
     7
 10
97.59997980555556
 20
9.782353250000028
 30
0.0
 11
93.5998325833333
 21
9.782353250000028
 31
0.0
  0
LINE
  5
2EA
  8
DEFAULT
 62
     7
 10
97.59997980555556
 20
9.782353250000028
 30
0.0
 11
97.59997980555556
 21
-2.782356472222205
 31
0.0
  0
LINE
  5
2EB
  8
DEFAULT
 62
     7
 10
97.59997980555556
 20
-2.782356472222205
 30
0.0
 11
93.5998325833333
 21
-2.782356472222205
 31
0.0
  0
LINE
  5
2EC
  8
DEFAULT
 62
     7
 10
93.5998325833333
 20
-2.782356472222205
 30
0.0
 11
93.5998325833333
 21
-14.94705147222226
 31
0.0
  0
LINE
  5
2ED
  8
DEFAULT
 62
     7
 10
97.59997980555556
 20
-14.94705147222226
 30
0.0
 11
93.5998325833333
 21
-14.94705147222226
 31
0.0
  0
LINE
  5
2EE
  8
DEFAULT
 62
     7
 10
97.59997980555556
 20
-14.94705147222226
 30
0.0
 11
97.59997980555556
 21
-27.51176119444449
 31
0.0
  0
LINE
  5
2EF
  8
DEFAULT
 62
     7
 10
97.59997980555556
 20
-27.51176119444449
 30
0.0
 11
93.5998325833333
 21
-27.51176119444449
 31
0.0
  0
LINE
  5
2F0
  8
DEFAULT
 62
     7
 10
93.5998325833333
 20
-27.51176119444449
 30
0.0
 11
93.5998325833333
 21
-39.67645619444454
 31
0.0
  0
LINE
  5
2F1
  8
DEFAULT
 62
     7
 10
97.59997980555556
 20
-39.67645619444454
 30
0.0
 11
93.5998325833333
 21
-39.67645619444454
 31
0.0
  0
LINE
  5
2F2
  8
DEFAULT
 62
     7
 10
97.59997980555556
 20
-39.67645619444454
 30
0.0
 11
97.59997980555556
 21
-52.24116591666666
 31
0.0
  0
LINE
  5
2F3
  8
DEFAULT
 62
     7
 10
97.59997980555556
 20
-52.24116591666666
 30
0.0
 11
93.5998325833333
 21
-52.24116591666666
 31
0.0
  0
LINE
  5
2F4
  8
DEFAULT
 62
     7
 10
93.5998325833333
 20
-52.24116591666666
 30
0.0
 11
93.5998325833333
 21
-64.40593147222222
 31
0.0
  0
LINE
  5
2F5
  8
DEFAULT
 62
     7
 10
97.59997980555556
 20
-64.40593147222222
 30
0.0
 11
93.5998325833333
 21
-64.40593147222222
 31
0.0
  0
LINE
  5
2F6
  8
DEFAULT
 62
     7
 10
97.59997980555556
 20
-64.40593147222222
 30
0.0
 11
97.59997980555556
 21
-76.97046480555554
 31
0.0
  0
LINE
  5
2F7
  8
DEFAULT
 62
     7
 10
97.59997980555556
 20
-76.97046480555554
 30
0.0
 11
93.5998325833333
 21
-76.97046480555554
 31
0.0
  0
LINE
  5
2F8
  8
DEFAULT
 62
     7
 10
93.5998325833333
 20
-76.97046480555554
 30
0.0
 11
93.5998325833333
 21
-89.13530091666667
 31
0.0
  0
LINE
  5
2F9
  8
DEFAULT
 62
     7
 10
97.59997980555556
 20
-89.13530091666667
 30
0.0
 11
93.5998325833333
 21
-89.13530091666667
 31
0.0
  0
LINE
  5
2FA
  8
DEFAULT
 62
     7
 10
97.59997980555556
 20
-89.13530091666667
 30
0.0
 11
97.59997980555556
 21
-97.5998509166667
 31
0.0
  0
LINE
  5
2FB
  8
DEFAULT
 62
     7
 10
17.39997369444445
 20
108.5999949166666
 30
0.0
 11
28.75712508333329
 21
108.5999949166666
 31
0.0
  0
LINE
  5
2FC
  8
DEFAULT
 62
     7
 10
28.75712508333329
 20
104.6000240833333
 30
0.0
 11
28.75712508333329
 21
108.5999949166666
 31
0.0
  0
LINE
  5
2FD
  8
DEFAULT
 62
     7
 10
28.75712508333329
 20
104.6000240833333
 30
0.0
 11
40.41427869444443
 21
104.6000240833333
 31
0.0
  0
LINE
  5
2FE
  8
DEFAULT
 62
     7
 10
40.41427869444443
 20
104.6000240833333
 30
0.0
 11
40.41427869444443
 21
108.5999949166666
 31
0.0
  0
LINE
  5
2FF
  8
DEFAULT
 62
     7
 10
40.41427869444443
 20
108.5999949166666
 30
0.0
 11
51.67141758333333
 21
108.5999949166666
 31
0.0
  0
LINE
  5
300
  8
DEFAULT
 62
     7
 10
51.67141758333333
 20
104.6000240833333
 30
0.0
 11
51.67141758333333
 21
108.5999949166666
 31
0.0
  0
LINE
  5
301
  8
DEFAULT
 62
     7
 10
51.67141758333333
 20
104.6000240833333
 30
0.0
 11
63.32857119444447
 21
104.6000240833333
 31
0.0
  0
LINE
  5
302
  8
DEFAULT
 62
     7
 10
63.32857119444447
 20
104.6000240833333
 30
0.0
 11
63.32857119444447
 21
108.5999949166666
 31
0.0
  0
LINE
  5
303
  8
DEFAULT
 62
     7
 10
63.32857119444447
 20
108.5999949166666
 30
0.0
 11
74.58571008333331
 21
108.5999949166666
 31
0.0
  0
LINE
  5
304
  8
DEFAULT
 62
     7
 10
74.58571008333331
 20
104.6000240833333
 30
0.0
 11
74.58571008333331
 21
108.5999949166666
 31
0.0
  0
LINE
  5
305
  8
DEFAULT
 62
     7
 10
74.58571008333331
 20
104.6000240833333
 30
0.0
 11
86.24282841666667
 21
104.6000240833333
 31
0.0
  0
LINE
  5
306
  8
DEFAULT
 62
     7
 10
86.24282841666667
 20
104.6000240833333
 30
0.0
 11
86.24282841666667
 21
108.5999949166666
 31
0.0
  0
LINE
  5
307
  8
DEFAULT
 62
     7
 10
86.24282841666667
 20
108.5999949166666
 30
0.0
 11
97.59997980555556
 21
108.5999949166666
 31
0.0
  0
LINE
  5
308
  8
DEFAULT
 62
     7
 10
17.39997369444445
 20
-97.5998509166667
 30
0.0
 11
28.75712508333329
 21
-97.5998509166667
 31
0.0
  0
LINE
  5
309
  8
DEFAULT
 62
     7
 10
28.75712508333329
 20
-101.5999981388889
 30
0.0
 11
28.75712508333329
 21
-97.5998509166667
 31
0.0
  0
LINE
  5
30A
  8
DEFAULT
 62
     7
 10
28.75712508333329
 20
-101.5999981388889
 30
0.0
 11
40.41427869444443
 21
-101.5999981388889
 31
0.0
  0
LINE
  5
30B
  8
DEFAULT
 62
     7
 10
40.41427869444443
 20
-101.5999981388889
 30
0.0
 11
40.41427869444443
 21
-97.5998509166667
 31
0.0
  0
LINE
  5
30C
  8
DEFAULT
 62
     7
 10
40.41427869444443
 20
-97.5998509166667
 30
0.0
 11
51.67141758333333
 21
-97.5998509166667
 31
0.0
  0
LINE
  5
30D
  8
DEFAULT
 62
     7
 10
51.67141758333333
 20
-101.5999981388889
 30
0.0
 11
51.67141758333333
 21
-97.5998509166667
 31
0.0
  0
LINE
  5
30E
  8
DEFAULT
 62
     7
 10
51.67141758333333
 20
-101.5999981388889
 30
0.0
 11
63.32857119444447
 21
-101.5999981388889
 31
0.0
  0
LINE
  5
30F
  8
DEFAULT
 62
     7
 10
63.32857119444447
 20
-101.5999981388889
 30
0.0
 11
63.32857119444447
 21
-97.5998509166667
 31
0.0
  0
LINE
  5
310
  8
DEFAULT
 62
     7
 10
63.32857119444447
 20
-97.5998509166667
 30
0.0
 11
74.58571008333331
 21
-97.5998509166667
 31
0.0
  0
LINE
  5
311
  8
DEFAULT
 62
     7
 10
74.58571008333331
 20
-101.5999981388889
 30
0.0
 11
74.58571008333331
 21
-97.5998509166667
 31
0.0
  0
LINE
  5
312
  8
DEFAULT
 62
     7
 10
74.58571008333331
 20
-101.5999981388889
 30
0.0
 11
86.24282841666667
 21
-101.5999981388889
 31
0.0
  0
LINE
  5
313
  8
DEFAULT
 62
     7
 10
86.24282841666667
 20
-101.5999981388889
 30
0.0
 11
86.24282841666667
 21
-97.5998509166667
 31
0.0
  0
LINE
  5
314
  8
DEFAULT
 62
     7
 10
86.24282841666667
 20
-97.5998509166667
 30
0.0
 11
97.59997980555556
 21
-97.5998509166667
 31
0.0
  0
LINE
  5
315
  8
DEFAULT
 62
     7
 10
86.04285619444443
 20
113.8000161944444
 30
0.0
 11
97.39997230555554
 21
113.8000161944444
 31
0.0
  0
LINE
  5
316
  8
DEFAULT
 62
     7
 10
86.04285619444443
 20
109.8000100833333
 30
0.0
 11
86.04285619444443
 21
113.8000161944444
 31
0.0
  0
LINE
  5
317
  8
DEFAULT
 62
     7
 10
74.38570258333328
 20
109.8000100833333
 30
0.0
 11
86.04285619444443
 21
109.8000100833333
 31
0.0
  0
LINE
  5
318
  8
DEFAULT
 62
     7
 10
74.38570258333328
 20
109.8000100833333
 30
0.0
 11
74.38570258333328
 21
113.8000161944444
 31
0.0
  0
LINE
  5
319
  8
DEFAULT
 62
     7
 10
63.12856369444444
 20
113.8000161944444
 30
0.0
 11
74.38570258333328
 21
113.8000161944444
 31
0.0
  0
LINE
  5
31A
  8
DEFAULT
 62
     7
 10
63.12856369444444
 20
109.8000100833333
 30
0.0
 11
63.12856369444444
 21
113.8000161944444
 31
0.0
  0
LINE
  5
31B
  8
DEFAULT
 62
     7
 10
51.4714100833333
 20
109.8000100833333
 30
0.0
 11
63.12856369444444
 21
109.8000100833333
 31
0.0
  0
LINE
  5
31C
  8
DEFAULT
 62
     7
 10
51.4714100833333
 20
109.8000100833333
 30
0.0
 11
51.4714100833333
 21
113.8000161944444
 31
0.0
  0
LINE
  5
31D
  8
DEFAULT
 62
     7
 10
40.2142711944444
 20
113.8000161944444
 30
0.0
 11
51.4714100833333
 21
113.8000161944444
 31
0.0
  0
LINE
  5
31E
  8
DEFAULT
 62
     7
 10
40.2142711944444
 20
109.8000100833333
 30
0.0
 11
40.2142711944444
 21
113.8000161944444
 31
0.0
  0
LINE
  5
31F
  8
DEFAULT
 62
     7
 10
28.55711758333326
 20
109.8000100833333
 30
0.0
 11
40.2142711944444
 21
109.8000100833333
 31
0.0
  0
LINE
  5
320
  8
DEFAULT
 62
     7
 10
28.55711758333326
 20
109.8000100833333
 30
0.0
 11
28.55711758333326
 21
113.8000161944444
 31
0.0
  0
LINE
  5
321
  8
DEFAULT
 62
     7
 10
17.2000014722222
 20
113.8000161944444
 30
0.0
 11
28.55711758333326
 21
113.8000161944444
 31
0.0
  0
LINE
  5
322
  8
DEFAULT
 62
     7
 10
85.84283119444444
 20
280.0000161111112
 30
0.0
 11
97.39997230555554
 21
280.0000161111112
 31
0.0
  0
LINE
  5
323
  8
DEFAULT
 62
     7
 10
85.84283119444444
 20
276.0000170555556
 30
0.0
 11
85.84283119444444
 21
280.0000161111112
 31
0.0
  0
LINE
  5
324
  8
DEFAULT
 62
     7
 10
74.58569230555554
 20
276.0000170555556
 30
0.0
 11
85.84283119444444
 21
276.0000170555556
 31
0.0
  0
LINE
  5
325
  8
DEFAULT
 62
     7
 10
74.58569230555554
 20
276.0000170555556
 30
0.0
 11
74.58569230555554
 21
280.0000161111112
 31
0.0
  0
LINE
  5
326
  8
DEFAULT
 62
     7
 10
62.92857397222219
 20
280.0000161111112
 30
0.0
 11
74.58569230555554
 21
280.0000161111112
 31
0.0
  0
LINE
  5
327
  8
DEFAULT
 62
     7
 10
62.92857397222219
 20
276.0000170555556
 30
0.0
 11
62.92857397222219
 21
280.0000161111112
 31
0.0
  0
LINE
  5
328
  8
DEFAULT
 62
     7
 10
51.67139980555556
 20
276.0000170555556
 30
0.0
 11
62.92857397222219
 21
276.0000170555556
 31
0.0
  0
LINE
  5
329
  8
DEFAULT
 62
     7
 10
51.67139980555556
 20
276.0000170555556
 30
0.0
 11
51.67139980555556
 21
280.0000161111112
 31
0.0
  0
LINE
  5
32A
  8
DEFAULT
 62
     7
 10
40.0142814722222
 20
280.0000161111112
 30
0.0
 11
51.67139980555556
 21
280.0000161111112
 31
0.0
  0
LINE
  5
32B
  8
DEFAULT
 62
     7
 10
40.0142814722222
 20
276.0000170555556
 30
0.0
 11
40.0142814722222
 21
280.0000161111112
 31
0.0
  0
LINE
  5
32C
  8
DEFAULT
 62
     7
 10
28.7571425833333
 20
276.0000170555556
 30
0.0
 11
40.0142814722222
 21
276.0000170555556
 31
0.0
  0
LINE
  5
32D
  8
DEFAULT
 62
     7
 10
28.7571425833333
 20
276.0000170555556
 30
0.0
 11
28.7571425833333
 21
280.0000161111112
 31
0.0
  0
LINE
  5
32E
  8
DEFAULT
 62
     7
 10
17.2000014722222
 20
280.0000161111112
 30
0.0
 11
28.7571425833333
 21
280.0000161111112
 31
0.0
  0
LINE
  5
32F
  8
DEFAULT
 62
     7
 10
97.39997230555554
 20
122.9923114722222
 30
0.0
 11
97.39997230555554
 21
113.8000161944444
 31
0.0
  0
LINE
  5
330
  8
DEFAULT
 62
     7
 10
97.39997230555554
 20
122.9923114722222
 30
0.0
 11
93.40000147222219
 21
122.9923114722222
 31
0.0
  0
LINE
  5
331
  8
DEFAULT
 62
     7
 10
93.40000147222219
 20
135.8846459166667
 30
0.0
 11
93.40000147222219
 21
122.9923114722222
 31
0.0
  0
LINE
  5
332
  8
DEFAULT
 62
     7
 10
97.39997230555554
 20
135.8846459166667
 30
0.0
 11
93.40000147222219
 21
135.8846459166667
 31
0.0
  0
LINE
  5
333
  8
DEFAULT
 62
     7
 10
97.39997230555554
 20
149.1769245277778
 30
0.0
 11
97.39997230555554
 21
135.8846459166667
 31
0.0
  0
LINE
  5
334
  8
DEFAULT
 62
     7
 10
97.39997230555554
 20
149.1769245277778
 30
0.0
 11
93.40000147222219
 21
149.1769245277778
 31
0.0
  0
LINE
  5
335
  8
DEFAULT
 62
     7
 10
93.40000147222219
 20
162.0692589722222
 30
0.0
 11
93.40000147222219
 21
149.1769245277778
 31
0.0
  0
LINE
  5
336
  8
DEFAULT
 62
     7
 10
97.39997230555554
 20
162.0692589722222
 30
0.0
 11
93.40000147222219
 21
162.0692589722222
 31
0.0
  0
LINE
  5
337
  8
DEFAULT
 62
     7
 10
97.39997230555554
 20
175.3615728611111
 30
0.0
 11
97.39997230555554
 21
162.0692589722222
 31
0.0
  0
LINE
  5
338
  8
DEFAULT
 62
     7
 10
97.39997230555554
 20
175.3615728611111
 30
0.0
 11
93.40000147222219
 21
175.3615728611111
 31
0.0
  0
LINE
  5
339
  8
DEFAULT
 62
     7
 10
93.40000147222219
 20
188.2538720277778
 30
0.0
 11
93.40000147222219
 21
175.3615728611111
 31
0.0
  0
LINE
  5
33A
  8
DEFAULT
 62
     7
 10
97.39997230555554
 20
188.2538720277778
 30
0.0
 11
93.40000147222219
 21
188.2538720277778
 31
0.0
  0
LINE
  5
33B
  8
DEFAULT
 62
     7
 10
97.39997230555554
 20
201.5461859166667
 30
0.0
 11
97.39997230555554
 21
188.2538720277778
 31
0.0
  0
LINE
  5
33C
  8
DEFAULT
 62
     7
 10
97.39997230555554
 20
201.5461859166667
 30
0.0
 11
93.40000147222219
 21
201.5461859166667
 31
0.0
  0
LINE
  5
33D
  8
DEFAULT
 62
     7
 10
93.40000147222219
 20
214.4384850833334
 30
0.0
 11
93.40000147222219
 21
201.5461859166667
 31
0.0
  0
LINE
  5
33E
  8
DEFAULT
 62
     7
 10
97.39997230555554
 20
214.4384850833334
 30
0.0
 11
93.40000147222219
 21
214.4384850833334
 31
0.0
  0
LINE
  5
33F
  8
DEFAULT
 62
     7
 10
97.39997230555554
 20
227.7307989722223
 30
0.0
 11
97.39997230555554
 21
214.4384850833334
 31
0.0
  0
LINE
  5
340
  8
DEFAULT
 62
     7
 10
97.39997230555554
 20
227.7307989722223
 30
0.0
 11
93.40000147222219
 21
227.7307989722223
 31
0.0
  0
LINE
  5
341
  8
DEFAULT
 62
     7
 10
93.40000147222219
 20
240.6230981388889
 30
0.0
 11
93.40000147222219
 21
227.7307989722223
 31
0.0
  0
LINE
  5
342
  8
DEFAULT
 62
     7
 10
97.39997230555554
 20
240.6230981388889
 30
0.0
 11
93.40000147222219
 21
240.6230981388889
 31
0.0
  0
LINE
  5
343
  8
DEFAULT
 62
     7
 10
97.39997230555554
 20
253.9154120277778
 30
0.0
 11
97.39997230555554
 21
240.6230981388889
 31
0.0
  0
LINE
  5
344
  8
DEFAULT
 62
     7
 10
97.39997230555554
 20
253.9154120277778
 30
0.0
 11
93.40000147222219
 21
253.9154120277778
 31
0.0
  0
LINE
  5
345
  8
DEFAULT
 62
     7
 10
93.40000147222219
 20
266.8077111944445
 30
0.0
 11
93.40000147222219
 21
253.9154120277778
 31
0.0
  0
LINE
  5
346
  8
DEFAULT
 62
     7
 10
97.39997230555554
 20
266.8077111944445
 30
0.0
 11
93.40000147222219
 21
266.8077111944445
 31
0.0
  0
LINE
  5
347
  8
DEFAULT
 62
     7
 10
97.39997230555554
 20
280.0000161111112
 30
0.0
 11
97.39997230555554
 21
266.8077111944445
 31
0.0
  0
LINE
  5
348
  8
DEFAULT
 62
     7
 10
17.2000014722222
 20
122.9923114722222
 30
0.0
 11
17.2000014722222
 21
113.8000161944444
 31
0.0
  0
LINE
  5
349
  8
DEFAULT
 62
     7
 10
21.19997230555555
 20
122.9923114722222
 30
0.0
 11
17.2000014722222
 21
122.9923114722222
 31
0.0
  0
LINE
  5
34A
  8
DEFAULT
 62
     7
 10
21.19997230555555
 20
135.8846459166667
 30
0.0
 11
21.19997230555555
 21
122.9923114722222
 31
0.0
  0
LINE
  5
34B
  8
DEFAULT
 62
     7
 10
21.19997230555555
 20
135.8846459166667
 30
0.0
 11
17.2000014722222
 21
135.8846459166667
 31
0.0
  0
LINE
  5
34C
  8
DEFAULT
 62
     7
 10
17.2000014722222
 20
149.1769245277778
 30
0.0
 11
17.2000014722222
 21
135.8846459166667
 31
0.0
  0
LINE
  5
34D
  8
DEFAULT
 62
     7
 10
21.19997230555555
 20
149.1769245277778
 30
0.0
 11
17.2000014722222
 21
149.1769245277778
 31
0.0
  0
LINE
  5
34E
  8
DEFAULT
 62
     7
 10
21.19997230555555
 20
162.0692589722222
 30
0.0
 11
21.19997230555555
 21
149.1769245277778
 31
0.0
  0
LINE
  5
34F
  8
DEFAULT
 62
     7
 10
21.19997230555555
 20
162.0692589722222
 30
0.0
 11
17.2000014722222
 21
162.0692589722222
 31
0.0
  0
LINE
  5
350
  8
DEFAULT
 62
     7
 10
17.2000014722222
 20
175.3615728611111
 30
0.0
 11
17.2000014722222
 21
162.0692589722222
 31
0.0
  0
LINE
  5
351
  8
DEFAULT
 62
     7
 10
21.19997230555555
 20
175.3615728611111
 30
0.0
 11
17.2000014722222
 21
175.3615728611111
 31
0.0
  0
LINE
  5
352
  8
DEFAULT
 62
     7
 10
21.19997230555555
 20
188.2538720277778
 30
0.0
 11
21.19997230555555
 21
175.3615728611111
 31
0.0
  0
LINE
  5
353
  8
DEFAULT
 62
     7
 10
21.19997230555555
 20
188.2538720277778
 30
0.0
 11
17.2000014722222
 21
188.2538720277778
 31
0.0
  0
LINE
  5
354
  8
DEFAULT
 62
     7
 10
17.2000014722222
 20
201.5461859166667
 30
0.0
 11
17.2000014722222
 21
188.2538720277778
 31
0.0
  0
LINE
  5
355
  8
DEFAULT
 62
     7
 10
21.19997230555555
 20
201.5461859166667
 30
0.0
 11
17.2000014722222
 21
201.5461859166667
 31
0.0
  0
LINE
  5
356
  8
DEFAULT
 62
     7
 10
21.19997230555555
 20
214.4384850833334
 30
0.0
 11
21.19997230555555
 21
201.5461859166667
 31
0.0
  0
LINE
  5
357
  8
DEFAULT
 62
     7
 10
21.19997230555555
 20
214.4384850833334
 30
0.0
 11
17.2000014722222
 21
214.4384850833334
 31
0.0
  0
LINE
  5
358
  8
DEFAULT
 62
     7
 10
17.2000014722222
 20
227.7307989722223
 30
0.0
 11
17.2000014722222
 21
214.4384850833334
 31
0.0
  0
LINE
  5
359
  8
DEFAULT
 62
     7
 10
21.19997230555555
 20
227.7307989722223
 30
0.0
 11
17.2000014722222
 21
227.7307989722223
 31
0.0
  0
LINE
  5
35A
  8
DEFAULT
 62
     7
 10
21.19997230555555
 20
240.6230981388889
 30
0.0
 11
21.19997230555555
 21
227.7307989722223
 31
0.0
  0
LINE
  5
35B
  8
DEFAULT
 62
     7
 10
21.19997230555555
 20
240.6230981388889
 30
0.0
 11
17.2000014722222
 21
240.6230981388889
 31
0.0
  0
LINE
  5
35C
  8
DEFAULT
 62
     7
 10
17.2000014722222
 20
253.9154120277778
 30
0.0
 11
17.2000014722222
 21
240.6230981388889
 31
0.0
  0
LINE
  5
35D
  8
DEFAULT
 62
     7
 10
21.19997230555555
 20
253.9154120277778
 30
0.0
 11
17.2000014722222
 21
253.9154120277778
 31
0.0
  0
LINE
  5
35E
  8
DEFAULT
 62
     7
 10
21.19997230555555
 20
266.8077111944445
 30
0.0
 11
21.19997230555555
 21
253.9154120277778
 31
0.0
  0
LINE
  5
35F
  8
DEFAULT
 62
     7
 10
21.19997230555555
 20
266.8077111944445
 30
0.0
 11
17.2000014722222
 21
266.8077111944445
 31
0.0
  0
LINE
  5
360
  8
DEFAULT
 62
     7
 10
17.2000014722222
 20
280.0000161111112
 30
0.0
 11
17.2000014722222
 21
266.8077111944445
 31
0.0
  0
LINE
  5
361
  8
LAYER_02
 10
29.30873665726325
 20
-162.335324064744
 30
0.0
 11
35.70873665726328
 21
-159.3273240647439
 31
0.0
  0
LINE
  5
362
  8
LAYER_02
 10
29.30873665726325
 20
-162.719324064744
 30
0.0
 11
29.30873665726325
 21
-162.335324064744
 31
0.0
  0
LINE
  5
363
  8
LAYER_02
 10
31.16473665726324
 20
-163.583324064744
 30
0.0
 11
29.30873665726325
 21
-162.719324064744
 31
0.0
  0
LINE
  5
364
  8
LAYER_02
 10
32.12473665726328
 20
-164.0313240647441
 30
0.0
 11
31.16473665726324
 21
-163.583324064744
 31
0.0
  0
LINE
  5
365
  8
LAYER_02
 10
32.49273665726327
 20
-164.199324064744
 30
0.0
 11
32.12473665726328
 21
-164.0313240647441
 31
0.0
  0
LINE
  5
366
  8
LAYER_02
 10
32.55673665726324
 20
-164.223324064744
 30
0.0
 11
32.49273665726327
 21
-164.199324064744
 31
0.0
  0
LINE
  5
367
  8
LAYER_02
 10
32.61273665726328
 20
-164.247324064744
 30
0.0
 11
32.55673665726324
 21
-164.223324064744
 31
0.0
  0
LINE
  5
368
  8
LAYER_02
 10
32.96473665726325
 20
-164.415324064744
 30
0.0
 11
32.61273665726328
 21
-164.247324064744
 31
0.0
  0
LINE
  5
369
  8
LAYER_02
 10
35.70873665726328
 20
-165.727324064744
 30
0.0
 11
32.96473665726325
 21
-164.415324064744
 31
0.0
  0
LINE
  5
36A
  8
LAYER_02
 10
35.70873665726328
 20
-165.3273240647439
 30
0.0
 11
35.70873665726328
 21
-165.727324064744
 31
0.0
  0
LINE
  5
36B
  8
LAYER_02
 10
29.70873665726328
 20
-162.527324064744
 30
0.0
 11
35.70873665726328
 21
-165.3273240647439
 31
0.0
  0
LINE
  5
36C
  8
LAYER_02
 10
35.70873665726328
 20
-159.727324064744
 30
0.0
 11
29.70873665726328
 21
-162.527324064744
 31
0.0
  0
LINE
  5
36D
  8
LAYER_02
 10
35.70873665726328
 20
-159.3273240647439
 30
0.0
 11
35.70873665726328
 21
-159.727324064744
 31
0.0
  0
LINE
  5
36E
  8
LAYER_02
 10
35.70873665726328
 20
-173.727324064744
 30
0.0
 11
29.30873665726325
 21
-173.727324064744
 31
0.0
  0
LINE
  5
36F
  8
LAYER_02
 10
35.70873665726328
 20
-167.3273240647439
 30
0.0
 11
35.70873665726328
 21
-173.727324064744
 31
0.0
  0
LINE
  5
370
  8
LAYER_02
 10
35.30873665726325
 20
-167.3273240647439
 30
0.0
 11
35.70873665726328
 21
-167.3273240647439
 31
0.0
  0
LINE
  5
371
  8
LAYER_02
 10
35.30873665726325
 20
-173.3273240647441
 30
0.0
 11
35.30873665726325
 21
-167.3273240647439
 31
0.0
  0
LINE
  5
372
  8
LAYER_02
 10
29.70873665726328
 20
-173.3273240647441
 30
0.0
 11
35.30873665726325
 21
-173.3273240647441
 31
0.0
  0
LINE
  5
373
  8
LAYER_02
 10
29.70873665726328
 20
-167.727324064744
 30
0.0
 11
29.70873665726328
 21
-173.3273240647441
 31
0.0
  0
LINE
  5
374
  8
LAYER_02
 10
33.70873665726328
 20
-167.727324064744
 30
0.0
 11
29.70873665726328
 21
-167.727324064744
 31
0.0
  0
LINE
  5
375
  8
LAYER_02
 10
33.70873665726328
 20
-172.127324064744
 30
0.0
 11
33.70873665726328
 21
-167.727324064744
 31
0.0
  0
LINE
  5
376
  8
LAYER_02
 10
34.10873665726326
 20
-172.127324064744
 30
0.0
 11
33.70873665726328
 21
-172.127324064744
 31
0.0
  0
LINE
  5
377
  8
LAYER_02
 10
34.10873665726326
 20
-167.3273240647439
 30
0.0
 11
34.10873665726326
 21
-172.127324064744
 31
0.0
  0
LINE
  5
378
  8
LAYER_02
 10
29.30873665726325
 20
-167.3273240647439
 30
0.0
 11
34.10873665726326
 21
-167.3273240647439
 31
0.0
  0
LINE
  5
379
  8
LAYER_02
 10
29.30873665726325
 20
-173.727324064744
 30
0.0
 11
29.30873665726325
 21
-167.3273240647439
 31
0.0
  0
LINE
  5
37A
  8
LAYER_02
 10
26.10873665726326
 20
-175.3273240647441
 30
0.0
 11
35.70873665726328
 21
-175.3273240647441
 31
0.0
  0
LINE
  5
37B
  8
LAYER_02
 10
26.10873665726326
 20
-175.727324064744
 30
0.0
 11
26.10873665726326
 21
-175.3273240647441
 31
0.0
  0
LINE
  5
37C
  8
LAYER_02
 10
35.30873665726325
 20
-175.727324064744
 30
0.0
 11
26.10873665726326
 21
-175.727324064744
 31
0.0
  0
LINE
  5
37D
  8
LAYER_02
 10
35.30873665726325
 20
-181.3273240647441
 30
0.0
 11
35.30873665726325
 21
-175.727324064744
 31
0.0
  0
LINE
  5
37E
  8
LAYER_02
 10
29.70873665726328
 20
-181.3273240647441
 30
0.0
 11
35.30873665726325
 21
-181.3273240647441
 31
0.0
  0
LINE
  5
37F
  8
LAYER_02
 10
29.70873665726328
 20
-176.9273240647441
 30
0.0
 11
29.70873665726328
 21
-181.3273240647441
 31
0.0
  0
LINE
  5
380
  8
LAYER_02
 10
29.30873665726325
 20
-176.9273240647441
 30
0.0
 11
29.70873665726328
 21
-176.9273240647441
 31
0.0
  0
LINE
  5
381
  8
LAYER_02
 10
29.30873665726325
 20
-181.727324064744
 30
0.0
 11
29.30873665726325
 21
-176.9273240647441
 31
0.0
  0
LINE
  5
382
  8
LAYER_02
 10
35.70873665726328
 20
-181.727324064744
 30
0.0
 11
29.30873665726325
 21
-181.727324064744
 31
0.0
  0
LINE
  5
383
  8
LAYER_02
 10
35.70873665726328
 20
-175.3273240647441
 30
0.0
 11
35.70873665726328
 21
-181.727324064744
 31
0.0
  0
LINE
  5
384
  8
LAYER_02
 10
35.70873665726328
 20
-183.3273240647439
 30
0.0
 11
35.70873665726328
 21
-189.727324064744
 31
0.0
  0
LINE
  5
385
  8
LAYER_02
 10
29.30873665726325
 20
-183.3273240647439
 30
0.0
 11
35.70873665726328
 21
-183.3273240647439
 31
0.0
  0
LINE
  5
386
  8
LAYER_02
 10
29.30873665726325
 20
-189.727324064744
 30
0.0
 11
29.30873665726325
 21
-183.3273240647439
 31
0.0
  0
LINE
  5
387
  8
LAYER_02
 10
35.70873665726328
 20
-189.727324064744
 30
0.0
 11
29.30873665726325
 21
-189.727324064744
 31
0.0
  0
LINE
  5
388
  8
LAYER_02
 10
35.30873665726325
 20
-189.3273240647439
 30
0.0
 11
35.30873665726325
 21
-183.727324064744
 31
0.0
  0
LINE
  5
389
  8
LAYER_02
 10
29.70873665726328
 20
-189.3273240647439
 30
0.0
 11
35.30873665726325
 21
-189.3273240647439
 31
0.0
  0
LINE
  5
38A
  8
LAYER_02
 10
29.70873665726328
 20
-183.727324064744
 30
0.0
 11
29.70873665726328
 21
-189.3273240647439
 31
0.0
  0
LINE
  5
38B
  8
LAYER_02
 10
35.30873665726325
 20
-183.727324064744
 30
0.0
 11
29.70873665726328
 21
-183.727324064744
 31
0.0
  0
LINE
  5
38C
  8
LAYER_02
 10
35.70873665726328
 20
-191.3273240647441
 30
0.0
 11
35.70873665726328
 21
-197.727324064744
 31
0.0
  0
LINE
  5
38D
  8
LAYER_02
 10
29.30873665726325
 20
-191.3273240647441
 30
0.0
 11
35.70873665726328
 21
-191.3273240647441
 31
0.0
  0
LINE
  5
38E
  8
LAYER_02
 10
29.30873665726325
 20
-191.727324064744
 30
0.0
 11
29.30873665726325
 21
-191.3273240647441
 31
0.0
  0
LINE
  5
38F
  8
LAYER_02
 10
35.30873665726325
 20
-191.727324064744
 30
0.0
 11
29.30873665726325
 21
-191.727324064744
 31
0.0
  0
LINE
  5
390
  8
LAYER_02
 10
35.30873665726325
 20
-197.727324064744
 30
0.0
 11
35.30873665726325
 21
-191.727324064744
 31
0.0
  0
LINE
  5
391
  8
LAYER_02
 10
35.70873665726328
 20
-197.727324064744
 30
0.0
 11
35.30873665726325
 21
-197.727324064744
 31
0.0
  0
LINE
  5
392
  8
LAYER_02
 10
35.70873665726328
 20
-199.3273240647441
 30
0.0
 11
35.70873665726328
 21
-205.727324064744
 31
0.0
  0
LINE
  5
393
  8
LAYER_02
 10
33.70873665726328
 20
-199.3273240647441
 30
0.0
 11
35.70873665726328
 21
-199.3273240647441
 31
0.0
  0
LINE
  5
394
  8
LAYER_02
 10
33.70873665726328
 20
-205.3273240647441
 30
0.0
 11
33.70873665726328
 21
-199.3273240647441
 31
0.0
  0
LINE
  5
395
  8
LAYER_02
 10
29.70873665726328
 20
-205.3273240647441
 30
0.0
 11
33.70873665726328
 21
-205.3273240647441
 31
0.0
  0
LINE
  5
396
  8
LAYER_02
 10
29.70873665726328
 20
-199.3273240647441
 30
0.0
 11
29.70873665726328
 21
-205.3273240647441
 31
0.0
  0
LINE
  5
397
  8
LAYER_02
 10
29.30873665726325
 20
-199.3273240647441
 30
0.0
 11
29.70873665726328
 21
-199.3273240647441
 31
0.0
  0
LINE
  5
398
  8
LAYER_02
 10
29.30873665726325
 20
-205.727324064744
 30
0.0
 11
29.30873665726325
 21
-199.3273240647441
 31
0.0
  0
LINE
  5
399
  8
LAYER_02
 10
34.10873665726326
 20
-205.727324064744
 30
0.0
 11
29.30873665726325
 21
-205.727324064744
 31
0.0
  0
LINE
  5
39A
  8
LAYER_02
 10
34.10873665726326
 20
-199.727324064744
 30
0.0
 11
34.10873665726326
 21
-205.727324064744
 31
0.0
  0
LINE
  5
39B
  8
LAYER_02
 10
35.30873665726325
 20
-199.727324064744
 30
0.0
 11
34.10873665726326
 21
-199.727324064744
 31
0.0
  0
LINE
  5
39C
  8
LAYER_02
 10
35.30873665726325
 20
-205.727324064744
 30
0.0
 11
35.30873665726325
 21
-199.727324064744
 31
0.0
  0
LINE
  5
39D
  8
LAYER_02
 10
35.70873665726328
 20
-205.727324064744
 30
0.0
 11
35.30873665726325
 21
-205.727324064744
 31
0.0
  0
LINE
  5
39E
  8
LAYER_02
 10
35.70873665726328
 20
-207.3273240647441
 30
0.0
 11
35.70873665726328
 21
-213.727324064744
 31
0.0
  0
LINE
  5
39F
  8
LAYER_02
 10
29.30873665726325
 20
-207.3273240647441
 30
0.0
 11
35.70873665726328
 21
-207.3273240647441
 31
0.0
  0
LINE
  5
3A0
  8
LAYER_02
 10
29.30873665726325
 20
-213.727324064744
 30
0.0
 11
29.30873665726325
 21
-207.3273240647441
 31
0.0
  0
LINE
  5
3A1
  8
LAYER_02
 10
35.70873665726328
 20
-213.727324064744
 30
0.0
 11
29.30873665726325
 21
-213.727324064744
 31
0.0
  0
LINE
  5
3A2
  8
LAYER_02
 10
35.30873665726325
 20
-213.3273240647442
 30
0.0
 11
35.30873665726325
 21
-207.727324064744
 31
0.0
  0
LINE
  5
3A3
  8
LAYER_02
 10
29.70873665726328
 20
-213.3273240647442
 30
0.0
 11
35.30873665726325
 21
-213.3273240647442
 31
0.0
  0
LINE
  5
3A4
  8
LAYER_02
 10
29.70873665726328
 20
-207.727324064744
 30
0.0
 11
29.70873665726328
 21
-213.3273240647442
 31
0.0
  0
LINE
  5
3A5
  8
LAYER_02
 10
35.30873665726325
 20
-207.727324064744
 30
0.0
 11
29.70873665726328
 21
-207.727324064744
 31
0.0
  0
LINE
  5
3A6
  8
LAYER_02
 10
29.30873665726325
 20
-221.727324064744
 30
0.0
 11
29.30873665726325
 21
-215.3273240647442
 31
0.0
  0
LINE
  5
3A7
  8
LAYER_02
 10
35.70873665726328
 20
-221.727324064744
 30
0.0
 11
29.30873665726325
 21
-221.727324064744
 31
0.0
  0
LINE
  5
3A8
  8
LAYER_02
 10
35.70873665726328
 20
-221.3273240647442
 30
0.0
 11
35.70873665726328
 21
-221.727324064744
 31
0.0
  0
LINE
  5
3A9
  8
LAYER_02
 10
29.70873665726328
 20
-221.3273240647442
 30
0.0
 11
35.70873665726328
 21
-221.3273240647442
 31
0.0
  0
LINE
  5
3AA
  8
LAYER_02
 10
29.70873665726328
 20
-215.727324064744
 30
0.0
 11
29.70873665726328
 21
-221.3273240647442
 31
0.0
  0
LINE
  5
3AB
  8
LAYER_02
 10
35.70873665726328
 20
-215.727324064744
 30
0.0
 11
29.70873665726328
 21
-215.727324064744
 31
0.0
  0
LINE
  5
3AC
  8
LAYER_02
 10
35.70873665726328
 20
-215.3273240647442
 30
0.0
 11
35.70873665726328
 21
-215.727324064744
 31
0.0
  0
LINE
  5
3AD
  8
LAYER_02
 10
29.30873665726325
 20
-215.3273240647442
 30
0.0
 11
35.70873665726328
 21
-215.3273240647442
 31
0.0
  0
LINE
  5
3AE
  8
LAYER_02
 10
35.70873665726328
 20
-223.3273240647442
 30
0.0
 11
35.70873665726328
 21
-229.727324064744
 31
0.0
  0
LINE
  5
3AF
  8
LAYER_02
 10
29.30873665726325
 20
-223.3273240647442
 30
0.0
 11
35.70873665726328
 21
-223.3273240647442
 31
0.0
  0
LINE
  5
3B0
  8
LAYER_02
 10
29.30873665726325
 20
-223.727324064744
 30
0.0
 11
29.30873665726325
 21
-223.3273240647442
 31
0.0
  0
LINE
  5
3B1
  8
LAYER_02
 10
35.30873665726325
 20
-223.727324064744
 30
0.0
 11
29.30873665726325
 21
-223.727324064744
 31
0.0
  0
LINE
  5
3B2
  8
LAYER_02
 10
35.30873665726325
 20
-229.3273240647442
 30
0.0
 11
35.30873665726325
 21
-223.727324064744
 31
0.0
  0
LINE
  5
3B3
  8
LAYER_02
 10
29.30873665726325
 20
-229.3273240647442
 30
0.0
 11
35.30873665726325
 21
-229.3273240647442
 31
0.0
  0
LINE
  5
3B4
  8
LAYER_02
 10
29.30873665726325
 20
-229.727324064744
 30
0.0
 11
29.30873665726325
 21
-229.3273240647442
 31
0.0
  0
LINE
  5
3B5
  8
LAYER_02
 10
35.70873665726328
 20
-229.727324064744
 30
0.0
 11
29.30873665726325
 21
-229.727324064744
 31
0.0
  0
LINE
  5
3B6
  8
LAYER_02
 10
38.90873665726327
 20
-237.3273240647442
 30
0.0
 11
38.90873665726327
 21
-237.727324064744
 31
0.0
  0
LINE
  5
3B7
  8
LAYER_02
 10
29.70873665726328
 20
-237.3273240647442
 30
0.0
 11
38.90873665726327
 21
-237.3273240647442
 31
0.0
  0
LINE
  5
3B8
  8
LAYER_02
 10
29.70873665726328
 20
-231.727324064744
 30
0.0
 11
29.70873665726328
 21
-237.3273240647442
 31
0.0
  0
LINE
  5
3B9
  8
LAYER_02
 10
35.30873665726325
 20
-231.727324064744
 30
0.0
 11
29.70873665726328
 21
-231.727324064744
 31
0.0
  0
LINE
  5
3BA
  8
LAYER_02
 10
35.30873665726325
 20
-236.1273240647441
 30
0.0
 11
35.30873665726325
 21
-231.727324064744
 31
0.0
  0
LINE
  5
3BB
  8
LAYER_02
 10
35.70873665726328
 20
-236.1273240647441
 30
0.0
 11
35.30873665726325
 21
-236.1273240647441
 31
0.0
  0
LINE
  5
3BC
  8
LAYER_02
 10
35.70873665726328
 20
-231.3273240647442
 30
0.0
 11
35.70873665726328
 21
-236.1273240647441
 31
0.0
  0
LINE
  5
3BD
  8
LAYER_02
 10
29.30873665726325
 20
-231.3273240647442
 30
0.0
 11
35.70873665726328
 21
-231.3273240647442
 31
0.0
  0
LINE
  5
3BE
  8
LAYER_02
 10
29.30873665726325
 20
-237.727324064744
 30
0.0
 11
29.30873665726325
 21
-231.3273240647442
 31
0.0
  0
LINE
  5
3BF
  8
LAYER_02
 10
38.90873665726327
 20
-237.727324064744
 30
0.0
 11
29.30873665726325
 21
-237.727324064744
 31
0.0
  0
CIRCLE
  5
3C0
  8
LAYER_01
 10
57.59998683333334
 20
-271.5999949166668
 30
0.0
 40
4.0
  0
CIRCLE
  5
3C1
  8
LAYER_01
 10
57.49998683333332
 20
-140.4999949166667
 30
0.0
 40
1.5
  0
CIRCLE
  5
3C2
  8
LAYER_01
 10
45.49998683333332
 20
-288.4999949166667
 30
0.0
 40
1.6
  0
CIRCLE
  5
3C3
  8
LAYER_01
 10
69.49998683333331
 20
-288.4999949166667
 30
0.0
 40
1.6
  0
CIRCLE
  5
3C4
  8
LAYER_01
 10
29.99998683333332
 20
-244.9999949166667
 30
0.0
 40
1.6
  0
CIRCLE
  5
3C5
  8
LAYER_01
 10
45.49998683333332
 20
-259.4999949166667
 30
0.0
 40
1.6
  0
CIRCLE
  5
3C6
  8
LAYER_01
 10
69.49998683333331
 20
-259.4999949166667
 30
0.0
 40
1.6
  0
CIRCLE
  5
3C7
  8
LAYER_01
 10
84.99998683333331
 20
-244.9999949166667
 30
0.0
 40
1.6
  0
CIRCLE
  5
3C8
  8
LAYER_01
 10
29.99998683333332
 20
-151.9999949166667
 30
0.0
 40
1.6
  0
CIRCLE
  5
3C9
  8
LAYER_01
 10
84.99998683333331
 20
-151.9999949166667
 30
0.0
 40
1.6
  0
LINE
  5
3CA
  8
LAYER_01
 10
50.59998683333334
 20
-120.0999949166668
 30
0.0
 11
50.59998683333334
 21
-127.0999949166668
 31
0.0
  0
LINE
  5
3CB
  8
LAYER_01
 10
64.59998683333333
 20
-120.0999949166668
 30
0.0
 11
50.59998683333334
 21
-120.0999949166668
 31
0.0
  0
LINE
  5
3CC
  8
LAYER_01
 10
64.59998683333333
 20
-127.0999949166668
 30
0.0
 11
64.59998683333333
 21
-120.0999949166668
 31
0.0
  0
LINE
  5
3CD
  8
LAYER_01
 10
50.59998683333334
 20
-127.0999949166668
 30
0.0
 11
64.59998683333333
 21
-127.0999949166668
 31
0.0
  0
LINE
  5
3CE
  8
LAYER_01
 10
72.49998683333331
 20
-158.4999949166667
 30
0.0
 11
42.49998683333332
 21
-158.4999949166667
 31
0.0
  0
LINE
  5
3CF
  8
LAYER_01
 10
72.49998683333331
 20
-238.4999949166667
 30
0.0
 11
72.49998683333331
 21
-158.4999949166667
 31
0.0
  0
LINE
  5
3D0
  8
LAYER_01
 10
42.49998683333332
 20
-238.4999949166667
 30
0.0
 11
72.49998683333331
 21
-238.4999949166667
 31
0.0
  0
LINE
  5
3D1
  8
LAYER_01
 10
42.49998683333332
 20
-158.4999949166667
 30
0.0
 11
42.49998683333332
 21
-238.4999949166667
 31
0.0
  0
LINE
  5
3D2
  8
DEFAULT
 62
     7
 10
86.24284508333335
 20
-309.59984075
 30
0.0
 11
97.59999647222219
 21
-309.59984075
 31
0.0
  0
LINE
  5
3D3
  8
DEFAULT
 62
     7
 10
86.24284508333335
 20
-313.5999879722223
 30
0.0
 11
86.24284508333335
 21
-309.59984075
 31
0.0
  0
LINE
  5
3D4
  8
DEFAULT
 62
     7
 10
74.58569147222221
 20
-313.5999879722223
 30
0.0
 11
86.24284508333335
 21
-313.5999879722223
 31
0.0
  0
LINE
  5
3D5
  8
DEFAULT
 62
     7
 10
74.58569147222221
 20
-313.5999879722223
 30
0.0
 11
74.58569147222221
 21
-309.59984075
 31
0.0
  0
LINE
  5
3D6
  8
DEFAULT
 62
     7
 10
63.32855258333331
 20
-309.59984075
 30
0.0
 11
74.58569147222221
 21
-309.59984075
 31
0.0
  0
LINE
  5
3D7
  8
DEFAULT
 62
     7
 10
63.32855258333331
 20
-313.5999879722223
 30
0.0
 11
63.32855258333331
 21
-309.59984075
 31
0.0
  0
LINE
  5
3D8
  8
DEFAULT
 62
     7
 10
51.67139897222223
 20
-313.5999879722223
 30
0.0
 11
63.32855258333331
 21
-313.5999879722223
 31
0.0
  0
LINE
  5
3D9
  8
DEFAULT
 62
     7
 10
51.67139897222223
 20
-313.5999879722223
 30
0.0
 11
51.67139897222223
 21
-309.59984075
 31
0.0
  0
LINE
  5
3DA
  8
DEFAULT
 62
     7
 10
40.41427066666666
 20
-309.59984075
 30
0.0
 11
51.67139897222223
 21
-309.59984075
 31
0.0
  0
LINE
  5
3DB
  8
DEFAULT
 62
     7
 10
40.41427066666666
 20
-313.5999879722223
 30
0.0
 11
40.41427066666666
 21
-309.59984075
 31
0.0
  0
LINE
  5
3DC
  8
DEFAULT
 62
     7
 10
28.75712763888885
 20
-313.5999879722223
 30
0.0
 11
40.41427066666666
 21
-313.5999879722223
 31
0.0
  0
LINE
  5
3DD
  8
DEFAULT
 62
     7
 10
28.75712763888885
 20
-313.5999879722223
 30
0.0
 11
28.75712763888885
 21
-309.59984075
 31
0.0
  0
LINE
  5
3DE
  8
DEFAULT
 62
     7
 10
17.39998683333329
 20
-309.59984075
 30
0.0
 11
28.75712763888885
 21
-309.59984075
 31
0.0
  0
LINE
  5
3DF
  8
DEFAULT
 62
     7
 10
86.24284508333335
 20
-103.3999949166667
 30
0.0
 11
97.59999647222219
 21
-103.3999949166667
 31
0.0
  0
LINE
  5
3E0
  8
DEFAULT
 62
     7
 10
86.24284508333335
 20
-107.39996575
 30
0.0
 11
86.24284508333335
 21
-103.3999949166667
 31
0.0
  0
LINE
  5
3E1
  8
DEFAULT
 62
     7
 10
74.58569147222221
 20
-107.39996575
 30
0.0
 11
86.24284508333335
 21
-107.39996575
 31
0.0
  0
LINE
  5
3E2
  8
DEFAULT
 62
     7
 10
74.58569147222221
 20
-107.39996575
 30
0.0
 11
74.58569147222221
 21
-103.3999949166667
 31
0.0
  0
LINE
  5
3E3
  8
DEFAULT
 62
     7
 10
63.32855258333331
 20
-103.3999949166667
 30
0.0
 11
74.58569147222221
 21
-103.3999949166667
 31
0.0
  0
LINE
  5
3E4
  8
DEFAULT
 62
     7
 10
63.32855258333331
 20
-107.39996575
 30
0.0
 11
63.32855258333331
 21
-103.3999949166667
 31
0.0
  0
LINE
  5
3E5
  8
DEFAULT
 62
     7
 10
51.67139897222223
 20
-107.39996575
 30
0.0
 11
63.32855258333331
 21
-107.39996575
 31
0.0
  0
LINE
  5
3E6
  8
DEFAULT
 62
     7
 10
51.67139897222223
 20
-107.39996575
 30
0.0
 11
51.67139897222223
 21
-103.3999949166667
 31
0.0
  0
LINE
  5
3E7
  8
DEFAULT
 62
     7
 10
40.41427066666666
 20
-103.3999949166667
 30
0.0
 11
51.67139897222223
 21
-103.3999949166667
 31
0.0
  0
LINE
  5
3E8
  8
DEFAULT
 62
     7
 10
40.41427066666666
 20
-107.39996575
 30
0.0
 11
40.41427066666666
 21
-103.3999949166667
 31
0.0
  0
LINE
  5
3E9
  8
DEFAULT
 62
     7
 10
28.75712763888885
 20
-107.39996575
 30
0.0
 11
40.41427066666666
 21
-107.39996575
 31
0.0
  0
LINE
  5
3EA
  8
DEFAULT
 62
     7
 10
28.75712763888885
 20
-107.39996575
 30
0.0
 11
28.75712763888885
 21
-103.3999949166667
 31
0.0
  0
LINE
  5
3EB
  8
DEFAULT
 62
     7
 10
17.39998683333329
 20
-103.3999949166667
 30
0.0
 11
28.75712763888885
 21
-103.3999949166667
 31
0.0
  0
LINE
  5
3EC
  8
DEFAULT
 62
     7
 10
97.59999647222219
 20
-301.1352907500001
 30
0.0
 11
97.59999647222219
 21
-309.59984075
 31
0.0
  0
LINE
  5
3ED
  8
DEFAULT
 62
     7
 10
97.59999647222219
 20
-301.1352907500001
 30
0.0
 11
93.59999036111111
 21
-301.1352907500001
 31
0.0
  0
LINE
  5
3EE
  8
DEFAULT
 62
     7
 10
93.59999036111111
 20
-288.9704546388888
 30
0.0
 11
93.59999036111111
 21
-301.1352907500001
 31
0.0
  0
LINE
  5
3EF
  8
DEFAULT
 62
     7
 10
97.59999647222219
 20
-288.9704546388888
 30
0.0
 11
93.59999036111111
 21
-288.9704546388888
 31
0.0
  0
LINE
  5
3F0
  8
DEFAULT
 62
     7
 10
97.59999647222219
 20
-276.4059213055556
 30
0.0
 11
97.59999647222219
 21
-288.9704546388888
 31
0.0
  0
LINE
  5
3F1
  8
DEFAULT
 62
     7
 10
97.59999647222219
 20
-276.4059213055556
 30
0.0
 11
93.59999036111111
 21
-276.4059213055556
 31
0.0
  0
LINE
  5
3F2
  8
DEFAULT
 62
     7
 10
93.59999036111111
 20
-264.2411557500001
 30
0.0
 11
93.59999036111111
 21
-276.4059213055556
 31
0.0
  0
LINE
  5
3F3
  8
DEFAULT
 62
     7
 10
97.59999647222219
 20
-264.2411557500001
 30
0.0
 11
93.59999036111111
 21
-264.2411557500001
 31
0.0
  0
LINE
  5
3F4
  8
DEFAULT
 62
     7
 10
97.59999647222219
 20
-251.6764460277778
 30
0.0
 11
97.59999647222219
 21
-264.2411557500001
 31
0.0
  0
LINE
  5
3F5
  8
DEFAULT
 62
     7
 10
97.59999647222219
 20
-251.6764460277778
 30
0.0
 11
93.59999036111111
 21
-251.6764460277778
 31
0.0
  0
LINE
  5
3F6
  8
DEFAULT
 62
     7
 10
93.59999036111111
 20
-239.5117510277779
 30
0.0
 11
93.59999036111111
 21
-251.6764460277778
 31
0.0
  0
LINE
  5
3F7
  8
DEFAULT
 62
     7
 10
97.59999647222219
 20
-239.5117510277779
 30
0.0
 11
93.59999036111111
 21
-239.5117510277779
 31
0.0
  0
LINE
  5
3F8
  8
DEFAULT
 62
     7
 10
97.59999647222219
 20
-226.9470413055557
 30
0.0
 11
97.59999647222219
 21
-239.5117510277779
 31
0.0
  0
LINE
  5
3F9
  8
DEFAULT
 62
     7
 10
97.59999647222219
 20
-226.9470413055557
 30
0.0
 11
93.59999036111111
 21
-226.9470413055557
 31
0.0
  0
LINE
  5
3FA
  8
DEFAULT
 62
     7
 10
93.59999036111111
 20
-214.7823463055555
 30
0.0
 11
93.59999036111111
 21
-226.9470413055557
 31
0.0
  0
LINE
  5
3FB
  8
DEFAULT
 62
     7
 10
97.59999647222219
 20
-214.7823463055555
 30
0.0
 11
93.59999036111111
 21
-214.7823463055555
 31
0.0
  0
LINE
  5
3FC
  8
DEFAULT
 62
     7
 10
97.59999647222219
 20
-202.2176365833333
 30
0.0
 11
97.59999647222219
 21
-214.7823463055555
 31
0.0
  0
LINE
  5
3FD
  8
DEFAULT
 62
     7
 10
97.59999647222219
 20
-202.2176365833333
 30
0.0
 11
93.59999036111111
 21
-202.2176365833333
 31
0.0
  0
LINE
  5
3FE
  8
DEFAULT
 62
     7
 10
93.59999036111111
 20
-190.0529063055556
 30
0.0
 11
93.59999036111111
 21
-202.2176365833333
 31
0.0
  0
LINE
  5
3FF
  8
DEFAULT
 62
     7
 10
97.59999647222219
 20
-190.0529063055556
 30
0.0
 11
93.59999036111111
 21
-190.0529063055556
 31
0.0
  0
LINE
  5
400
  8
DEFAULT
 62
     7
 10
97.59999647222219
 20
-177.4882318611111
 30
0.0
 11
97.59999647222219
 21
-190.0529063055556
 31
0.0
  0
LINE
  5
401
  8
DEFAULT
 62
     7
 10
97.59999647222219
 20
-177.4882318611111
 30
0.0
 11
93.59999036111111
 21
-177.4882318611111
 31
0.0
  0
LINE
  5
402
  8
DEFAULT
 62
     7
 10
93.59999036111111
 20
-165.3235015833333
 30
0.0
 11
93.59999036111111
 21
-177.4882318611111
 31
0.0
  0
LINE
  5
403
  8
DEFAULT
 62
     7
 10
97.59999647222219
 20
-165.3235015833333
 30
0.0
 11
93.59999036111111
 21
-165.3235015833333
 31
0.0
  0
LINE
  5
404
  8
DEFAULT
 62
     7
 10
97.59999647222219
 20
-152.758791861111
 30
0.0
 11
97.59999647222219
 21
-165.3235015833333
 31
0.0
  0
LINE
  5
405
  8
DEFAULT
 62
     7
 10
97.59999647222219
 20
-152.758791861111
 30
0.0
 11
93.59999036111111
 21
-152.758791861111
 31
0.0
  0
LINE
  5
406
  8
DEFAULT
 62
     7
 10
93.59999036111111
 20
-140.5940968611111
 30
0.0
 11
93.59999036111111
 21
-152.758791861111
 31
0.0
  0
LINE
  5
407
  8
DEFAULT
 62
     7
 10
97.59999647222219
 20
-140.5940968611111
 30
0.0
 11
93.59999036111111
 21
-140.5940968611111
 31
0.0
  0
LINE
  5
408
  8
DEFAULT
 62
     7
 10
97.59999647222219
 20
-128.0293871388889
 30
0.0
 11
97.59999647222219
 21
-140.5940968611111
 31
0.0
  0
LINE
  5
409
  8
DEFAULT
 62
     7
 10
97.59999647222219
 20
-128.0293871388889
 30
0.0
 11
93.59999036111111
 21
-128.0293871388889
 31
0.0
  0
LINE
  5
40A
  8
DEFAULT
 62
     7
 10
93.59999036111111
 20
-115.8646921388889
 30
0.0
 11
93.59999036111111
 21
-128.0293871388889
 31
0.0
  0
LINE
  5
40B
  8
DEFAULT
 62
     7
 10
97.59999647222219
 20
-115.8646921388889
 30
0.0
 11
93.59999036111111
 21
-115.8646921388889
 31
0.0
  0
LINE
  5
40C
  8
DEFAULT
 62
     7
 10
97.59999647222219
 20
-103.3999949166667
 30
0.0
 11
97.59999647222219
 21
-115.8646921388889
 31
0.0
  0
LINE
  5
40D
  8
DEFAULT
 62
     7
 10
17.39998683333329
 20
-301.1352907500001
 30
0.0
 11
17.39998683333329
 21
-309.59984075
 31
0.0
  0
LINE
  5
40E
  8
DEFAULT
 62
     7
 10
21.39998588888887
 20
-301.1352907500001
 30
0.0
 11
17.39998683333329
 21
-301.1352907500001
 31
0.0
  0
LINE
  5
40F
  8
DEFAULT
 62
     7
 10
21.39998588888887
 20
-288.9704546388888
 30
0.0
 11
21.39998588888887
 21
-301.1352907500001
 31
0.0
  0
LINE
  5
410
  8
DEFAULT
 62
     7
 10
21.39998588888887
 20
-288.9704546388888
 30
0.0
 11
17.39998683333329
 21
-288.9704546388888
 31
0.0
  0
LINE
  5
411
  8
DEFAULT
 62
     7
 10
17.39998683333329
 20
-276.4059213055556
 30
0.0
 11
17.39998683333329
 21
-288.9704546388888
 31
0.0
  0
LINE
  5
412
  8
DEFAULT
 62
     7
 10
21.39998588888887
 20
-276.4059213055556
 30
0.0
 11
17.39998683333329
 21
-276.4059213055556
 31
0.0
  0
LINE
  5
413
  8
DEFAULT
 62
     7
 10
21.39998588888887
 20
-264.2411557500001
 30
0.0
 11
21.39998588888887
 21
-276.4059213055556
 31
0.0
  0
LINE
  5
414
  8
DEFAULT
 62
     7
 10
21.39998588888887
 20
-264.2411557500001
 30
0.0
 11
17.39998683333329
 21
-264.2411557500001
 31
0.0
  0
LINE
  5
415
  8
DEFAULT
 62
     7
 10
17.39998683333329
 20
-251.6764460277778
 30
0.0
 11
17.39998683333329
 21
-264.2411557500001
 31
0.0
  0
LINE
  5
416
  8
DEFAULT
 62
     7
 10
21.39998588888887
 20
-251.6764460277778
 30
0.0
 11
17.39998683333329
 21
-251.6764460277778
 31
0.0
  0
LINE
  5
417
  8
DEFAULT
 62
     7
 10
21.39998588888887
 20
-239.5117510277779
 30
0.0
 11
21.39998588888887
 21
-251.6764460277778
 31
0.0
  0
LINE
  5
418
  8
DEFAULT
 62
     7
 10
21.39998588888887
 20
-239.5117510277779
 30
0.0
 11
17.39998683333329
 21
-239.5117510277779
 31
0.0
  0
LINE
  5
419
  8
DEFAULT
 62
     7
 10
17.39998683333329
 20
-226.9470413055557
 30
0.0
 11
17.39998683333329
 21
-239.5117510277779
 31
0.0
  0
LINE
  5
41A
  8
DEFAULT
 62
     7
 10
21.39998588888887
 20
-226.9470413055557
 30
0.0
 11
17.39998683333329
 21
-226.9470413055557
 31
0.0
  0
LINE
  5
41B
  8
DEFAULT
 62
     7
 10
21.39998588888887
 20
-214.7823463055555
 30
0.0
 11
21.39998588888887
 21
-226.9470413055557
 31
0.0
  0
LINE
  5
41C
  8
DEFAULT
 62
     7
 10
21.39998588888887
 20
-214.7823463055555
 30
0.0
 11
17.39998683333329
 21
-214.7823463055555
 31
0.0
  0
LINE
  5
41D
  8
DEFAULT
 62
     7
 10
17.39998683333329
 20
-202.2176365833333
 30
0.0
 11
17.39998683333329
 21
-214.7823463055555
 31
0.0
  0
LINE
  5
41E
  8
DEFAULT
 62
     7
 10
21.39998588888887
 20
-202.2176365833333
 30
0.0
 11
17.39998683333329
 21
-202.2176365833333
 31
0.0
  0
LINE
  5
41F
  8
DEFAULT
 62
     7
 10
21.39998588888887
 20
-190.0529063055556
 30
0.0
 11
21.39998588888887
 21
-202.2176365833333
 31
0.0
  0
LINE
  5
420
  8
DEFAULT
 62
     7
 10
21.39998588888887
 20
-190.0529063055556
 30
0.0
 11
17.39998683333329
 21
-190.0529063055556
 31
0.0
  0
LINE
  5
421
  8
DEFAULT
 62
     7
 10
17.39998683333329
 20
-177.4882318611111
 30
0.0
 11
17.39998683333329
 21
-190.0529063055556
 31
0.0
  0
LINE
  5
422
  8
DEFAULT
 62
     7
 10
21.39998588888887
 20
-177.4882318611111
 30
0.0
 11
17.39998683333329
 21
-177.4882318611111
 31
0.0
  0
LINE
  5
423
  8
DEFAULT
 62
     7
 10
21.39998588888887
 20
-165.3235015833333
 30
0.0
 11
21.39998588888887
 21
-177.4882318611111
 31
0.0
  0
LINE
  5
424
  8
DEFAULT
 62
     7
 10
21.39998588888887
 20
-165.3235015833333
 30
0.0
 11
17.39998683333329
 21
-165.3235015833333
 31
0.0
  0
LINE
  5
425
  8
DEFAULT
 62
     7
 10
17.39998683333329
 20
-152.758791861111
 30
0.0
 11
17.39998683333329
 21
-165.3235015833333
 31
0.0
  0
LINE
  5
426
  8
DEFAULT
 62
     7
 10
21.39998588888887
 20
-152.758791861111
 30
0.0
 11
17.39998683333329
 21
-152.758791861111
 31
0.0
  0
LINE
  5
427
  8
DEFAULT
 62
     7
 10
21.39998588888887
 20
-140.5940968611111
 30
0.0
 11
21.39998588888887
 21
-152.758791861111
 31
0.0
  0
LINE
  5
428
  8
DEFAULT
 62
     7
 10
21.39998588888887
 20
-140.5940968611111
 30
0.0
 11
17.39998683333329
 21
-140.5940968611111
 31
0.0
  0
LINE
  5
429
  8
DEFAULT
 62
     7
 10
17.39998683333329
 20
-128.0293871388889
 30
0.0
 11
17.39998683333329
 21
-140.5940968611111
 31
0.0
  0
LINE
  5
42A
  8
DEFAULT
 62
     7
 10
21.39998588888887
 20
-128.0293871388889
 30
0.0
 11
17.39998683333329
 21
-128.0293871388889
 31
0.0
  0
LINE
  5
42B
  8
DEFAULT
 62
     7
 10
21.39998588888887
 20
-115.8646921388889
 30
0.0
 11
21.39998588888887
 21
-128.0293871388889
 31
0.0
  0
LINE
  5
42C
  8
DEFAULT
 62
     7
 10
21.39998588888887
 20
-115.8646921388889
 30
0.0
 11
17.39998683333329
 21
-115.8646921388889
 31
0.0
  0
LINE
  5
42D
  8
DEFAULT
 62
     7
 10
17.39998683333329
 20
-103.3999949166667
 30
0.0
 11
17.39998683333329
 21
-115.8646921388889
 31
0.0
  0
ENDSEC
  0
EOF
